<svg width="410" height="240" viewBox="0 0 410 240" fill="none" xmlns="http://www.w3.org/2000/svg">
<path d="M0 24C0 10.7452 10.7452 0 24 0H307.285C318.239 0 327.803 7.41711 330.53 18.0266L344.485 72.332C346.048 78.4127 349.931 83.639 355.302 86.8901L410 120L355.302 153.11C349.931 156.361 346.048 161.587 344.485 167.668L330.53 221.973C327.803 232.583 318.239 240 307.285 240H24C10.7452 240 0 229.255 0 216V24Z" fill="#F6F5FD"/>
<path d="M115.232 28.878C115.232 30.796 113.692 32.14 111.172 32.14C108.638 32.14 107.056 30.782 106.902 28.654H109.058C109.114 29.76 109.828 30.474 111.13 30.474C112.208 30.474 112.978 29.998 112.978 29.186C112.978 28.556 112.488 28.178 111.634 28.01L109.982 27.688C108.456 27.394 107.28 26.568 107.28 24.902C107.28 23.11 108.862 21.822 111.032 21.822C113.286 21.822 114.938 23.138 115.078 25.238H112.922C112.852 24.188 112.124 23.474 111.06 23.474C110.024 23.474 109.436 24.062 109.436 24.762C109.436 25.448 110.066 25.742 110.794 25.882L112.516 26.232C114.28 26.582 115.232 27.394 115.232 28.878ZM119.881 32.126C117.641 32.126 116.143 30.572 116.143 28.234C116.143 26.008 117.697 24.384 119.853 24.384C122.219 24.384 123.787 26.302 123.437 28.738H118.131C118.257 29.956 118.845 30.628 119.839 30.628C120.693 30.628 121.267 30.208 121.491 29.466H123.423C123.003 31.16 121.701 32.126 119.881 32.126ZM119.811 25.812C118.901 25.812 118.327 26.4 118.159 27.506H121.379C121.323 26.47 120.735 25.812 119.811 25.812ZM129.193 32V31.076C128.703 31.776 127.961 32.14 126.939 32.14C125.385 32.14 124.349 31.23 124.349 29.83C124.349 28.374 125.525 27.59 127.709 27.59C128.129 27.59 128.493 27.618 128.955 27.674V27.226C128.955 26.386 128.479 25.896 127.667 25.896C126.827 25.896 126.323 26.386 126.253 27.226H124.503C124.615 25.504 125.861 24.384 127.667 24.384C129.627 24.384 130.775 25.462 130.775 27.296V32H129.193ZM126.183 29.774C126.183 30.404 126.631 30.796 127.359 30.796C128.353 30.796 128.955 30.25 128.955 29.382V28.85C128.493 28.78 128.171 28.752 127.835 28.752C126.729 28.752 126.183 29.102 126.183 29.774ZM134.398 28.374V32H132.452V24.524H134.244V25.966C134.79 25.014 135.952 24.44 137.156 24.44V26.456C135.504 26.33 134.398 26.722 134.398 28.374ZM141.262 32.14C139.106 32.14 137.622 30.544 137.622 28.262C137.622 26.022 139.162 24.384 141.262 24.384C143.208 24.384 144.65 25.7 144.888 27.716H142.844C142.746 26.722 142.144 26.106 141.262 26.106C140.254 26.106 139.61 26.932 139.61 28.262C139.61 29.606 140.24 30.418 141.262 30.418C142.158 30.418 142.732 29.83 142.844 28.808H144.888C144.664 30.866 143.264 32.14 141.262 32.14ZM148.083 27.926V32H146.137V21.948H148.083V25.504C148.601 24.818 149.245 24.384 150.225 24.384C151.723 24.384 152.759 25.364 152.759 27.17V32H150.827V27.828C150.827 26.722 150.393 26.106 149.511 26.106C148.741 26.106 148.083 26.722 148.083 27.926ZM165.048 29.046C165.048 30.908 163.676 32 161.464 32H157.53V21.948H161.31C163.424 21.948 164.726 22.9 164.726 24.622C164.726 25.546 164.208 26.288 163.312 26.75C164.432 27.142 165.048 27.94 165.048 29.046ZM161.142 23.628H159.462V25.966H161.142C162.178 25.966 162.71 25.518 162.71 24.79C162.71 24.076 162.178 23.628 161.142 23.628ZM161.296 27.66H159.462V30.32H161.296C162.444 30.32 163.046 29.816 163.046 28.962C163.046 28.164 162.444 27.66 161.296 27.66ZM173.024 24.524L169.384 34.702H167.27L168.334 31.916L165.394 24.524H167.494L169.37 29.648L171.078 24.524H173.024ZM183.467 32H176.971V21.948H179.099V30.082H183.467V32ZM187.9 32.14C185.73 32.14 184.106 30.432 184.106 28.262C184.106 26.078 185.73 24.384 187.9 24.384C190.07 24.384 191.694 26.078 191.694 28.262C191.694 30.432 190.07 32.14 187.9 32.14ZM187.9 30.418C188.866 30.418 189.692 29.648 189.692 28.262C189.692 26.876 188.866 26.12 187.9 26.12C186.934 26.12 186.108 26.876 186.108 28.262C186.108 29.648 186.934 30.418 187.9 30.418ZM196.086 32.14C193.93 32.14 192.446 30.544 192.446 28.262C192.446 26.022 193.986 24.384 196.086 24.384C198.032 24.384 199.474 25.7 199.712 27.716H197.668C197.57 26.722 196.968 26.106 196.086 26.106C195.078 26.106 194.434 26.932 194.434 28.262C194.434 29.606 195.064 30.418 196.086 30.418C196.982 30.418 197.556 29.83 197.668 28.808H199.712C199.488 30.866 198.088 32.14 196.086 32.14ZM205.414 32V31.076C204.924 31.776 204.182 32.14 203.16 32.14C201.606 32.14 200.57 31.23 200.57 29.83C200.57 28.374 201.746 27.59 203.93 27.59C204.35 27.59 204.714 27.618 205.176 27.674V27.226C205.176 26.386 204.7 25.896 203.888 25.896C203.048 25.896 202.544 26.386 202.474 27.226H200.724C200.836 25.504 202.082 24.384 203.888 24.384C205.848 24.384 206.996 25.462 206.996 27.296V32H205.414ZM202.404 29.774C202.404 30.404 202.852 30.796 203.58 30.796C204.574 30.796 205.176 30.25 205.176 29.382V28.85C204.714 28.78 204.392 28.752 204.056 28.752C202.95 28.752 202.404 29.102 202.404 29.774ZM213.211 30.11V31.804C212.735 32.042 212.287 32.14 211.713 32.14C210.173 32.14 209.207 31.258 209.207 29.578V26.19H207.695V24.524H209.207V22.312H211.139V24.524H213.281V26.19H211.139V29.13C211.139 29.998 211.531 30.348 212.231 30.348C212.595 30.348 212.931 30.264 213.211 30.11ZM216.723 22.788C216.723 23.446 216.191 23.936 215.421 23.936C214.665 23.936 214.133 23.446 214.133 22.788C214.133 22.102 214.665 21.612 215.421 21.612C216.191 21.612 216.723 22.102 216.723 22.788ZM216.415 32H214.469V24.524H216.415V32ZM221.451 32.14C219.281 32.14 217.657 30.432 217.657 28.262C217.657 26.078 219.281 24.384 221.451 24.384C223.621 24.384 225.245 26.078 225.245 28.262C225.245 30.432 223.621 32.14 221.451 32.14ZM221.451 30.418C222.417 30.418 223.243 29.648 223.243 28.262C223.243 26.876 222.417 26.12 221.451 26.12C220.485 26.12 219.659 26.876 219.659 28.262C219.659 29.648 220.485 30.418 221.451 30.418ZM228.433 27.926V32H226.487V24.524H228.279V25.588C228.825 24.846 229.595 24.384 230.575 24.384C232.073 24.384 233.109 25.364 233.109 27.17V32H231.177V27.828C231.177 26.722 230.743 26.106 229.861 26.106C229.091 26.106 228.433 26.722 228.433 27.926Z" fill="#6D2ECC"/>
<rect x="69.2083" y="43.2083" width="201.983" height="180.159" rx="4.79127" fill="white"/>
<rect x="69.2083" y="43.2083" width="201.983" height="180.159" rx="4.79127" stroke="#E7E7E7" stroke-width="0.416632"/>
<path d="M79.5478 58.9991V54.9161H80.3061V58.3575H82.4409V58.9991H79.5478ZM84.3409 59.04C84.0221 59.04 83.7382 58.9719 83.4894 58.8358C83.2405 58.6958 83.0441 58.5053 82.9002 58.2642C82.7564 58.0231 82.6844 57.749 82.6844 57.4418C82.6844 57.1307 82.7564 56.8565 82.9002 56.6193C83.0441 56.3782 83.2405 56.1897 83.4894 56.0536C83.7382 55.9175 84.0221 55.8494 84.3409 55.8494C84.6637 55.8494 84.9495 55.9175 85.1984 56.0536C85.4511 56.1897 85.6475 56.3763 85.7875 56.6135C85.9314 56.8507 86.0033 57.1268 86.0033 57.4418C86.0033 57.749 85.9314 58.0231 85.7875 58.2642C85.6475 58.5053 85.4511 58.6958 85.1984 58.8358C84.9495 58.9719 84.6637 59.04 84.3409 59.04ZM84.3409 58.4159C84.5198 58.4159 84.6793 58.377 84.8192 58.2992C84.9592 58.2214 85.0681 58.1087 85.1459 57.9609C85.2275 57.8131 85.2684 57.6401 85.2684 57.4418C85.2684 57.2396 85.2275 57.0665 85.1459 56.9226C85.0681 56.7749 84.9592 56.6621 84.8192 56.5843C84.6793 56.5066 84.5218 56.4677 84.3468 56.4677C84.1679 56.4677 84.0085 56.5066 83.8685 56.5843C83.7324 56.6621 83.6235 56.7749 83.5418 56.9226C83.4602 57.0665 83.4194 57.2396 83.4194 57.4418C83.4194 57.6401 83.4602 57.8131 83.5418 57.9609C83.6235 58.1087 83.7324 58.2214 83.8685 58.2992C84.0085 58.377 84.166 58.4159 84.3409 58.4159ZM88.1296 59.04C87.8029 59.04 87.5113 58.9719 87.2546 58.8358C87.0019 58.6958 86.8036 58.5053 86.6597 58.2642C86.5158 58.0231 86.4439 57.749 86.4439 57.4418C86.4439 57.1307 86.5158 56.8565 86.6597 56.6193C86.8036 56.3782 87.0019 56.1897 87.2546 56.0536C87.5113 55.9175 87.8029 55.8494 88.1296 55.8494C88.4329 55.8494 88.6992 55.9116 88.9287 56.0361C89.162 56.1566 89.3389 56.3355 89.4595 56.5727L88.8995 56.8993C88.8062 56.7516 88.6915 56.6427 88.5554 56.5727C88.4232 56.5027 88.2793 56.4677 88.1237 56.4677C87.9449 56.4677 87.7835 56.5066 87.6396 56.5843C87.4957 56.6621 87.383 56.7749 87.3013 56.9226C87.2196 57.0665 87.1788 57.2396 87.1788 57.4418C87.1788 57.644 87.2196 57.819 87.3013 57.9667C87.383 58.1106 87.4957 58.2214 87.6396 58.2992C87.7835 58.377 87.9449 58.4159 88.1237 58.4159C88.2793 58.4159 88.4232 58.3809 88.5554 58.3109C88.6915 58.2409 88.8062 58.132 88.8995 57.9842L89.4595 58.3109C89.3389 58.5442 89.162 58.725 88.9287 58.8533C88.6992 58.9778 88.4329 59.04 88.1296 59.04ZM92.0087 58.9991V58.3692L91.9679 58.235V57.1326C91.9679 56.9188 91.9037 56.7535 91.7754 56.6368C91.6471 56.5163 91.4527 56.456 91.1921 56.456C91.0172 56.456 90.8441 56.4832 90.673 56.5377C90.5058 56.5921 90.3639 56.6679 90.2472 56.7652L89.9614 56.2344C90.1286 56.106 90.3269 56.0108 90.5564 55.9486C90.7897 55.8825 91.0308 55.8494 91.2796 55.8494C91.7307 55.8494 92.0787 55.9583 92.3237 56.176C92.5726 56.3899 92.697 56.7224 92.697 57.1735V58.9991H92.0087ZM91.0288 59.04C90.7955 59.04 90.5914 59.0011 90.4164 58.9233C90.2414 58.8417 90.1053 58.7308 90.0081 58.5908C89.9147 58.447 89.8681 58.2856 89.8681 58.1067C89.8681 57.9317 89.9089 57.7742 89.9906 57.6343C90.0761 57.4943 90.2142 57.3834 90.4047 57.3018C90.5952 57.2201 90.848 57.1793 91.163 57.1793H92.0671V57.6634H91.2155C90.9666 57.6634 90.7994 57.7043 90.7138 57.7859C90.6283 57.8637 90.5855 57.9609 90.5855 58.0776C90.5855 58.2098 90.638 58.3148 90.743 58.3925C90.848 58.4703 90.9938 58.5092 91.1805 58.5092C91.3593 58.5092 91.5188 58.4684 91.6588 58.3867C91.8026 58.305 91.9057 58.1845 91.9679 58.0251L92.0904 58.4625C92.0204 58.6453 91.894 58.7872 91.7113 58.8883C91.5324 58.9894 91.3049 59.04 91.0288 59.04ZM94.8051 59.04C94.4629 59.04 94.1985 58.9525 94.0119 58.7775C93.8252 58.5986 93.7319 58.3361 93.7319 57.9901V55.1961H94.461V57.9726C94.461 58.1203 94.4979 58.235 94.5718 58.3167C94.6496 58.3984 94.7565 58.4392 94.8926 58.4392C95.0559 58.4392 95.192 58.3964 95.3009 58.3109L95.5051 58.83C95.4195 58.9 95.3145 58.9525 95.1901 58.9875C95.0657 59.0225 94.9373 59.04 94.8051 59.04ZM93.2186 56.491V55.9077H95.2951V56.491H93.2186ZM96.1049 58.9991V55.8844H96.834V58.9991H96.1049ZM96.4723 55.3711C96.3362 55.3711 96.2235 55.3283 96.134 55.2428C96.0485 55.1572 96.0057 55.0542 96.0057 54.9336C96.0057 54.8092 96.0485 54.7062 96.134 54.6245C96.2235 54.539 96.3362 54.4962 96.4723 54.4962C96.6084 54.4962 96.7193 54.537 96.8048 54.6187C96.8942 54.6964 96.939 54.7956 96.939 54.9161C96.939 55.0445 96.8962 55.1533 96.8106 55.2428C96.7251 55.3283 96.6123 55.3711 96.4723 55.3711ZM99.1908 59.04C98.8719 59.04 98.5881 58.9719 98.3392 58.8358C98.0903 58.6958 97.894 58.5053 97.7501 58.2642C97.6062 58.0231 97.5343 57.749 97.5343 57.4418C97.5343 57.1307 97.6062 56.8565 97.7501 56.6193C97.894 56.3782 98.0903 56.1897 98.3392 56.0536C98.5881 55.9175 98.8719 55.8494 99.1908 55.8494C99.5136 55.8494 99.7994 55.9175 100.048 56.0536C100.301 56.1897 100.497 56.3763 100.637 56.6135C100.781 56.8507 100.853 57.1268 100.853 57.4418C100.853 57.749 100.781 58.0231 100.637 58.2642C100.497 58.5053 100.301 58.6958 100.048 58.8358C99.7994 58.9719 99.5136 59.04 99.1908 59.04ZM99.1908 58.4159C99.3697 58.4159 99.5291 58.377 99.6691 58.2992C99.8091 58.2214 99.918 58.1087 99.9957 57.9609C100.077 57.8131 100.118 57.6401 100.118 57.4418C100.118 57.2396 100.077 57.0665 99.9957 56.9226C99.918 56.7749 99.8091 56.6621 99.6691 56.5843C99.5291 56.5066 99.3716 56.4677 99.1966 56.4677C99.0178 56.4677 98.8583 56.5066 98.7183 56.5843C98.5822 56.6621 98.4734 56.7749 98.3917 56.9226C98.31 57.0665 98.2692 57.2396 98.2692 57.4418C98.2692 57.6401 98.31 57.8131 98.3917 57.9609C98.4734 58.1087 98.5822 58.2214 98.7183 58.2992C98.8583 58.377 99.0158 58.4159 99.1908 58.4159ZM103.318 55.8494C103.567 55.8494 103.788 55.898 103.983 55.9952C104.181 56.0924 104.337 56.2421 104.449 56.4444C104.562 56.6427 104.618 56.8993 104.618 57.2143V58.9991H103.889V57.3076C103.889 57.0315 103.823 56.8254 103.691 56.6893C103.563 56.5532 103.382 56.4852 103.149 56.4852C102.977 56.4852 102.826 56.5202 102.694 56.5902C102.561 56.6602 102.458 56.7652 102.384 56.9052C102.314 57.0413 102.279 57.2143 102.279 57.4243V58.9991H101.55V55.8844H102.244V56.7243L102.122 56.4677C102.231 56.2694 102.388 56.1177 102.594 56.0127C102.804 55.9038 103.046 55.8494 103.318 55.8494Z" fill="#444444"/>
<rect x="78.9995" y="63.3322" width="182.402" height="16.9992" rx="3.33306" fill="#F3F3F3"/>
<path d="M88.4305 74.3667C88.1233 74.3667 87.8394 74.3162 87.5789 74.2151C87.3183 74.1101 87.0928 73.9643 86.9023 73.7776C86.7117 73.591 86.562 73.3712 86.4531 73.1185C86.3481 72.8657 86.2956 72.5896 86.2956 72.2902C86.2956 71.9908 86.3481 71.7147 86.4531 71.462C86.562 71.2092 86.7117 70.9895 86.9023 70.8028C87.0967 70.6162 87.3242 70.4723 87.5847 70.3712C87.8452 70.2662 88.1291 70.2137 88.4363 70.2137C88.7318 70.2137 89.0099 70.2643 89.2704 70.3654C89.5309 70.4626 89.7506 70.6104 89.9295 70.8087L89.6554 71.0828C89.4882 70.9117 89.3035 70.7892 89.1013 70.7154C88.899 70.6376 88.6813 70.5987 88.448 70.5987C88.203 70.5987 87.9755 70.6415 87.7655 70.727C87.5555 70.8087 87.3728 70.9273 87.2172 71.0828C87.0617 71.2345 86.9392 71.4134 86.8498 71.6194C86.7642 71.8217 86.7214 72.0452 86.7214 72.2902C86.7214 72.5352 86.7642 72.7607 86.8498 72.9668C86.9392 73.169 87.0617 73.3479 87.2172 73.5035C87.3728 73.6551 87.5555 73.7737 87.7655 73.8593C87.9755 73.9409 88.203 73.9818 88.448 73.9818C88.6813 73.9818 88.899 73.9429 89.1013 73.8651C89.3035 73.7873 89.4882 73.6629 89.6554 73.4918L89.9295 73.7659C89.7506 73.9643 89.5309 74.114 89.2704 74.2151C89.0099 74.3162 88.7299 74.3667 88.4305 74.3667ZM90.7622 74.3317V71.2695H91.1763V74.3317H90.7622ZM90.9721 70.5929C90.8866 70.5929 90.8147 70.5637 90.7563 70.5054C90.698 70.447 90.6688 70.3771 90.6688 70.2954C90.6688 70.2137 90.698 70.1457 90.7563 70.0912C90.8147 70.0329 90.8866 70.0037 90.9721 70.0037C91.0577 70.0037 91.1296 70.031 91.188 70.0854C91.2463 70.1398 91.2754 70.2079 91.2754 70.2896C91.2754 70.3751 91.2463 70.447 91.188 70.5054C91.1335 70.5637 91.0616 70.5929 90.9721 70.5929ZM93.2969 74.3609C93.0091 74.3609 92.7874 74.2831 92.6319 74.1276C92.4764 73.972 92.3986 73.7523 92.3986 73.4685V70.5929H92.8127V73.4451C92.8127 73.624 92.8574 73.7621 92.9469 73.8593C93.0402 73.9565 93.1724 74.0051 93.3435 74.0051C93.5263 74.0051 93.6779 73.9526 93.7985 73.8476L93.9443 74.1451C93.8626 74.219 93.7635 74.2734 93.6468 74.3084C93.5341 74.3434 93.4174 74.3609 93.2969 74.3609ZM91.8503 71.6136V71.2695H93.746V71.6136H91.8503ZM94.6646 75.4925C94.5207 75.4925 94.3826 75.4691 94.2504 75.4225C94.1221 75.3758 94.0113 75.3058 93.918 75.2125L94.1104 74.9033C94.1882 74.9772 94.2718 75.0336 94.3613 75.0725C94.4546 75.1153 94.5576 75.1367 94.6704 75.1367C94.8065 75.1367 94.9232 75.0978 95.0204 75.02C95.1215 74.9461 95.2167 74.8139 95.3062 74.6234L95.5045 74.1742L95.5512 74.1101L96.8111 71.2695H97.2194L95.6853 74.6992C95.5998 74.8975 95.5045 75.055 95.3995 75.1717C95.2984 75.2883 95.1876 75.37 95.067 75.4166C94.9465 75.4672 94.8123 75.4925 94.6646 75.4925ZM95.4812 74.4192L94.0696 71.2695H94.5012L95.7495 74.0809L95.4812 74.4192ZM97.3524 75.1833L97.6091 74.1042L97.6557 74.3551C97.5663 74.3551 97.4905 74.3259 97.4282 74.2676C97.3699 74.2092 97.3408 74.1334 97.3408 74.0401C97.3408 73.9468 97.3699 73.8709 97.4282 73.8126C97.4905 73.7543 97.5643 73.7251 97.6499 73.7251C97.7393 73.7251 97.8113 73.7562 97.8657 73.8184C97.924 73.8807 97.9532 73.9545 97.9532 74.0401C97.9532 74.0712 97.9513 74.1023 97.9474 74.1334C97.9435 74.1645 97.9357 74.1995 97.924 74.2384C97.9124 74.2773 97.8968 74.3239 97.8774 74.3784L97.6324 75.1833H97.3524ZM101.579 74.3667C101.276 74.3667 100.984 74.3181 100.704 74.2209C100.428 74.1198 100.214 73.9915 100.063 73.8359L100.232 73.5035C100.376 73.6434 100.568 73.7621 100.809 73.8593C101.054 73.9526 101.311 73.9993 101.579 73.9993C101.836 73.9993 102.044 73.9681 102.203 73.9059C102.367 73.8398 102.485 73.7523 102.559 73.6434C102.637 73.5346 102.676 73.414 102.676 73.2818C102.676 73.1224 102.629 72.9941 102.536 72.8968C102.446 72.7996 102.328 72.7238 102.18 72.6694C102.032 72.611 101.869 72.5605 101.69 72.5177C101.511 72.4749 101.332 72.4302 101.153 72.3836C100.974 72.333 100.809 72.2669 100.658 72.1852C100.51 72.1036 100.389 71.9966 100.296 71.8644C100.206 71.7283 100.162 71.5514 100.162 71.3336C100.162 71.1314 100.214 70.9467 100.319 70.7795C100.428 70.6084 100.593 70.4723 100.815 70.3712C101.037 70.2662 101.321 70.2137 101.667 70.2137C101.896 70.2137 102.123 70.2468 102.349 70.3129C102.575 70.3751 102.769 70.4626 102.932 70.5754L102.786 70.9195C102.612 70.8028 102.425 70.7173 102.227 70.6629C102.032 70.6084 101.844 70.5812 101.661 70.5812C101.416 70.5812 101.214 70.6143 101.054 70.6804C100.895 70.7465 100.776 70.8359 100.698 70.9487C100.624 71.0576 100.588 71.182 100.588 71.322C100.588 71.4814 100.632 71.6097 100.722 71.7069C100.815 71.8042 100.936 71.88 101.083 71.9344C101.235 71.9889 101.4 72.0375 101.579 72.0802C101.758 72.123 101.935 72.1697 102.11 72.2202C102.289 72.2708 102.452 72.3369 102.6 72.4185C102.751 72.4963 102.872 72.6013 102.961 72.7335C103.055 72.8657 103.101 73.0388 103.101 73.2526C103.101 73.451 103.047 73.6357 102.938 73.8068C102.829 73.974 102.662 74.1101 102.437 74.2151C102.215 74.3162 101.929 74.3667 101.579 74.3667ZM104.923 74.3609C104.635 74.3609 104.413 74.2831 104.258 74.1276C104.102 73.972 104.024 73.7523 104.024 73.4685V70.5929H104.439V73.4451C104.439 73.624 104.483 73.7621 104.573 73.8593C104.666 73.9565 104.798 74.0051 104.969 74.0051C105.152 74.0051 105.304 73.9526 105.424 73.8476L105.57 74.1451C105.488 74.219 105.389 74.2734 105.273 74.3084C105.16 74.3434 105.043 74.3609 104.923 74.3609ZM103.476 71.6136V71.2695H105.372V71.6136H103.476ZM108.243 74.3317V73.6551L108.226 73.5443V72.4127C108.226 72.1522 108.152 71.9519 108.004 71.8119C107.86 71.6719 107.644 71.6019 107.356 71.6019C107.158 71.6019 106.97 71.635 106.791 71.7011C106.612 71.7672 106.46 71.8547 106.336 71.9636L106.149 71.6544C106.305 71.5222 106.491 71.4211 106.709 71.3511C106.927 71.2773 107.156 71.2403 107.397 71.2403C107.794 71.2403 108.099 71.3395 108.313 71.5378C108.531 71.7322 108.64 72.0297 108.64 72.4302V74.3317H108.243ZM107.187 74.3609C106.958 74.3609 106.758 74.3239 106.587 74.2501C106.419 74.1723 106.291 74.0673 106.202 73.9351C106.112 73.799 106.067 73.6434 106.067 73.4685C106.067 73.309 106.104 73.1652 106.178 73.0368C106.256 72.9046 106.38 72.7996 106.552 72.7219C106.726 72.6402 106.96 72.5994 107.251 72.5994H108.307V72.9085H107.263C106.968 72.9085 106.761 72.961 106.645 73.066C106.532 73.171 106.476 73.3013 106.476 73.4568C106.476 73.6318 106.544 73.7718 106.68 73.8768C106.816 73.9818 107.006 74.0343 107.251 74.0343C107.485 74.0343 107.685 73.9818 107.852 73.8768C108.023 73.7679 108.148 73.6123 108.226 73.4101L108.319 73.6959C108.241 73.8982 108.105 74.0595 107.911 74.1801C107.72 74.3006 107.479 74.3609 107.187 74.3609ZM110.733 74.3609C110.445 74.3609 110.223 74.2831 110.068 74.1276C109.912 73.972 109.834 73.7523 109.834 73.4685V70.5929H110.249V73.4451C110.249 73.624 110.293 73.7621 110.383 73.8593C110.476 73.9565 110.608 74.0051 110.779 74.0051C110.962 74.0051 111.114 73.9526 111.234 73.8476L111.38 74.1451C111.299 74.219 111.199 74.2734 111.083 74.3084C110.97 74.3434 110.853 74.3609 110.733 74.3609ZM109.286 71.6136V71.2695H111.182V71.6136H109.286ZM113.327 74.3609C113.008 74.3609 112.728 74.2948 112.487 74.1626C112.246 74.0265 112.057 73.8418 111.921 73.6085C111.785 73.3712 111.717 73.101 111.717 72.7977C111.717 72.4944 111.781 72.2261 111.909 71.9928C112.041 71.7594 112.22 71.5767 112.446 71.4445C112.675 71.3084 112.932 71.2403 113.216 71.2403C113.504 71.2403 113.758 71.3064 113.98 71.4386C114.205 71.567 114.382 71.7497 114.511 71.9869C114.639 72.2202 114.703 72.4905 114.703 72.7977C114.703 72.8171 114.701 72.8385 114.697 72.8618C114.697 72.8813 114.697 72.9027 114.697 72.926H112.032V72.6169H114.476L114.312 72.7394C114.312 72.5177 114.264 72.3213 114.167 72.1502C114.073 71.9753 113.945 71.8392 113.782 71.7419C113.618 71.6447 113.43 71.5961 113.216 71.5961C113.006 71.5961 112.817 71.6447 112.65 71.7419C112.483 71.8392 112.353 71.9753 112.259 72.1502C112.166 72.3252 112.119 72.5255 112.119 72.751V72.8152C112.119 73.0485 112.17 73.2546 112.271 73.4335C112.376 73.6085 112.52 73.7465 112.702 73.8476C112.889 73.9448 113.101 73.9934 113.338 73.9934C113.525 73.9934 113.698 73.9604 113.857 73.8943C114.021 73.8282 114.161 73.7271 114.277 73.591L114.511 73.8593C114.375 74.0226 114.203 74.147 113.997 74.2326C113.795 74.3181 113.572 74.3609 113.327 74.3609ZM118.321 74.3609C118.025 74.3609 117.759 74.2948 117.522 74.1626C117.288 74.0265 117.104 73.8418 116.968 73.6085C116.832 73.3712 116.764 73.101 116.764 72.7977C116.764 72.4905 116.832 72.2202 116.968 71.9869C117.104 71.7536 117.288 71.5708 117.522 71.4386C117.755 71.3064 118.021 71.2403 118.321 71.2403C118.624 71.2403 118.893 71.3064 119.126 71.4386C119.363 71.5708 119.548 71.7536 119.68 71.9869C119.816 72.2202 119.884 72.4905 119.884 72.7977C119.884 73.101 119.816 73.3712 119.68 73.6085C119.548 73.8418 119.363 74.0265 119.126 74.1626C118.889 74.2948 118.62 74.3609 118.321 74.3609ZM118.321 73.9934C118.543 73.9934 118.739 73.9448 118.91 73.8476C119.081 73.7465 119.215 73.6065 119.312 73.4276C119.414 73.2449 119.464 73.0349 119.464 72.7977C119.464 72.5566 119.414 72.3466 119.312 72.1677C119.215 71.9889 119.081 71.8508 118.91 71.7536C118.739 71.6525 118.544 71.6019 118.327 71.6019C118.109 71.6019 117.915 71.6525 117.743 71.7536C117.572 71.8508 117.436 71.9889 117.335 72.1677C117.234 72.3466 117.183 72.5566 117.183 72.7977C117.183 73.0349 117.234 73.2449 117.335 73.4276C117.436 73.6065 117.572 73.7465 117.743 73.8476C117.915 73.9448 118.107 73.9934 118.321 73.9934ZM120.73 74.3317V71.2695H121.126V72.1036L121.085 71.9578C121.171 71.7244 121.315 71.5475 121.517 71.427C121.719 71.3025 121.97 71.2403 122.269 71.2403V71.6428C122.254 71.6428 122.238 71.6428 122.223 71.6428C122.207 71.6389 122.192 71.6369 122.176 71.6369C121.853 71.6369 121.601 71.7361 121.418 71.9344C121.235 72.1289 121.144 72.4069 121.144 72.7685V74.3317H120.73ZM124.282 74.3317V74.0343L127.117 70.4587L127.164 70.622H124.323V70.2487H127.56V70.5462L124.731 74.1217L124.679 73.9584H127.63V74.3317H124.282ZM128.397 74.3317V71.2695H128.811V74.3317H128.397ZM128.607 70.5929C128.521 70.5929 128.449 70.5637 128.391 70.5054C128.332 70.447 128.303 70.3771 128.303 70.2954C128.303 70.2137 128.332 70.1457 128.391 70.0912C128.449 70.0329 128.521 70.0037 128.607 70.0037C128.692 70.0037 128.764 70.031 128.822 70.0854C128.881 70.1398 128.91 70.2079 128.91 70.2896C128.91 70.3751 128.881 70.447 128.822 70.5054C128.768 70.5637 128.696 70.5929 128.607 70.5929ZM131.544 74.3609C131.279 74.3609 131.04 74.3006 130.826 74.1801C130.612 74.0556 130.441 73.8787 130.313 73.6493C130.189 73.416 130.126 73.1321 130.126 72.7977C130.126 72.4633 130.189 72.1813 130.313 71.9519C130.437 71.7186 130.607 71.5417 130.82 71.4211C131.034 71.3006 131.275 71.2403 131.544 71.2403C131.835 71.2403 132.096 71.3064 132.325 71.4386C132.559 71.567 132.741 71.7497 132.874 71.9869C133.006 72.2202 133.072 72.4905 133.072 72.7977C133.072 73.1088 133.006 73.381 132.874 73.6143C132.741 73.8476 132.559 74.0304 132.325 74.1626C132.096 74.2948 131.835 74.3609 131.544 74.3609ZM129.963 75.4633V71.2695H130.36V72.1911L130.319 72.8035L130.377 73.4218V75.4633H129.963ZM131.515 73.9934C131.732 73.9934 131.927 73.9448 132.098 73.8476C132.269 73.7465 132.405 73.6065 132.506 73.4276C132.607 73.2449 132.658 73.0349 132.658 72.7977C132.658 72.5605 132.607 72.3524 132.506 72.1736C132.405 71.9947 132.269 71.8547 132.098 71.7536C131.927 71.6525 131.732 71.6019 131.515 71.6019C131.297 71.6019 131.1 71.6525 130.925 71.7536C130.754 71.8547 130.618 71.9947 130.517 72.1736C130.42 72.3524 130.371 72.5605 130.371 72.7977C130.371 73.0349 130.42 73.2449 130.517 73.4276C130.618 73.6065 130.754 73.7465 130.925 73.8476C131.1 73.9448 131.297 73.9934 131.515 73.9934Z" fill="#6C6C6C"/>
<path d="M80.3761 92.9976V89.5562H79.0228V88.9146H82.4876V89.5562H81.1343V92.9976H80.3761ZM83.0496 94.17C82.898 94.17 82.7463 94.1447 82.5946 94.0941C82.443 94.0436 82.3166 93.9736 82.2155 93.8842L82.5072 93.3475C82.581 93.4136 82.6646 93.4661 82.758 93.505C82.8513 93.5439 82.9466 93.5633 83.0438 93.5633C83.176 93.5633 83.2829 93.5303 83.3646 93.4642C83.4462 93.3981 83.5221 93.2873 83.5921 93.1317L83.7729 92.7234L83.8312 92.6359L85.0094 89.8828H85.7094L84.2512 93.2484C84.154 93.4817 84.0451 93.6664 83.9245 93.8025C83.8079 93.9386 83.6757 94.0339 83.5279 94.0883C83.384 94.1427 83.2246 94.17 83.0496 94.17ZM83.6912 93.1084L82.2855 89.8828H83.0438L84.187 92.5718L83.6912 93.1084ZM87.8916 93.0384C87.6389 93.0384 87.4075 92.9801 87.1975 92.8634C86.9914 92.7467 86.8261 92.5718 86.7017 92.3384C86.5812 92.1012 86.5209 91.8018 86.5209 91.4402C86.5209 91.0747 86.5792 90.7752 86.6959 90.5419C86.8164 90.3086 86.9797 90.1356 87.1858 90.0228C87.3919 89.9061 87.6272 89.8478 87.8916 89.8478C88.1988 89.8478 88.4691 89.9139 88.7024 90.0461C88.9396 90.1783 89.1262 90.3631 89.2623 90.6003C89.4023 90.8375 89.4723 91.1174 89.4723 91.4402C89.4723 91.7629 89.4023 92.0449 89.2623 92.286C89.1262 92.5232 88.9396 92.7079 88.7024 92.8401C88.4691 92.9723 88.1988 93.0384 87.8916 93.0384ZM86.1651 94.1291V89.8828H86.8592V90.6178L86.8359 91.446L86.8942 92.2743V94.1291H86.1651ZM87.8099 92.4143C87.9849 92.4143 88.1405 92.3754 88.2766 92.2976C88.4166 92.2198 88.5274 92.1071 88.609 91.9593C88.6907 91.8115 88.7315 91.6385 88.7315 91.4402C88.7315 91.238 88.6907 91.0649 88.609 90.9211C88.5274 90.7733 88.4166 90.6605 88.2766 90.5828C88.1405 90.505 87.9849 90.4661 87.8099 90.4661C87.635 90.4661 87.4775 90.505 87.3375 90.5828C87.1975 90.6605 87.0867 90.7733 87.005 90.9211C86.9234 91.0649 86.8825 91.238 86.8825 91.4402C86.8825 91.6385 86.9234 91.8115 87.005 91.9593C87.0867 92.1071 87.1975 92.2198 87.3375 92.2976C87.4775 92.3754 87.635 92.4143 87.8099 92.4143ZM91.6278 93.0384C91.2817 93.0384 90.9784 92.9703 90.7179 92.8342C90.4613 92.6943 90.261 92.5037 90.1171 92.2626C89.9771 92.0215 89.9071 91.7474 89.9071 91.4402C89.9071 91.1291 89.9752 90.855 90.1113 90.6178C90.2513 90.3767 90.4418 90.1881 90.6829 90.052C90.9279 89.9159 91.2059 89.8478 91.517 89.8478C91.8203 89.8478 92.0906 89.9139 92.3278 90.0461C92.565 90.1783 92.7516 90.365 92.8877 90.6061C93.0238 90.8472 93.0919 91.131 93.0919 91.4577C93.0919 91.4888 93.0899 91.5238 93.086 91.5627C93.086 91.6016 93.0841 91.6385 93.0802 91.6735H90.4846V91.1894H92.6952L92.4094 91.341C92.4133 91.1622 92.3764 91.0047 92.2986 90.8686C92.2208 90.7325 92.1139 90.6255 91.9778 90.5478C91.8456 90.47 91.692 90.4311 91.517 90.4311C91.3381 90.4311 91.1806 90.47 91.0445 90.5478C90.9123 90.6255 90.8073 90.7344 90.7296 90.8744C90.6557 91.0105 90.6187 91.1719 90.6187 91.3585V91.4752C90.6187 91.6618 90.6615 91.8271 90.7471 91.971C90.8326 92.1149 90.9532 92.2257 91.1087 92.3034C91.2642 92.3812 91.4431 92.4201 91.6453 92.4201C91.8203 92.4201 91.9778 92.3929 92.1178 92.3384C92.2578 92.284 92.3822 92.1985 92.4911 92.0818L92.8819 92.5309C92.7419 92.6943 92.565 92.8206 92.3511 92.9101C92.1411 92.9956 91.9 93.0384 91.6278 93.0384Z" fill="#444444"/>
<rect x="78.9995" y="97.3306" width="182.402" height="16.9992" rx="3.33306" fill="#F3F3F3"/>
<path d="M86.4962 108.33V104.247H88.0244C88.3705 104.247 88.6679 104.303 88.9168 104.416C89.1657 104.525 89.3562 104.685 89.4884 104.895C89.6245 105.101 89.6926 105.351 89.6926 105.647C89.6926 105.935 89.6245 106.184 89.4884 106.394C89.3562 106.6 89.1657 106.759 88.9168 106.872C88.6679 106.985 88.3705 107.041 88.0244 107.041H86.7353L86.9278 106.837V108.33H86.4962ZM86.9278 106.872L86.7353 106.662H88.0127C88.421 106.662 88.7301 106.574 88.9401 106.399C89.154 106.221 89.2609 105.97 89.2609 105.647C89.2609 105.32 89.154 105.068 88.9401 104.889C88.7301 104.71 88.421 104.62 88.0127 104.62H86.7353L86.9278 104.416V106.872ZM90.5953 108.33V104.002H91.0095V108.33H90.5953ZM93.4625 108.359C93.1436 108.359 92.8637 108.293 92.6226 108.161C92.3815 108.025 92.1929 107.84 92.0568 107.607C91.9207 107.37 91.8526 107.099 91.8526 106.796C91.8526 106.493 91.9168 106.224 92.0451 105.991C92.1773 105.758 92.3562 105.575 92.5817 105.443C92.8112 105.307 93.0678 105.239 93.3517 105.239C93.6394 105.239 93.8941 105.305 94.1158 105.437C94.3413 105.565 94.5183 105.748 94.6466 105.985C94.7749 106.219 94.8391 106.489 94.8391 106.796C94.8391 106.815 94.8371 106.837 94.8332 106.86C94.8332 106.88 94.8332 106.901 94.8332 106.924H92.1676V106.615H94.6116L94.4483 106.738C94.4483 106.516 94.3997 106.32 94.3024 106.149C94.2091 105.974 94.0808 105.838 93.9175 105.74C93.7541 105.643 93.5656 105.594 93.3517 105.594C93.1417 105.594 92.9531 105.643 92.7859 105.74C92.6187 105.838 92.4884 105.974 92.3951 106.149C92.3018 106.324 92.2551 106.524 92.2551 106.749V106.814C92.2551 107.047 92.3057 107.253 92.4068 107.432C92.5117 107.607 92.6556 107.745 92.8384 107.846C93.025 107.943 93.237 107.992 93.4742 107.992C93.6608 107.992 93.8339 107.959 93.9933 107.893C94.1566 107.827 94.2966 107.725 94.4133 107.589L94.6466 107.858C94.5105 108.021 94.3394 108.145 94.1333 108.231C93.9311 108.316 93.7075 108.359 93.4625 108.359ZM97.5156 108.33V107.653L97.4981 107.543V106.411C97.4981 106.151 97.4242 105.95 97.2764 105.81C97.1325 105.67 96.9167 105.6 96.629 105.6C96.4307 105.6 96.2421 105.633 96.0632 105.699C95.8843 105.766 95.7327 105.853 95.6082 105.962L95.4216 105.653C95.5771 105.521 95.7638 105.419 95.9815 105.349C96.1993 105.276 96.4287 105.239 96.6698 105.239C97.0664 105.239 97.3717 105.338 97.5856 105.536C97.8033 105.731 97.9122 106.028 97.9122 106.429V108.33H97.5156ZM96.4598 108.359C96.2304 108.359 96.0301 108.322 95.859 108.248C95.6918 108.171 95.5635 108.066 95.4741 107.933C95.3846 107.797 95.3399 107.642 95.3399 107.467C95.3399 107.307 95.3769 107.164 95.4507 107.035C95.5285 106.903 95.6529 106.798 95.824 106.72C95.999 106.639 96.2323 106.598 96.524 106.598H97.5797V106.907H96.5356C96.2401 106.907 96.034 106.959 95.9174 107.064C95.8046 107.169 95.7482 107.3 95.7482 107.455C95.7482 107.63 95.8163 107.77 95.9524 107.875C96.0885 107.98 96.279 108.033 96.524 108.033C96.7573 108.033 96.9576 107.98 97.1248 107.875C97.2959 107.766 97.4203 107.611 97.4981 107.408L97.5914 107.694C97.5136 107.897 97.3775 108.058 97.1831 108.178C96.9926 108.299 96.7515 108.359 96.4598 108.359ZM99.8595 108.359C99.6067 108.359 99.3676 108.324 99.142 108.254C98.9165 108.18 98.7396 108.089 98.6112 107.98L98.7979 107.653C98.9223 107.747 99.0817 107.828 99.2762 107.898C99.4706 107.965 99.6748 107.998 99.8886 107.998C100.18 107.998 100.39 107.953 100.519 107.863C100.647 107.77 100.711 107.648 100.711 107.496C100.711 107.383 100.674 107.296 100.6 107.234C100.53 107.167 100.437 107.119 100.32 107.088C100.204 107.053 100.073 107.024 99.9295 107C99.7856 106.977 99.6417 106.95 99.4978 106.919C99.3578 106.887 99.2295 106.843 99.1129 106.784C98.9962 106.722 98.9009 106.639 98.827 106.534C98.7571 106.429 98.7221 106.289 98.7221 106.114C98.7221 105.946 98.7687 105.797 98.862 105.664C98.9554 105.532 99.0915 105.429 99.2703 105.355C99.4531 105.278 99.6748 105.239 99.9353 105.239C100.134 105.239 100.332 105.266 100.53 105.32C100.729 105.371 100.892 105.439 101.02 105.524L100.839 105.857C100.703 105.764 100.557 105.698 100.402 105.659C100.246 105.616 100.091 105.594 99.9353 105.594C99.6592 105.594 99.455 105.643 99.3228 105.74C99.1945 105.834 99.1304 105.954 99.1304 106.102C99.1304 106.219 99.1654 106.31 99.2353 106.376C99.3092 106.442 99.4045 106.495 99.5212 106.534C99.6417 106.569 99.772 106.598 99.912 106.621C100.056 106.644 100.198 106.674 100.338 106.709C100.482 106.74 100.612 106.784 100.729 106.843C100.849 106.897 100.944 106.977 101.014 107.082C101.088 107.183 101.125 107.317 101.125 107.484C101.125 107.663 101.075 107.819 100.974 107.951C100.876 108.079 100.732 108.18 100.542 108.254C100.355 108.324 100.128 108.359 99.8595 108.359ZM103.186 108.359C102.867 108.359 102.587 108.293 102.346 108.161C102.105 108.025 101.916 107.84 101.78 107.607C101.644 107.37 101.576 107.099 101.576 106.796C101.576 106.493 101.64 106.224 101.768 105.991C101.901 105.758 102.08 105.575 102.305 105.443C102.534 105.307 102.791 105.239 103.075 105.239C103.363 105.239 103.617 105.305 103.839 105.437C104.065 105.565 104.242 105.748 104.37 105.985C104.498 106.219 104.562 106.489 104.562 106.796C104.562 106.815 104.56 106.837 104.557 106.86C104.557 106.88 104.557 106.901 104.557 106.924H101.891V106.615H104.335L104.172 106.738C104.172 106.516 104.123 106.32 104.026 106.149C103.932 105.974 103.804 105.838 103.641 105.74C103.477 105.643 103.289 105.594 103.075 105.594C102.865 105.594 102.676 105.643 102.509 105.74C102.342 105.838 102.212 105.974 102.118 106.149C102.025 106.324 101.978 106.524 101.978 106.749V106.814C101.978 107.047 102.029 107.253 102.13 107.432C102.235 107.607 102.379 107.745 102.562 107.846C102.748 107.943 102.96 107.992 103.197 107.992C103.384 107.992 103.557 107.959 103.717 107.893C103.88 107.827 104.02 107.725 104.137 107.589L104.37 107.858C104.234 108.021 104.063 108.145 103.857 108.231C103.654 108.316 103.431 108.359 103.186 108.359ZM107.754 108.359C107.502 108.359 107.262 108.324 107.037 108.254C106.811 108.18 106.634 108.089 106.506 107.98L106.693 107.653C106.817 107.747 106.977 107.828 107.171 107.898C107.365 107.965 107.57 107.998 107.783 107.998C108.075 107.998 108.285 107.953 108.413 107.863C108.542 107.77 108.606 107.648 108.606 107.496C108.606 107.383 108.569 107.296 108.495 107.234C108.425 107.167 108.332 107.119 108.215 107.088C108.098 107.053 107.968 107.024 107.824 107C107.68 106.977 107.537 106.95 107.393 106.919C107.253 106.887 107.124 106.843 107.008 106.784C106.891 106.722 106.796 106.639 106.722 106.534C106.652 106.429 106.617 106.289 106.617 106.114C106.617 105.946 106.664 105.797 106.757 105.664C106.85 105.532 106.986 105.429 107.165 105.355C107.348 105.278 107.57 105.239 107.83 105.239C108.028 105.239 108.227 105.266 108.425 105.32C108.623 105.371 108.787 105.439 108.915 105.524L108.734 105.857C108.598 105.764 108.452 105.698 108.297 105.659C108.141 105.616 107.986 105.594 107.83 105.594C107.554 105.594 107.35 105.643 107.218 105.74C107.089 105.834 107.025 105.954 107.025 106.102C107.025 106.219 107.06 106.31 107.13 106.376C107.204 106.442 107.299 106.495 107.416 106.534C107.537 106.569 107.667 106.598 107.807 106.621C107.951 106.644 108.093 106.674 108.233 106.709C108.376 106.74 108.507 106.784 108.623 106.843C108.744 106.897 108.839 106.977 108.909 107.082C108.983 107.183 109.02 107.317 109.02 107.484C109.02 107.663 108.969 107.819 108.868 107.951C108.771 108.079 108.627 108.18 108.437 108.254C108.25 108.324 108.023 108.359 107.754 108.359ZM111.081 108.359C110.762 108.359 110.482 108.293 110.241 108.161C110 108.025 109.811 107.84 109.675 107.607C109.539 107.37 109.471 107.099 109.471 106.796C109.471 106.493 109.535 106.224 109.663 105.991C109.796 105.758 109.974 105.575 110.2 105.443C110.429 105.307 110.686 105.239 110.97 105.239C111.258 105.239 111.512 105.305 111.734 105.437C111.96 105.565 112.136 105.748 112.265 105.985C112.393 106.219 112.457 106.489 112.457 106.796C112.457 106.815 112.455 106.837 112.451 106.86C112.451 106.88 112.451 106.901 112.451 106.924H109.786V106.615H112.23L112.066 106.738C112.066 106.516 112.018 106.32 111.921 106.149C111.827 105.974 111.699 105.838 111.536 105.74C111.372 105.643 111.184 105.594 110.97 105.594C110.76 105.594 110.571 105.643 110.404 105.74C110.237 105.838 110.107 105.974 110.013 106.149C109.92 106.324 109.873 106.524 109.873 106.749V106.814C109.873 107.047 109.924 107.253 110.025 107.432C110.13 107.607 110.274 107.745 110.457 107.846C110.643 107.943 110.855 107.992 111.092 107.992C111.279 107.992 111.452 107.959 111.611 107.893C111.775 107.827 111.915 107.725 112.031 107.589L112.265 107.858C112.129 108.021 111.958 108.145 111.751 108.231C111.549 108.316 111.326 108.359 111.081 108.359ZM113.3 108.33V104.002H113.714V108.33H113.3ZM116.167 108.359C115.848 108.359 115.569 108.293 115.327 108.161C115.086 108.025 114.898 107.84 114.762 107.607C114.626 107.37 114.557 107.099 114.557 106.796C114.557 106.493 114.622 106.224 114.75 105.991C114.882 105.758 115.061 105.575 115.287 105.443C115.516 105.307 115.773 105.239 116.057 105.239C116.344 105.239 116.599 105.305 116.821 105.437C117.046 105.565 117.223 105.748 117.351 105.985C117.48 106.219 117.544 106.489 117.544 106.796C117.544 106.815 117.542 106.837 117.538 106.86C117.538 106.88 117.538 106.901 117.538 106.924H114.872V106.615H117.316L117.153 106.738C117.153 106.516 117.104 106.32 117.007 106.149C116.914 105.974 116.786 105.838 116.622 105.74C116.459 105.643 116.27 105.594 116.057 105.594C115.847 105.594 115.658 105.643 115.491 105.74C115.324 105.838 115.193 105.974 115.1 106.149C115.007 106.324 114.96 106.524 114.96 106.749V106.814C114.96 107.047 115.01 107.253 115.112 107.432C115.217 107.607 115.36 107.745 115.543 107.846C115.73 107.943 115.942 107.992 116.179 107.992C116.366 107.992 116.539 107.959 116.698 107.893C116.861 107.827 117.001 107.725 117.118 107.589L117.351 107.858C117.215 108.021 117.044 108.145 116.838 108.231C116.636 108.316 116.412 108.359 116.167 108.359ZM119.658 108.359C119.355 108.359 119.083 108.293 118.842 108.161C118.605 108.025 118.418 107.84 118.282 107.607C118.146 107.37 118.078 107.099 118.078 106.796C118.078 106.489 118.146 106.219 118.282 105.985C118.418 105.752 118.605 105.569 118.842 105.437C119.083 105.305 119.355 105.239 119.658 105.239C119.919 105.239 120.154 105.289 120.364 105.39C120.574 105.491 120.739 105.643 120.86 105.845L120.551 106.055C120.446 105.9 120.316 105.785 120.16 105.711C120.004 105.637 119.835 105.6 119.653 105.6C119.435 105.6 119.238 105.651 119.063 105.752C118.888 105.849 118.75 105.987 118.649 106.166C118.548 106.345 118.498 106.555 118.498 106.796C118.498 107.037 118.548 107.247 118.649 107.426C118.75 107.605 118.888 107.745 119.063 107.846C119.238 107.943 119.435 107.992 119.653 107.992C119.835 107.992 120.004 107.955 120.16 107.881C120.316 107.807 120.446 107.694 120.551 107.543L120.86 107.753C120.739 107.951 120.574 108.103 120.364 108.208C120.154 108.309 119.919 108.359 119.658 108.359ZM122.676 108.359C122.388 108.359 122.167 108.281 122.011 108.126C121.855 107.97 121.778 107.751 121.778 107.467V104.591H122.192V107.443C122.192 107.622 122.237 107.76 122.326 107.858C122.419 107.955 122.552 108.003 122.723 108.003C122.905 108.003 123.057 107.951 123.178 107.846L123.323 108.143C123.242 108.217 123.143 108.272 123.026 108.307C122.913 108.342 122.796 108.359 122.676 108.359ZM121.229 105.612V105.268H123.125V105.612H121.229Z" fill="#6C6C6C"/>
<path d="M253.275 104.893L251.4 106.768L249.525 104.893" stroke="#727272" stroke-width="0.666612" stroke-linecap="round" stroke-linejoin="round"/>
<path d="M80.8135 127.054C80.4947 127.054 80.1894 127.009 79.8978 126.92C79.6061 126.827 79.3748 126.708 79.2037 126.564L79.4661 125.975C79.6295 126.103 79.8317 126.21 80.0728 126.296C80.3138 126.381 80.5608 126.424 80.8135 126.424C81.0274 126.424 81.2004 126.401 81.3327 126.354C81.4649 126.308 81.5621 126.245 81.6243 126.168C81.6865 126.086 81.7176 125.995 81.7176 125.893C81.7176 125.769 81.6729 125.67 81.5835 125.596C81.494 125.518 81.3774 125.458 81.2335 125.415C81.0935 125.368 80.936 125.326 80.761 125.287C80.5899 125.248 80.4169 125.203 80.2419 125.153C80.0708 125.098 79.9133 125.03 79.7694 124.949C79.6295 124.863 79.5147 124.75 79.4253 124.61C79.3359 124.47 79.2912 124.291 79.2912 124.074C79.2912 123.852 79.3495 123.65 79.4661 123.467C79.5867 123.28 79.7675 123.133 80.0086 123.024C80.2536 122.911 80.5627 122.855 80.936 122.855C81.181 122.855 81.424 122.886 81.6651 122.948C81.9062 123.01 82.1162 123.1 82.2951 123.216L82.0559 123.805C81.8732 123.696 81.6846 123.617 81.4901 123.566C81.2957 123.512 81.1091 123.484 80.9302 123.484C80.7202 123.484 80.5491 123.51 80.4169 123.56C80.2886 123.611 80.1933 123.677 80.1311 123.759C80.0728 123.84 80.0436 123.934 80.0436 124.039C80.0436 124.163 80.0864 124.264 80.1719 124.342C80.2614 124.416 80.3761 124.474 80.5161 124.517C80.6599 124.56 80.8194 124.602 80.9943 124.645C81.1693 124.684 81.3424 124.729 81.5135 124.779C81.6885 124.83 81.8459 124.896 81.9859 124.978C82.1298 125.059 82.2445 125.17 82.3301 125.31C82.4195 125.45 82.4642 125.627 82.4642 125.841C82.4642 126.059 82.404 126.261 82.2834 126.448C82.1668 126.63 81.9859 126.778 81.741 126.891C81.496 127 81.1868 127.054 80.8135 127.054ZM84.8726 127.037C84.6199 127.037 84.3885 126.978 84.1785 126.862C83.9724 126.745 83.8072 126.57 83.6827 126.337C83.5622 126.1 83.5019 125.8 83.5019 125.438C83.5019 125.073 83.5603 124.774 83.6769 124.54C83.7975 124.307 83.9608 124.134 84.1669 124.021C84.373 123.904 84.6082 123.846 84.8726 123.846C85.1798 123.846 85.4501 123.912 85.6834 124.044C85.9206 124.177 86.1073 124.361 86.2434 124.599C86.3834 124.836 86.4534 125.116 86.4534 125.438C86.4534 125.761 86.3834 126.043 86.2434 126.284C86.1073 126.521 85.9206 126.706 85.6834 126.838C85.4501 126.971 85.1798 127.037 84.8726 127.037ZM83.1461 128.127V123.881H83.8402V124.616L83.8169 125.444L83.8752 126.273V128.127H83.1461ZM84.791 126.413C84.966 126.413 85.1215 126.374 85.2576 126.296C85.3976 126.218 85.5084 126.105 85.5901 125.958C85.6718 125.81 85.7126 125.637 85.7126 125.438C85.7126 125.236 85.6718 125.063 85.5901 124.919C85.5084 124.772 85.3976 124.659 85.2576 124.581C85.1215 124.503 84.966 124.464 84.791 124.464C84.616 124.464 84.4585 124.503 84.3185 124.581C84.1785 124.659 84.0677 124.772 83.9861 124.919C83.9044 125.063 83.8636 125.236 83.8636 125.438C83.8636 125.637 83.9044 125.81 83.9861 125.958C84.0677 126.105 84.1785 126.218 84.3185 126.296C84.4585 126.374 84.616 126.413 84.791 126.413ZM88.6089 127.037C88.2628 127.037 87.9595 126.969 87.6989 126.833C87.4423 126.693 87.242 126.502 87.0982 126.261C86.9582 126.02 86.8882 125.746 86.8882 125.438C86.8882 125.127 86.9562 124.853 87.0923 124.616C87.2323 124.375 87.4229 124.186 87.6639 124.05C87.9089 123.914 88.187 123.846 88.498 123.846C88.8014 123.846 89.0716 123.912 89.3088 124.044C89.546 124.177 89.7327 124.363 89.8688 124.604C90.0049 124.845 90.0729 125.129 90.0729 125.456C90.0729 125.487 90.071 125.522 90.0671 125.561C90.0671 125.6 90.0651 125.637 90.0612 125.672H87.4656V125.188H89.6763L89.3905 125.339C89.3944 125.16 89.3574 125.003 89.2796 124.867C89.2019 124.731 89.0949 124.624 88.9588 124.546C88.8266 124.468 88.673 124.429 88.498 124.429C88.3192 124.429 88.1617 124.468 88.0256 124.546C87.8934 124.624 87.7884 124.733 87.7106 124.873C87.6367 125.009 87.5998 125.17 87.5998 125.357V125.473C87.5998 125.66 87.6426 125.825 87.7281 125.969C87.8137 126.113 87.9342 126.224 88.0897 126.302C88.2453 126.38 88.4242 126.418 88.6264 126.418C88.8014 126.418 88.9588 126.391 89.0988 126.337C89.2388 126.282 89.3632 126.197 89.4721 126.08L89.8629 126.529C89.7229 126.693 89.546 126.819 89.3321 126.908C89.1222 126.994 88.8811 127.037 88.6089 127.037ZM92.2023 127.037C91.8757 127.037 91.584 126.969 91.3274 126.833C91.0746 126.693 90.8763 126.502 90.7324 126.261C90.5886 126.02 90.5166 125.746 90.5166 125.438C90.5166 125.127 90.5886 124.853 90.7324 124.616C90.8763 124.375 91.0746 124.186 91.3274 124.05C91.584 123.914 91.8757 123.846 92.2023 123.846C92.5056 123.846 92.772 123.908 93.0014 124.033C93.2347 124.153 93.4117 124.332 93.5322 124.569L92.9723 124.896C92.8789 124.748 92.7642 124.639 92.6281 124.569C92.4959 124.499 92.352 124.464 92.1965 124.464C92.0176 124.464 91.8562 124.503 91.7124 124.581C91.5685 124.659 91.4557 124.772 91.374 124.919C91.2924 125.063 91.2516 125.236 91.2516 125.438C91.2516 125.641 91.2924 125.816 91.374 125.963C91.4557 126.107 91.5685 126.218 91.7124 126.296C91.8562 126.374 92.0176 126.413 92.1965 126.413C92.352 126.413 92.4959 126.378 92.6281 126.308C92.7642 126.238 92.8789 126.129 92.9723 125.981L93.5322 126.308C93.4117 126.541 93.2347 126.722 93.0014 126.85C92.772 126.974 92.5056 127.037 92.2023 127.037ZM94.134 126.996V123.881H94.8631V126.996H94.134ZM94.5015 123.368C94.3654 123.368 94.2526 123.325 94.1632 123.239C94.0776 123.154 94.0348 123.051 94.0348 122.93C94.0348 122.806 94.0776 122.703 94.1632 122.621C94.2526 122.536 94.3654 122.493 94.5015 122.493C94.6376 122.493 94.7484 122.534 94.8339 122.615C94.9234 122.693 94.9681 122.792 94.9681 122.913C94.9681 123.041 94.9253 123.15 94.8398 123.239C94.7542 123.325 94.6415 123.368 94.5015 123.368ZM97.7391 126.996V126.366L97.6982 126.232V125.129C97.6982 124.915 97.6341 124.75 97.5057 124.634C97.3774 124.513 97.183 124.453 96.9225 124.453C96.7475 124.453 96.5744 124.48 96.4033 124.534C96.2361 124.589 96.0942 124.665 95.9775 124.762L95.6917 124.231C95.8589 124.103 96.0573 124.007 96.2867 123.945C96.52 123.879 96.7611 123.846 97.01 123.846C97.461 123.846 97.8091 123.955 98.054 124.173C98.3029 124.387 98.4273 124.719 98.4273 125.17V126.996H97.7391ZM96.7591 127.037C96.5258 127.037 96.3217 126.998 96.1467 126.92C95.9717 126.838 95.8356 126.728 95.7384 126.588C95.6451 126.444 95.5984 126.282 95.5984 126.103C95.5984 125.928 95.6392 125.771 95.7209 125.631C95.8064 125.491 95.9445 125.38 96.135 125.298C96.3256 125.217 96.5783 125.176 96.8933 125.176H97.7974V125.66H96.9458C96.6969 125.66 96.5297 125.701 96.4442 125.783C96.3586 125.86 96.3158 125.958 96.3158 126.074C96.3158 126.206 96.3683 126.311 96.4733 126.389C96.5783 126.467 96.7241 126.506 96.9108 126.506C97.0897 126.506 97.2491 126.465 97.3891 126.383C97.533 126.302 97.636 126.181 97.6982 126.022L97.8207 126.459C97.7507 126.642 97.6243 126.784 97.4416 126.885C97.2627 126.986 97.0352 127.037 96.7591 127.037ZM99.3631 126.996V122.668H100.092V126.996H99.3631ZM101.049 126.996V123.881H101.778V126.996H101.049ZM101.417 123.368C101.28 123.368 101.168 123.325 101.078 123.239C100.993 123.154 100.95 123.051 100.95 122.93C100.95 122.806 100.993 122.703 101.078 122.621C101.168 122.536 101.28 122.493 101.417 122.493C101.553 122.493 101.664 122.534 101.749 122.615C101.838 122.693 101.883 122.792 101.883 122.913C101.883 123.041 101.84 123.15 101.755 123.239C101.669 123.325 101.557 123.368 101.417 123.368ZM103.908 127.037C103.565 127.037 103.301 126.949 103.114 126.774C102.928 126.595 102.834 126.333 102.834 125.987V123.193H103.563V125.969C103.563 126.117 103.6 126.232 103.674 126.313C103.752 126.395 103.859 126.436 103.995 126.436C104.158 126.436 104.294 126.393 104.403 126.308L104.608 126.827C104.522 126.897 104.417 126.949 104.293 126.984C104.168 127.019 104.04 127.037 103.908 127.037ZM102.321 124.488V123.904H104.398V124.488H102.321ZM105.407 128.168C105.255 128.168 105.104 128.143 104.952 128.092C104.8 128.042 104.674 127.972 104.573 127.882L104.865 127.346C104.938 127.412 105.022 127.464 105.115 127.503C105.209 127.542 105.304 127.562 105.401 127.562C105.533 127.562 105.64 127.529 105.722 127.462C105.804 127.396 105.879 127.286 105.949 127.13L106.13 126.722L106.189 126.634L107.367 123.881H108.067L106.609 127.247C106.511 127.48 106.402 127.665 106.282 127.801C106.165 127.937 106.033 128.032 105.885 128.087C105.741 128.141 105.582 128.168 105.407 128.168ZM106.049 127.107L104.643 123.881H105.401L106.544 126.57L106.049 127.107Z" fill="#444444"/>
<rect x="78.9995" y="131.329" width="182.402" height="16.9992" rx="3.33306" fill="#F3F3F3"/>
<path d="M86.4962 142.328V138.245H88.0244C88.3705 138.245 88.6679 138.302 88.9168 138.415C89.1657 138.524 89.3562 138.683 89.4884 138.893C89.6245 139.099 89.6926 139.35 89.6926 139.645C89.6926 139.933 89.6245 140.182 89.4884 140.392C89.3562 140.598 89.1657 140.758 88.9168 140.87C88.6679 140.983 88.3705 141.039 88.0244 141.039H86.7353L86.9278 140.835V142.328H86.4962ZM86.9278 140.87L86.7353 140.66H88.0127C88.421 140.66 88.7301 140.573 88.9401 140.398C89.154 140.219 89.2609 139.968 89.2609 139.645C89.2609 139.319 89.154 139.066 88.9401 138.887C88.7301 138.708 88.421 138.619 88.0127 138.619H86.7353L86.9278 138.415V140.87ZM90.5953 142.328V138.001H91.0095V142.328H90.5953ZM93.4625 142.358C93.1436 142.358 92.8637 142.292 92.6226 142.159C92.3815 142.023 92.1929 141.839 92.0568 141.605C91.9207 141.368 91.8526 141.098 91.8526 140.794C91.8526 140.491 91.9168 140.223 92.0451 139.99C92.1773 139.756 92.3562 139.573 92.5817 139.441C92.8112 139.305 93.0678 139.237 93.3517 139.237C93.6394 139.237 93.8941 139.303 94.1158 139.435C94.3413 139.564 94.5183 139.746 94.6466 139.984C94.7749 140.217 94.8391 140.487 94.8391 140.794C94.8391 140.814 94.8371 140.835 94.8332 140.859C94.8332 140.878 94.8332 140.899 94.8332 140.923H92.1676V140.614H94.6116L94.4483 140.736C94.4483 140.514 94.3997 140.318 94.3024 140.147C94.2091 139.972 94.0808 139.836 93.9175 139.739C93.7541 139.641 93.5656 139.593 93.3517 139.593C93.1417 139.593 92.9531 139.641 92.7859 139.739C92.6187 139.836 92.4884 139.972 92.3951 140.147C92.3018 140.322 92.2551 140.522 92.2551 140.748V140.812C92.2551 141.045 92.3057 141.251 92.4068 141.43C92.5117 141.605 92.6556 141.743 92.8384 141.844C93.025 141.942 93.237 141.99 93.4742 141.99C93.6608 141.99 93.8339 141.957 93.9933 141.891C94.1566 141.825 94.2966 141.724 94.4133 141.588L94.6466 141.856C94.5105 142.019 94.3394 142.144 94.1333 142.229C93.9311 142.315 93.7075 142.358 93.4625 142.358ZM97.5156 142.328V141.652L97.4981 141.541V140.409C97.4981 140.149 97.4242 139.949 97.2764 139.809C97.1325 139.669 96.9167 139.599 96.629 139.599C96.4307 139.599 96.2421 139.632 96.0632 139.698C95.8843 139.764 95.7327 139.851 95.6082 139.96L95.4216 139.651C95.5771 139.519 95.7638 139.418 95.9815 139.348C96.1993 139.274 96.4287 139.237 96.6698 139.237C97.0664 139.237 97.3717 139.336 97.5856 139.535C97.8033 139.729 97.9122 140.026 97.9122 140.427V142.328H97.5156ZM96.4598 142.358C96.2304 142.358 96.0301 142.321 95.859 142.247C95.6918 142.169 95.5635 142.064 95.4741 141.932C95.3846 141.796 95.3399 141.64 95.3399 141.465C95.3399 141.306 95.3769 141.162 95.4507 141.034C95.5285 140.901 95.6529 140.796 95.824 140.719C95.999 140.637 96.2323 140.596 96.524 140.596H97.5797V140.905H96.5356C96.2401 140.905 96.034 140.958 95.9174 141.063C95.8046 141.168 95.7482 141.298 95.7482 141.454C95.7482 141.629 95.8163 141.769 95.9524 141.874C96.0885 141.979 96.279 142.031 96.524 142.031C96.7573 142.031 96.9576 141.979 97.1248 141.874C97.2959 141.765 97.4203 141.609 97.4981 141.407L97.5914 141.693C97.5136 141.895 97.3775 142.056 97.1831 142.177C96.9926 142.297 96.7515 142.358 96.4598 142.358ZM99.8595 142.358C99.6067 142.358 99.3676 142.323 99.142 142.253C98.9165 142.179 98.7396 142.087 98.6112 141.979L98.7979 141.652C98.9223 141.745 99.0817 141.827 99.2762 141.897C99.4706 141.963 99.6748 141.996 99.8886 141.996C100.18 141.996 100.39 141.951 100.519 141.862C100.647 141.769 100.711 141.646 100.711 141.494C100.711 141.382 100.674 141.294 100.6 141.232C100.53 141.166 100.437 141.117 100.32 141.086C100.204 141.051 100.073 141.022 99.9295 140.999C99.7856 140.975 99.6417 140.948 99.4978 140.917C99.3578 140.886 99.2295 140.841 99.1129 140.783C98.9962 140.721 98.9009 140.637 98.827 140.532C98.7571 140.427 98.7221 140.287 98.7221 140.112C98.7221 139.945 98.7687 139.795 98.862 139.663C98.9554 139.531 99.0915 139.428 99.2703 139.354C99.4531 139.276 99.6748 139.237 99.9353 139.237C100.134 139.237 100.332 139.264 100.53 139.319C100.729 139.369 100.892 139.437 101.02 139.523L100.839 139.855C100.703 139.762 100.557 139.696 100.402 139.657C100.246 139.614 100.091 139.593 99.9353 139.593C99.6592 139.593 99.455 139.641 99.3228 139.739C99.1945 139.832 99.1304 139.953 99.1304 140.1C99.1304 140.217 99.1654 140.308 99.2353 140.374C99.3092 140.441 99.4045 140.493 99.5212 140.532C99.6417 140.567 99.772 140.596 99.912 140.619C100.056 140.643 100.198 140.672 100.338 140.707C100.482 140.738 100.612 140.783 100.729 140.841C100.849 140.896 100.944 140.975 101.014 141.08C101.088 141.181 101.125 141.316 101.125 141.483C101.125 141.662 101.075 141.817 100.974 141.949C100.876 142.078 100.732 142.179 100.542 142.253C100.355 142.323 100.128 142.358 99.8595 142.358ZM103.186 142.358C102.867 142.358 102.587 142.292 102.346 142.159C102.105 142.023 101.916 141.839 101.78 141.605C101.644 141.368 101.576 141.098 101.576 140.794C101.576 140.491 101.64 140.223 101.768 139.99C101.901 139.756 102.08 139.573 102.305 139.441C102.534 139.305 102.791 139.237 103.075 139.237C103.363 139.237 103.617 139.303 103.839 139.435C104.065 139.564 104.242 139.746 104.37 139.984C104.498 140.217 104.562 140.487 104.562 140.794C104.562 140.814 104.56 140.835 104.557 140.859C104.557 140.878 104.557 140.899 104.557 140.923H101.891V140.614H104.335L104.172 140.736C104.172 140.514 104.123 140.318 104.026 140.147C103.932 139.972 103.804 139.836 103.641 139.739C103.477 139.641 103.289 139.593 103.075 139.593C102.865 139.593 102.676 139.641 102.509 139.739C102.342 139.836 102.212 139.972 102.118 140.147C102.025 140.322 101.978 140.522 101.978 140.748V140.812C101.978 141.045 102.029 141.251 102.13 141.43C102.235 141.605 102.379 141.743 102.562 141.844C102.748 141.942 102.96 141.99 103.197 141.99C103.384 141.99 103.557 141.957 103.717 141.891C103.88 141.825 104.02 141.724 104.137 141.588L104.37 141.856C104.234 142.019 104.063 142.144 103.857 142.229C103.654 142.315 103.431 142.358 103.186 142.358ZM107.754 142.358C107.502 142.358 107.262 142.323 107.037 142.253C106.811 142.179 106.634 142.087 106.506 141.979L106.693 141.652C106.817 141.745 106.977 141.827 107.171 141.897C107.365 141.963 107.57 141.996 107.783 141.996C108.075 141.996 108.285 141.951 108.413 141.862C108.542 141.769 108.606 141.646 108.606 141.494C108.606 141.382 108.569 141.294 108.495 141.232C108.425 141.166 108.332 141.117 108.215 141.086C108.098 141.051 107.968 141.022 107.824 140.999C107.68 140.975 107.537 140.948 107.393 140.917C107.253 140.886 107.124 140.841 107.008 140.783C106.891 140.721 106.796 140.637 106.722 140.532C106.652 140.427 106.617 140.287 106.617 140.112C106.617 139.945 106.664 139.795 106.757 139.663C106.85 139.531 106.986 139.428 107.165 139.354C107.348 139.276 107.57 139.237 107.83 139.237C108.028 139.237 108.227 139.264 108.425 139.319C108.623 139.369 108.787 139.437 108.915 139.523L108.734 139.855C108.598 139.762 108.452 139.696 108.297 139.657C108.141 139.614 107.986 139.593 107.83 139.593C107.554 139.593 107.35 139.641 107.218 139.739C107.089 139.832 107.025 139.953 107.025 140.1C107.025 140.217 107.06 140.308 107.13 140.374C107.204 140.441 107.299 140.493 107.416 140.532C107.537 140.567 107.667 140.596 107.807 140.619C107.951 140.643 108.093 140.672 108.233 140.707C108.376 140.738 108.507 140.783 108.623 140.841C108.744 140.896 108.839 140.975 108.909 141.08C108.983 141.181 109.02 141.316 109.02 141.483C109.02 141.662 108.969 141.817 108.868 141.949C108.771 142.078 108.627 142.179 108.437 142.253C108.25 142.323 108.023 142.358 107.754 142.358ZM111.081 142.358C110.762 142.358 110.482 142.292 110.241 142.159C110 142.023 109.811 141.839 109.675 141.605C109.539 141.368 109.471 141.098 109.471 140.794C109.471 140.491 109.535 140.223 109.663 139.99C109.796 139.756 109.974 139.573 110.2 139.441C110.429 139.305 110.686 139.237 110.97 139.237C111.258 139.237 111.512 139.303 111.734 139.435C111.96 139.564 112.136 139.746 112.265 139.984C112.393 140.217 112.457 140.487 112.457 140.794C112.457 140.814 112.455 140.835 112.451 140.859C112.451 140.878 112.451 140.899 112.451 140.923H109.786V140.614H112.23L112.066 140.736C112.066 140.514 112.018 140.318 111.921 140.147C111.827 139.972 111.699 139.836 111.536 139.739C111.372 139.641 111.184 139.593 110.97 139.593C110.76 139.593 110.571 139.641 110.404 139.739C110.237 139.836 110.107 139.972 110.013 140.147C109.92 140.322 109.873 140.522 109.873 140.748V140.812C109.873 141.045 109.924 141.251 110.025 141.43C110.13 141.605 110.274 141.743 110.457 141.844C110.643 141.942 110.855 141.99 111.092 141.99C111.279 141.99 111.452 141.957 111.611 141.891C111.775 141.825 111.915 141.724 112.031 141.588L112.265 141.856C112.129 142.019 111.958 142.144 111.751 142.229C111.549 142.315 111.326 142.358 111.081 142.358ZM113.3 142.328V138.001H113.714V142.328H113.3ZM116.167 142.358C115.848 142.358 115.569 142.292 115.327 142.159C115.086 142.023 114.898 141.839 114.762 141.605C114.626 141.368 114.557 141.098 114.557 140.794C114.557 140.491 114.622 140.223 114.75 139.99C114.882 139.756 115.061 139.573 115.287 139.441C115.516 139.305 115.773 139.237 116.057 139.237C116.344 139.237 116.599 139.303 116.821 139.435C117.046 139.564 117.223 139.746 117.351 139.984C117.48 140.217 117.544 140.487 117.544 140.794C117.544 140.814 117.542 140.835 117.538 140.859C117.538 140.878 117.538 140.899 117.538 140.923H114.872V140.614H117.316L117.153 140.736C117.153 140.514 117.104 140.318 117.007 140.147C116.914 139.972 116.786 139.836 116.622 139.739C116.459 139.641 116.27 139.593 116.057 139.593C115.847 139.593 115.658 139.641 115.491 139.739C115.324 139.836 115.193 139.972 115.1 140.147C115.007 140.322 114.96 140.522 114.96 140.748V140.812C114.96 141.045 115.01 141.251 115.112 141.43C115.217 141.605 115.36 141.743 115.543 141.844C115.73 141.942 115.942 141.99 116.179 141.99C116.366 141.99 116.539 141.957 116.698 141.891C116.861 141.825 117.001 141.724 117.118 141.588L117.351 141.856C117.215 142.019 117.044 142.144 116.838 142.229C116.636 142.315 116.412 142.358 116.167 142.358ZM119.658 142.358C119.355 142.358 119.083 142.292 118.842 142.159C118.605 142.023 118.418 141.839 118.282 141.605C118.146 141.368 118.078 141.098 118.078 140.794C118.078 140.487 118.146 140.217 118.282 139.984C118.418 139.75 118.605 139.568 118.842 139.435C119.083 139.303 119.355 139.237 119.658 139.237C119.919 139.237 120.154 139.288 120.364 139.389C120.574 139.49 120.739 139.641 120.86 139.844L120.551 140.054C120.446 139.898 120.316 139.783 120.16 139.71C120.004 139.636 119.835 139.599 119.653 139.599C119.435 139.599 119.238 139.649 119.063 139.75C118.888 139.848 118.75 139.986 118.649 140.165C118.548 140.343 118.498 140.553 118.498 140.794C118.498 141.036 118.548 141.246 118.649 141.424C118.75 141.603 118.888 141.743 119.063 141.844C119.238 141.942 119.435 141.99 119.653 141.99C119.835 141.99 120.004 141.953 120.16 141.879C120.316 141.805 120.446 141.693 120.551 141.541L120.86 141.751C120.739 141.949 120.574 142.101 120.364 142.206C120.154 142.307 119.919 142.358 119.658 142.358ZM122.676 142.358C122.388 142.358 122.167 142.28 122.011 142.124C121.855 141.969 121.778 141.749 121.778 141.465V138.59H122.192V141.442C122.192 141.621 122.237 141.759 122.326 141.856C122.419 141.953 122.552 142.002 122.723 142.002C122.905 142.002 123.057 141.949 123.178 141.844L123.323 142.142C123.242 142.216 123.143 142.27 123.026 142.305C122.913 142.34 122.796 142.358 122.676 142.358ZM121.229 139.61V139.266H123.125V139.61H121.229Z" fill="#6C6C6C"/>
<path d="M253.275 138.891L251.4 140.766L249.525 138.891" stroke="#727272" stroke-width="0.666612" stroke-linecap="round" stroke-linejoin="round"/>
<path d="M79.5478 160.994V156.911H80.3061V160.353H82.4409V160.994H79.5478ZM84.8942 160.994V160.364L84.8534 160.23V159.128C84.8534 158.914 84.7893 158.749 84.6609 158.632C84.5326 158.511 84.3382 158.451 84.0776 158.451C83.9027 158.451 83.7296 158.478 83.5585 158.533C83.3913 158.587 83.2494 158.663 83.1327 158.76L82.8469 158.229C83.0141 158.101 83.2124 158.006 83.4419 157.944C83.6752 157.878 83.9163 157.845 84.1651 157.845C84.6162 157.845 84.9642 157.953 85.2092 158.171C85.4581 158.385 85.5825 158.718 85.5825 159.169V160.994H84.8942ZM83.9143 161.035C83.681 161.035 83.4769 160.996 83.3019 160.918C83.1269 160.837 82.9908 160.726 82.8936 160.586C82.8003 160.442 82.7536 160.281 82.7536 160.102C82.7536 159.927 82.7944 159.769 82.8761 159.629C82.9616 159.489 83.0997 159.379 83.2902 159.297C83.4808 159.215 83.7335 159.174 84.0485 159.174H84.9526V159.659H84.101C83.8521 159.659 83.6849 159.699 83.5994 159.781C83.5138 159.859 83.471 159.956 83.471 160.073C83.471 160.205 83.5235 160.31 83.6285 160.388C83.7335 160.465 83.8793 160.504 84.066 160.504C84.2449 160.504 84.4043 160.463 84.5443 160.382C84.6882 160.3 84.7912 160.18 84.8534 160.02L84.9759 160.458C84.9059 160.64 84.7795 160.782 84.5968 160.883C84.4179 160.985 84.1904 161.035 83.9143 161.035ZM88.2856 157.845C88.5345 157.845 88.7561 157.893 88.9505 157.99C89.1489 158.088 89.3044 158.237 89.4172 158.439C89.5299 158.638 89.5863 158.894 89.5863 159.209V160.994H88.8572V159.303C88.8572 159.027 88.7911 158.821 88.6589 158.684C88.5306 158.548 88.3498 158.48 88.1164 158.48C87.9453 158.48 87.7937 158.515 87.6615 158.585C87.5293 158.655 87.4262 158.76 87.3523 158.9C87.2823 159.036 87.2474 159.209 87.2474 159.419V160.994H86.5182V157.88H87.2124V158.719L87.0899 158.463C87.1987 158.264 87.3562 158.113 87.5623 158.008C87.7723 157.899 88.0134 157.845 88.2856 157.845ZM91.9285 162.167C91.6407 162.167 91.3588 162.128 91.0827 162.05C90.8105 161.976 90.5869 161.867 90.4119 161.723L90.7386 161.175C90.8747 161.288 91.0458 161.377 91.2519 161.443C91.4619 161.513 91.6738 161.548 91.8877 161.548C92.2299 161.548 92.4807 161.469 92.6401 161.309C92.7995 161.154 92.8792 160.918 92.8792 160.603V160.049L92.9376 159.344L92.9142 158.638V157.88H93.6084V160.522C93.6084 161.086 93.4645 161.5 93.1767 161.764C92.889 162.033 92.4729 162.167 91.9285 162.167ZM91.8352 160.854C91.5396 160.854 91.2713 160.792 91.0302 160.668C90.793 160.539 90.6044 160.362 90.4644 160.137C90.3283 159.911 90.2603 159.647 90.2603 159.344C90.2603 159.044 90.3283 158.782 90.4644 158.556C90.6044 158.331 90.793 158.156 91.0302 158.031C91.2713 157.907 91.5396 157.845 91.8352 157.845C92.0996 157.845 92.3368 157.897 92.5468 158.002C92.7568 158.107 92.924 158.27 93.0484 158.492C93.1767 158.714 93.2409 158.997 93.2409 159.344C93.2409 159.69 93.1767 159.975 93.0484 160.201C92.924 160.423 92.7568 160.588 92.5468 160.697C92.3368 160.802 92.0996 160.854 91.8352 160.854ZM91.946 160.236C92.1288 160.236 92.2921 160.199 92.4359 160.125C92.5798 160.047 92.6906 159.942 92.7684 159.81C92.8501 159.674 92.8909 159.519 92.8909 159.344C92.8909 159.169 92.8501 159.015 92.7684 158.883C92.6906 158.747 92.5798 158.644 92.4359 158.574C92.2921 158.5 92.1288 158.463 91.946 158.463C91.7632 158.463 91.598 158.5 91.4502 158.574C91.3063 158.644 91.1936 158.747 91.1119 158.883C91.0341 159.015 90.9952 159.169 90.9952 159.344C90.9952 159.519 91.0341 159.674 91.1119 159.81C91.1936 159.942 91.3063 160.047 91.4502 160.125C91.598 160.199 91.7632 160.236 91.946 160.236ZM95.8851 161.035C95.6207 161.035 95.3874 160.986 95.1852 160.889C94.983 160.788 94.8255 160.637 94.7127 160.434C94.6 160.228 94.5436 159.97 94.5436 159.659V157.88H95.2727V159.559C95.2727 159.839 95.3349 160.049 95.4593 160.189C95.5876 160.325 95.7685 160.393 96.0018 160.393C96.1729 160.393 96.3206 160.358 96.4451 160.288C96.5734 160.218 96.6726 160.114 96.7426 159.974C96.8164 159.834 96.8534 159.66 96.8534 159.454V157.88H97.5825V160.994H96.8884V160.154L97.0109 160.411C96.9059 160.613 96.7523 160.769 96.5501 160.878C96.3479 160.983 96.1262 161.035 95.8851 161.035ZM100.456 160.994V160.364L100.415 160.23V159.128C100.415 158.914 100.351 158.749 100.223 158.632C100.094 158.511 99.9001 158.451 99.6395 158.451C99.4645 158.451 99.2915 158.478 99.1204 158.533C98.9532 158.587 98.8113 158.663 98.6946 158.76L98.4088 158.229C98.576 158.101 98.7743 158.006 99.0037 157.944C99.2371 157.878 99.4781 157.845 99.727 157.845C100.178 157.845 100.526 157.953 100.771 158.171C101.02 158.385 101.144 158.718 101.144 159.169V160.994H100.456ZM99.4762 161.035C99.2429 161.035 99.0387 160.996 98.8638 160.918C98.6888 160.837 98.5527 160.726 98.4555 160.586C98.3621 160.442 98.3155 160.281 98.3155 160.102C98.3155 159.927 98.3563 159.769 98.438 159.629C98.5235 159.489 98.6615 159.379 98.8521 159.297C99.0426 159.215 99.2954 159.174 99.6104 159.174H100.514V159.659H99.6629C99.414 159.659 99.2468 159.699 99.1612 159.781C99.0757 159.859 99.0329 159.956 99.0329 160.073C99.0329 160.205 99.0854 160.31 99.1904 160.388C99.2954 160.465 99.4412 160.504 99.6279 160.504C99.8067 160.504 99.9662 160.463 100.106 160.382C100.25 160.3 100.353 160.18 100.415 160.02L100.538 160.458C100.468 160.64 100.341 160.782 100.159 160.883C99.9798 160.985 99.7523 161.035 99.4762 161.035ZM103.497 162.167C103.21 162.167 102.928 162.128 102.652 162.05C102.379 161.976 102.156 161.867 101.981 161.723L102.307 161.175C102.444 161.288 102.615 161.377 102.821 161.443C103.031 161.513 103.243 161.548 103.457 161.548C103.799 161.548 104.05 161.469 104.209 161.309C104.368 161.154 104.448 160.918 104.448 160.603V160.049L104.506 159.344L104.483 158.638V157.88H105.177V160.522C105.177 161.086 105.033 161.5 104.746 161.764C104.458 162.033 104.042 162.167 103.497 162.167ZM103.404 160.854C103.109 160.854 102.84 160.792 102.599 160.668C102.362 160.539 102.173 160.362 102.033 160.137C101.897 159.911 101.829 159.647 101.829 159.344C101.829 159.044 101.897 158.782 102.033 158.556C102.173 158.331 102.362 158.156 102.599 158.031C102.84 157.907 103.109 157.845 103.404 157.845C103.668 157.845 103.906 157.897 104.116 158.002C104.326 158.107 104.493 158.27 104.617 158.492C104.746 158.714 104.81 158.997 104.81 159.344C104.81 159.69 104.746 159.975 104.617 160.201C104.493 160.423 104.326 160.588 104.116 160.697C103.906 160.802 103.668 160.854 103.404 160.854ZM103.515 160.236C103.698 160.236 103.861 160.199 104.005 160.125C104.149 160.047 104.26 159.942 104.337 159.81C104.419 159.674 104.46 159.519 104.46 159.344C104.46 159.169 104.419 159.015 104.337 158.883C104.26 158.747 104.149 158.644 104.005 158.574C103.861 158.5 103.698 158.463 103.515 158.463C103.332 158.463 103.167 158.5 103.019 158.574C102.875 158.644 102.762 158.747 102.681 158.883C102.603 159.015 102.564 159.169 102.564 159.344C102.564 159.519 102.603 159.674 102.681 159.81C102.762 159.942 102.875 160.047 103.019 160.125C103.167 160.199 103.332 160.236 103.515 160.236ZM107.6 161.035C107.254 161.035 106.95 160.967 106.69 160.831C106.433 160.691 106.233 160.5 106.089 160.259C105.949 160.018 105.879 159.744 105.879 159.437C105.879 159.126 105.947 158.852 106.083 158.614C106.223 158.373 106.414 158.185 106.655 158.049C106.9 157.913 107.178 157.845 107.489 157.845C107.792 157.845 108.063 157.911 108.3 158.043C108.537 158.175 108.724 158.362 108.86 158.603C108.996 158.844 109.064 159.128 109.064 159.454C109.064 159.485 109.062 159.52 109.058 159.559C109.058 159.598 109.056 159.635 109.052 159.67H106.457V159.186H108.667L108.381 159.338C108.385 159.159 108.348 159.001 108.271 158.865C108.193 158.729 108.086 158.622 107.95 158.544C107.818 158.467 107.664 158.428 107.489 158.428C107.31 158.428 107.153 158.467 107.017 158.544C106.884 158.622 106.779 158.731 106.702 158.871C106.628 159.007 106.591 159.169 106.591 159.355V159.472C106.591 159.659 106.634 159.824 106.719 159.968C106.805 160.112 106.925 160.222 107.081 160.3C107.236 160.378 107.415 160.417 107.617 160.417C107.792 160.417 107.95 160.39 108.09 160.335C108.23 160.281 108.354 160.195 108.463 160.079L108.854 160.528C108.714 160.691 108.537 160.817 108.323 160.907C108.113 160.992 107.872 161.035 107.6 161.035Z" fill="#444444"/>
<rect x="78.9995" y="165.327" width="182.402" height="16.9992" rx="3.33306" fill="#F3F3F3"/>
<path d="M87.281 174.005H89.3809V174.501H87.281V174.005ZM87.3335 175.819H89.7133V176.327H86.7502V172.244H89.6317V172.751H87.3335V175.819ZM92.2268 173.206C92.4796 173.206 92.7012 173.255 92.8918 173.352C93.0862 173.449 93.2379 173.597 93.3467 173.795C93.4556 173.994 93.5101 174.245 93.5101 174.548V176.327H92.9501V174.612C92.9501 174.313 92.8762 174.087 92.7285 173.935C92.5846 173.784 92.3804 173.708 92.116 173.708C91.9177 173.708 91.7446 173.747 91.5969 173.825C91.4491 173.902 91.3344 174.017 91.2527 174.169C91.175 174.32 91.1361 174.509 91.1361 174.735V176.327H90.5761V173.235H91.1128V174.07L91.0253 173.848C91.1264 173.646 91.2819 173.488 91.4919 173.375C91.7019 173.263 91.9469 173.206 92.2268 173.206ZM95.8996 177.493C95.6157 177.493 95.3396 177.453 95.0713 177.371C94.8069 177.293 94.5911 177.18 94.4239 177.033L94.6922 176.601C94.836 176.725 95.013 176.823 95.223 176.893C95.4329 176.967 95.6526 177.004 95.8821 177.004C96.2476 177.004 96.5159 176.918 96.687 176.747C96.8581 176.576 96.9437 176.315 96.9437 175.965V175.312L97.002 174.7L96.9728 174.081V173.235H97.5036V175.907C97.5036 176.451 97.3675 176.852 97.0953 177.109C96.8231 177.365 96.4245 177.493 95.8996 177.493ZM95.8296 176.199C95.5302 176.199 95.2618 176.136 95.0246 176.012C94.7913 175.884 94.6047 175.707 94.4647 175.481C94.3286 175.256 94.2605 174.995 94.2605 174.7C94.2605 174.4 94.3286 174.14 94.4647 173.918C94.6047 173.692 94.7913 173.517 95.0246 173.393C95.2618 173.269 95.5302 173.206 95.8296 173.206C96.094 173.206 96.3351 173.261 96.5529 173.37C96.7706 173.475 96.9437 173.638 97.072 173.86C97.2042 174.081 97.2703 174.361 97.2703 174.7C97.2703 175.034 97.2042 175.312 97.072 175.534C96.9437 175.755 96.7706 175.922 96.5529 176.035C96.3351 176.144 96.094 176.199 95.8296 176.199ZM95.8937 175.709C96.0998 175.709 96.2826 175.666 96.442 175.58C96.6015 175.495 96.7259 175.376 96.8153 175.224C96.9087 175.073 96.9553 174.898 96.9553 174.7C96.9553 174.501 96.9087 174.326 96.8153 174.175C96.7259 174.023 96.6015 173.906 96.442 173.825C96.2826 173.739 96.0998 173.696 95.8937 173.696C95.6876 173.696 95.5029 173.739 95.3396 173.825C95.1802 173.906 95.0538 174.023 94.9605 174.175C94.871 174.326 94.8263 174.501 94.8263 174.7C94.8263 174.898 94.871 175.073 94.9605 175.224C95.0538 175.376 95.1802 175.495 95.3396 175.58C95.5029 175.666 95.6876 175.709 95.8937 175.709ZM98.5735 176.327V171.999H99.1335V176.327H98.5735ZM100.203 176.327V173.235H100.763V176.327H100.203ZM100.483 172.641C100.374 172.641 100.282 172.606 100.208 172.536C100.138 172.466 100.103 172.38 100.103 172.279C100.103 172.174 100.138 172.086 100.208 172.016C100.282 171.946 100.374 171.911 100.483 171.911C100.591 171.911 100.681 171.946 100.751 172.016C100.825 172.083 100.862 172.166 100.862 172.267C100.862 172.372 100.827 172.462 100.757 172.536C100.687 172.606 100.595 172.641 100.483 172.641ZM102.718 176.362C102.462 176.362 102.217 176.327 101.983 176.257C101.754 176.187 101.573 176.101 101.441 176L101.674 175.557C101.806 175.646 101.97 175.722 102.164 175.784C102.359 175.847 102.557 175.878 102.759 175.878C103.02 175.878 103.206 175.841 103.319 175.767C103.436 175.693 103.494 175.59 103.494 175.458C103.494 175.361 103.459 175.285 103.389 175.23C103.319 175.176 103.226 175.135 103.109 175.108C102.996 175.081 102.87 175.057 102.73 175.038C102.59 175.015 102.45 174.987 102.31 174.956C102.17 174.921 102.042 174.875 101.925 174.816C101.808 174.754 101.715 174.67 101.645 174.565C101.575 174.457 101.54 174.313 101.54 174.134C101.54 173.947 101.593 173.784 101.698 173.644C101.803 173.504 101.95 173.397 102.141 173.323C102.335 173.245 102.565 173.206 102.829 173.206C103.031 173.206 103.235 173.232 103.442 173.282C103.652 173.329 103.823 173.397 103.955 173.486L103.716 173.93C103.576 173.836 103.43 173.772 103.278 173.737C103.127 173.702 102.975 173.685 102.823 173.685C102.578 173.685 102.396 173.725 102.275 173.807C102.154 173.885 102.094 173.986 102.094 174.11C102.094 174.215 102.129 174.297 102.199 174.355C102.273 174.41 102.366 174.453 102.479 174.484C102.596 174.515 102.724 174.542 102.864 174.565C103.004 174.585 103.144 174.612 103.284 174.647C103.424 174.678 103.55 174.723 103.663 174.781C103.78 174.84 103.873 174.921 103.943 175.026C104.017 175.131 104.054 175.271 104.054 175.446C104.054 175.633 104 175.794 103.891 175.93C103.782 176.066 103.628 176.173 103.43 176.251C103.232 176.325 102.994 176.362 102.718 176.362ZM106.405 173.206C106.657 173.206 106.879 173.255 107.069 173.352C107.264 173.449 107.416 173.597 107.524 173.795C107.633 173.994 107.688 174.245 107.688 174.548V176.327H107.128V174.612C107.128 174.313 107.054 174.087 106.906 173.935C106.762 173.784 106.558 173.708 106.294 173.708C106.095 173.708 105.922 173.747 105.775 173.825C105.627 173.902 105.512 174.017 105.43 174.169C105.353 174.32 105.314 174.509 105.314 174.735V176.327H104.754V171.999H105.314V174.07L105.203 173.848C105.304 173.646 105.46 173.488 105.67 173.375C105.88 173.263 106.125 173.206 106.405 173.206Z" fill="#444444"/>
<path d="M253.275 172.889L251.4 174.764L249.525 172.889" stroke="#727272" stroke-width="0.666612" stroke-linecap="round" stroke-linejoin="round"/>
<rect x="78.999" y="193.245" width="182.402" height="20.3322" rx="3.33306" fill="#6D2ECC"/>
<path d="M148.68 203.706H150.716V204.348H148.68V203.706ZM148.744 205.911H147.986V201.828H150.967V202.464H148.744V205.911ZM151.63 205.911V202.796H152.359V205.911H151.63ZM151.998 202.283C151.861 202.283 151.749 202.24 151.659 202.154C151.574 202.069 151.531 201.966 151.531 201.845C151.531 201.721 151.574 201.618 151.659 201.536C151.749 201.451 151.861 201.408 151.998 201.408C152.134 201.408 152.244 201.449 152.33 201.53C152.419 201.608 152.464 201.707 152.464 201.828C152.464 201.956 152.421 202.065 152.336 202.154C152.25 202.24 152.138 202.283 151.998 202.283ZM155.083 202.761C155.332 202.761 155.554 202.81 155.748 202.907C155.947 203.004 156.102 203.154 156.215 203.356C156.328 203.554 156.384 203.811 156.384 204.126V205.911H155.655V204.219C155.655 203.943 155.589 203.737 155.457 203.601C155.328 203.465 155.148 203.397 154.914 203.397C154.743 203.397 154.592 203.432 154.459 203.502C154.327 203.572 154.224 203.677 154.15 203.817C154.08 203.953 154.045 204.126 154.045 204.336V205.911H153.316V202.796H154.01V203.636L153.888 203.379C153.997 203.181 154.154 203.029 154.36 202.924C154.57 202.815 154.811 202.761 155.083 202.761ZM158.633 205.952C158.334 205.952 158.063 205.885 157.822 205.753C157.585 205.617 157.398 205.431 157.262 205.193C157.126 204.956 157.058 204.676 157.058 204.353C157.058 204.031 157.126 203.751 157.262 203.513C157.398 203.276 157.585 203.092 157.822 202.959C158.063 202.827 158.334 202.761 158.633 202.761C158.894 202.761 159.127 202.819 159.333 202.936C159.539 203.049 159.702 203.222 159.823 203.455C159.944 203.688 160.004 203.988 160.004 204.353C160.004 204.715 159.945 205.014 159.829 205.252C159.712 205.485 159.551 205.66 159.345 205.777C159.139 205.893 158.901 205.952 158.633 205.952ZM158.721 205.327C158.896 205.327 159.051 205.289 159.187 205.211C159.327 205.133 159.438 205.02 159.52 204.873C159.605 204.725 159.648 204.552 159.648 204.353C159.648 204.151 159.605 203.978 159.52 203.834C159.438 203.687 159.327 203.574 159.187 203.496C159.051 203.418 158.896 203.379 158.721 203.379C158.546 203.379 158.388 203.418 158.248 203.496C158.112 203.574 158.001 203.687 157.916 203.834C157.834 203.978 157.793 204.151 157.793 204.353C157.793 204.552 157.834 204.725 157.916 204.873C158.001 205.02 158.112 205.133 158.248 205.211C158.388 205.289 158.546 205.327 158.721 205.327ZM159.665 205.911V205.176L159.695 204.348L159.636 203.519V201.583H160.36V205.911H159.665ZM164.85 205.911V205.281L164.809 205.147V204.044C164.809 203.83 164.745 203.665 164.617 203.548C164.489 203.428 164.294 203.368 164.034 203.368C163.859 203.368 163.686 203.395 163.515 203.449C163.347 203.504 163.205 203.58 163.089 203.677L162.803 203.146C162.97 203.018 163.168 202.922 163.398 202.86C163.631 202.794 163.872 202.761 164.121 202.761C164.572 202.761 164.92 202.87 165.165 203.088C165.414 203.302 165.539 203.634 165.539 204.085V205.911H164.85ZM163.87 205.952C163.637 205.952 163.433 205.913 163.258 205.835C163.083 205.753 162.947 205.642 162.85 205.502C162.756 205.359 162.71 205.197 162.71 205.018C162.71 204.843 162.75 204.686 162.832 204.546C162.918 204.406 163.056 204.295 163.246 204.213C163.437 204.132 163.69 204.091 164.004 204.091H164.909V204.575H164.057C163.808 204.575 163.641 204.616 163.555 204.698C163.47 204.775 163.427 204.873 163.427 204.989C163.427 205.121 163.48 205.226 163.585 205.304C163.69 205.382 163.835 205.421 164.022 205.421C164.201 205.421 164.36 205.38 164.5 205.298C164.644 205.217 164.747 205.096 164.809 204.937L164.932 205.374C164.862 205.557 164.736 205.699 164.553 205.8C164.374 205.901 164.146 205.952 163.87 205.952ZM168.156 205.911V201.828H169.836C170.198 201.828 170.507 201.886 170.764 202.003C171.024 202.119 171.224 202.287 171.364 202.504C171.504 202.722 171.574 202.981 171.574 203.28C171.574 203.58 171.504 203.838 171.364 204.056C171.224 204.274 171.024 204.441 170.764 204.558C170.507 204.674 170.198 204.733 169.836 204.733H168.576L168.915 204.377V205.911H168.156ZM168.915 204.458L168.576 204.091H169.801C170.136 204.091 170.386 204.021 170.554 203.881C170.725 203.737 170.81 203.537 170.81 203.28C170.81 203.02 170.725 202.819 170.554 202.679C170.386 202.539 170.136 202.469 169.801 202.469H168.576L168.915 202.096V204.458ZM172.233 205.911V202.796H172.927V203.653L172.845 203.403C172.939 203.193 173.085 203.033 173.283 202.924C173.485 202.815 173.736 202.761 174.035 202.761V203.455C174.004 203.447 173.975 203.443 173.948 203.443C173.921 203.44 173.893 203.438 173.866 203.438C173.59 203.438 173.37 203.519 173.207 203.683C173.044 203.842 172.962 204.081 172.962 204.4V205.911H172.233ZM176.025 205.952C175.706 205.952 175.423 205.884 175.174 205.747C174.925 205.607 174.728 205.417 174.585 205.176C174.441 204.935 174.369 204.661 174.369 204.353C174.369 204.042 174.441 203.768 174.585 203.531C174.728 203.29 174.925 203.101 175.174 202.965C175.423 202.829 175.706 202.761 176.025 202.761C176.348 202.761 176.634 202.829 176.883 202.965C177.136 203.101 177.332 203.288 177.472 203.525C177.616 203.762 177.688 204.038 177.688 204.353C177.688 204.661 177.616 204.935 177.472 205.176C177.332 205.417 177.136 205.607 176.883 205.747C176.634 205.884 176.348 205.952 176.025 205.952ZM176.025 205.327C176.204 205.327 176.364 205.289 176.504 205.211C176.644 205.133 176.752 205.02 176.83 204.873C176.912 204.725 176.953 204.552 176.953 204.353C176.953 204.151 176.912 203.978 176.83 203.834C176.752 203.687 176.644 203.574 176.504 203.496C176.364 203.418 176.206 203.379 176.031 203.379C175.852 203.379 175.693 203.418 175.553 203.496C175.417 203.574 175.308 203.687 175.226 203.834C175.145 203.978 175.104 204.151 175.104 204.353C175.104 204.552 175.145 204.725 175.226 204.873C175.308 205.02 175.417 205.133 175.553 205.211C175.693 205.289 175.85 205.327 176.025 205.327ZM179.128 205.911L177.792 202.796H178.55L179.699 205.543H179.326L180.516 202.796H181.216L179.88 205.911H179.128ZM181.672 205.911V202.796H182.401V205.911H181.672ZM182.039 202.283C181.903 202.283 181.79 202.24 181.701 202.154C181.615 202.069 181.572 201.966 181.572 201.845C181.572 201.721 181.615 201.618 181.701 201.536C181.79 201.451 181.903 201.408 182.039 201.408C182.175 201.408 182.286 201.449 182.372 201.53C182.461 201.608 182.506 201.707 182.506 201.828C182.506 201.956 182.463 202.065 182.377 202.154C182.292 202.24 182.179 202.283 182.039 202.283ZM184.676 205.952C184.376 205.952 184.106 205.885 183.865 205.753C183.628 205.617 183.441 205.431 183.305 205.193C183.169 204.956 183.101 204.676 183.101 204.353C183.101 204.031 183.169 203.751 183.305 203.513C183.441 203.276 183.628 203.092 183.865 202.959C184.106 202.827 184.376 202.761 184.676 202.761C184.936 202.761 185.17 202.819 185.376 202.936C185.582 203.049 185.745 203.222 185.866 203.455C185.986 203.688 186.047 203.988 186.047 204.353C186.047 204.715 185.988 205.014 185.872 205.252C185.755 205.485 185.594 205.66 185.387 205.777C185.181 205.893 184.944 205.952 184.676 205.952ZM184.763 205.327C184.938 205.327 185.094 205.289 185.23 205.211C185.37 205.133 185.481 205.02 185.562 204.873C185.648 204.725 185.691 204.552 185.691 204.353C185.691 204.151 185.648 203.978 185.562 203.834C185.481 203.687 185.37 203.574 185.23 203.496C185.094 203.418 184.938 203.379 184.763 203.379C184.588 203.379 184.431 203.418 184.291 203.496C184.155 203.574 184.044 203.687 183.958 203.834C183.877 203.978 183.836 204.151 183.836 204.353C183.836 204.552 183.877 204.725 183.958 204.873C184.044 205.02 184.155 205.133 184.291 205.211C184.431 205.289 184.588 205.327 184.763 205.327ZM185.708 205.911V205.176L185.737 204.348L185.679 203.519V201.583H186.402V205.911H185.708ZM188.826 205.952C188.48 205.952 188.177 205.884 187.916 205.747C187.659 205.607 187.459 205.417 187.315 205.176C187.175 204.935 187.105 204.661 187.105 204.353C187.105 204.042 187.173 203.768 187.31 203.531C187.45 203.29 187.64 203.101 187.881 202.965C188.126 202.829 188.404 202.761 188.715 202.761C189.019 202.761 189.289 202.827 189.526 202.959C189.763 203.092 189.95 203.278 190.086 203.519C190.222 203.76 190.29 204.044 190.29 204.371C190.29 204.402 190.288 204.437 190.284 204.476C190.284 204.515 190.282 204.552 190.278 204.587H187.683V204.103H189.893L189.608 204.254C189.612 204.075 189.575 203.918 189.497 203.782C189.419 203.646 189.312 203.539 189.176 203.461C189.044 203.383 188.89 203.344 188.715 203.344C188.536 203.344 188.379 203.383 188.243 203.461C188.111 203.539 188.006 203.648 187.928 203.788C187.854 203.924 187.817 204.085 187.817 204.272V204.388C187.817 204.575 187.86 204.74 187.945 204.884C188.031 205.028 188.151 205.139 188.307 205.217C188.462 205.294 188.641 205.333 188.844 205.333C189.019 205.333 189.176 205.306 189.316 205.252C189.456 205.197 189.58 205.112 189.689 204.995L190.08 205.444C189.94 205.607 189.763 205.734 189.549 205.823C189.339 205.909 189.098 205.952 188.826 205.952ZM190.99 205.911V202.796H191.685V203.653L191.603 203.403C191.696 203.193 191.842 203.033 192.04 202.924C192.243 202.815 192.493 202.761 192.793 202.761V203.455C192.762 203.447 192.733 203.443 192.705 203.443C192.678 203.44 192.651 203.438 192.624 203.438C192.348 203.438 192.128 203.519 191.965 203.683C191.801 203.842 191.72 204.081 191.72 204.4V205.911H190.99Z" fill="white"/>
</svg>
