<svg width="410" height="240" viewBox="0 0 410 240" fill="none" xmlns="http://www.w3.org/2000/svg">
<path d="M410 24C410 10.7452 399.255 0 386 0H102.715C91.7607 0 82.1965 7.41711 79.4701 18.0266L65.5147 72.332C63.9521 78.4127 60.069 83.639 54.6981 86.8901L0 120L54.6981 153.11C60.0689 156.361 63.9521 161.587 65.5147 167.668L79.4701 221.973C82.1965 232.583 91.7607 240 102.715 240H386C399.255 240 410 229.255 410 216V24Z" fill="#F6F5FD"/>
<path d="M201.627 30.788H199.499V20.736H205.995V22.584H201.627V25.118H205.309V26.952H201.627V30.788ZM209.542 21.576C209.542 22.234 209.01 22.724 208.24 22.724C207.484 22.724 206.952 22.234 206.952 21.576C206.952 20.89 207.484 20.4 208.24 20.4C209.01 20.4 209.542 20.89 209.542 21.576ZM209.234 30.788H207.288V23.312H209.234V30.788ZM212.926 30.788H210.966V20.736H212.926V30.788ZM216.631 30.788H214.671V20.736H216.631V30.788ZM225.964 30.788H223.836V22.654H220.672V20.736H229.142V22.654H225.964V30.788ZM232.631 30.928C230.461 30.928 228.837 29.22 228.837 27.05C228.837 24.866 230.461 23.172 232.631 23.172C234.801 23.172 236.425 24.866 236.425 27.05C236.425 29.22 234.801 30.928 232.631 30.928ZM232.631 29.206C233.597 29.206 234.423 28.436 234.423 27.05C234.423 25.664 233.597 24.908 232.631 24.908C231.665 24.908 230.839 25.664 230.839 27.05C230.839 28.436 231.665 29.206 232.631 29.206ZM242.889 30.788H240.761V20.736H244.695C247.229 20.736 248.699 21.912 248.699 23.998C248.699 25.356 247.859 26.434 246.431 26.91L249.021 30.788H246.487L244.219 27.232H242.889V30.788ZM242.889 22.5V25.482H244.597C245.885 25.482 246.571 24.978 246.571 23.998C246.571 23.004 245.885 22.5 244.597 22.5H242.889ZM253.111 30.914C250.871 30.914 249.373 29.36 249.373 27.022C249.373 24.796 250.927 23.172 253.083 23.172C255.449 23.172 257.017 25.09 256.667 27.526H251.361C251.487 28.744 252.075 29.416 253.069 29.416C253.923 29.416 254.497 28.996 254.721 28.254H256.653C256.233 29.948 254.931 30.914 253.111 30.914ZM253.041 24.6C252.131 24.6 251.557 25.188 251.389 26.294H254.609C254.553 25.258 253.965 24.6 253.041 24.6ZM262.422 30.788V29.864C261.932 30.564 261.19 30.928 260.168 30.928C258.614 30.928 257.578 30.018 257.578 28.618C257.578 27.162 258.754 26.378 260.938 26.378C261.358 26.378 261.722 26.406 262.184 26.462V26.014C262.184 25.174 261.708 24.684 260.896 24.684C260.056 24.684 259.552 25.174 259.482 26.014H257.732C257.844 24.292 259.09 23.172 260.896 23.172C262.856 23.172 264.004 24.25 264.004 26.084V30.788H262.422ZM259.412 28.562C259.412 29.192 259.86 29.584 260.588 29.584C261.582 29.584 262.184 29.038 262.184 28.17V27.638C261.722 27.568 261.4 27.54 261.064 27.54C259.958 27.54 259.412 27.89 259.412 28.562ZM268.831 30.928C266.675 30.928 265.191 29.332 265.191 27.05C265.191 24.81 266.731 23.172 268.831 23.172C270.777 23.172 272.219 24.488 272.457 26.504H270.413C270.315 25.51 269.713 24.894 268.831 24.894C267.823 24.894 267.179 25.72 267.179 27.05C267.179 28.394 267.809 29.206 268.831 29.206C269.727 29.206 270.301 28.618 270.413 27.596H272.457C272.233 29.654 270.833 30.928 268.831 30.928ZM275.652 26.714V30.788H273.706V20.736H275.652V24.292C276.17 23.606 276.814 23.172 277.794 23.172C279.292 23.172 280.328 24.152 280.328 25.958V30.788H278.396V26.616C278.396 25.51 277.962 24.894 277.08 24.894C276.31 24.894 275.652 25.51 275.652 26.714Z" fill="#6D2ECC"/>
<rect x="138.8" y="41.788" width="202" height="183" rx="4.33992" fill="white"/>
<rect x="138.981" y="41.9688" width="201.638" height="182.638" rx="4.15909" stroke="#002C4B" stroke-opacity="0.12" stroke-width="0.36166"/>
<path d="M150.197 59.5719C149.711 59.5719 149.245 59.5083 148.799 59.381C148.354 59.2479 147.995 59.0772 147.723 58.8689L148.2 57.8099C148.461 57.9951 148.767 58.1484 149.12 58.27C149.479 58.3857 149.841 58.4436 150.205 58.4436C150.483 58.4436 150.706 58.4175 150.874 58.3654C151.047 58.3076 151.175 58.2294 151.256 58.1311C151.337 58.0327 151.377 57.9199 151.377 57.7926C151.377 57.6305 151.314 57.5032 151.186 57.4107C151.059 57.3123 150.891 57.2342 150.683 57.1763C150.475 57.1126 150.243 57.0548 149.988 57.0027C149.74 56.9448 149.488 56.8754 149.233 56.7944C148.984 56.7134 148.756 56.6092 148.548 56.4819C148.339 56.3546 148.169 56.1868 148.035 55.9785C147.908 55.7702 147.845 55.504 147.845 55.1799C147.845 54.8327 147.937 54.5174 148.122 54.2338C148.313 53.9445 148.597 53.7159 148.973 53.5481C149.355 53.3745 149.832 53.2877 150.405 53.2877C150.787 53.2877 151.163 53.334 151.533 53.4266C151.904 53.5134 152.231 53.6465 152.514 53.8259L152.08 54.8935C151.797 54.7315 151.513 54.6128 151.23 54.5376C150.946 54.4566 150.668 54.4161 150.396 54.4161C150.124 54.4161 149.902 54.4479 149.728 54.5116C149.554 54.5752 149.43 54.6591 149.355 54.7633C149.28 54.8617 149.242 54.9774 149.242 55.1105C149.242 55.2667 149.306 55.394 149.433 55.4924C149.56 55.585 149.728 55.6602 149.936 55.7181C150.145 55.7759 150.373 55.8338 150.622 55.8917C150.877 55.9495 151.128 56.0161 151.377 56.0913C151.632 56.1665 151.863 56.2678 152.072 56.3951C152.28 56.5224 152.448 56.6902 152.575 56.8985C152.708 57.1069 152.775 57.3701 152.775 57.6884C152.775 58.0298 152.679 58.3423 152.488 58.6258C152.297 58.9094 152.011 59.1379 151.629 59.3115C151.253 59.4851 150.775 59.5719 150.197 59.5719ZM155.958 59.5372C155.425 59.5372 154.956 59.4331 154.551 59.2247C154.152 59.0164 153.843 58.7329 153.623 58.3741C153.403 58.0096 153.293 57.5958 153.293 57.1329C153.293 56.6642 153.4 56.2504 153.614 55.8917C153.834 55.5271 154.132 55.2436 154.508 55.0411C154.884 54.8327 155.309 54.7286 155.784 54.7286C156.241 54.7286 156.652 54.827 157.016 55.0237C157.387 55.2147 157.679 55.4924 157.893 55.857C158.107 56.2157 158.214 56.6468 158.214 57.1503C158.214 57.2023 158.211 57.2631 158.206 57.3325C158.2 57.3962 158.194 57.4569 158.188 57.5148H154.395V56.7249H157.477L156.956 56.9593C156.956 56.7163 156.907 56.5051 156.808 56.3257C156.71 56.1463 156.574 56.0074 156.4 55.909C156.227 55.8049 156.024 55.7528 155.793 55.7528C155.561 55.7528 155.356 55.8049 155.176 55.909C155.003 56.0074 154.867 56.1492 154.768 56.3344C154.67 56.5137 154.621 56.7278 154.621 56.9767V57.185C154.621 57.4396 154.676 57.6653 154.786 57.862C154.901 58.053 155.061 58.2005 155.263 58.3047C155.471 58.403 155.715 58.4522 155.992 58.4522C156.241 58.4522 156.458 58.4146 156.643 58.3394C156.834 58.2642 157.008 58.1513 157.164 58.0009L157.884 58.7821C157.67 59.0251 157.401 59.2132 157.077 59.3463C156.753 59.4736 156.38 59.5372 155.958 59.5372ZM161.954 54.7286C162.324 54.7286 162.654 54.8038 162.944 54.9543C163.239 55.0989 163.47 55.3246 163.638 55.6313C163.806 55.9322 163.89 56.3199 163.89 56.7944V59.4678H162.536V57.0027C162.536 56.6266 162.452 56.3488 162.284 56.1694C162.122 55.99 161.89 55.9004 161.59 55.9004C161.375 55.9004 161.182 55.9467 161.008 56.0392C160.84 56.126 160.707 56.262 160.609 56.4472C160.516 56.6324 160.47 56.8696 160.47 57.1589V59.4678H159.116V54.798H160.409V56.0913L160.166 55.7007C160.334 55.3882 160.574 55.1481 160.886 54.9803C161.199 54.8125 161.555 54.7286 161.954 54.7286ZM167.156 59.5372C166.716 59.5372 166.32 59.4388 165.967 59.2421C165.614 59.0396 165.333 58.7589 165.125 58.4002C164.922 58.0414 164.821 57.619 164.821 57.1329C164.821 56.641 164.922 56.2157 165.125 55.857C165.333 55.4982 165.614 55.2204 165.967 55.0237C166.32 54.827 166.716 54.7286 167.156 54.7286C167.55 54.7286 167.894 54.8154 168.189 54.989C168.484 55.1626 168.713 55.4259 168.875 55.7788C169.037 56.1318 169.118 56.5832 169.118 57.1329C169.118 57.6768 169.04 58.1282 168.883 58.487C168.727 58.8399 168.501 59.1032 168.206 59.2768C167.917 59.4504 167.567 59.5372 167.156 59.5372ZM167.39 58.4262C167.61 58.4262 167.81 58.3741 167.989 58.27C168.169 58.1658 168.31 58.0182 168.415 57.8273C168.525 57.6305 168.58 57.3991 168.58 57.1329C168.58 56.8609 168.525 56.6295 168.415 56.4385C168.31 56.2476 168.169 56.1 167.989 55.9958C167.81 55.8917 167.61 55.8396 167.39 55.8396C167.165 55.8396 166.962 55.8917 166.783 55.9958C166.603 56.1 166.459 56.2476 166.349 56.4385C166.245 56.6295 166.193 56.8609 166.193 57.1329C166.193 57.3991 166.245 57.6305 166.349 57.8273C166.459 58.0182 166.603 58.1658 166.783 58.27C166.962 58.3741 167.165 58.4262 167.39 58.4262ZM168.614 59.4678V58.513L168.64 57.1242L168.553 55.7441V53.0273H169.908V59.4678H168.614ZM176.483 59.4678V58.5564L176.396 58.3568V56.7249C176.396 56.4356 176.307 56.2099 176.127 56.0479C175.954 55.8859 175.685 55.8049 175.32 55.8049C175.071 55.8049 174.825 55.8454 174.582 55.9264C174.345 56.0016 174.143 56.1058 173.975 56.2389L173.489 55.2928C173.743 55.1134 174.05 54.9745 174.409 54.8761C174.768 54.7778 175.132 54.7286 175.502 54.7286C176.214 54.7286 176.767 54.8964 177.16 55.232C177.554 55.5676 177.751 56.0913 177.751 56.8031V59.4678H176.483ZM175.06 59.5372C174.695 59.5372 174.383 59.4765 174.122 59.3549C173.862 59.2276 173.662 59.0569 173.523 58.8428C173.385 58.6287 173.315 58.3886 173.315 58.1224C173.315 57.8446 173.382 57.6016 173.515 57.3933C173.654 57.185 173.871 57.023 174.166 56.9072C174.461 56.7857 174.846 56.7249 175.32 56.7249H176.561V57.5148H175.468C175.149 57.5148 174.93 57.5669 174.808 57.671C174.692 57.7752 174.634 57.9054 174.634 58.0616C174.634 58.2352 174.701 58.3741 174.834 58.4783C174.973 58.5766 175.161 58.6258 175.398 58.6258C175.624 58.6258 175.826 58.5737 176.006 58.4696C176.185 58.3596 176.315 58.2005 176.396 57.9922L176.605 58.6171C176.506 58.9181 176.327 59.1466 176.067 59.3029C175.806 59.4591 175.471 59.5372 175.06 59.5372ZM181.53 59.4678V53.3919H182.693L185.279 57.6797H184.663L187.206 53.3919H188.361L188.378 59.4678H187.059L187.05 55.4143H187.293L185.262 58.8255H184.628L182.554 55.4143H182.849V59.4678H181.53ZM192.042 59.5372C191.509 59.5372 191.041 59.4331 190.635 59.2247C190.236 59.0164 189.927 58.7329 189.707 58.3741C189.487 58.0096 189.377 57.5958 189.377 57.1329C189.377 56.6642 189.484 56.2504 189.698 55.8917C189.918 55.5271 190.216 55.2436 190.592 55.0411C190.968 54.8327 191.394 54.7286 191.868 54.7286C192.325 54.7286 192.736 54.827 193.101 55.0237C193.471 55.2147 193.763 55.4924 193.977 55.857C194.191 56.2157 194.298 56.6468 194.298 57.1503C194.298 57.2023 194.295 57.2631 194.29 57.3325C194.284 57.3962 194.278 57.4569 194.272 57.5148H190.479V56.7249H193.561L193.04 56.9593C193.04 56.7163 192.991 56.5051 192.892 56.3257C192.794 56.1463 192.658 56.0074 192.484 55.909C192.311 55.8049 192.108 55.7528 191.877 55.7528C191.645 55.7528 191.44 55.8049 191.26 55.909C191.087 56.0074 190.951 56.1492 190.852 56.3344C190.754 56.5137 190.705 56.7278 190.705 56.9767V57.185C190.705 57.4396 190.76 57.6653 190.87 57.862C190.986 58.053 191.145 58.2005 191.347 58.3047C191.556 58.403 191.799 58.4522 192.076 58.4522C192.325 58.4522 192.542 58.4146 192.727 58.3394C192.918 58.2642 193.092 58.1513 193.248 58.0009L193.969 58.7821C193.754 59.0251 193.485 59.2132 193.161 59.3463C192.837 59.4736 192.464 59.5372 192.042 59.5372ZM196.771 59.5372C196.372 59.5372 195.987 59.4909 195.616 59.3983C195.252 59.3 194.963 59.1784 194.749 59.0338L195.2 58.0616C195.414 58.1947 195.666 58.3047 195.955 58.3915C196.25 58.4725 196.539 58.513 196.823 58.513C197.135 58.513 197.355 58.4754 197.483 58.4002C197.616 58.3249 197.682 58.2208 197.682 58.0877C197.682 57.9777 197.63 57.8967 197.526 57.8446C197.428 57.7868 197.295 57.7434 197.127 57.7144C196.959 57.6855 196.774 57.6566 196.571 57.6276C196.375 57.5987 196.175 57.5611 195.972 57.5148C195.77 57.4627 195.585 57.3875 195.417 57.2891C195.249 57.1908 195.113 57.0577 195.009 56.8899C194.911 56.722 194.861 56.5051 194.861 56.2389C194.861 55.9438 194.945 55.6834 195.113 55.4577C195.287 55.232 195.535 55.0555 195.86 54.9282C196.184 54.7951 196.571 54.7286 197.023 54.7286C197.341 54.7286 197.665 54.7633 197.995 54.8327C198.325 54.9022 198.599 55.0034 198.819 55.1365L198.368 56.1C198.142 55.9669 197.914 55.8772 197.682 55.8309C197.457 55.7788 197.237 55.7528 197.023 55.7528C196.722 55.7528 196.502 55.7933 196.363 55.8743C196.224 55.9553 196.155 56.0595 196.155 56.1868C196.155 56.3025 196.204 56.3893 196.302 56.4472C196.406 56.5051 196.542 56.5513 196.71 56.5861C196.878 56.6208 197.06 56.6526 197.257 56.6815C197.46 56.7047 197.662 56.7423 197.865 56.7944C198.067 56.8465 198.249 56.9217 198.411 57.0201C198.579 57.1126 198.715 57.2428 198.819 57.4107C198.924 57.5727 198.976 57.7868 198.976 58.053C198.976 58.3423 198.889 58.5998 198.715 58.8255C198.542 59.0454 198.29 59.219 197.96 59.3463C197.636 59.4736 197.24 59.5372 196.771 59.5372ZM201.382 59.5372C200.983 59.5372 200.598 59.4909 200.228 59.3983C199.863 59.3 199.574 59.1784 199.36 59.0338L199.811 58.0616C200.025 58.1947 200.277 58.3047 200.566 58.3915C200.861 58.4725 201.151 58.513 201.434 58.513C201.747 58.513 201.967 58.4754 202.094 58.4002C202.227 58.3249 202.293 58.2208 202.293 58.0877C202.293 57.9777 202.241 57.8967 202.137 57.8446C202.039 57.7868 201.906 57.7434 201.738 57.7144C201.57 57.6855 201.385 57.6566 201.182 57.6276C200.986 57.5987 200.786 57.5611 200.584 57.5148C200.381 57.4627 200.196 57.3875 200.028 57.2891C199.86 57.1908 199.724 57.0577 199.62 56.8899C199.522 56.722 199.473 56.5051 199.473 56.2389C199.473 55.9438 199.556 55.6834 199.724 55.4577C199.898 55.232 200.147 55.0555 200.471 54.9282C200.795 54.7951 201.182 54.7286 201.634 54.7286C201.952 54.7286 202.276 54.7633 202.606 54.8327C202.936 54.9022 203.211 55.0034 203.431 55.1365L202.979 56.1C202.753 55.9669 202.525 55.8772 202.293 55.8309C202.068 55.7788 201.848 55.7528 201.634 55.7528C201.333 55.7528 201.113 55.7933 200.974 55.8743C200.835 55.9553 200.766 56.0595 200.766 56.1868C200.766 56.3025 200.815 56.3893 200.913 56.4472C201.018 56.5051 201.154 56.5513 201.321 56.5861C201.489 56.6208 201.671 56.6526 201.868 56.6815C202.071 56.7047 202.273 56.7423 202.476 56.7944C202.678 56.8465 202.861 56.9217 203.023 57.0201C203.19 57.1126 203.326 57.2428 203.431 57.4107C203.535 57.5727 203.587 57.7868 203.587 58.053C203.587 58.3423 203.5 58.5998 203.326 58.8255C203.153 59.0454 202.901 59.219 202.571 59.3463C202.247 59.4736 201.851 59.5372 201.382 59.5372ZM207.287 59.4678V58.5564L207.2 58.3568V56.7249C207.2 56.4356 207.11 56.2099 206.931 56.0479C206.757 55.8859 206.488 55.8049 206.123 55.8049C205.875 55.8049 205.629 55.8454 205.386 55.9264C205.148 56.0016 204.946 56.1058 204.778 56.2389L204.292 55.2928C204.547 55.1134 204.853 54.9745 205.212 54.8761C205.571 54.7778 205.935 54.7286 206.306 54.7286C207.017 54.7286 207.57 54.8964 207.964 55.232C208.357 55.5676 208.554 56.0913 208.554 56.8031V59.4678H207.287ZM205.863 59.5372C205.498 59.5372 205.186 59.4765 204.926 59.3549C204.665 59.2276 204.466 59.0569 204.327 58.8428C204.188 58.6287 204.118 58.3886 204.118 58.1224C204.118 57.8446 204.185 57.6016 204.318 57.3933C204.457 57.185 204.674 57.023 204.969 56.9072C205.264 56.7857 205.649 56.7249 206.123 56.7249H207.365V57.5148H206.271C205.953 57.5148 205.733 57.5669 205.611 57.671C205.496 57.7752 205.438 57.9054 205.438 58.0616C205.438 58.2352 205.504 58.3741 205.637 58.4783C205.776 58.5766 205.964 58.6258 206.202 58.6258C206.427 58.6258 206.63 58.5737 206.809 58.4696C206.989 58.3596 207.119 58.2005 207.2 57.9922L207.408 58.6171C207.31 58.9181 207.13 59.1466 206.87 59.3029C206.61 59.4591 206.274 59.5372 205.863 59.5372ZM212.009 61.2211C211.569 61.2211 211.144 61.1661 210.733 61.0562C210.328 60.952 209.99 60.7929 209.718 60.5788L210.256 59.6067C210.453 59.7687 210.701 59.896 211.002 59.9886C211.309 60.0869 211.61 60.1361 211.905 60.1361C212.385 60.1361 212.733 60.0291 212.947 59.815C213.166 59.6009 213.276 59.2826 213.276 58.8602V58.1571L213.363 56.9853L213.346 55.8049V54.798H214.63V58.6866C214.63 59.5546 214.405 60.194 213.953 60.6048C213.502 61.0157 212.854 61.2211 212.009 61.2211ZM211.801 59.2421C211.367 59.2421 210.973 59.1495 210.62 58.9643C210.273 58.7734 209.993 58.5101 209.778 58.1745C209.57 57.8331 209.466 57.4367 209.466 56.9853C209.466 56.5282 209.57 56.1318 209.778 55.7962C209.993 55.4548 210.273 55.1915 210.62 55.0063C210.973 54.8212 211.367 54.7286 211.801 54.7286C212.194 54.7286 212.542 54.8096 212.842 54.9716C213.143 55.1279 213.378 55.3738 213.546 55.7094C213.713 56.0392 213.797 56.4645 213.797 56.9853C213.797 57.5003 213.713 57.9257 213.546 58.2613C213.378 58.5911 213.143 58.837 212.842 58.9991C212.542 59.1611 212.194 59.2421 211.801 59.2421ZM212.07 58.1311C212.307 58.1311 212.518 58.0848 212.704 57.9922C212.889 57.8938 213.033 57.7578 213.138 57.5842C213.242 57.4107 213.294 57.211 213.294 56.9853C213.294 56.7539 213.242 56.5542 213.138 56.3864C213.033 56.2128 212.889 56.0797 212.704 55.9872C212.518 55.8888 212.307 55.8396 212.07 55.8396C211.833 55.8396 211.621 55.8888 211.436 55.9872C211.251 56.0797 211.104 56.2128 210.994 56.3864C210.889 56.5542 210.837 56.7539 210.837 56.9853C210.837 57.211 210.889 57.4107 210.994 57.5842C211.104 57.7578 211.251 57.8938 211.436 57.9922C211.621 58.0848 211.833 58.1311 212.07 58.1311ZM218.208 59.5372C217.676 59.5372 217.207 59.4331 216.802 59.2247C216.403 59.0164 216.093 58.7329 215.873 58.3741C215.654 58.0096 215.544 57.5958 215.544 57.1329C215.544 56.6642 215.651 56.2504 215.865 55.8917C216.085 55.5271 216.383 55.2436 216.759 55.0411C217.135 54.8327 217.56 54.7286 218.035 54.7286C218.492 54.7286 218.903 54.827 219.267 55.0237C219.638 55.2147 219.93 55.4924 220.144 55.857C220.358 56.2157 220.465 56.6468 220.465 57.1503C220.465 57.2023 220.462 57.2631 220.456 57.3325C220.451 57.3962 220.445 57.4569 220.439 57.5148H216.646V56.7249H219.727L219.206 56.9593C219.206 56.7163 219.157 56.5051 219.059 56.3257C218.961 56.1463 218.825 56.0074 218.651 55.909C218.477 55.8049 218.275 55.7528 218.043 55.7528C217.812 55.7528 217.606 55.8049 217.427 55.909C217.253 56.0074 217.118 56.1492 217.019 56.3344C216.921 56.5137 216.872 56.7278 216.872 56.9767V57.185C216.872 57.4396 216.927 57.6653 217.037 57.862C217.152 58.053 217.311 58.2005 217.514 58.3047C217.722 58.403 217.965 58.4522 218.243 58.4522C218.492 58.4522 218.709 58.4146 218.894 58.3394C219.085 58.2642 219.259 58.1513 219.415 58.0009L220.135 58.7821C219.921 59.0251 219.652 59.2132 219.328 59.3463C219.004 59.4736 218.631 59.5372 218.208 59.5372Z" fill="#6D2ECC"/>
<path d="M147.956 76.5942V73.05H148.498L150.72 75.7791H150.452V73.05H151.105V76.5942H150.563L148.341 73.8652H148.609V76.5942H147.956ZM153.66 76.5942V76.0474L153.625 75.931V74.974C153.625 74.7883 153.569 74.6449 153.457 74.5436C153.346 74.439 153.177 74.3867 152.951 74.3867C152.799 74.3867 152.649 74.4103 152.501 74.4576C152.355 74.5048 152.232 74.5706 152.131 74.655L151.883 74.1943C152.028 74.0829 152.2 74.0002 152.399 73.9462C152.602 73.8888 152.811 73.8601 153.027 73.8601C153.419 73.8601 153.721 73.9546 153.933 74.1436C154.149 74.3293 154.257 74.6179 154.257 75.0094V76.5942H153.66ZM152.809 76.6297C152.607 76.6297 152.43 76.5959 152.278 76.5284C152.126 76.4575 152.008 76.3613 151.923 76.2398C151.842 76.1149 151.802 75.9748 151.802 75.8196C151.802 75.6677 151.837 75.531 151.908 75.4094C151.982 75.2879 152.102 75.1917 152.268 75.1208C152.433 75.0499 152.652 75.0145 152.926 75.0145H153.711V75.4348H152.971C152.755 75.4348 152.61 75.4702 152.536 75.5411C152.462 75.6086 152.425 75.693 152.425 75.7942C152.425 75.909 152.47 76.0002 152.561 76.0677C152.652 76.1352 152.779 76.1689 152.941 76.1689C153.096 76.1689 153.235 76.1335 153.356 76.0626C153.481 75.9917 153.571 75.8871 153.625 75.7487L153.731 76.1284C153.67 76.2871 153.56 76.4103 153.402 76.498C153.247 76.5858 153.049 76.6297 152.809 76.6297ZM158.482 73.8601C158.698 73.8601 158.889 73.9023 159.055 73.9867C159.223 74.0711 159.355 74.201 159.449 74.3765C159.544 74.5487 159.591 74.7715 159.591 75.0449V76.5942H158.958V75.1259C158.958 74.8862 158.906 74.7073 158.801 74.5892C158.697 74.4711 158.546 74.412 158.351 74.412C158.212 74.412 158.089 74.4424 157.981 74.5031C157.876 74.5639 157.794 74.6533 157.733 74.7715C157.676 74.8896 157.647 75.0398 157.647 75.2221V76.5942H157.014V75.1259C157.014 74.8862 156.962 74.7073 156.857 74.5892C156.752 74.4711 156.602 74.412 156.406 74.412C156.268 74.412 156.145 74.4424 156.037 74.5031C155.932 74.5639 155.849 74.6533 155.789 74.7715C155.731 74.8896 155.703 75.0398 155.703 75.2221V76.5942H155.07V73.8905H155.672V74.6094L155.566 74.3968C155.657 74.2213 155.789 74.0879 155.961 73.9968C156.136 73.9057 156.336 73.8601 156.558 73.8601C156.811 73.8601 157.031 73.9225 157.217 74.0474C157.406 74.1723 157.53 74.3613 157.591 74.6145L157.343 74.5284C157.431 74.3259 157.576 74.1639 157.779 74.0424C157.981 73.9208 158.216 73.8601 158.482 73.8601ZM161.676 76.6297C161.375 76.6297 161.112 76.5706 160.886 76.4525C160.663 76.3309 160.489 76.1656 160.364 75.9563C160.243 75.747 160.182 75.509 160.182 75.2424C160.182 74.9723 160.241 74.7343 160.359 74.5284C160.481 74.3192 160.646 74.1554 160.856 74.0373C161.068 73.9192 161.31 73.8601 161.58 73.8601C161.843 73.8601 162.077 73.9175 162.283 74.0322C162.489 74.147 162.651 74.309 162.769 74.5183C162.888 74.7276 162.947 74.974 162.947 75.2575C162.947 75.2845 162.945 75.3149 162.942 75.3487C162.942 75.3824 162.94 75.4145 162.937 75.4449H160.683V75.0246H162.602L162.354 75.1563C162.358 75.001 162.326 74.8643 162.258 74.7462C162.191 74.628 162.098 74.5352 161.98 74.4677C161.865 74.4002 161.732 74.3664 161.58 74.3664C161.424 74.3664 161.288 74.4002 161.169 74.4677C161.055 74.5352 160.964 74.6297 160.896 74.7512C160.832 74.8694 160.8 75.0094 160.8 75.1715V75.2727C160.8 75.4348 160.837 75.5782 160.911 75.7031C160.986 75.828 161.09 75.9242 161.225 75.9917C161.36 76.0592 161.515 76.093 161.691 76.093C161.843 76.093 161.98 76.0693 162.101 76.0221C162.223 75.9748 162.331 75.9006 162.425 75.7993L162.764 76.1892C162.643 76.3309 162.489 76.4407 162.304 76.5183C162.121 76.5926 161.912 76.6297 161.676 76.6297Z" fill="#6D2ECC"/>
<rect x="147.48" y="80.4875" width="184.64" height="14.6798" rx="2.89328" fill="#F3F3F3"/>
<path d="M154.286 87.868H156.159V88.187H154.286V87.868ZM154.326 89.5035H156.458V89.8275H153.952V86.2832H156.382V86.6073H154.326V89.5035ZM158.62 87.144C158.836 87.144 159.025 87.1862 159.187 87.2706C159.352 87.3516 159.48 87.4765 159.571 87.6453C159.666 87.814 159.713 88.0267 159.713 88.2832V89.8275H159.354V88.3187C159.354 88.0385 159.283 87.8275 159.141 87.6858C159.003 87.5406 158.807 87.468 158.554 87.468C158.365 87.468 158.199 87.5069 158.058 87.5845C157.919 87.6588 157.811 87.7685 157.734 87.9136C157.659 88.0554 157.622 88.2275 157.622 88.4301V89.8275H157.263V87.1693H157.607V87.8984L157.551 87.7617C157.636 87.5693 157.771 87.4191 157.956 87.3111C158.142 87.1997 158.363 87.144 158.62 87.144ZM161.525 89.8528C161.275 89.8528 161.083 89.7853 160.948 89.6503C160.813 89.5153 160.745 89.3246 160.745 89.0782V86.582H161.105V89.0579C161.105 89.2132 161.143 89.333 161.221 89.4174C161.302 89.5018 161.417 89.544 161.565 89.544C161.724 89.544 161.856 89.4984 161.96 89.4073L162.087 89.6655C162.016 89.7296 161.93 89.7769 161.829 89.8073C161.731 89.8376 161.629 89.8528 161.525 89.8528ZM160.269 87.468V87.1693H161.915V87.468H160.269ZM163.776 89.8528C163.5 89.8528 163.257 89.7954 163.047 89.6807C162.838 89.5625 162.674 89.4022 162.556 89.1997C162.438 88.9938 162.379 88.7592 162.379 88.4959C162.379 88.2326 162.435 87.9997 162.546 87.7972C162.661 87.5946 162.816 87.436 163.012 87.3212C163.211 87.2031 163.434 87.144 163.68 87.144C163.93 87.144 164.151 87.2014 164.343 87.3161C164.539 87.4275 164.693 87.5862 164.804 87.7921C164.916 87.9946 164.971 88.2292 164.971 88.4959C164.971 88.5128 164.97 88.5313 164.966 88.5516C164.966 88.5685 164.966 88.587 164.966 88.6073H162.652V88.3389H164.774L164.632 88.4452C164.632 88.2528 164.59 88.0824 164.505 87.9339C164.424 87.782 164.313 87.6638 164.171 87.5794C164.03 87.495 163.866 87.4529 163.68 87.4529C163.498 87.4529 163.334 87.495 163.189 87.5794C163.044 87.6638 162.931 87.782 162.85 87.9339C162.769 88.0858 162.728 88.2596 162.728 88.4554V88.5111C162.728 88.7136 162.772 88.8925 162.86 89.0478C162.951 89.1997 163.076 89.3195 163.235 89.4073C163.397 89.4917 163.581 89.5338 163.787 89.5338C163.949 89.5338 164.099 89.5052 164.237 89.4478C164.379 89.3904 164.5 89.3026 164.602 89.1845L164.804 89.4174C164.686 89.5592 164.538 89.6672 164.359 89.7414C164.183 89.8157 163.989 89.8528 163.776 89.8528ZM165.703 89.8275V87.1693H166.047V87.8934L166.012 87.7668C166.086 87.5642 166.211 87.4107 166.387 87.306C166.562 87.198 166.78 87.144 167.04 87.144V87.4934C167.026 87.4934 167.013 87.4934 166.999 87.4934C166.986 87.49 166.972 87.4883 166.959 87.4883C166.679 87.4883 166.459 87.5744 166.3 87.7465C166.142 87.9153 166.063 88.1566 166.063 88.4706V89.8275H165.703ZM169.081 90.8351C168.956 90.8351 168.836 90.8148 168.721 90.7743C168.61 90.7338 168.514 90.6731 168.433 90.5921L168.6 90.3237C168.667 90.3878 168.74 90.4368 168.817 90.4705C168.898 90.5077 168.988 90.5262 169.086 90.5262C169.204 90.5262 169.305 90.4925 169.39 90.425C169.477 90.3608 169.56 90.2461 169.638 90.0807L169.81 89.6908L169.85 89.6351L170.944 87.1693H171.298L169.967 90.1465C169.892 90.3186 169.81 90.4554 169.719 90.5566C169.631 90.6579 169.535 90.7288 169.43 90.7693C169.325 90.8132 169.209 90.8351 169.081 90.8351ZM169.789 89.9035L168.564 87.1693H168.939L170.022 89.6098L169.789 89.9035ZM172.814 89.8528C172.557 89.8528 172.326 89.7954 172.12 89.6807C171.918 89.5625 171.757 89.4022 171.639 89.1997C171.521 88.9938 171.462 88.7592 171.462 88.4959C171.462 88.2292 171.521 87.9946 171.639 87.7921C171.757 87.5896 171.918 87.4309 172.12 87.3161C172.323 87.2014 172.554 87.144 172.814 87.144C173.077 87.144 173.31 87.2014 173.513 87.3161C173.719 87.4309 173.879 87.5896 173.994 87.7921C174.112 87.9946 174.171 88.2292 174.171 88.4959C174.171 88.7592 174.112 88.9938 173.994 89.1997C173.879 89.4022 173.719 89.5625 173.513 89.6807C173.307 89.7954 173.074 89.8528 172.814 89.8528ZM172.814 89.5338C173.006 89.5338 173.177 89.4917 173.325 89.4073C173.474 89.3195 173.59 89.198 173.675 89.0427C173.763 88.8841 173.806 88.7018 173.806 88.4959C173.806 88.2866 173.763 88.1043 173.675 87.9491C173.59 87.7938 173.474 87.6739 173.325 87.5896C173.177 87.5018 173.008 87.4579 172.819 87.4579C172.63 87.4579 172.461 87.5018 172.313 87.5896C172.164 87.6739 172.046 87.7938 171.958 87.9491C171.871 88.1043 171.827 88.2866 171.827 88.4959C171.827 88.7018 171.871 88.8841 171.958 89.0427C172.046 89.198 172.164 89.3195 172.313 89.4073C172.461 89.4917 172.628 89.5338 172.814 89.5338ZM176.004 89.8528C175.777 89.8528 175.58 89.8106 175.411 89.7262C175.242 89.6419 175.111 89.5153 175.016 89.3465C174.925 89.1777 174.88 88.9668 174.88 88.7136V87.1693H175.239V88.6731C175.239 88.9566 175.308 89.171 175.447 89.3161C175.588 89.4579 175.786 89.5288 176.039 89.5288C176.225 89.5288 176.385 89.4917 176.52 89.4174C176.658 89.3398 176.763 89.2284 176.834 89.0832C176.908 88.9381 176.945 88.7642 176.945 88.5617V87.1693H177.305V89.8275H176.961V89.0984L177.016 89.2301C176.932 89.4258 176.8 89.5794 176.621 89.6908C176.446 89.7988 176.24 89.8528 176.004 89.8528ZM178.307 89.8275V87.1693H178.651V87.8934L178.616 87.7668C178.69 87.5642 178.815 87.4107 178.99 87.306C179.166 87.198 179.384 87.144 179.643 87.144V87.4934C179.63 87.4934 179.616 87.4934 179.603 87.4934C179.589 87.49 179.576 87.4883 179.562 87.4883C179.282 87.4883 179.063 87.5744 178.904 87.7465C178.746 87.9153 178.666 88.1566 178.666 88.4706V89.8275H178.307ZM181.725 89.8275V86.8351C181.725 86.5989 181.794 86.4081 181.932 86.263C182.071 86.1178 182.27 86.0453 182.53 86.0453C182.631 86.0453 182.729 86.0588 182.824 86.0858C182.918 86.1128 182.997 86.155 183.062 86.2124L182.94 86.4807C182.889 86.4368 182.83 86.4048 182.763 86.3845C182.695 86.3609 182.623 86.3491 182.545 86.3491C182.393 86.3491 182.277 86.3913 182.196 86.4756C182.115 86.56 182.074 86.6849 182.074 86.8503V87.2554L182.084 87.4225V89.8275H181.725ZM181.249 87.468V87.1693H182.894V87.468H181.249ZM184.479 89.8528C184.252 89.8528 184.055 89.8106 183.886 89.7262C183.717 89.6419 183.586 89.5153 183.491 89.3465C183.4 89.1777 183.355 88.9668 183.355 88.7136V87.1693H183.714V88.6731C183.714 88.9566 183.783 89.171 183.922 89.3161C184.063 89.4579 184.261 89.5288 184.514 89.5288C184.7 89.5288 184.86 89.4917 184.995 89.4174C185.133 89.3398 185.238 89.2284 185.309 89.0832C185.383 88.9381 185.42 88.7642 185.42 88.5617V87.1693H185.78V89.8275H185.436V89.0984L185.491 89.2301C185.407 89.4258 185.275 89.5794 185.096 89.6908C184.921 89.7988 184.715 89.8528 184.479 89.8528ZM186.782 89.8275V86.0706H187.141V89.8275H186.782ZM188.141 89.8275V86.0706H188.501V89.8275H188.141ZM192.183 87.144C192.399 87.144 192.588 87.1862 192.75 87.2706C192.916 87.3516 193.044 87.4765 193.135 87.6453C193.23 87.814 193.277 88.0267 193.277 88.2832V89.8275H192.918V88.3187C192.918 88.0385 192.847 87.8275 192.705 87.6858C192.566 87.5406 192.371 87.468 192.118 87.468C191.928 87.468 191.763 87.5069 191.621 87.5845C191.483 87.6588 191.375 87.7685 191.297 87.9136C191.223 88.0554 191.186 88.2275 191.186 88.4301V89.8275H190.826V87.1693H191.171V87.8984L191.115 87.7617C191.199 87.5693 191.334 87.4191 191.52 87.3111C191.706 87.1997 191.927 87.144 192.183 87.144ZM195.914 89.8275V89.2402L195.899 89.144V88.1617C195.899 87.9356 195.835 87.7617 195.706 87.6402C195.581 87.5187 195.394 87.4579 195.144 87.4579C194.972 87.4579 194.808 87.4866 194.653 87.544C194.498 87.6014 194.366 87.6773 194.258 87.7718L194.096 87.5035C194.231 87.3887 194.393 87.301 194.582 87.2402C194.771 87.1761 194.97 87.144 195.18 87.144C195.524 87.144 195.789 87.2301 195.975 87.4022C196.164 87.571 196.258 87.8292 196.258 88.1769V89.8275H195.914ZM194.997 89.8528C194.798 89.8528 194.624 89.8208 194.476 89.7566C194.331 89.6891 194.219 89.598 194.142 89.4832C194.064 89.3651 194.025 89.2301 194.025 89.0782C194.025 88.9398 194.057 88.8149 194.121 88.7035C194.189 88.5887 194.297 88.4976 194.446 88.4301C194.597 88.3592 194.8 88.3237 195.053 88.3237H195.97V88.5921H195.063C194.807 88.5921 194.628 88.6377 194.527 88.7288C194.429 88.8199 194.38 88.933 194.38 89.068C194.38 89.2199 194.439 89.3414 194.557 89.4326C194.675 89.5237 194.84 89.5693 195.053 89.5693C195.256 89.5693 195.429 89.5237 195.575 89.4326C195.723 89.3381 195.831 89.203 195.899 89.0275L195.98 89.2756C195.912 89.4511 195.794 89.5912 195.625 89.6959C195.46 89.8005 195.251 89.8528 194.997 89.8528ZM200.556 87.144C200.772 87.144 200.959 87.1862 201.118 87.2706C201.28 87.3516 201.405 87.4765 201.493 87.6453C201.584 87.814 201.629 88.0267 201.629 88.2832V89.8275H201.27V88.3187C201.27 88.0385 201.202 87.8275 201.067 87.6858C200.936 87.5406 200.748 87.468 200.505 87.468C200.323 87.468 200.164 87.5069 200.029 87.5845C199.898 87.6588 199.795 87.7685 199.721 87.9136C199.65 88.0554 199.614 88.2275 199.614 88.4301V89.8275H199.255V88.3187C199.255 88.0385 199.187 87.8275 199.052 87.6858C198.917 87.5406 198.728 87.468 198.485 87.468C198.306 87.468 198.149 87.5069 198.014 87.5845C197.879 87.6588 197.775 87.7685 197.7 87.9136C197.629 88.0554 197.594 88.2275 197.594 88.4301V89.8275H197.235V87.1693H197.579V87.8883L197.523 87.7617C197.604 87.5693 197.734 87.4191 197.913 87.3111C198.095 87.1997 198.31 87.144 198.556 87.144C198.816 87.144 199.037 87.2098 199.219 87.3415C199.402 87.4697 199.52 87.6638 199.574 87.9237L199.432 87.868C199.51 87.652 199.646 87.4782 199.842 87.3465C200.041 87.2115 200.279 87.144 200.556 87.144ZM203.733 89.8528C203.457 89.8528 203.214 89.7954 203.004 89.6807C202.795 89.5625 202.631 89.4022 202.513 89.1997C202.395 88.9938 202.336 88.7592 202.336 88.4959C202.336 88.2326 202.392 87.9997 202.503 87.7972C202.618 87.5946 202.773 87.436 202.969 87.3212C203.168 87.2031 203.391 87.144 203.637 87.144C203.887 87.144 204.108 87.2014 204.301 87.3161C204.496 87.4275 204.65 87.5862 204.761 87.7921C204.873 87.9946 204.928 88.2292 204.928 88.4959C204.928 88.5128 204.927 88.5313 204.923 88.5516C204.923 88.5685 204.923 88.587 204.923 88.6073H202.609V88.3389H204.731L204.589 88.4452C204.589 88.2528 204.547 88.0824 204.463 87.9339C204.382 87.782 204.27 87.6638 204.128 87.5794C203.987 87.495 203.823 87.4529 203.637 87.4529C203.455 87.4529 203.291 87.495 203.146 87.5794C203.001 87.6638 202.888 87.782 202.807 87.9339C202.726 88.0858 202.685 88.2596 202.685 88.4554V88.5111C202.685 88.7136 202.729 88.8925 202.817 89.0478C202.908 89.1997 203.033 89.3195 203.192 89.4073C203.354 89.4917 203.538 89.5338 203.744 89.5338C203.906 89.5338 204.056 89.5052 204.194 89.4478C204.336 89.3904 204.458 89.3026 204.559 89.1845L204.761 89.4174C204.643 89.5592 204.495 89.6672 204.316 89.7414C204.14 89.8157 203.946 89.8528 203.733 89.8528Z" fill="#9D9D9D"/>
<path d="M148.564 103.883H150.326V104.425H148.564V103.883ZM148.614 105.402H150.614V105.954H147.956V102.41H150.543V102.962H148.614V105.402ZM154.7 103.22C154.916 103.22 155.107 103.262 155.272 103.346C155.441 103.431 155.572 103.561 155.667 103.736C155.761 103.908 155.809 104.131 155.809 104.405V105.954H155.176V104.486C155.176 104.246 155.123 104.067 155.019 103.949C154.914 103.831 154.764 103.772 154.568 103.772C154.43 103.772 154.307 103.802 154.199 103.863C154.094 103.924 154.011 104.013 153.95 104.131C153.893 104.249 153.864 104.4 153.864 104.582V105.954H153.231V104.486C153.231 104.246 153.179 104.067 153.074 103.949C152.97 103.831 152.82 103.772 152.624 103.772C152.485 103.772 152.362 103.802 152.254 103.863C152.15 103.924 152.067 104.013 152.006 104.131C151.949 104.249 151.92 104.4 151.92 104.582V105.954H151.287V103.25H151.89V103.969L151.783 103.757C151.874 103.581 152.006 103.448 152.178 103.357C152.354 103.265 152.553 103.22 152.776 103.22C153.029 103.22 153.248 103.282 153.434 103.407C153.623 103.532 153.748 103.721 153.809 103.974L153.561 103.888C153.648 103.686 153.793 103.524 153.996 103.402C154.199 103.281 154.433 103.22 154.7 103.22ZM158.283 105.954V105.407L158.248 105.291V104.334C158.248 104.148 158.192 104.005 158.081 103.903C157.969 103.799 157.801 103.746 157.574 103.746C157.422 103.746 157.272 103.77 157.124 103.817C156.979 103.865 156.855 103.93 156.754 104.015L156.506 103.554C156.651 103.443 156.823 103.36 157.022 103.306C157.225 103.249 157.434 103.22 157.65 103.22C158.042 103.22 158.344 103.314 158.557 103.503C158.773 103.689 158.881 103.978 158.881 104.369V105.954H158.283ZM157.433 105.989C157.23 105.989 157.053 105.956 156.901 105.888C156.749 105.817 156.631 105.721 156.547 105.6C156.465 105.475 156.425 105.335 156.425 105.179C156.425 105.027 156.46 104.891 156.531 104.769C156.606 104.648 156.725 104.551 156.891 104.481C157.056 104.41 157.276 104.374 157.549 104.374H158.334V104.794H157.595C157.379 104.794 157.233 104.83 157.159 104.901C157.085 104.968 157.048 105.053 157.048 105.154C157.048 105.269 157.093 105.36 157.184 105.427C157.276 105.495 157.402 105.529 157.564 105.529C157.719 105.529 157.858 105.493 157.979 105.422C158.104 105.351 158.194 105.247 158.248 105.108L158.354 105.488C158.293 105.647 158.184 105.77 158.025 105.858C157.87 105.946 157.672 105.989 157.433 105.989ZM159.693 105.954V103.25H160.326V105.954H159.693ZM160.012 102.805C159.894 102.805 159.796 102.768 159.718 102.693C159.644 102.619 159.607 102.53 159.607 102.425C159.607 102.317 159.644 102.227 159.718 102.157C159.796 102.082 159.894 102.045 160.012 102.045C160.13 102.045 160.226 102.081 160.301 102.151C160.378 102.219 160.417 102.305 160.417 102.41C160.417 102.521 160.38 102.616 160.306 102.693C160.231 102.768 160.133 102.805 160.012 102.805ZM161.157 105.954V102.197H161.789V105.954H161.157Z" fill="#6D2ECC"/>
<rect x="147.48" y="109.847" width="184.64" height="14.6798" rx="2.89328" fill="#F3F3F3"/>
<path d="M154.375 117.228H156.248V117.547H154.375V117.228ZM154.415 118.863H156.547V119.187H154.041V115.643H156.471V115.967H154.415V118.863ZM158.709 116.504C158.925 116.504 159.114 116.546 159.276 116.63C159.441 116.711 159.569 116.836 159.661 117.005C159.755 117.174 159.802 117.386 159.802 117.643V119.187H159.443V117.678C159.443 117.398 159.372 117.187 159.23 117.046C159.092 116.9 158.896 116.828 158.643 116.828C158.454 116.828 158.288 116.867 158.147 116.944C158.008 117.019 157.9 117.128 157.823 117.273C157.748 117.415 157.711 117.587 157.711 117.79V119.187H157.352V116.529H157.696V117.258L157.64 117.121C157.725 116.929 157.86 116.779 158.045 116.671C158.231 116.559 158.452 116.504 158.709 116.504ZM161.614 119.213C161.364 119.213 161.172 119.145 161.037 119.01C160.902 118.875 160.834 118.684 160.834 118.438V115.942H161.194V118.418C161.194 118.573 161.232 118.693 161.31 118.777C161.391 118.862 161.506 118.904 161.654 118.904C161.813 118.904 161.945 118.858 162.049 118.767L162.176 119.025C162.105 119.089 162.019 119.137 161.918 119.167C161.82 119.197 161.719 119.213 161.614 119.213ZM160.358 116.828V116.529H162.004V116.828H160.358ZM163.865 119.213C163.589 119.213 163.346 119.155 163.136 119.04C162.927 118.922 162.763 118.762 162.645 118.559C162.527 118.354 162.468 118.119 162.468 117.856C162.468 117.592 162.524 117.359 162.635 117.157C162.75 116.954 162.905 116.796 163.101 116.681C163.3 116.563 163.523 116.504 163.769 116.504C164.019 116.504 164.24 116.561 164.433 116.676C164.628 116.787 164.782 116.946 164.893 117.152C165.005 117.354 165.06 117.589 165.06 117.856C165.06 117.873 165.059 117.891 165.055 117.911C165.055 117.928 165.055 117.947 165.055 117.967H162.741V117.699H164.863L164.721 117.805C164.721 117.613 164.679 117.442 164.595 117.294C164.514 117.142 164.402 117.024 164.26 116.939C164.119 116.855 163.955 116.813 163.769 116.813C163.587 116.813 163.423 116.855 163.278 116.939C163.133 117.024 163.02 117.142 162.939 117.294C162.858 117.446 162.817 117.619 162.817 117.815V117.871C162.817 118.073 162.861 118.252 162.949 118.408C163.04 118.559 163.165 118.679 163.324 118.767C163.486 118.851 163.67 118.894 163.876 118.894C164.038 118.894 164.188 118.865 164.326 118.808C164.468 118.75 164.59 118.662 164.691 118.544L164.893 118.777C164.775 118.919 164.627 119.027 164.448 119.101C164.272 119.175 164.078 119.213 163.865 119.213ZM165.792 119.187V116.529H166.136V117.253L166.101 117.127C166.175 116.924 166.3 116.77 166.476 116.666C166.651 116.558 166.869 116.504 167.129 116.504V116.853C167.115 116.853 167.102 116.853 167.088 116.853C167.075 116.85 167.061 116.848 167.048 116.848C166.768 116.848 166.548 116.934 166.39 117.106C166.231 117.275 166.152 117.516 166.152 117.83V119.187H165.792ZM169.17 120.195C169.045 120.195 168.925 120.175 168.81 120.134C168.699 120.094 168.603 120.033 168.522 119.952L168.689 119.683C168.756 119.748 168.829 119.797 168.906 119.83C168.987 119.867 169.077 119.886 169.175 119.886C169.293 119.886 169.394 119.852 169.479 119.785C169.566 119.721 169.649 119.606 169.727 119.44L169.899 119.051L169.939 118.995L171.033 116.529H171.387L170.056 119.506C169.982 119.678 169.899 119.815 169.808 119.916C169.72 120.018 169.624 120.089 169.519 120.129C169.414 120.173 169.298 120.195 169.17 120.195ZM169.879 119.263L168.653 116.529H169.028L170.111 118.97L169.879 119.263ZM172.903 119.213C172.647 119.213 172.415 119.155 172.209 119.04C172.007 118.922 171.847 118.762 171.728 118.559C171.61 118.354 171.551 118.119 171.551 117.856C171.551 117.589 171.61 117.354 171.728 117.152C171.847 116.949 172.007 116.791 172.209 116.676C172.412 116.561 172.643 116.504 172.903 116.504C173.166 116.504 173.399 116.561 173.602 116.676C173.808 116.791 173.968 116.949 174.083 117.152C174.201 117.354 174.26 117.589 174.26 117.856C174.26 118.119 174.201 118.354 174.083 118.559C173.968 118.762 173.808 118.922 173.602 119.04C173.396 119.155 173.163 119.213 172.903 119.213ZM172.903 118.894C173.095 118.894 173.266 118.851 173.414 118.767C173.563 118.679 173.679 118.558 173.764 118.402C173.852 118.244 173.895 118.062 173.895 117.856C173.895 117.646 173.852 117.464 173.764 117.309C173.679 117.154 173.563 117.034 173.414 116.949C173.266 116.862 173.097 116.818 172.908 116.818C172.719 116.818 172.55 116.862 172.402 116.949C172.253 117.034 172.135 117.154 172.047 117.309C171.96 117.464 171.916 117.646 171.916 117.856C171.916 118.062 171.96 118.244 172.047 118.402C172.135 118.558 172.253 118.679 172.402 118.767C172.55 118.851 172.717 118.894 172.903 118.894ZM176.093 119.213C175.867 119.213 175.669 119.17 175.5 119.086C175.332 119.002 175.2 118.875 175.105 118.706C175.014 118.537 174.969 118.327 174.969 118.073V116.529H175.328V118.033C175.328 118.316 175.397 118.531 175.536 118.676C175.677 118.818 175.875 118.889 176.128 118.889C176.314 118.889 176.474 118.851 176.609 118.777C176.748 118.699 176.852 118.588 176.923 118.443C176.997 118.298 177.034 118.124 177.034 117.921V116.529H177.394V119.187H177.05V118.458L177.105 118.59C177.021 118.786 176.889 118.939 176.71 119.051C176.535 119.159 176.329 119.213 176.093 119.213ZM178.396 119.187V116.529H178.74V117.253L178.705 117.127C178.779 116.924 178.904 116.77 179.079 116.666C179.255 116.558 179.473 116.504 179.733 116.504V116.853C179.719 116.853 179.706 116.853 179.692 116.853C179.679 116.85 179.665 116.848 179.652 116.848C179.371 116.848 179.152 116.934 178.993 117.106C178.835 117.275 178.755 117.516 178.755 117.83V119.187H178.396ZM183.419 119.187V118.6L183.404 118.504V117.521C183.404 117.295 183.34 117.121 183.211 117C183.087 116.878 182.899 116.818 182.649 116.818C182.477 116.818 182.314 116.846 182.158 116.904C182.003 116.961 181.871 117.037 181.763 117.132L181.601 116.863C181.736 116.748 181.898 116.661 182.087 116.6C182.276 116.536 182.476 116.504 182.685 116.504C183.029 116.504 183.294 116.59 183.48 116.762C183.669 116.931 183.763 117.189 183.763 117.537V119.187H183.419ZM182.503 119.213C182.303 119.213 182.13 119.181 181.981 119.116C181.836 119.049 181.724 118.958 181.647 118.843C181.569 118.725 181.53 118.59 181.53 118.438C181.53 118.3 181.562 118.175 181.627 118.063C181.694 117.948 181.802 117.857 181.951 117.79C182.103 117.719 182.305 117.683 182.558 117.683H183.475V117.952H182.568C182.312 117.952 182.133 117.997 182.032 118.089C181.934 118.18 181.885 118.293 181.885 118.428C181.885 118.58 181.944 118.701 182.062 118.792C182.18 118.883 182.346 118.929 182.558 118.929C182.761 118.929 182.935 118.883 183.08 118.792C183.228 118.698 183.336 118.563 183.404 118.387L183.485 118.635C183.417 118.811 183.299 118.951 183.13 119.056C182.965 119.16 182.756 119.213 182.503 119.213ZM185.798 119.213C185.545 119.213 185.317 119.155 185.114 119.04C184.915 118.926 184.758 118.767 184.644 118.564C184.529 118.359 184.471 118.122 184.471 117.856C184.471 117.586 184.529 117.349 184.644 117.147C184.758 116.944 184.915 116.787 185.114 116.676C185.317 116.561 185.545 116.504 185.798 116.504C186.031 116.504 186.238 116.556 186.421 116.661C186.606 116.765 186.753 116.919 186.861 117.121C186.973 117.321 187.028 117.565 187.028 117.856C187.028 118.143 186.974 118.387 186.866 118.59C186.758 118.792 186.611 118.948 186.426 119.056C186.243 119.16 186.034 119.213 185.798 119.213ZM185.823 118.894C186.012 118.894 186.181 118.851 186.33 118.767C186.481 118.679 186.6 118.558 186.684 118.402C186.772 118.244 186.816 118.062 186.816 117.856C186.816 117.646 186.772 117.464 186.684 117.309C186.6 117.154 186.481 117.034 186.33 116.949C186.181 116.862 186.012 116.818 185.823 116.818C185.638 116.818 185.471 116.862 185.322 116.949C185.173 117.034 185.055 117.154 184.968 117.309C184.88 117.464 184.836 117.646 184.836 117.856C184.836 118.062 184.88 118.244 184.968 118.402C185.055 118.558 185.173 118.679 185.322 118.767C185.471 118.851 185.638 118.894 185.823 118.894ZM186.826 119.187V118.387L186.861 117.851L186.811 117.314V115.43H187.17V119.187H186.826ZM189.229 119.213C188.976 119.213 188.748 119.155 188.546 119.04C188.347 118.926 188.19 118.767 188.075 118.564C187.96 118.359 187.903 118.122 187.903 117.856C187.903 117.586 187.96 117.349 188.075 117.147C188.19 116.944 188.347 116.787 188.546 116.676C188.748 116.561 188.976 116.504 189.229 116.504C189.462 116.504 189.67 116.556 189.852 116.661C190.038 116.765 190.185 116.919 190.293 117.121C190.404 117.321 190.46 117.565 190.46 117.856C190.46 118.143 190.406 118.387 190.298 118.59C190.19 118.792 190.043 118.948 189.857 119.056C189.675 119.16 189.466 119.213 189.229 119.213ZM189.255 118.894C189.444 118.894 189.613 118.851 189.761 118.767C189.913 118.679 190.031 118.558 190.116 118.402C190.203 118.244 190.247 118.062 190.247 117.856C190.247 117.646 190.203 117.464 190.116 117.309C190.031 117.154 189.913 117.034 189.761 116.949C189.613 116.862 189.444 116.818 189.255 116.818C189.069 116.818 188.902 116.862 188.754 116.949C188.605 117.034 188.487 117.154 188.399 117.309C188.311 117.464 188.267 117.646 188.267 117.856C188.267 118.062 188.311 118.244 188.399 118.402C188.487 118.558 188.605 118.679 188.754 118.767C188.902 118.851 189.069 118.894 189.255 118.894ZM190.257 119.187V118.387L190.293 117.851L190.242 117.314V115.43H190.602V119.187H190.257ZM191.603 119.187V116.529H191.947V117.253L191.912 117.127C191.986 116.924 192.111 116.77 192.286 116.666C192.462 116.558 192.68 116.504 192.939 116.504V116.853C192.926 116.853 192.912 116.853 192.899 116.853C192.885 116.85 192.872 116.848 192.858 116.848C192.578 116.848 192.359 116.934 192.2 117.106C192.042 117.275 191.962 117.516 191.962 117.83V119.187H191.603ZM194.7 119.213C194.423 119.213 194.18 119.155 193.971 119.04C193.761 118.922 193.598 118.762 193.48 118.559C193.361 118.354 193.302 118.119 193.302 117.856C193.302 117.592 193.358 117.359 193.469 117.157C193.584 116.954 193.739 116.796 193.935 116.681C194.134 116.563 194.357 116.504 194.604 116.504C194.853 116.504 195.074 116.561 195.267 116.676C195.463 116.787 195.616 116.946 195.728 117.152C195.839 117.354 195.895 117.589 195.895 117.856C195.895 117.873 195.893 117.891 195.89 117.911C195.89 117.928 195.89 117.947 195.89 117.967H193.576V117.699H195.697L195.556 117.805C195.556 117.613 195.513 117.442 195.429 117.294C195.348 117.142 195.237 117.024 195.095 116.939C194.953 116.855 194.789 116.813 194.604 116.813C194.421 116.813 194.258 116.855 194.112 116.939C193.967 117.024 193.854 117.142 193.773 117.294C193.692 117.446 193.652 117.619 193.652 117.815V117.871C193.652 118.073 193.696 118.252 193.783 118.408C193.875 118.559 193.999 118.679 194.158 118.767C194.32 118.851 194.504 118.894 194.71 118.894C194.872 118.894 195.022 118.865 195.161 118.808C195.302 118.75 195.424 118.662 195.525 118.544L195.728 118.777C195.61 118.919 195.461 119.027 195.282 119.101C195.107 119.175 194.912 119.213 194.7 119.213ZM197.34 119.213C197.121 119.213 196.913 119.182 196.718 119.121C196.522 119.057 196.368 118.978 196.257 118.883L196.419 118.6C196.527 118.681 196.665 118.752 196.834 118.813C197.003 118.87 197.18 118.899 197.366 118.899C197.619 118.899 197.801 118.86 197.913 118.782C198.024 118.701 198.08 118.595 198.08 118.463C198.08 118.365 198.048 118.289 197.983 118.235C197.923 118.178 197.842 118.136 197.74 118.109C197.639 118.078 197.526 118.053 197.401 118.033C197.276 118.013 197.151 117.989 197.026 117.962C196.905 117.935 196.794 117.896 196.692 117.845C196.591 117.791 196.508 117.719 196.444 117.628C196.383 117.537 196.353 117.415 196.353 117.263C196.353 117.118 196.394 116.988 196.475 116.873C196.556 116.759 196.674 116.669 196.829 116.605C196.988 116.537 197.18 116.504 197.406 116.504C197.578 116.504 197.75 116.527 197.923 116.575C198.095 116.619 198.237 116.678 198.348 116.752L198.191 117.04C198.073 116.959 197.946 116.902 197.811 116.868C197.676 116.831 197.541 116.813 197.406 116.813C197.167 116.813 196.989 116.855 196.875 116.939C196.763 117.02 196.707 117.125 196.707 117.253C196.707 117.354 196.738 117.434 196.799 117.491C196.863 117.548 196.945 117.594 197.047 117.628C197.151 117.658 197.264 117.683 197.386 117.704C197.511 117.724 197.634 117.749 197.756 117.78C197.88 117.807 197.994 117.845 198.095 117.896C198.199 117.943 198.282 118.013 198.343 118.104C198.407 118.191 198.439 118.308 198.439 118.453C198.439 118.608 198.395 118.743 198.307 118.858C198.223 118.97 198.098 119.057 197.933 119.121C197.771 119.182 197.573 119.213 197.34 119.213ZM199.813 119.213C199.593 119.213 199.386 119.182 199.19 119.121C198.994 119.057 198.841 118.978 198.729 118.883L198.891 118.6C198.999 118.681 199.138 118.752 199.306 118.813C199.475 118.87 199.652 118.899 199.838 118.899C200.091 118.899 200.273 118.86 200.385 118.782C200.496 118.701 200.552 118.595 200.552 118.463C200.552 118.365 200.52 118.289 200.456 118.235C200.395 118.178 200.314 118.136 200.213 118.109C200.111 118.078 199.998 118.053 199.873 118.033C199.749 118.013 199.624 117.989 199.499 117.962C199.377 117.935 199.266 117.896 199.165 117.845C199.063 117.791 198.981 117.719 198.916 117.628C198.856 117.537 198.825 117.415 198.825 117.263C198.825 117.118 198.866 116.988 198.947 116.873C199.028 116.759 199.146 116.669 199.301 116.605C199.46 116.537 199.652 116.504 199.878 116.504C200.051 116.504 200.223 116.527 200.395 116.575C200.567 116.619 200.709 116.678 200.82 116.752L200.663 117.04C200.545 116.959 200.419 116.902 200.284 116.868C200.149 116.831 200.014 116.813 199.878 116.813C199.639 116.813 199.462 116.855 199.347 116.939C199.235 117.02 199.18 117.125 199.18 117.253C199.18 117.354 199.21 117.434 199.271 117.491C199.335 117.548 199.418 117.594 199.519 117.628C199.624 117.658 199.737 117.683 199.858 117.704C199.983 117.724 200.106 117.749 200.228 117.78C200.353 117.807 200.466 117.845 200.567 117.896C200.672 117.943 200.754 118.013 200.815 118.104C200.879 118.191 200.911 118.308 200.911 118.453C200.911 118.608 200.868 118.743 200.78 118.858C200.695 118.97 200.57 119.057 200.405 119.121C200.243 119.182 200.046 119.213 199.813 119.213Z" fill="#9D9D9D"/>
<path d="M147.956 135.314V131.769H148.498L150.047 134.357H149.764L151.288 131.769H151.829L151.834 135.314H151.212L151.207 132.747H151.338L150.042 134.909H149.748L148.432 132.747H148.584V135.314H147.956ZM154.002 135.349C153.701 135.349 153.438 135.29 153.212 135.172C152.989 135.05 152.815 134.885 152.69 134.676C152.569 134.466 152.508 134.228 152.508 133.962C152.508 133.692 152.567 133.454 152.685 133.248C152.807 133.039 152.972 132.875 153.182 132.757C153.394 132.639 153.636 132.579 153.906 132.579C154.169 132.579 154.404 132.637 154.609 132.752C154.815 132.866 154.977 133.028 155.095 133.238C155.214 133.447 155.273 133.693 155.273 133.977C155.273 134.004 155.271 134.034 155.268 134.068C155.268 134.102 155.266 134.134 155.263 134.164H153.009V133.744H154.928L154.68 133.876C154.684 133.72 154.652 133.584 154.584 133.466C154.517 133.347 154.424 133.255 154.306 133.187C154.191 133.12 154.058 133.086 153.906 133.086C153.75 133.086 153.614 133.12 153.496 133.187C153.381 133.255 153.29 133.349 153.222 133.471C153.158 133.589 153.126 133.729 153.126 133.891V133.992C153.126 134.154 153.163 134.298 153.237 134.422C153.312 134.547 153.416 134.644 153.551 134.711C153.686 134.779 153.841 134.812 154.017 134.812C154.169 134.812 154.306 134.789 154.427 134.741C154.549 134.694 154.657 134.62 154.751 134.519L155.09 134.909C154.969 135.05 154.815 135.16 154.63 135.238C154.447 135.312 154.238 135.349 154.002 135.349ZM156.716 135.349C156.49 135.349 156.272 135.32 156.063 135.263C155.857 135.202 155.693 135.13 155.572 135.045L155.815 134.564C155.936 134.642 156.081 134.706 156.25 134.757C156.419 134.807 156.588 134.833 156.757 134.833C156.956 134.833 157.099 134.806 157.187 134.752C157.278 134.698 157.324 134.625 157.324 134.534C157.324 134.46 157.293 134.404 157.233 134.367C157.172 134.326 157.092 134.296 156.995 134.276C156.897 134.255 156.787 134.237 156.665 134.22C156.547 134.203 156.427 134.181 156.306 134.154C156.188 134.124 156.08 134.082 155.982 134.028C155.884 133.97 155.805 133.894 155.744 133.8C155.683 133.705 155.653 133.58 155.653 133.425C155.653 133.253 155.702 133.104 155.8 132.979C155.898 132.851 156.034 132.753 156.21 132.686C156.389 132.615 156.6 132.579 156.843 132.579C157.025 132.579 157.209 132.6 157.395 132.64C157.58 132.681 157.734 132.738 157.855 132.812L157.612 133.293C157.484 133.216 157.354 133.163 157.222 133.136C157.094 133.106 156.966 133.091 156.838 133.091C156.645 133.091 156.502 133.12 156.407 133.177C156.316 133.234 156.271 133.307 156.271 133.395C156.271 133.476 156.301 133.536 156.362 133.577C156.422 133.617 156.502 133.649 156.6 133.673C156.698 133.697 156.806 133.717 156.924 133.734C157.045 133.747 157.165 133.769 157.283 133.8C157.401 133.83 157.509 133.872 157.607 133.926C157.708 133.977 157.789 134.049 157.85 134.144C157.911 134.239 157.941 134.362 157.941 134.514C157.941 134.682 157.891 134.829 157.789 134.954C157.692 135.079 157.552 135.177 157.369 135.248C157.187 135.315 156.969 135.349 156.716 135.349ZM159.322 135.349C159.096 135.349 158.878 135.32 158.669 135.263C158.463 135.202 158.299 135.13 158.178 135.045L158.421 134.564C158.542 134.642 158.687 134.706 158.856 134.757C159.025 134.807 159.194 134.833 159.362 134.833C159.562 134.833 159.705 134.806 159.793 134.752C159.884 134.698 159.929 134.625 159.929 134.534C159.929 134.46 159.899 134.404 159.838 134.367C159.778 134.326 159.698 134.296 159.6 134.276C159.502 134.255 159.393 134.237 159.271 134.22C159.153 134.203 159.033 134.181 158.912 134.154C158.794 134.124 158.686 134.082 158.588 134.028C158.49 133.97 158.41 133.894 158.35 133.8C158.289 133.705 158.259 133.58 158.259 133.425C158.259 133.253 158.308 133.104 158.405 132.979C158.503 132.851 158.64 132.753 158.816 132.686C158.994 132.615 159.205 132.579 159.448 132.579C159.631 132.579 159.815 132.6 160 132.64C160.186 132.681 160.34 132.738 160.461 132.812L160.218 133.293C160.09 133.216 159.96 133.163 159.828 133.136C159.7 133.106 159.572 133.091 159.443 133.091C159.251 133.091 159.108 133.12 159.013 133.177C158.922 133.234 158.876 133.307 158.876 133.395C158.876 133.476 158.907 133.536 158.967 133.577C159.028 133.617 159.108 133.649 159.205 133.673C159.303 133.697 159.411 133.717 159.529 133.734C159.651 133.747 159.771 133.769 159.889 133.8C160.007 133.83 160.115 133.872 160.213 133.926C160.314 133.977 160.395 134.049 160.456 134.144C160.517 134.239 160.547 134.362 160.547 134.514C160.547 134.682 160.497 134.829 160.395 134.954C160.297 135.079 160.157 135.177 159.975 135.248C159.793 135.315 159.575 135.349 159.322 135.349ZM162.758 135.314V134.767L162.723 134.65V133.693C162.723 133.508 162.667 133.364 162.556 133.263C162.444 133.158 162.275 133.106 162.049 133.106C161.897 133.106 161.747 133.13 161.599 133.177C161.453 133.224 161.33 133.29 161.229 133.374L160.981 132.914C161.126 132.802 161.298 132.72 161.497 132.666C161.7 132.608 161.909 132.579 162.125 132.579C162.517 132.579 162.819 132.674 163.031 132.863C163.247 133.049 163.355 133.337 163.355 133.729V135.314H162.758ZM161.907 135.349C161.705 135.349 161.528 135.315 161.376 135.248C161.224 135.177 161.106 135.081 161.021 134.959C160.94 134.834 160.9 134.694 160.9 134.539C160.9 134.387 160.935 134.25 161.006 134.129C161.08 134.007 161.2 133.911 161.366 133.84C161.531 133.769 161.75 133.734 162.024 133.734H162.809V134.154H162.069C161.853 134.154 161.708 134.19 161.634 134.26C161.56 134.328 161.523 134.412 161.523 134.514C161.523 134.628 161.568 134.72 161.659 134.787C161.75 134.855 161.877 134.888 162.039 134.888C162.194 134.888 162.333 134.853 162.454 134.782C162.579 134.711 162.669 134.606 162.723 134.468L162.829 134.848C162.768 135.006 162.658 135.13 162.5 135.217C162.345 135.305 162.147 135.349 161.907 135.349ZM165.398 136.331C165.148 136.331 164.903 136.298 164.664 136.23C164.428 136.166 164.233 136.071 164.082 135.947L164.365 135.471C164.483 135.568 164.632 135.646 164.811 135.703C164.993 135.764 165.177 135.795 165.363 135.795C165.66 135.795 165.877 135.725 166.016 135.587C166.154 135.452 166.223 135.248 166.223 134.974V134.493L166.274 133.881L166.254 133.268V132.61H166.856V134.903C166.856 135.393 166.731 135.752 166.482 135.982C166.232 136.215 165.871 136.331 165.398 136.331ZM165.317 135.192C165.06 135.192 164.828 135.138 164.618 135.03C164.412 134.919 164.249 134.765 164.127 134.569C164.009 134.374 163.95 134.144 163.95 133.881C163.95 133.621 164.009 133.393 164.127 133.197C164.249 133.001 164.412 132.849 164.618 132.741C164.828 132.633 165.06 132.579 165.317 132.579C165.547 132.579 165.752 132.625 165.935 132.716C166.117 132.807 166.262 132.949 166.37 133.141C166.482 133.334 166.537 133.58 166.537 133.881C166.537 134.181 166.482 134.429 166.37 134.625C166.262 134.817 166.117 134.961 165.935 135.055C165.752 135.147 165.547 135.192 165.317 135.192ZM165.413 134.655C165.572 134.655 165.714 134.623 165.839 134.559C165.963 134.492 166.06 134.401 166.127 134.286C166.198 134.168 166.233 134.033 166.233 133.881C166.233 133.729 166.198 133.595 166.127 133.481C166.06 133.363 165.963 133.273 165.839 133.212C165.714 133.148 165.572 133.116 165.413 133.116C165.255 133.116 165.111 133.148 164.983 133.212C164.858 133.273 164.76 133.363 164.689 133.481C164.622 133.595 164.588 133.729 164.588 133.881C164.588 134.033 164.622 134.168 164.689 134.286C164.76 134.401 164.858 134.492 164.983 134.559C165.111 134.623 165.255 134.655 165.413 134.655ZM168.959 135.349C168.659 135.349 168.395 135.29 168.169 135.172C167.947 135.05 167.773 134.885 167.648 134.676C167.526 134.466 167.466 134.228 167.466 133.962C167.466 133.692 167.525 133.454 167.643 133.248C167.764 133.039 167.93 132.875 168.139 132.757C168.352 132.639 168.593 132.579 168.863 132.579C169.126 132.579 169.361 132.637 169.567 132.752C169.773 132.866 169.935 133.028 170.053 133.238C170.171 133.447 170.23 133.693 170.23 133.977C170.23 134.004 170.228 134.034 170.225 134.068C170.225 134.102 170.223 134.134 170.22 134.164H167.967V133.744H169.886L169.638 133.876C169.641 133.72 169.609 133.584 169.541 133.466C169.474 133.347 169.381 133.255 169.263 133.187C169.148 133.12 169.015 133.086 168.863 133.086C168.708 133.086 168.571 133.12 168.453 133.187C168.338 133.255 168.247 133.349 168.179 133.471C168.115 133.589 168.083 133.729 168.083 133.891V133.992C168.083 134.154 168.12 134.298 168.195 134.422C168.269 134.547 168.374 134.644 168.509 134.711C168.644 134.779 168.799 134.812 168.974 134.812C169.126 134.812 169.263 134.789 169.384 134.741C169.506 134.694 169.614 134.62 169.709 134.519L170.048 134.909C169.926 135.05 169.773 135.16 169.587 135.238C169.405 135.312 169.195 135.349 168.959 135.349Z" fill="#6D2ECC"/>
<rect x="147.48" y="139.207" width="184.64" height="48.9723" rx="2.89328" fill="#F3F3F3"/>
<path d="M154.835 148.547L153.64 145.003H154.025L155.144 148.339H154.952L156.106 145.003H156.45L157.59 148.339H157.407L158.536 145.003H158.896L157.701 148.547H157.306L156.217 145.382H156.319L155.225 148.547H154.835ZM159.403 148.547V145.889H159.747V146.613L159.712 146.486C159.786 146.284 159.911 146.13 160.087 146.025C160.262 145.917 160.48 145.863 160.74 145.863V146.213C160.726 146.213 160.713 146.213 160.699 146.213C160.686 146.209 160.672 146.208 160.659 146.208C160.379 146.208 160.159 146.294 160.001 146.466C159.842 146.635 159.763 146.876 159.763 147.19V148.547H159.403ZM161.396 148.547V145.889H161.755V148.547H161.396ZM161.578 145.301C161.504 145.301 161.441 145.276 161.391 145.225C161.34 145.175 161.315 145.114 161.315 145.043C161.315 144.972 161.34 144.913 161.391 144.866C161.441 144.815 161.504 144.79 161.578 144.79C161.652 144.79 161.715 144.814 161.765 144.861C161.816 144.908 161.841 144.967 161.841 145.038C161.841 145.112 161.816 145.175 161.765 145.225C161.718 145.276 161.656 145.301 161.578 145.301ZM163.596 148.572C163.346 148.572 163.154 148.505 163.019 148.37C162.884 148.235 162.816 148.044 162.816 147.798V145.301H163.176V147.777C163.176 147.933 163.215 148.052 163.292 148.137C163.373 148.221 163.488 148.263 163.636 148.263C163.795 148.263 163.927 148.218 164.031 148.127L164.158 148.385C164.087 148.449 164.001 148.496 163.9 148.527C163.802 148.557 163.701 148.572 163.596 148.572ZM162.34 146.187V145.889H163.986V146.187H162.34ZM165.848 148.572C165.571 148.572 165.328 148.515 165.118 148.4C164.909 148.282 164.745 148.122 164.627 147.919C164.509 147.713 164.45 147.479 164.45 147.215C164.45 146.952 164.506 146.719 164.617 146.517C164.732 146.314 164.887 146.155 165.083 146.041C165.282 145.922 165.505 145.863 165.751 145.863C166.001 145.863 166.222 145.921 166.415 146.036C166.61 146.147 166.764 146.306 166.875 146.511C166.987 146.714 167.042 146.949 167.042 147.215C167.042 147.232 167.041 147.251 167.037 147.271C167.037 147.288 167.037 147.306 167.037 147.327H164.724V147.058H166.845L166.703 147.165C166.703 146.972 166.661 146.802 166.577 146.653C166.496 146.501 166.384 146.383 166.242 146.299C166.101 146.214 165.937 146.172 165.751 146.172C165.569 146.172 165.405 146.214 165.26 146.299C165.115 146.383 165.002 146.501 164.921 146.653C164.84 146.805 164.799 146.979 164.799 147.175V147.23C164.799 147.433 164.843 147.612 164.931 147.767C165.022 147.919 165.147 148.039 165.306 148.127C165.468 148.211 165.652 148.253 165.858 148.253C166.02 148.253 166.17 148.225 166.308 148.167C166.45 148.11 166.572 148.022 166.673 147.904L166.875 148.137C166.757 148.279 166.609 148.387 166.43 148.461C166.254 148.535 166.06 148.572 165.848 148.572ZM169.12 149.554C168.995 149.554 168.875 149.534 168.76 149.494C168.649 149.453 168.553 149.392 168.472 149.311L168.639 149.043C168.706 149.107 168.779 149.156 168.856 149.19C168.937 149.227 169.027 149.246 169.125 149.246C169.243 149.246 169.344 149.212 169.428 149.144C169.516 149.08 169.599 148.965 169.677 148.8L169.849 148.41L169.889 148.354L170.983 145.889H171.337L170.006 148.866C169.931 149.038 169.849 149.175 169.758 149.276C169.67 149.377 169.574 149.448 169.469 149.489C169.364 149.533 169.248 149.554 169.12 149.554ZM169.828 148.623L168.603 145.889H168.978L170.061 148.329L169.828 148.623ZM172.853 148.572C172.596 148.572 172.365 148.515 172.159 148.4C171.957 148.282 171.796 148.122 171.678 147.919C171.56 147.713 171.501 147.479 171.501 147.215C171.501 146.949 171.56 146.714 171.678 146.511C171.796 146.309 171.957 146.15 172.159 146.036C172.362 145.921 172.593 145.863 172.853 145.863C173.116 145.863 173.349 145.921 173.552 146.036C173.758 146.15 173.918 146.309 174.033 146.511C174.151 146.714 174.21 146.949 174.21 147.215C174.21 147.479 174.151 147.713 174.033 147.919C173.918 148.122 173.758 148.282 173.552 148.4C173.346 148.515 173.113 148.572 172.853 148.572ZM172.853 148.253C173.045 148.253 173.216 148.211 173.364 148.127C173.513 148.039 173.629 147.917 173.714 147.762C173.801 147.603 173.845 147.421 173.845 147.215C173.845 147.006 173.801 146.824 173.714 146.668C173.629 146.513 173.513 146.393 173.364 146.309C173.216 146.221 173.047 146.177 172.858 146.177C172.669 146.177 172.5 146.221 172.352 146.309C172.203 146.393 172.085 146.513 171.997 146.668C171.91 146.824 171.866 147.006 171.866 147.215C171.866 147.421 171.91 147.603 171.997 147.762C172.085 147.917 172.203 148.039 172.352 148.127C172.5 148.211 172.667 148.253 172.853 148.253ZM176.043 148.572C175.816 148.572 175.619 148.53 175.45 148.446C175.281 148.361 175.15 148.235 175.055 148.066C174.964 147.897 174.919 147.686 174.919 147.433V145.889H175.278V147.392C175.278 147.676 175.347 147.89 175.486 148.035C175.627 148.177 175.825 148.248 176.078 148.248C176.264 148.248 176.424 148.211 176.559 148.137C176.697 148.059 176.802 147.948 176.873 147.803C176.947 147.657 176.984 147.484 176.984 147.281V145.889H177.344V148.547H177V147.818L177.055 147.949C176.971 148.145 176.839 148.299 176.66 148.41C176.485 148.518 176.279 148.572 176.043 148.572ZM178.346 148.547V145.889H178.69V146.613L178.655 146.486C178.729 146.284 178.854 146.13 179.029 146.025C179.205 145.917 179.422 145.863 179.682 145.863V146.213C179.669 146.213 179.655 146.213 179.642 146.213C179.628 146.209 179.615 146.208 179.601 146.208C179.321 146.208 179.102 146.294 178.943 146.466C178.785 146.635 178.705 146.876 178.705 147.19V148.547H178.346ZM185.025 145.863C185.241 145.863 185.428 145.906 185.587 145.99C185.749 146.071 185.873 146.196 185.961 146.365C186.052 146.533 186.098 146.746 186.098 147.003V148.547H185.738V147.038C185.738 146.758 185.671 146.547 185.536 146.405C185.404 146.26 185.217 146.187 184.974 146.187C184.792 146.187 184.633 146.226 184.498 146.304C184.366 146.378 184.263 146.488 184.189 146.633C184.118 146.775 184.083 146.947 184.083 147.149V148.547H183.723V147.038C183.723 146.758 183.656 146.547 183.521 146.405C183.386 146.26 183.197 146.187 182.954 146.187C182.775 146.187 182.618 146.226 182.483 146.304C182.348 146.378 182.243 146.488 182.169 146.633C182.098 146.775 182.063 146.947 182.063 147.149V148.547H181.703V145.889H182.047V146.608L181.992 146.481C182.073 146.289 182.203 146.138 182.382 146.03C182.564 145.919 182.778 145.863 183.025 145.863C183.284 145.863 183.506 145.929 183.688 146.061C183.87 146.189 183.988 146.383 184.042 146.643L183.901 146.587C183.978 146.371 184.115 146.198 184.311 146.066C184.51 145.931 184.748 145.863 185.025 145.863ZM188.202 148.572C187.925 148.572 187.682 148.515 187.473 148.4C187.264 148.282 187.1 148.122 186.982 147.919C186.864 147.713 186.805 147.479 186.805 147.215C186.805 146.952 186.86 146.719 186.972 146.517C187.086 146.314 187.242 146.155 187.437 146.041C187.637 145.922 187.859 145.863 188.106 145.863C188.356 145.863 188.577 145.921 188.769 146.036C188.965 146.147 189.118 146.306 189.23 146.511C189.341 146.714 189.397 146.949 189.397 147.215C189.397 147.232 189.395 147.251 189.392 147.271C189.392 147.288 189.392 147.306 189.392 147.327H187.078V147.058H189.199L189.058 147.165C189.058 146.972 189.015 146.802 188.931 146.653C188.85 146.501 188.739 146.383 188.597 146.299C188.455 146.214 188.291 146.172 188.106 146.172C187.923 146.172 187.76 146.214 187.615 146.299C187.469 146.383 187.356 146.501 187.275 146.653C187.194 146.805 187.154 146.979 187.154 147.175V147.23C187.154 147.433 187.198 147.612 187.286 147.767C187.377 147.919 187.502 148.039 187.66 148.127C187.822 148.211 188.006 148.253 188.212 148.253C188.374 148.253 188.524 148.225 188.663 148.167C188.804 148.11 188.926 148.022 189.027 147.904L189.23 148.137C189.112 148.279 188.963 148.387 188.784 148.461C188.609 148.535 188.415 148.572 188.202 148.572ZM190.843 148.572C190.623 148.572 190.416 148.542 190.22 148.481C190.024 148.417 189.87 148.338 189.759 148.243L189.921 147.96C190.029 148.041 190.167 148.111 190.336 148.172C190.505 148.23 190.682 148.258 190.868 148.258C191.121 148.258 191.303 148.219 191.415 148.142C191.526 148.061 191.582 147.954 191.582 147.823C191.582 147.725 191.55 147.649 191.486 147.595C191.425 147.538 191.344 147.495 191.243 147.468C191.141 147.438 191.028 147.413 190.903 147.392C190.778 147.372 190.654 147.349 190.529 147.322C190.407 147.295 190.296 147.256 190.194 147.205C190.093 147.151 190.01 147.079 189.946 146.987C189.886 146.896 189.855 146.775 189.855 146.623C189.855 146.478 189.896 146.348 189.977 146.233C190.058 146.118 190.176 146.029 190.331 145.965C190.49 145.897 190.682 145.863 190.908 145.863C191.081 145.863 191.253 145.887 191.425 145.934C191.597 145.978 191.739 146.037 191.85 146.111L191.693 146.4C191.575 146.319 191.448 146.262 191.313 146.228C191.178 146.191 191.043 146.172 190.908 146.172C190.669 146.172 190.491 146.214 190.377 146.299C190.265 146.38 190.21 146.484 190.21 146.613C190.21 146.714 190.24 146.793 190.301 146.851C190.365 146.908 190.448 146.954 190.549 146.987C190.654 147.018 190.767 147.043 190.888 147.063C191.013 147.084 191.136 147.109 191.258 147.139C191.383 147.166 191.496 147.205 191.597 147.256C191.702 147.303 191.784 147.372 191.845 147.463C191.909 147.551 191.941 147.668 191.941 147.813C191.941 147.968 191.897 148.103 191.81 148.218C191.725 148.329 191.6 148.417 191.435 148.481C191.273 148.542 191.075 148.572 190.843 148.572ZM193.315 148.572C193.095 148.572 192.888 148.542 192.692 148.481C192.496 148.417 192.343 148.338 192.231 148.243L192.393 147.96C192.501 148.041 192.64 148.111 192.808 148.172C192.977 148.23 193.154 148.258 193.34 148.258C193.593 148.258 193.776 148.219 193.887 148.142C193.998 148.061 194.054 147.954 194.054 147.823C194.054 147.725 194.022 147.649 193.958 147.595C193.897 147.538 193.816 147.495 193.715 147.468C193.614 147.438 193.5 147.413 193.376 147.392C193.251 147.372 193.126 147.349 193.001 147.322C192.879 147.295 192.768 147.256 192.667 147.205C192.565 147.151 192.483 147.079 192.419 146.987C192.358 146.896 192.327 146.775 192.327 146.623C192.327 146.478 192.368 146.348 192.449 146.233C192.53 146.118 192.648 146.029 192.803 145.965C192.962 145.897 193.154 145.863 193.381 145.863C193.553 145.863 193.725 145.887 193.897 145.934C194.069 145.978 194.211 146.037 194.322 146.111L194.165 146.4C194.047 146.319 193.921 146.262 193.786 146.228C193.651 146.191 193.516 146.172 193.381 146.172C193.141 146.172 192.964 146.214 192.849 146.299C192.738 146.38 192.682 146.484 192.682 146.613C192.682 146.714 192.712 146.793 192.773 146.851C192.837 146.908 192.92 146.954 193.021 146.987C193.126 147.018 193.239 147.043 193.36 147.063C193.485 147.084 193.608 147.109 193.73 147.139C193.855 147.166 193.968 147.205 194.069 147.256C194.174 147.303 194.257 147.372 194.317 147.463C194.381 147.551 194.414 147.668 194.414 147.813C194.414 147.968 194.37 148.103 194.282 148.218C194.198 148.329 194.073 148.417 193.907 148.481C193.745 148.542 193.548 148.572 193.315 148.572ZM196.739 148.547V147.96L196.724 147.863V146.881C196.724 146.655 196.66 146.481 196.531 146.36C196.407 146.238 196.219 146.177 195.969 146.177C195.797 146.177 195.634 146.206 195.478 146.263C195.323 146.321 195.191 146.397 195.083 146.491L194.921 146.223C195.056 146.108 195.218 146.02 195.407 145.96C195.596 145.895 195.796 145.863 196.005 145.863C196.349 145.863 196.614 145.949 196.8 146.122C196.989 146.29 197.083 146.549 197.083 146.896V148.547H196.739ZM195.823 148.572C195.623 148.572 195.45 148.54 195.301 148.476C195.156 148.408 195.044 148.317 194.967 148.203C194.889 148.084 194.85 147.949 194.85 147.798C194.85 147.659 194.882 147.534 194.947 147.423C195.014 147.308 195.122 147.217 195.271 147.149C195.423 147.079 195.625 147.043 195.878 147.043H196.795V147.311H195.888C195.632 147.311 195.453 147.357 195.352 147.448C195.254 147.539 195.205 147.652 195.205 147.787C195.205 147.939 195.264 148.061 195.382 148.152C195.5 148.243 195.666 148.289 195.878 148.289C196.081 148.289 196.255 148.243 196.4 148.152C196.548 148.057 196.656 147.922 196.724 147.747L196.805 147.995C196.737 148.171 196.619 148.311 196.45 148.415C196.285 148.52 196.076 148.572 195.823 148.572ZM199.194 149.554C198.951 149.554 198.718 149.519 198.495 149.448C198.272 149.377 198.092 149.276 197.953 149.144L198.136 148.871C198.261 148.982 198.414 149.07 198.596 149.134C198.782 149.202 198.978 149.235 199.184 149.235C199.521 149.235 199.769 149.156 199.928 148.998C200.087 148.842 200.166 148.599 200.166 148.268V147.605L200.217 147.149L200.181 146.694V145.889H200.526V148.223C200.526 148.682 200.412 149.018 200.186 149.23C199.963 149.446 199.633 149.554 199.194 149.554ZM199.128 148.446C198.875 148.446 198.647 148.392 198.445 148.284C198.242 148.172 198.082 148.019 197.964 147.823C197.849 147.627 197.791 147.403 197.791 147.149C197.791 146.896 197.849 146.673 197.964 146.481C198.082 146.285 198.242 146.133 198.445 146.025C198.647 145.917 198.875 145.863 199.128 145.863C199.364 145.863 199.577 145.912 199.766 146.01C199.955 146.108 200.105 146.253 200.217 146.446C200.328 146.638 200.384 146.873 200.384 147.149C200.384 147.426 200.328 147.661 200.217 147.853C200.105 148.046 199.955 148.192 199.766 148.294C199.577 148.395 199.364 148.446 199.128 148.446ZM199.163 148.127C199.359 148.127 199.533 148.086 199.685 148.005C199.837 147.921 199.957 147.806 200.044 147.661C200.132 147.512 200.176 147.342 200.176 147.149C200.176 146.957 200.132 146.788 200.044 146.643C199.957 146.498 199.837 146.385 199.685 146.304C199.533 146.219 199.359 146.177 199.163 146.177C198.971 146.177 198.797 146.219 198.642 146.304C198.49 146.385 198.37 146.498 198.282 146.643C198.198 146.788 198.156 146.957 198.156 147.149C198.156 147.342 198.198 147.512 198.282 147.661C198.37 147.806 198.49 147.921 198.642 148.005C198.797 148.086 198.971 148.127 199.163 148.127ZM202.655 148.572C202.378 148.572 202.135 148.515 201.926 148.4C201.717 148.282 201.553 148.122 201.435 147.919C201.317 147.713 201.257 147.479 201.257 147.215C201.257 146.952 201.313 146.719 201.425 146.517C201.539 146.314 201.695 146.155 201.89 146.041C202.09 145.922 202.312 145.863 202.559 145.863C202.809 145.863 203.03 145.921 203.222 146.036C203.418 146.147 203.571 146.306 203.683 146.511C203.794 146.714 203.85 146.949 203.85 147.215C203.85 147.232 203.848 147.251 203.845 147.271C203.845 147.288 203.845 147.306 203.845 147.327H201.531V147.058H203.652L203.511 147.165C203.511 146.972 203.468 146.802 203.384 146.653C203.303 146.501 203.192 146.383 203.05 146.299C202.908 146.214 202.744 146.172 202.559 146.172C202.376 146.172 202.213 146.214 202.068 146.299C201.922 146.383 201.809 146.501 201.728 146.653C201.647 146.805 201.607 146.979 201.607 147.175V147.23C201.607 147.433 201.651 147.612 201.739 147.767C201.83 147.919 201.955 148.039 202.113 148.127C202.275 148.211 202.459 148.253 202.665 148.253C202.827 148.253 202.977 148.225 203.116 148.167C203.257 148.11 203.379 148.022 203.48 147.904L203.683 148.137C203.565 148.279 203.416 148.387 203.237 148.461C203.062 148.535 202.868 148.572 202.655 148.572Z" fill="#9D9D9D"/>
<rect x="147.48" y="198.535" width="184.64" height="17.5731" rx="2.89328" fill="#6D2ECC"/>
<path d="M222.563 209.372C222.287 209.372 222.022 209.333 221.768 209.256C221.515 209.175 221.314 209.072 221.166 208.947L221.394 208.435C221.536 208.547 221.711 208.64 221.92 208.714C222.13 208.788 222.344 208.825 222.563 208.825C222.749 208.825 222.899 208.805 223.014 208.765C223.129 208.724 223.213 208.67 223.267 208.603C223.321 208.532 223.348 208.452 223.348 208.365C223.348 208.257 223.309 208.17 223.232 208.106C223.154 208.039 223.053 207.987 222.928 207.949C222.806 207.909 222.67 207.872 222.518 207.838C222.369 207.804 222.219 207.765 222.067 207.722C221.919 207.674 221.782 207.615 221.657 207.544C221.536 207.47 221.436 207.372 221.358 207.251C221.281 207.129 221.242 206.974 221.242 206.785C221.242 206.592 221.292 206.417 221.394 206.258C221.498 206.096 221.655 205.968 221.865 205.873C222.077 205.776 222.346 205.727 222.67 205.727C222.882 205.727 223.093 205.754 223.303 205.808C223.512 205.862 223.694 205.939 223.849 206.041L223.642 206.552C223.483 206.457 223.319 206.388 223.151 206.344C222.982 206.297 222.82 206.273 222.665 206.273C222.482 206.273 222.334 206.295 222.219 206.339C222.108 206.383 222.025 206.441 221.971 206.511C221.92 206.582 221.895 206.663 221.895 206.754C221.895 206.862 221.932 206.95 222.006 207.018C222.084 207.082 222.184 207.133 222.305 207.17C222.43 207.207 222.568 207.244 222.72 207.281C222.872 207.315 223.022 207.354 223.171 207.398C223.323 207.441 223.46 207.499 223.581 207.57C223.706 207.641 223.806 207.737 223.88 207.858C223.957 207.98 223.996 208.133 223.996 208.319C223.996 208.508 223.944 208.684 223.839 208.846C223.738 209.004 223.581 209.133 223.368 209.23C223.156 209.325 222.887 209.372 222.563 209.372ZM225.859 209.357C225.559 209.357 225.295 209.298 225.069 209.18C224.846 209.058 224.673 208.893 224.548 208.684C224.426 208.474 224.365 208.236 224.365 207.97C224.365 207.7 224.424 207.462 224.543 207.256C224.664 207.046 224.83 206.883 225.039 206.765C225.251 206.646 225.493 206.587 225.763 206.587C226.026 206.587 226.261 206.645 226.467 206.76C226.673 206.874 226.835 207.036 226.953 207.246C227.071 207.455 227.13 207.701 227.13 207.985C227.13 208.012 227.128 208.042 227.125 208.076C227.125 208.11 227.123 208.142 227.12 208.172H224.867V207.752H226.786L226.538 207.884C226.541 207.728 226.509 207.592 226.441 207.473C226.374 207.355 226.281 207.262 226.163 207.195C226.048 207.127 225.915 207.094 225.763 207.094C225.608 207.094 225.471 207.127 225.353 207.195C225.238 207.262 225.147 207.357 225.079 207.479C225.015 207.597 224.983 207.737 224.983 207.899V208C224.983 208.162 225.02 208.306 225.094 208.43C225.169 208.555 225.273 208.651 225.408 208.719C225.543 208.787 225.699 208.82 225.874 208.82C226.026 208.82 226.163 208.797 226.284 208.749C226.406 208.702 226.514 208.628 226.608 208.527L226.948 208.916C226.826 209.058 226.673 209.168 226.487 209.246C226.305 209.32 226.095 209.357 225.859 209.357ZM229.272 206.587C229.488 206.587 229.68 206.63 229.849 206.714C230.021 206.798 230.156 206.928 230.254 207.104C230.352 207.276 230.401 207.499 230.401 207.772V209.322H229.768V207.853C229.768 207.614 229.711 207.435 229.596 207.316C229.485 207.198 229.328 207.139 229.125 207.139C228.977 207.139 228.845 207.17 228.73 207.23C228.615 207.291 228.526 207.382 228.462 207.504C228.401 207.622 228.371 207.772 228.371 207.954V209.322H227.738V206.618H228.34V207.347L228.234 207.124C228.329 206.952 228.465 206.82 228.644 206.729C228.826 206.635 229.036 206.587 229.272 206.587ZM232.353 209.357C232.093 209.357 231.859 209.3 231.649 209.185C231.444 209.067 231.282 208.905 231.163 208.699C231.045 208.493 230.986 208.25 230.986 207.97C230.986 207.689 231.045 207.446 231.163 207.241C231.282 207.035 231.444 206.874 231.649 206.76C231.859 206.645 232.093 206.587 232.353 206.587C232.579 206.587 232.782 206.638 232.961 206.739C233.14 206.837 233.281 206.987 233.386 207.19C233.491 207.392 233.543 207.652 233.543 207.97C233.543 208.284 233.492 208.543 233.391 208.749C233.29 208.952 233.15 209.104 232.971 209.205C232.792 209.306 232.586 209.357 232.353 209.357ZM232.429 208.815C232.581 208.815 232.716 208.781 232.834 208.714C232.956 208.646 233.052 208.549 233.123 208.42C233.197 208.292 233.234 208.142 233.234 207.97C233.234 207.794 233.197 207.644 233.123 207.519C233.052 207.391 232.956 207.293 232.834 207.225C232.716 207.158 232.581 207.124 232.429 207.124C232.277 207.124 232.141 207.158 232.019 207.225C231.901 207.293 231.805 207.391 231.73 207.519C231.66 207.644 231.624 207.794 231.624 207.97C231.624 208.142 231.66 208.292 231.73 208.42C231.805 208.549 231.901 208.646 232.019 208.714C232.141 208.781 232.277 208.815 232.429 208.815ZM233.249 209.322V208.684L233.275 207.965L233.224 207.246V205.565H233.852V209.322H233.249ZM236.145 209.322V205.777H236.687L238.236 208.365H237.953L239.477 205.777H240.018L240.023 209.322H239.401L239.396 206.754H239.527L238.231 208.916H237.937L236.621 206.754H236.773V209.322H236.145ZM242.191 209.357C241.891 209.357 241.627 209.298 241.401 209.18C241.178 209.058 241.004 208.893 240.88 208.684C240.758 208.474 240.697 208.236 240.697 207.97C240.697 207.7 240.756 207.462 240.875 207.256C240.996 207.046 241.161 206.883 241.371 206.765C241.583 206.646 241.825 206.587 242.095 206.587C242.358 206.587 242.593 206.645 242.799 206.76C243.004 206.874 243.166 207.036 243.285 207.246C243.403 207.455 243.462 207.701 243.462 207.985C243.462 208.012 243.46 208.042 243.457 208.076C243.457 208.11 243.455 208.142 243.452 208.172H241.199V207.752H243.118L242.869 207.884C242.873 207.728 242.841 207.592 242.773 207.473C242.706 207.355 242.613 207.262 242.495 207.195C242.38 207.127 242.247 207.094 242.095 207.094C241.939 207.094 241.803 207.127 241.685 207.195C241.57 207.262 241.479 207.357 241.411 207.479C241.347 207.597 241.315 207.737 241.315 207.899V208C241.315 208.162 241.352 208.306 241.426 208.43C241.501 208.555 241.605 208.651 241.74 208.719C241.875 208.787 242.031 208.82 242.206 208.82C242.358 208.82 242.495 208.797 242.616 208.749C242.738 208.702 242.846 208.628 242.94 208.527L243.28 208.916C243.158 209.058 243.004 209.168 242.819 209.246C242.637 209.32 242.427 209.357 242.191 209.357ZM244.905 209.357C244.679 209.357 244.461 209.328 244.252 209.271C244.046 209.21 243.882 209.138 243.761 209.053L244.004 208.572C244.125 208.65 244.271 208.714 244.439 208.765C244.608 208.815 244.777 208.841 244.946 208.841C245.145 208.841 245.288 208.814 245.376 208.76C245.467 208.706 245.513 208.633 245.513 208.542C245.513 208.468 245.482 208.412 245.422 208.375C245.361 208.334 245.282 208.304 245.184 208.284C245.086 208.263 244.976 208.245 244.855 208.228C244.736 208.211 244.617 208.189 244.495 208.162C244.377 208.132 244.269 208.089 244.171 208.035C244.073 207.978 243.994 207.902 243.933 207.808C243.872 207.713 243.842 207.588 243.842 207.433C243.842 207.261 243.891 207.112 243.989 206.987C244.087 206.859 244.223 206.761 244.399 206.694C244.578 206.623 244.789 206.587 245.032 206.587C245.214 206.587 245.398 206.608 245.584 206.648C245.769 206.689 245.923 206.746 246.044 206.82L245.801 207.301C245.673 207.224 245.543 207.171 245.412 207.144C245.283 207.114 245.155 207.099 245.027 207.099C244.834 207.099 244.691 207.127 244.596 207.185C244.505 207.242 244.46 207.315 244.46 207.403C244.46 207.484 244.49 207.544 244.551 207.585C244.612 207.625 244.691 207.657 244.789 207.681C244.887 207.705 244.995 207.725 245.113 207.742C245.234 207.755 245.354 207.777 245.472 207.808C245.59 207.838 245.698 207.88 245.796 207.934C245.898 207.985 245.979 208.057 246.039 208.152C246.1 208.246 246.131 208.37 246.131 208.522C246.131 208.69 246.08 208.837 245.979 208.962C245.881 209.087 245.741 209.185 245.558 209.256C245.376 209.323 245.158 209.357 244.905 209.357ZM247.511 209.357C247.285 209.357 247.067 209.328 246.858 209.271C246.652 209.21 246.488 209.138 246.367 209.053L246.61 208.572C246.731 208.65 246.876 208.714 247.045 208.765C247.214 208.815 247.383 208.841 247.552 208.841C247.751 208.841 247.894 208.814 247.982 208.76C248.073 208.706 248.119 208.633 248.119 208.542C248.119 208.468 248.088 208.412 248.027 208.375C247.967 208.334 247.887 208.304 247.789 208.284C247.692 208.263 247.582 208.245 247.46 208.228C247.342 208.211 247.222 208.189 247.101 208.162C246.983 208.132 246.875 208.089 246.777 208.035C246.679 207.978 246.6 207.902 246.539 207.808C246.478 207.713 246.448 207.588 246.448 207.433C246.448 207.261 246.497 207.112 246.595 206.987C246.692 206.859 246.829 206.761 247.005 206.694C247.184 206.623 247.395 206.587 247.638 206.587C247.82 206.587 248.004 206.608 248.189 206.648C248.375 206.689 248.529 206.746 248.65 206.82L248.407 207.301C248.279 207.224 248.149 207.171 248.017 207.144C247.889 207.114 247.761 207.099 247.633 207.099C247.44 207.099 247.297 207.127 247.202 207.185C247.111 207.242 247.065 207.315 247.065 207.403C247.065 207.484 247.096 207.544 247.157 207.585C247.217 207.625 247.297 207.657 247.395 207.681C247.492 207.705 247.6 207.725 247.719 207.742C247.84 207.755 247.96 207.777 248.078 207.808C248.196 207.838 248.304 207.88 248.402 207.934C248.503 207.985 248.584 208.057 248.645 208.152C248.706 208.246 248.736 208.37 248.736 208.522C248.736 208.69 248.686 208.837 248.584 208.962C248.487 209.087 248.346 209.185 248.164 209.256C247.982 209.323 247.764 209.357 247.511 209.357ZM250.947 209.322V208.775L250.912 208.658V207.701C250.912 207.516 250.856 207.372 250.745 207.271C250.633 207.166 250.464 207.114 250.238 207.114C250.086 207.114 249.936 207.138 249.788 207.185C249.643 207.232 249.519 207.298 249.418 207.382L249.17 206.922C249.315 206.81 249.487 206.727 249.686 206.673C249.889 206.616 250.098 206.587 250.314 206.587C250.706 206.587 251.008 206.682 251.221 206.871C251.437 207.057 251.545 207.345 251.545 207.737V209.322H250.947ZM250.097 209.357C249.894 209.357 249.717 209.323 249.565 209.256C249.413 209.185 249.295 209.089 249.21 208.967C249.129 208.842 249.089 208.702 249.089 208.547C249.089 208.395 249.124 208.258 249.195 208.137C249.27 208.015 249.389 207.919 249.555 207.848C249.72 207.777 249.94 207.742 250.213 207.742H250.998V208.162H250.259C250.043 208.162 249.897 208.197 249.823 208.268C249.749 208.336 249.712 208.42 249.712 208.522C249.712 208.636 249.757 208.727 249.848 208.795C249.94 208.862 250.066 208.896 250.228 208.896C250.383 208.896 250.522 208.861 250.643 208.79C250.768 208.719 250.858 208.614 250.912 208.476L251.018 208.856C250.957 209.014 250.848 209.138 250.689 209.225C250.534 209.313 250.336 209.357 250.097 209.357ZM253.587 210.339C253.337 210.339 253.093 210.305 252.853 210.238C252.617 210.174 252.423 210.079 252.271 209.954L252.554 209.478C252.672 209.576 252.821 209.654 253 209.711C253.182 209.772 253.366 209.803 253.552 209.803C253.849 209.803 254.066 209.733 254.205 209.595C254.343 209.46 254.412 209.256 254.412 208.982V208.501L254.463 207.889L254.443 207.276V206.618H255.045V208.911C255.045 209.401 254.92 209.76 254.671 209.99C254.421 210.223 254.06 210.339 253.587 210.339ZM253.506 209.2C253.25 209.2 253.017 209.146 252.807 209.038C252.601 208.927 252.438 208.773 252.316 208.577C252.198 208.381 252.139 208.152 252.139 207.889C252.139 207.629 252.198 207.401 252.316 207.205C252.438 207.009 252.601 206.857 252.807 206.749C253.017 206.641 253.25 206.587 253.506 206.587C253.736 206.587 253.942 206.633 254.124 206.724C254.306 206.815 254.451 206.957 254.559 207.149C254.671 207.342 254.726 207.588 254.726 207.889C254.726 208.189 254.671 208.437 254.559 208.633C254.451 208.825 254.306 208.969 254.124 209.063C253.942 209.154 253.736 209.2 253.506 209.2ZM253.602 208.663C253.761 208.663 253.903 208.631 254.028 208.567C254.153 208.5 254.249 208.408 254.316 208.294C254.387 208.176 254.423 208.041 254.423 207.889C254.423 207.737 254.387 207.603 254.316 207.489C254.249 207.37 254.153 207.281 254.028 207.22C253.903 207.156 253.761 207.124 253.602 207.124C253.444 207.124 253.3 207.156 253.172 207.22C253.047 207.281 252.949 207.37 252.878 207.489C252.811 207.603 252.777 207.737 252.777 207.889C252.777 208.041 252.811 208.176 252.878 208.294C252.949 208.408 253.047 208.5 253.172 208.567C253.3 208.631 253.444 208.663 253.602 208.663ZM257.148 209.357C256.848 209.357 256.585 209.298 256.358 209.18C256.136 209.058 255.962 208.893 255.837 208.684C255.715 208.474 255.655 208.236 255.655 207.97C255.655 207.7 255.714 207.462 255.832 207.256C255.953 207.046 256.119 206.883 256.328 206.765C256.541 206.646 256.782 206.587 257.052 206.587C257.315 206.587 257.55 206.645 257.756 206.76C257.962 206.874 258.124 207.036 258.242 207.246C258.36 207.455 258.419 207.701 258.419 207.985C258.419 208.012 258.417 208.042 258.414 208.076C258.414 208.11 258.412 208.142 258.409 208.172H256.156V207.752H258.075L257.827 207.884C257.83 207.728 257.798 207.592 257.731 207.473C257.663 207.355 257.57 207.262 257.452 207.195C257.337 207.127 257.204 207.094 257.052 207.094C256.897 207.094 256.76 207.127 256.642 207.195C256.527 207.262 256.436 207.357 256.369 207.479C256.304 207.597 256.272 207.737 256.272 207.899V208C256.272 208.162 256.309 208.306 256.384 208.43C256.458 208.555 256.563 208.651 256.698 208.719C256.833 208.787 256.988 208.82 257.163 208.82C257.315 208.82 257.452 208.797 257.574 208.749C257.695 208.702 257.803 208.628 257.898 208.527L258.237 208.916C258.115 209.058 257.962 209.168 257.776 209.246C257.594 209.32 257.385 209.357 257.148 209.357Z" fill="white"/>
</svg>
