<svg width="166" height="48" viewBox="0 0 166 48" fill="none" xmlns="http://www.w3.org/2000/svg">
<path fill-rule="evenodd" clip-rule="evenodd" d="M8.55368 41.7245C9.99888 38.3373 12.266 30.6416 9.77306 26.9564C6.65686 22.3498 4.28584 15.3045 8.01173 8.12368C11.7376 0.942866 20.612 -0.344261 26.709 0.807379C32.8059 1.95902 37.6834 7.24302 37.8866 14.2883C37.8866 15.0109 37.704 16.1122 37.2704 16.7625C37.0672 17.0674 37.2704 17.5755 37.4124 17.8788C37.4851 18.034 39.9641 21.7853 41.2061 23.637C41.4319 24.1337 41.7074 25.2492 41.0028 25.737C40.1222 26.3467 39.7157 26.4144 38.9705 26.4822C38.2254 26.5499 38.1576 27.9048 38.5641 29.1242C38.5641 29.3952 38.3744 29.9913 37.6157 30.2081C37.7737 30.5468 38.0899 31.2513 38.0899 31.3597C38.0899 31.4952 37.4124 32.5114 37.2092 32.7823C37.006 33.0533 37.0737 34.0695 37.2769 34.6791C37.4802 35.2888 37.4124 36.9824 36.0576 37.8631C35.6285 38.1341 34.1878 38.6354 31.8575 38.4728L29.4187 38.0663C28.9897 38.0437 28.0503 38.1747 27.7251 38.8792C27.3999 39.5838 26.9122 41.2051 26.709 41.9277L25.4896 47.8891C18.5091 44.2482 14.7292 42.6568 8.55368 41.7245Z" fill="#C09CF3"/>
<path d="M13.2282 17.6218C14.2601 16.5899 15.9589 16.552 17.1573 17.3509C18.3766 18.1638 18.5864 19.7541 18.5187 20.2284C18.4509 20.7026 17.9768 21.3122 17.909 21.4478C17.826 21.6137 17.8277 21.8244 17.909 21.922C18.0219 22.0575 18.2612 22.3962 18.5864 22.6671C18.9577 22.9765 19.0606 23.5478 18.9929 23.8188C18.9251 24.0898 18.6477 24.2607 18.5122 24.3285C18.3515 24.4088 18.1057 24.4639 18.038 24.3962C17.9871 24.3454 18.0156 24.1475 18.1057 24.0575C18.1957 23.9674 18.1348 23.8414 18.1122 23.8188C17.909 23.593 17.5025 23.2091 17.2315 22.8704C16.9064 22.4639 16.8928 21.8542 17.0283 21.4478C17.1828 20.9843 17.8412 20.7026 17.5702 19.4832C17.4132 18.7768 16.7508 18.1283 16.2089 17.8574C15.8024 17.6541 14.5895 17.6541 14.2508 17.8574C13.9121 18.0606 12.8282 18.6026 12.8282 20.5671C12.8282 22.1387 13.0927 22.7704 13.4314 23.38C14.1841 24.7349 14.9153 25.5833 15.7347 26.2253C16.8659 27.1115 17.6315 27.2414 18.2412 27.1059C18.8509 26.9705 19.1283 26.3253 19.1961 26.2576C19.2503 26.2034 19.309 26.235 19.3316 26.2576C19.596 26.8349 19.1961 27.4447 18.9929 27.6479C18.5252 28.1156 17.9838 28.244 17.496 28.1898C17.0083 28.1356 15.9992 27.8188 15.396 27.2414C14.7928 26.664 14.2443 26.2825 12.9572 24.2607C12.2798 23.0413 12.0088 21.7219 12.0088 20.5348C12.0088 19.6896 12.2527 18.5974 13.2282 17.6218Z" fill="#FDF7EF"/>
<path d="M13.6346 21.28C13.5604 18.8413 15.1927 18.5702 15.6734 18.8058C13.2395 21.375 16.0013 24.2141 16.0121 24.2252C16.0729 24.4108 13.7089 23.7188 13.6346 21.28Z" fill="#FDF7EF"/>
<path d="M13.8342 14.4552C13.1278 14.0748 13.3995 13.3684 13.8342 13.2053H17.0948C17.1492 13.2053 17.2687 13.1836 17.3122 13.0966C17.3557 13.0097 18.6708 9.02091 18.7795 8.69485C18.8881 8.3688 19.7576 8.26011 19.9207 8.69485C20.0837 9.1296 22.3065 16.9291 22.3065 16.9291C22.3065 16.9291 24.9202 10.7599 25.0833 10.3795C25.2463 9.99909 26.0071 9.8904 26.2245 10.3795C26.4418 10.8686 27.1483 12.9336 27.1483 12.9336C27.1846 13.0993 27.257 13.2053 27.3657 13.2053H30.1372C30.898 13.2053 30.898 14.4009 30.1372 14.4009H26.9309C26.5339 14.3754 26.3814 14.2648 26.2245 13.9118L25.7301 12.0382C25.7301 12.0382 22.9639 18.3679 22.8008 18.8027C22.6378 19.2374 21.8227 19.1831 21.6596 18.8027C21.4966 18.4223 19.372 10.6796 19.372 10.6796L18.3991 13.7488C18.2636 14.2544 18.0632 14.3979 17.5296 14.4552H13.8342Z" fill="#F0B800"/>
<path d="M70.512 15.7H74.4V32.5H70.512V15.7ZM62.88 32.5H58.992V15.7H62.88V32.5ZM70.8 25.612H62.592V22.324H70.8V25.612ZM84.5188 32.692C83.0468 32.692 81.7508 32.404 80.6308 31.828C79.5268 31.252 78.6708 30.468 78.0628 29.476C77.4548 28.468 77.1508 27.324 77.1508 26.044C77.1508 24.748 77.4468 23.604 78.0388 22.612C78.6468 21.604 79.4708 20.82 80.5108 20.26C81.5508 19.684 82.7268 19.396 84.0388 19.396C85.3028 19.396 86.4388 19.668 87.4468 20.212C88.4708 20.74 89.2788 21.508 89.8708 22.516C90.4628 23.508 90.7588 24.7 90.7588 26.092C90.7588 26.236 90.7508 26.404 90.7348 26.596C90.7188 26.772 90.7028 26.94 90.6868 27.1H80.1988V24.916H88.7188L87.2788 25.564C87.2788 24.892 87.1428 24.308 86.8708 23.812C86.5988 23.316 86.2228 22.932 85.7428 22.66C85.2628 22.372 84.7028 22.228 84.0628 22.228C83.4228 22.228 82.8548 22.372 82.3588 22.66C81.8788 22.932 81.5028 23.324 81.2308 23.836C80.9588 24.332 80.8228 24.924 80.8228 25.612V26.188C80.8228 26.892 80.9748 27.516 81.2788 28.06C81.5988 28.588 82.0388 28.996 82.5988 29.284C83.1748 29.556 83.8468 29.692 84.6148 29.692C85.3028 29.692 85.9028 29.588 86.4148 29.38C86.9428 29.172 87.4228 28.86 87.8548 28.444L89.8468 30.604C89.2548 31.276 88.5108 31.796 87.6148 32.164C86.7188 32.516 85.6868 32.692 84.5188 32.692ZM100.82 32.5V29.98L100.58 29.428V24.916C100.58 24.116 100.332 23.492 99.8359 23.044C99.3559 22.596 98.6119 22.372 97.6039 22.372C96.9159 22.372 96.2359 22.484 95.5639 22.708C94.9079 22.916 94.3479 23.204 93.8839 23.572L92.5399 20.956C93.2439 20.46 94.0919 20.076 95.0839 19.804C96.0759 19.532 97.0839 19.396 98.1079 19.396C100.076 19.396 101.604 19.86 102.692 20.788C103.78 21.716 104.324 23.164 104.324 25.132V32.5H100.82ZM96.8839 32.692C95.8759 32.692 95.0119 32.524 94.2919 32.188C93.5719 31.836 93.0199 31.364 92.6359 30.772C92.2519 30.18 92.0599 29.516 92.0599 28.78C92.0599 28.012 92.2439 27.34 92.6119 26.764C92.9959 26.188 93.5959 25.74 94.4119 25.42C95.2279 25.084 96.2919 24.916 97.6039 24.916H101.036V27.1H98.0119C97.1319 27.1 96.5239 27.244 96.1879 27.532C95.8679 27.82 95.7079 28.18 95.7079 28.612C95.7079 29.092 95.8919 29.476 96.2599 29.764C96.6439 30.036 97.1639 30.172 97.8199 30.172C98.4439 30.172 99.0039 30.028 99.4999 29.74C99.9959 29.436 100.356 28.996 100.58 28.42L101.156 30.148C100.884 30.98 100.388 31.612 99.6679 32.044C98.9479 32.476 98.0199 32.692 96.8839 32.692ZM107.712 32.5V19.588H111.288V23.236L110.784 22.18C111.168 21.268 111.784 20.58 112.632 20.116C113.48 19.636 114.512 19.396 115.728 19.396V22.852C115.568 22.836 115.424 22.828 115.296 22.828C115.168 22.812 115.032 22.804 114.888 22.804C113.864 22.804 113.032 23.1 112.392 23.692C111.768 24.268 111.456 25.172 111.456 26.404V32.5H107.712ZM125.86 32.788C124.564 32.788 123.356 32.58 122.236 32.164C121.132 31.732 120.172 31.124 119.356 30.34C118.54 29.556 117.9 28.636 117.436 27.58C116.988 26.524 116.764 25.364 116.764 24.1C116.764 22.836 116.988 21.676 117.436 20.62C117.9 19.564 118.54 18.644 119.356 17.86C120.188 17.076 121.156 16.476 122.26 16.06C123.364 15.628 124.572 15.412 125.884 15.412C127.34 15.412 128.652 15.668 129.82 16.18C131.004 16.676 131.996 17.412 132.796 18.388L130.3 20.692C129.724 20.036 129.084 19.548 128.38 19.228C127.676 18.892 126.908 18.724 126.076 18.724C125.292 18.724 124.572 18.852 123.916 19.108C123.26 19.364 122.692 19.732 122.212 20.212C121.732 20.692 121.356 21.26 121.084 21.916C120.828 22.572 120.7 23.3 120.7 24.1C120.7 24.9 120.828 25.628 121.084 26.284C121.356 26.94 121.732 27.508 122.212 27.988C122.692 28.468 123.26 28.836 123.916 29.092C124.572 29.348 125.292 29.476 126.076 29.476C126.908 29.476 127.676 29.316 128.38 28.996C129.084 28.66 129.724 28.156 130.3 27.484L132.796 29.788C131.996 30.764 131.004 31.508 129.82 32.02C128.652 32.532 127.332 32.788 125.86 32.788ZM140.856 32.692C139.48 32.692 138.256 32.404 137.184 31.828C136.128 31.252 135.288 30.468 134.664 29.476C134.056 28.468 133.752 27.324 133.752 26.044C133.752 24.748 134.056 23.604 134.664 22.612C135.288 21.604 136.128 20.82 137.184 20.26C138.256 19.684 139.48 19.396 140.856 19.396C142.216 19.396 143.432 19.684 144.504 20.26C145.576 20.82 146.416 21.596 147.024 22.588C147.632 23.58 147.936 24.732 147.936 26.044C147.936 27.324 147.632 28.468 147.024 29.476C146.416 30.468 145.576 31.252 144.504 31.828C143.432 32.404 142.216 32.692 140.856 32.692ZM140.856 29.62C141.48 29.62 142.04 29.476 142.536 29.188C143.032 28.9 143.424 28.492 143.712 27.964C144 27.42 144.144 26.78 144.144 26.044C144.144 25.292 144 24.652 143.712 24.124C143.424 23.596 143.032 23.188 142.536 22.9C142.04 22.612 141.48 22.468 140.856 22.468C140.232 22.468 139.672 22.612 139.176 22.9C138.68 23.188 138.28 23.596 137.976 24.124C137.688 24.652 137.544 25.292 137.544 26.044C137.544 26.78 137.688 27.42 137.976 27.964C138.28 28.492 138.68 28.9 139.176 29.188C139.672 29.476 140.232 29.62 140.856 29.62ZM156.511 37.348C155.295 37.348 154.119 37.196 152.983 36.892C151.863 36.604 150.927 36.164 150.175 35.572L151.663 32.884C152.207 33.332 152.895 33.684 153.727 33.94C154.575 34.212 155.407 34.348 156.223 34.348C157.551 34.348 158.511 34.052 159.103 33.46C159.711 32.868 160.015 31.988 160.015 30.82V28.876L160.255 25.636L160.207 22.372V19.588H163.759V30.34C163.759 32.74 163.135 34.508 161.887 35.644C160.639 36.78 158.847 37.348 156.511 37.348ZM155.935 31.876C154.735 31.876 153.647 31.62 152.671 31.108C151.711 30.58 150.935 29.852 150.343 28.924C149.767 27.98 149.479 26.884 149.479 25.636C149.479 24.372 149.767 23.276 150.343 22.348C150.935 21.404 151.711 20.676 152.671 20.164C153.647 19.652 154.735 19.396 155.935 19.396C157.023 19.396 157.983 19.62 158.815 20.068C159.647 20.5 160.295 21.18 160.759 22.108C161.223 23.02 161.455 24.196 161.455 25.636C161.455 27.06 161.223 28.236 160.759 29.164C160.295 30.076 159.647 30.756 158.815 31.204C157.983 31.652 157.023 31.876 155.935 31.876ZM156.679 28.804C157.335 28.804 157.919 28.676 158.431 28.42C158.943 28.148 159.343 27.772 159.631 27.292C159.919 26.812 160.063 26.26 160.063 25.636C160.063 24.996 159.919 24.444 159.631 23.98C159.343 23.5 158.943 23.132 158.431 22.876C157.919 22.604 157.335 22.468 156.679 22.468C156.023 22.468 155.439 22.604 154.927 22.876C154.415 23.132 154.007 23.5 153.703 23.98C153.415 24.444 153.271 24.996 153.271 25.636C153.271 26.26 153.415 26.812 153.703 27.292C154.007 27.772 154.415 28.148 154.927 28.42C155.439 28.676 156.023 28.804 156.679 28.804Z" fill="#011632"/>
</svg>
