<svg width="174" height="52" viewBox="0 0 174 52" fill="none" xmlns="http://www.w3.org/2000/svg">
<g clip-path="url(#clip0_1053_4777)">
<path fill-rule="evenodd" clip-rule="evenodd" d="M9.12393 44.5065C10.6655 40.8935 13.0838 32.6848 10.4246 28.7539C7.10065 23.8402 4.57156 16.3252 8.54585 8.66565C12.5201 1.00611 21.9862 -0.366821 28.4895 0.861595C34.9929 2.09001 40.1956 7.72627 40.4124 15.2413C40.4124 16.0121 40.2176 17.1867 39.7551 17.8804C39.5383 18.2056 39.7551 18.7475 39.9066 19.0711C39.9841 19.2366 42.6284 23.238 43.9531 25.2131C44.194 25.743 44.4879 26.9329 43.7364 27.4532C42.797 28.1035 42.3634 28.1758 41.5686 28.2481C40.7737 28.3203 40.7015 29.7655 41.135 31.0662C41.135 31.3552 40.9327 31.9911 40.1234 32.2223C40.292 32.5836 40.6292 33.3351 40.6292 33.4508C40.6292 33.5953 39.9066 34.6792 39.6898 34.9682C39.473 35.2573 39.5453 36.3411 39.7621 36.9915C39.9789 37.6418 39.9066 39.4483 38.4614 40.3877C38.0038 40.6767 36.467 41.2115 33.9813 41.038L31.3799 40.6045C30.9223 40.5804 29.9203 40.7201 29.5734 41.4716C29.2266 42.2231 28.7063 43.9525 28.4895 44.7233L27.1889 51.0821C19.7431 47.1984 15.7111 45.501 9.12393 44.5065Z" fill="#6A5AE0"/>
<path d="M14.1101 18.7961C15.2109 17.6954 17.0229 17.6549 18.3012 18.5071C19.6018 19.3742 19.8255 21.0706 19.7533 21.5765C19.681 22.0822 19.1753 22.7325 19.103 22.8771C19.0145 23.0541 19.0162 23.2788 19.103 23.3829C19.2234 23.5275 19.4787 23.8888 19.8256 24.1778C20.2216 24.5078 20.3314 25.1172 20.2591 25.4062C20.1869 25.6952 19.8909 25.8776 19.7464 25.9499C19.575 26.0355 19.3128 26.0944 19.2406 26.0221C19.1863 25.9679 19.2168 25.7569 19.3128 25.6608C19.4089 25.5648 19.3438 25.4303 19.3197 25.4062C19.103 25.1653 18.6694 24.7559 18.3804 24.3946C18.0335 23.961 18.0191 23.3107 18.1636 22.8771C18.3284 22.3828 19.0307 22.0822 18.7417 20.7816C18.5742 20.0281 17.8676 19.3364 17.2896 19.0474C16.856 18.8306 15.5622 18.8306 15.2009 19.0474C14.8396 19.2641 13.6835 19.8423 13.6835 21.9378C13.6835 23.6142 13.9656 24.2879 14.3269 24.9382C15.1298 26.3834 15.9097 27.2883 16.7837 27.9731C17.9904 28.9185 18.807 29.057 19.4573 28.9125C20.1077 28.768 20.4036 28.0798 20.4759 28.0076C20.5337 27.9498 20.5963 27.9835 20.6204 28.0076C20.9025 28.6234 20.4759 29.2738 20.2591 29.4906C19.7602 29.9895 19.1828 30.1265 18.6625 30.0687C18.1422 30.0109 17.0658 29.6729 16.4224 29.057C15.779 28.4412 15.194 28.0342 13.8211 25.8776C13.0985 24.5769 12.8094 23.1695 12.8094 21.9033C12.8094 21.0017 13.0696 19.8367 14.1101 18.7961Z" fill="#FDF7EF"/>
<path d="M14.5437 22.6982C14.4645 20.0969 16.2056 19.8078 16.7184 20.059C14.1222 22.7995 17.0681 25.8279 17.0797 25.8398C17.1445 26.0377 14.6229 25.2995 14.5437 22.6982Z" fill="#FDF7EF"/>
<path d="M14.7566 15.419C14.003 15.0132 14.2929 14.2597 14.7566 14.0858H18.2346C18.2925 14.0858 18.42 14.0626 18.4664 13.9698C18.5128 13.8771 19.9156 9.6224 20.0315 9.27461C20.1474 8.92681 21.0749 8.81088 21.2488 9.27461C21.4227 9.73834 23.7937 18.0578 23.7937 18.0578C23.7937 18.0578 26.5816 11.4773 26.7555 11.0716C26.9294 10.6658 27.741 10.5499 27.9728 11.0716C28.2047 11.5932 28.9582 13.7959 28.9582 13.7959C28.997 13.9727 29.0742 14.0858 29.1901 14.0858H32.1464C32.9579 14.0858 32.9579 15.361 32.1464 15.361H28.7264C28.3029 15.3338 28.1403 15.2159 27.9728 14.8393L27.4456 12.8408C27.4456 12.8408 24.4949 19.5925 24.321 20.0563C24.1471 20.52 23.2776 20.462 23.1037 20.0563C22.9298 19.6505 20.6635 11.3917 20.6635 11.3917L19.6257 14.6654C19.4812 15.2048 19.2675 15.3579 18.6983 15.419H14.7566Z" fill="#F0B800"/>
</g>
<path d="M72.0128 17.1796H76.16V35.0996H72.0128V17.1796ZM63.872 35.0996H59.7248V17.1796H63.872V35.0996ZM72.32 27.7524H63.5648V24.2452H72.32V27.7524ZM86.9534 35.3044C85.3832 35.3044 84.0008 34.9972 82.8062 34.3828C81.6286 33.7684 80.7155 32.9321 80.067 31.874C79.4184 30.7988 79.0942 29.5785 79.0942 28.2132C79.0942 26.8308 79.4099 25.6105 80.0414 24.5524C80.6899 23.4772 81.5688 22.6409 82.6782 22.0436C83.7875 21.4292 85.0419 21.122 86.4414 21.122C87.7896 21.122 89.0014 21.4121 90.0766 21.9924C91.1688 22.5556 92.0307 23.3748 92.6622 24.45C93.2936 25.5081 93.6094 26.7796 93.6094 28.2644C93.6094 28.418 93.6008 28.5972 93.5838 28.802C93.5667 28.9897 93.5496 29.1689 93.5326 29.3396H82.3454V27.01H91.4334L89.8974 27.7012C89.8974 26.9844 89.7523 26.3615 89.4622 25.8324C89.172 25.3033 88.771 24.8937 88.259 24.6036C87.747 24.2964 87.1496 24.1428 86.467 24.1428C85.7843 24.1428 85.1784 24.2964 84.6494 24.6036C84.1374 24.8937 83.7363 25.3119 83.4462 25.858C83.156 26.3871 83.011 27.0185 83.011 27.7524V28.3668C83.011 29.1177 83.1731 29.7833 83.4974 30.3636C83.8387 30.9268 84.308 31.362 84.9054 31.6692C85.5198 31.9593 86.2366 32.1044 87.0558 32.1044C87.7896 32.1044 88.4296 31.9935 88.9758 31.7716C89.539 31.5497 90.051 31.2169 90.5118 30.7732L92.6366 33.0772C92.0051 33.794 91.2115 34.3487 90.2558 34.7412C89.3 35.1167 88.1992 35.3044 86.9534 35.3044ZM104.341 35.0996V32.4116L104.085 31.8228V27.01C104.085 26.1567 103.821 25.4911 103.292 25.0132C102.78 24.5353 101.986 24.2964 100.911 24.2964C100.177 24.2964 99.4516 24.4159 98.7348 24.6548C98.035 24.8767 97.4377 25.1839 96.9428 25.5764L95.5092 22.786C96.2601 22.2569 97.1646 21.8473 98.2228 21.5572C99.2809 21.2671 100.356 21.122 101.448 21.122C103.548 21.122 105.177 21.6169 106.338 22.6068C107.499 23.5967 108.079 25.1412 108.079 27.2404V35.0996H104.341ZM100.143 35.3044C99.0676 35.3044 98.146 35.1252 97.378 34.7668C96.61 34.3913 96.0212 33.8879 95.6116 33.2564C95.202 32.6249 94.9972 31.9167 94.9972 31.1316C94.9972 30.3124 95.1934 29.5956 95.586 28.9812C95.9956 28.3668 96.6356 27.8889 97.506 27.5476C98.3764 27.1892 99.5113 27.01 100.911 27.01H104.572V29.3396H101.346C100.407 29.3396 99.7588 29.4932 99.4004 29.8004C99.059 30.1076 98.8884 30.4916 98.8884 30.9524C98.8884 31.4644 99.0846 31.874 99.4772 32.1812C99.8868 32.4713 100.441 32.6164 101.141 32.6164C101.807 32.6164 102.404 32.4628 102.933 32.1556C103.462 31.8313 103.846 31.362 104.085 30.7476L104.7 32.5908C104.409 33.4783 103.88 34.1524 103.112 34.6132C102.344 35.074 101.355 35.3044 100.143 35.3044ZM111.693 35.0996V21.3268H115.508V25.218L114.97 24.0916C115.38 23.1188 116.037 22.3849 116.941 21.89C117.846 21.378 118.947 21.122 120.244 21.122V24.8084C120.073 24.7913 119.919 24.7828 119.783 24.7828C119.646 24.7657 119.501 24.7572 119.348 24.7572C118.255 24.7572 117.368 25.0729 116.685 25.7044C116.02 26.3188 115.687 27.2831 115.687 28.5972V35.0996H111.693ZM131.051 35.4068C129.668 35.4068 128.38 35.1849 127.185 34.7412C126.008 34.2804 124.984 33.6319 124.113 32.7956C123.243 31.9593 122.56 30.978 122.065 29.8516C121.587 28.7252 121.348 27.4879 121.348 26.1396C121.348 24.7913 121.587 23.554 122.065 22.4276C122.56 21.3012 123.243 20.3199 124.113 19.4836C125.001 18.6473 126.033 18.0073 127.211 17.5636C128.388 17.1028 129.677 16.8724 131.076 16.8724C132.629 16.8724 134.029 17.1455 135.275 17.6916C136.538 18.2207 137.596 19.0057 138.449 20.0468L135.787 22.5044C135.172 21.8047 134.49 21.2841 133.739 20.9428C132.988 20.5844 132.169 20.4052 131.281 20.4052C130.445 20.4052 129.677 20.5417 128.977 20.8148C128.277 21.0879 127.672 21.4804 127.16 21.9924C126.648 22.5044 126.247 23.1103 125.956 23.81C125.683 24.5097 125.547 25.2863 125.547 26.1396C125.547 26.9929 125.683 27.7695 125.956 28.4692C126.247 29.1689 126.648 29.7748 127.16 30.2868C127.672 30.7988 128.277 31.1913 128.977 31.4644C129.677 31.7375 130.445 31.874 131.281 31.874C132.169 31.874 132.988 31.7033 133.739 31.362C134.49 31.0036 135.172 30.466 135.787 29.7492L138.449 32.2068C137.596 33.2479 136.538 34.0415 135.275 34.5876C134.029 35.1337 132.621 35.4068 131.051 35.4068ZM147.047 35.3044C145.579 35.3044 144.273 34.9972 143.13 34.3828C142.004 33.7684 141.108 32.9321 140.442 31.874C139.793 30.7988 139.469 29.5785 139.469 28.2132C139.469 26.8308 139.793 25.6105 140.442 24.5524C141.108 23.4772 142.004 22.6409 143.13 22.0436C144.273 21.4292 145.579 21.122 147.047 21.122C148.497 21.122 149.795 21.4292 150.938 22.0436C152.081 22.6409 152.977 23.4687 153.626 24.5268C154.275 25.5849 154.599 26.8137 154.599 28.2132C154.599 29.5785 154.275 30.7988 153.626 31.874C152.977 32.9321 152.081 33.7684 150.938 34.3828C149.795 34.9972 148.497 35.3044 147.047 35.3044ZM147.047 32.0276C147.712 32.0276 148.31 31.874 148.839 31.5668C149.368 31.2596 149.786 30.8244 150.093 30.2612C150.4 29.6809 150.554 28.9983 150.554 28.2132C150.554 27.4111 150.4 26.7284 150.093 26.1652C149.786 25.602 149.368 25.1668 148.839 24.8596C148.31 24.5524 147.712 24.3988 147.047 24.3988C146.381 24.3988 145.784 24.5524 145.255 24.8596C144.726 25.1668 144.299 25.602 143.975 26.1652C143.668 26.7284 143.514 27.4111 143.514 28.2132C143.514 28.9983 143.668 29.6809 143.975 30.2612C144.299 30.8244 144.726 31.2596 145.255 31.5668C145.784 31.874 146.381 32.0276 147.047 32.0276ZM163.745 40.2708C162.448 40.2708 161.194 40.1087 159.982 39.7844C158.787 39.4772 157.789 39.0079 156.987 38.3764L158.574 35.5092C159.154 35.9871 159.888 36.3625 160.775 36.6356C161.68 36.9257 162.567 37.0708 163.438 37.0708C164.854 37.0708 165.878 36.7551 166.51 36.1236C167.158 35.4921 167.483 34.5535 167.483 33.3076V31.234L167.739 27.778L167.687 24.2964V21.3268H171.476V32.7956C171.476 35.3556 170.811 37.2415 169.479 38.4532C168.148 39.6649 166.237 40.2708 163.745 40.2708ZM163.131 34.434C161.851 34.434 160.69 34.1609 159.649 33.6148C158.625 33.0516 157.797 32.2751 157.166 31.2852C156.551 30.2783 156.244 29.1092 156.244 27.778C156.244 26.4297 156.551 25.2607 157.166 24.2708C157.797 23.2639 158.625 22.4873 159.649 21.9412C160.69 21.3951 161.851 21.122 163.131 21.122C164.291 21.122 165.315 21.3609 166.203 21.8388C167.09 22.2996 167.781 23.0249 168.276 24.0148C168.771 24.9876 169.019 26.242 169.019 27.778C169.019 29.2969 168.771 30.5513 168.276 31.5412C167.781 32.514 167.09 33.2393 166.203 33.7172C165.315 34.1951 164.291 34.434 163.131 34.434ZM163.924 31.1572C164.624 31.1572 165.247 31.0207 165.793 30.7476C166.339 30.4575 166.766 30.0564 167.073 29.5444C167.38 29.0324 167.534 28.4436 167.534 27.778C167.534 27.0953 167.38 26.5065 167.073 26.0116C166.766 25.4996 166.339 25.1071 165.793 24.834C165.247 24.5439 164.624 24.3988 163.924 24.3988C163.224 24.3988 162.602 24.5439 162.055 24.834C161.509 25.1071 161.074 25.4996 160.75 26.0116C160.443 26.5065 160.289 27.0953 160.289 27.778C160.289 28.4436 160.443 29.0324 160.75 29.5444C161.074 30.0564 161.509 30.4575 162.055 30.7476C162.602 31.0207 163.224 31.1572 163.924 31.1572Z" fill="#011632"/>
<defs>
<clipPath id="clip0_1053_4777">
<rect width="51.2" height="51.2" fill="white"/>
</clipPath>
</defs>
</svg>
