<svg width="410" height="240" viewBox="0 0 410 240" fill="none" xmlns="http://www.w3.org/2000/svg">
<path d="M410 24C410 10.7452 399.255 0 386 0H102.715C91.7607 0 82.1965 7.41711 79.4701 18.0266L65.5147 72.332C63.9521 78.4127 60.069 83.639 54.6981 86.8901L0 120L54.6981 153.11C60.0689 156.361 63.9521 161.587 65.5147 167.668L79.4701 221.973C82.1965 232.583 91.7607 240 102.715 240H386C399.255 240 410 229.255 410 216V24Z" fill="#F6F5FD"/>
<path d="M180.903 22.236L177.263 32.288H174.939L171.327 22.236H173.623L176.171 29.81L178.775 22.236H180.903ZM184.122 32.414C181.882 32.414 180.384 30.86 180.384 28.522C180.384 26.296 181.938 24.672 184.094 24.672C186.46 24.672 188.028 26.59 187.678 29.026H182.372C182.498 30.244 183.086 30.916 184.08 30.916C184.934 30.916 185.508 30.496 185.732 29.754H187.664C187.244 31.448 185.942 32.414 184.122 32.414ZM184.052 26.1C183.142 26.1 182.568 26.688 182.4 27.794H185.62C185.564 26.758 184.976 26.1 184.052 26.1ZM190.927 28.662V32.288H188.981V24.812H190.773V26.254C191.319 25.302 192.481 24.728 193.685 24.728V26.744C192.033 26.618 190.927 27.01 190.927 28.662ZM196.95 23.076C196.95 23.734 196.418 24.224 195.648 24.224C194.892 24.224 194.36 23.734 194.36 23.076C194.36 22.39 194.892 21.9 195.648 21.9C196.418 21.9 196.95 22.39 196.95 23.076ZM196.642 32.288H194.696V24.812H196.642V32.288ZM206.214 23.076C206.214 23.734 205.682 24.224 204.912 24.224C204.142 24.224 203.61 23.734 203.61 23.076C203.61 22.39 204.142 21.9 204.912 21.9C205.682 21.9 206.214 22.39 206.214 23.076ZM201.02 32.288H199.088V26.478H197.576V24.812H199.088V24.406C199.088 22.922 199.886 22.082 201.44 22.082C201.916 22.082 202.322 22.166 202.644 22.306V23.846C202.434 23.762 202.154 23.72 201.902 23.72C201.37 23.72 201.02 23.93 201.02 24.448V24.812H202.966V26.478H201.02V32.288ZM205.892 32.288H203.96V24.812H205.892V32.288ZM210.793 32.428C208.637 32.428 207.153 30.832 207.153 28.55C207.153 26.31 208.693 24.672 210.793 24.672C212.739 24.672 214.181 25.988 214.419 28.004H212.375C212.277 27.01 211.675 26.394 210.793 26.394C209.785 26.394 209.141 27.22 209.141 28.55C209.141 29.894 209.771 30.706 210.793 30.706C211.689 30.706 212.263 30.118 212.375 29.096H214.419C214.195 31.154 212.795 32.428 210.793 32.428ZM220.121 32.288V31.364C219.631 32.064 218.889 32.428 217.867 32.428C216.313 32.428 215.277 31.518 215.277 30.118C215.277 28.662 216.453 27.878 218.637 27.878C219.057 27.878 219.421 27.906 219.883 27.962V27.514C219.883 26.674 219.407 26.184 218.595 26.184C217.755 26.184 217.251 26.674 217.181 27.514H215.431C215.543 25.792 216.789 24.672 218.595 24.672C220.555 24.672 221.703 25.75 221.703 27.584V32.288H220.121ZM217.111 30.062C217.111 30.692 217.559 31.084 218.287 31.084C219.281 31.084 219.883 30.538 219.883 29.67V29.138C219.421 29.068 219.099 29.04 218.763 29.04C217.657 29.04 217.111 29.39 217.111 30.062ZM227.918 30.398V32.092C227.442 32.33 226.994 32.428 226.42 32.428C224.88 32.428 223.914 31.546 223.914 29.866V26.478H222.402V24.812H223.914V22.6H225.846V24.812H227.988V26.478H225.846V29.418C225.846 30.286 226.238 30.636 226.938 30.636C227.302 30.636 227.638 30.552 227.918 30.398ZM231.431 23.076C231.431 23.734 230.899 24.224 230.129 24.224C229.373 24.224 228.841 23.734 228.841 23.076C228.841 22.39 229.373 21.9 230.129 21.9C230.899 21.9 231.431 22.39 231.431 23.076ZM231.123 32.288H229.177V24.812H231.123V32.288ZM236.158 32.428C233.988 32.428 232.364 30.72 232.364 28.55C232.364 26.366 233.988 24.672 236.158 24.672C238.328 24.672 239.952 26.366 239.952 28.55C239.952 30.72 238.328 32.428 236.158 32.428ZM236.158 30.706C237.124 30.706 237.95 29.936 237.95 28.55C237.95 27.164 237.124 26.408 236.158 26.408C235.192 26.408 234.366 27.164 234.366 28.55C234.366 29.936 235.192 30.706 236.158 30.706ZM243.14 28.214V32.288H241.194V24.812H242.986V25.876C243.532 25.134 244.302 24.672 245.282 24.672C246.78 24.672 247.816 25.652 247.816 27.458V32.288H245.884V28.116C245.884 27.01 245.45 26.394 244.568 26.394C243.798 26.394 243.14 27.01 243.14 28.214ZM260.301 29.166C260.301 31.084 258.761 32.428 256.241 32.428C253.707 32.428 252.125 31.07 251.971 28.942H254.127C254.183 30.048 254.897 30.762 256.199 30.762C257.277 30.762 258.047 30.286 258.047 29.474C258.047 28.844 257.557 28.466 256.703 28.298L255.051 27.976C253.525 27.682 252.349 26.856 252.349 25.19C252.349 23.398 253.931 22.11 256.101 22.11C258.355 22.11 260.007 23.426 260.147 25.526H257.991C257.921 24.476 257.193 23.762 256.129 23.762C255.093 23.762 254.505 24.35 254.505 25.05C254.505 25.736 255.135 26.03 255.863 26.17L257.585 26.52C259.349 26.87 260.301 27.682 260.301 29.166ZM266.184 29.138V24.812H268.116V32.288H266.338V31.308C265.932 31.966 265.106 32.428 264.154 32.428C262.656 32.428 261.564 31.518 261.564 29.572V24.812H263.51V29.194C263.51 30.244 264.028 30.706 264.812 30.706C265.512 30.706 266.184 30.146 266.184 29.138ZM273.014 32.428C270.858 32.428 269.374 30.832 269.374 28.55C269.374 26.31 270.914 24.672 273.014 24.672C274.96 24.672 276.402 25.988 276.64 28.004H274.596C274.498 27.01 273.896 26.394 273.014 26.394C272.006 26.394 271.362 27.22 271.362 28.55C271.362 29.894 271.992 30.706 273.014 30.706C273.91 30.706 274.484 30.118 274.596 29.096H276.64C276.416 31.154 275.016 32.428 273.014 32.428ZM281.012 32.428C278.856 32.428 277.372 30.832 277.372 28.55C277.372 26.31 278.912 24.672 281.012 24.672C282.958 24.672 284.4 25.988 284.638 28.004H282.594C282.496 27.01 281.894 26.394 281.012 26.394C280.004 26.394 279.36 27.22 279.36 28.55C279.36 29.894 279.99 30.706 281.012 30.706C281.908 30.706 282.482 30.118 282.594 29.096H284.638C284.414 31.154 283.014 32.428 281.012 32.428ZM289.108 32.414C286.868 32.414 285.37 30.86 285.37 28.522C285.37 26.296 286.924 24.672 289.08 24.672C291.446 24.672 293.014 26.59 292.664 29.026H287.358C287.484 30.244 288.072 30.916 289.066 30.916C289.92 30.916 290.494 30.496 290.718 29.754H292.65C292.23 31.448 290.928 32.414 289.108 32.414ZM289.038 26.1C288.128 26.1 287.554 26.688 287.386 27.794H290.606C290.55 26.758 289.962 26.1 289.038 26.1ZM300.282 29.894C300.282 31.462 299.092 32.428 296.964 32.428C294.836 32.428 293.646 31.406 293.492 29.74H295.354C295.368 30.51 296.026 31 296.992 31C297.748 31 298.322 30.762 298.322 30.23C298.322 29.754 298.014 29.558 297.3 29.418L295.956 29.166C294.612 28.928 293.8 28.186 293.8 27.024C293.8 25.638 294.99 24.672 296.852 24.672C298.728 24.672 300.016 25.666 300.156 27.276H298.294C298.224 26.548 297.678 26.1 296.852 26.1C296.138 26.1 295.662 26.366 295.662 26.842C295.662 27.29 295.97 27.472 296.642 27.598L298.084 27.864C299.54 28.144 300.282 28.816 300.282 29.894ZM307.924 29.894C307.924 31.462 306.734 32.428 304.606 32.428C302.478 32.428 301.288 31.406 301.134 29.74H302.996C303.01 30.51 303.668 31 304.634 31C305.39 31 305.964 30.762 305.964 30.23C305.964 29.754 305.656 29.558 304.942 29.418L303.598 29.166C302.254 28.928 301.442 28.186 301.442 27.024C301.442 25.638 302.632 24.672 304.494 24.672C306.37 24.672 307.658 25.666 307.798 27.276H305.936C305.866 26.548 305.32 26.1 304.494 26.1C303.78 26.1 303.304 26.366 303.304 26.842C303.304 27.29 303.612 27.472 304.284 27.598L305.726 27.864C307.182 28.144 307.924 28.816 307.924 29.894Z" fill="#6D2ECC"/>
<rect x="138.6" y="43.288" width="202.4" height="180" rx="4.16185" fill="white"/>
<path d="M239.8 121.916C241.699 121.918 243.578 121.546 245.332 120.819C247.085 120.093 248.678 119.027 250.019 117.683C251.363 116.343 252.428 114.75 253.155 112.997C253.881 111.243 254.254 109.363 254.251 107.465C254.254 105.567 253.881 103.687 253.155 101.934C252.428 100.18 251.363 98.5874 250.019 97.247C248.678 95.9031 247.085 94.8374 245.332 94.1111C243.578 93.3847 241.699 93.012 239.8 93.0143C237.902 93.012 236.023 93.3847 234.269 94.1111C232.515 94.8374 230.923 95.9031 229.582 97.247C228.238 98.5874 227.173 100.18 226.446 101.934C225.72 103.687 225.347 105.567 225.35 107.465C225.347 109.363 225.72 111.243 226.446 112.997C227.173 114.75 228.238 116.343 229.582 117.683C230.923 119.027 232.515 120.093 234.269 120.819C236.023 121.546 237.902 121.918 239.8 121.916Z" fill="#6D2ECC" stroke="#6D2ECC" stroke-width="2.89017" stroke-linejoin="round"/>
<path d="M234.02 107.465L238.355 111.8L247.025 103.13" stroke="white" stroke-width="2.89017" stroke-linecap="round" stroke-linejoin="round"/>
<path d="M160.411 144.904V142.411L160.672 143.131L157.936 138.604H159.187L161.383 142.249H160.681L162.895 138.604H164.047L161.311 143.131L161.581 142.411V144.904H160.411ZM166.329 144.967C165.837 144.967 165.399 144.862 165.015 144.652C164.631 144.436 164.328 144.142 164.106 143.77C163.884 143.398 163.773 142.975 163.773 142.501C163.773 142.021 163.884 141.598 164.106 141.232C164.328 140.86 164.631 140.569 165.015 140.359C165.399 140.149 165.837 140.044 166.329 140.044C166.827 140.044 167.268 140.149 167.652 140.359C168.042 140.569 168.345 140.857 168.561 141.223C168.783 141.589 168.894 142.015 168.894 142.501C168.894 142.975 168.783 143.398 168.561 143.77C168.345 144.142 168.042 144.436 167.652 144.652C167.268 144.862 166.827 144.967 166.329 144.967ZM166.329 144.004C166.605 144.004 166.851 143.944 167.067 143.824C167.283 143.704 167.451 143.53 167.571 143.302C167.697 143.074 167.76 142.807 167.76 142.501C167.76 142.189 167.697 141.922 167.571 141.7C167.451 141.472 167.283 141.298 167.067 141.178C166.851 141.058 166.608 140.998 166.338 140.998C166.062 140.998 165.816 141.058 165.6 141.178C165.39 141.298 165.222 141.472 165.096 141.7C164.97 141.922 164.907 142.189 164.907 142.501C164.907 142.807 164.97 143.074 165.096 143.302C165.222 143.53 165.39 143.704 165.6 143.824C165.816 143.944 166.059 144.004 166.329 144.004ZM172.004 144.967C171.596 144.967 171.236 144.892 170.924 144.742C170.612 144.586 170.369 144.352 170.195 144.04C170.021 143.722 169.934 143.323 169.934 142.843V140.098H171.059V142.69C171.059 143.122 171.155 143.446 171.347 143.662C171.545 143.872 171.824 143.977 172.184 143.977C172.448 143.977 172.676 143.923 172.868 143.815C173.066 143.707 173.219 143.545 173.327 143.329C173.441 143.113 173.498 142.846 173.498 142.528V140.098H174.623V144.904H173.552V143.608L173.741 144.004C173.579 144.316 173.342 144.556 173.03 144.724C172.718 144.886 172.376 144.967 172.004 144.967ZM181.31 140.044C181.694 140.044 182.036 140.119 182.336 140.269C182.642 140.419 182.882 140.65 183.056 140.962C183.23 141.268 183.317 141.664 183.317 142.15V144.904H182.192V142.294C182.192 141.868 182.09 141.55 181.886 141.34C181.688 141.13 181.409 141.025 181.049 141.025C180.785 141.025 180.551 141.079 180.347 141.187C180.143 141.295 179.984 141.457 179.87 141.673C179.762 141.883 179.708 142.15 179.708 142.474V144.904H178.583V138.226H179.708V141.394L179.465 140.998C179.633 140.692 179.876 140.458 180.194 140.296C180.518 140.128 180.89 140.044 181.31 140.044ZM187.705 144.904V143.932L187.642 143.725V142.024C187.642 141.694 187.543 141.439 187.345 141.259C187.147 141.073 186.847 140.98 186.445 140.98C186.175 140.98 185.908 141.022 185.644 141.106C185.386 141.19 185.167 141.307 184.987 141.457L184.546 140.638C184.804 140.44 185.11 140.293 185.464 140.197C185.824 140.095 186.196 140.044 186.58 140.044C187.276 140.044 187.813 140.212 188.191 140.548C188.575 140.878 188.767 141.391 188.767 142.087V144.904H187.705ZM186.193 144.967C185.833 144.967 185.518 144.907 185.248 144.787C184.978 144.661 184.768 144.49 184.618 144.274C184.474 144.052 184.402 143.803 184.402 143.527C184.402 143.257 184.465 143.014 184.591 142.798C184.723 142.582 184.936 142.411 185.23 142.285C185.524 142.159 185.914 142.096 186.4 142.096H187.795V142.843H186.481C186.097 142.843 185.839 142.906 185.707 143.032C185.575 143.152 185.509 143.302 185.509 143.482C185.509 143.686 185.59 143.848 185.752 143.968C185.914 144.088 186.139 144.148 186.427 144.148C186.703 144.148 186.949 144.085 187.165 143.959C187.387 143.833 187.546 143.647 187.642 143.401L187.831 144.076C187.723 144.358 187.528 144.577 187.246 144.733C186.97 144.889 186.619 144.967 186.193 144.967ZM191.401 144.904L189.34 140.098H190.51L192.283 144.337H191.707L193.543 140.098H194.623L192.562 144.904H191.401ZM197.453 144.967C196.919 144.967 196.451 144.862 196.049 144.652C195.653 144.436 195.344 144.142 195.122 143.77C194.906 143.398 194.798 142.975 194.798 142.501C194.798 142.021 194.903 141.598 195.113 141.232C195.329 140.86 195.623 140.569 195.995 140.359C196.373 140.149 196.802 140.044 197.282 140.044C197.75 140.044 198.167 140.146 198.533 140.35C198.899 140.554 199.187 140.842 199.397 141.214C199.607 141.586 199.712 142.024 199.712 142.528C199.712 142.576 199.709 142.63 199.703 142.69C199.703 142.75 199.7 142.807 199.694 142.861H195.689V142.114H199.1L198.659 142.348C198.665 142.072 198.608 141.829 198.488 141.619C198.368 141.409 198.203 141.244 197.993 141.124C197.789 141.004 197.552 140.944 197.282 140.944C197.006 140.944 196.763 141.004 196.553 141.124C196.349 141.244 196.187 141.412 196.067 141.628C195.953 141.838 195.896 142.087 195.896 142.375V142.555C195.896 142.843 195.962 143.098 196.094 143.32C196.226 143.542 196.412 143.713 196.652 143.833C196.892 143.953 197.168 144.013 197.48 144.013C197.75 144.013 197.993 143.971 198.209 143.887C198.425 143.803 198.617 143.671 198.785 143.491L199.388 144.184C199.172 144.436 198.899 144.631 198.569 144.769C198.245 144.901 197.873 144.967 197.453 144.967ZM205.944 144.967C205.536 144.967 205.173 144.877 204.855 144.697C204.537 144.517 204.285 144.247 204.099 143.887C203.919 143.521 203.829 143.059 203.829 142.501C203.829 141.937 203.922 141.475 204.108 141.115C204.3 140.755 204.555 140.488 204.873 140.314C205.197 140.134 205.554 140.044 205.944 140.044C206.418 140.044 206.835 140.146 207.195 140.35C207.561 140.554 207.849 140.839 208.059 141.205C208.275 141.571 208.383 142.003 208.383 142.501C208.383 142.999 208.275 143.431 208.059 143.797C207.849 144.163 207.561 144.451 207.195 144.661C206.835 144.865 206.418 144.967 205.944 144.967ZM203.28 144.904V138.226H204.405V141.214L204.315 142.492L204.351 143.77V144.904H203.28ZM205.818 144.004C206.088 144.004 206.328 143.944 206.538 143.824C206.754 143.704 206.925 143.53 207.051 143.302C207.177 143.074 207.24 142.807 207.24 142.501C207.24 142.189 207.177 141.922 207.051 141.7C206.925 141.472 206.754 141.298 206.538 141.178C206.328 141.058 206.088 140.998 205.818 140.998C205.548 140.998 205.305 141.058 205.089 141.178C204.873 141.298 204.702 141.472 204.576 141.7C204.45 141.922 204.387 142.189 204.387 142.501C204.387 142.807 204.45 143.074 204.576 143.302C204.702 143.53 204.873 143.704 205.089 143.824C205.305 143.944 205.548 144.004 205.818 144.004ZM211.709 144.967C211.175 144.967 210.707 144.862 210.305 144.652C209.909 144.436 209.6 144.142 209.378 143.77C209.162 143.398 209.054 142.975 209.054 142.501C209.054 142.021 209.159 141.598 209.369 141.232C209.585 140.86 209.879 140.569 210.251 140.359C210.629 140.149 211.058 140.044 211.538 140.044C212.006 140.044 212.423 140.146 212.789 140.35C213.155 140.554 213.443 140.842 213.653 141.214C213.863 141.586 213.968 142.024 213.968 142.528C213.968 142.576 213.965 142.63 213.959 142.69C213.959 142.75 213.956 142.807 213.95 142.861H209.945V142.114H213.356L212.915 142.348C212.921 142.072 212.864 141.829 212.744 141.619C212.624 141.409 212.459 141.244 212.249 141.124C212.045 141.004 211.808 140.944 211.538 140.944C211.262 140.944 211.019 141.004 210.809 141.124C210.605 141.244 210.443 141.412 210.323 141.628C210.209 141.838 210.152 142.087 210.152 142.375V142.555C210.152 142.843 210.218 143.098 210.35 143.32C210.482 143.542 210.668 143.713 210.908 143.833C211.148 143.953 211.424 144.013 211.736 144.013C212.006 144.013 212.249 143.971 212.465 143.887C212.681 143.803 212.873 143.671 213.041 143.491L213.644 144.184C213.428 144.436 213.155 144.631 212.825 144.769C212.501 144.901 212.129 144.967 211.709 144.967ZM217.308 144.967C216.774 144.967 216.306 144.862 215.904 144.652C215.508 144.436 215.199 144.142 214.977 143.77C214.761 143.398 214.653 142.975 214.653 142.501C214.653 142.021 214.758 141.598 214.968 141.232C215.184 140.86 215.478 140.569 215.85 140.359C216.228 140.149 216.657 140.044 217.137 140.044C217.605 140.044 218.022 140.146 218.388 140.35C218.754 140.554 219.042 140.842 219.252 141.214C219.462 141.586 219.567 142.024 219.567 142.528C219.567 142.576 219.564 142.63 219.558 142.69C219.558 142.75 219.555 142.807 219.549 142.861H215.544V142.114H218.955L218.514 142.348C218.52 142.072 218.463 141.829 218.343 141.619C218.223 141.409 218.058 141.244 217.848 141.124C217.644 141.004 217.407 140.944 217.137 140.944C216.861 140.944 216.618 141.004 216.408 141.124C216.204 141.244 216.042 141.412 215.922 141.628C215.808 141.838 215.751 142.087 215.751 142.375V142.555C215.751 142.843 215.817 143.098 215.949 143.32C216.081 143.542 216.267 143.713 216.507 143.833C216.747 143.953 217.023 144.013 217.335 144.013C217.605 144.013 217.848 143.971 218.064 143.887C218.28 143.803 218.472 143.671 218.64 143.491L219.243 144.184C219.027 144.436 218.754 144.631 218.424 144.769C218.1 144.901 217.728 144.967 217.308 144.967ZM223.375 140.044C223.759 140.044 224.101 140.119 224.401 140.269C224.707 140.419 224.947 140.65 225.121 140.962C225.295 141.268 225.382 141.664 225.382 142.15V144.904H224.257V142.294C224.257 141.868 224.155 141.55 223.951 141.34C223.753 141.13 223.474 141.025 223.114 141.025C222.85 141.025 222.616 141.079 222.412 141.187C222.208 141.295 222.049 141.457 221.935 141.673C221.827 141.883 221.773 142.15 221.773 142.474V144.904H220.648V140.098H221.719V141.394L221.53 140.998C221.698 140.692 221.941 140.458 222.259 140.296C222.583 140.128 222.955 140.044 223.375 140.044ZM230.781 144.967C230.379 144.967 229.992 144.916 229.62 144.814C229.254 144.706 228.963 144.577 228.747 144.427L229.179 143.572C229.395 143.71 229.653 143.824 229.953 143.914C230.253 144.004 230.553 144.049 230.853 144.049C231.207 144.049 231.462 144.001 231.618 143.905C231.78 143.809 231.861 143.68 231.861 143.518C231.861 143.386 231.807 143.287 231.699 143.221C231.591 143.149 231.45 143.095 231.276 143.059C231.102 143.023 230.907 142.99 230.691 142.96C230.481 142.93 230.268 142.891 230.052 142.843C229.842 142.789 229.65 142.714 229.476 142.618C229.302 142.516 229.161 142.381 229.053 142.213C228.945 142.045 228.891 141.823 228.891 141.547C228.891 141.241 228.978 140.977 229.152 140.755C229.326 140.527 229.569 140.353 229.881 140.233C230.199 140.107 230.574 140.044 231.006 140.044C231.33 140.044 231.657 140.08 231.987 140.152C232.317 140.224 232.59 140.326 232.806 140.458L232.374 141.313C232.146 141.175 231.915 141.082 231.681 141.034C231.453 140.98 231.225 140.953 230.997 140.953C230.655 140.953 230.4 141.004 230.232 141.106C230.07 141.208 229.989 141.337 229.989 141.493C229.989 141.637 230.043 141.745 230.151 141.817C230.259 141.889 230.4 141.946 230.574 141.988C230.748 142.03 230.94 142.066 231.15 142.096C231.366 142.12 231.579 142.159 231.789 142.213C231.999 142.267 232.191 142.342 232.365 142.438C232.545 142.528 232.689 142.657 232.797 142.825C232.905 142.993 232.959 143.212 232.959 143.482C232.959 143.782 232.869 144.043 232.689 144.265C232.515 144.487 232.266 144.661 231.942 144.787C231.618 144.907 231.231 144.967 230.781 144.967ZM235.962 144.967C235.554 144.967 235.194 144.892 234.882 144.742C234.57 144.586 234.327 144.352 234.153 144.04C233.979 143.722 233.892 143.323 233.892 142.843V140.098H235.017V142.69C235.017 143.122 235.113 143.446 235.305 143.662C235.503 143.872 235.782 143.977 236.142 143.977C236.406 143.977 236.634 143.923 236.826 143.815C237.024 143.707 237.177 143.545 237.285 143.329C237.399 143.113 237.456 142.846 237.456 142.528V140.098H238.581V144.904H237.51V143.608L237.699 144.004C237.537 144.316 237.3 144.556 236.988 144.724C236.676 144.886 236.334 144.967 235.962 144.967ZM242.259 144.967C241.755 144.967 241.305 144.862 240.909 144.652C240.519 144.436 240.213 144.142 239.991 143.77C239.769 143.398 239.658 142.975 239.658 142.501C239.658 142.021 239.769 141.598 239.991 141.232C240.213 140.86 240.519 140.569 240.909 140.359C241.305 140.149 241.755 140.044 242.259 140.044C242.727 140.044 243.138 140.14 243.492 140.332C243.852 140.518 244.125 140.794 244.311 141.16L243.447 141.664C243.303 141.436 243.126 141.268 242.916 141.16C242.712 141.052 242.49 140.998 242.25 140.998C241.974 140.998 241.725 141.058 241.503 141.178C241.281 141.298 241.107 141.472 240.981 141.7C240.855 141.922 240.792 142.189 240.792 142.501C240.792 142.813 240.855 143.083 240.981 143.311C241.107 143.533 241.281 143.704 241.503 143.824C241.725 143.944 241.974 144.004 242.25 144.004C242.49 144.004 242.712 143.95 242.916 143.842C243.126 143.734 243.303 143.566 243.447 143.338L244.311 143.842C244.125 144.202 243.852 144.481 243.492 144.679C243.138 144.871 242.727 144.967 242.259 144.967ZM247.418 144.967C246.914 144.967 246.464 144.862 246.068 144.652C245.678 144.436 245.372 144.142 245.15 143.77C244.928 143.398 244.817 142.975 244.817 142.501C244.817 142.021 244.928 141.598 245.15 141.232C245.372 140.86 245.678 140.569 246.068 140.359C246.464 140.149 246.914 140.044 247.418 140.044C247.886 140.044 248.297 140.14 248.651 140.332C249.011 140.518 249.284 140.794 249.47 141.16L248.606 141.664C248.462 141.436 248.285 141.268 248.075 141.16C247.871 141.052 247.649 140.998 247.409 140.998C247.133 140.998 246.884 141.058 246.662 141.178C246.44 141.298 246.266 141.472 246.14 141.7C246.014 141.922 245.951 142.189 245.951 142.501C245.951 142.813 246.014 143.083 246.14 143.311C246.266 143.533 246.44 143.704 246.662 143.824C246.884 143.944 247.133 144.004 247.409 144.004C247.649 144.004 247.871 143.95 248.075 143.842C248.285 143.734 248.462 143.566 248.606 143.338L249.47 143.842C249.284 144.202 249.011 144.481 248.651 144.679C248.297 144.871 247.886 144.967 247.418 144.967ZM252.631 144.967C252.097 144.967 251.629 144.862 251.227 144.652C250.831 144.436 250.522 144.142 250.3 143.77C250.084 143.398 249.976 142.975 249.976 142.501C249.976 142.021 250.081 141.598 250.291 141.232C250.507 140.86 250.801 140.569 251.173 140.359C251.551 140.149 251.98 140.044 252.46 140.044C252.928 140.044 253.345 140.146 253.711 140.35C254.077 140.554 254.365 140.842 254.575 141.214C254.785 141.586 254.89 142.024 254.89 142.528C254.89 142.576 254.887 142.63 254.881 142.69C254.881 142.75 254.878 142.807 254.872 142.861H250.867V142.114H254.278L253.837 142.348C253.843 142.072 253.786 141.829 253.666 141.619C253.546 141.409 253.381 141.244 253.171 141.124C252.967 141.004 252.73 140.944 252.46 140.944C252.184 140.944 251.941 141.004 251.731 141.124C251.527 141.244 251.365 141.412 251.245 141.628C251.131 141.838 251.074 142.087 251.074 142.375V142.555C251.074 142.843 251.14 143.098 251.272 143.32C251.404 143.542 251.59 143.713 251.83 143.833C252.07 143.953 252.346 144.013 252.658 144.013C252.928 144.013 253.171 143.971 253.387 143.887C253.603 143.803 253.795 143.671 253.963 143.491L254.566 144.184C254.35 144.436 254.077 144.631 253.747 144.769C253.423 144.901 253.051 144.967 252.631 144.967ZM257.456 144.967C257.054 144.967 256.667 144.916 256.295 144.814C255.929 144.706 255.638 144.577 255.422 144.427L255.854 143.572C256.07 143.71 256.328 143.824 256.628 143.914C256.928 144.004 257.228 144.049 257.528 144.049C257.882 144.049 258.137 144.001 258.293 143.905C258.455 143.809 258.536 143.68 258.536 143.518C258.536 143.386 258.482 143.287 258.374 143.221C258.266 143.149 258.125 143.095 257.951 143.059C257.777 143.023 257.582 142.99 257.366 142.96C257.156 142.93 256.943 142.891 256.727 142.843C256.517 142.789 256.325 142.714 256.151 142.618C255.977 142.516 255.836 142.381 255.728 142.213C255.62 142.045 255.566 141.823 255.566 141.547C255.566 141.241 255.653 140.977 255.827 140.755C256.001 140.527 256.244 140.353 256.556 140.233C256.874 140.107 257.249 140.044 257.681 140.044C258.005 140.044 258.332 140.08 258.662 140.152C258.992 140.224 259.265 140.326 259.481 140.458L259.049 141.313C258.821 141.175 258.59 141.082 258.356 141.034C258.128 140.98 257.9 140.953 257.672 140.953C257.33 140.953 257.075 141.004 256.907 141.106C256.745 141.208 256.664 141.337 256.664 141.493C256.664 141.637 256.718 141.745 256.826 141.817C256.934 141.889 257.075 141.946 257.249 141.988C257.423 142.03 257.615 142.066 257.825 142.096C258.041 142.12 258.254 142.159 258.464 142.213C258.674 142.267 258.866 142.342 259.04 142.438C259.22 142.528 259.364 142.657 259.472 142.825C259.58 142.993 259.634 143.212 259.634 143.482C259.634 143.782 259.544 144.043 259.364 144.265C259.19 144.487 258.941 144.661 258.617 144.787C258.293 144.907 257.906 144.967 257.456 144.967ZM262.088 144.967C261.686 144.967 261.299 144.916 260.927 144.814C260.561 144.706 260.27 144.577 260.054 144.427L260.486 143.572C260.702 143.71 260.96 143.824 261.26 143.914C261.56 144.004 261.86 144.049 262.16 144.049C262.514 144.049 262.769 144.001 262.925 143.905C263.087 143.809 263.168 143.68 263.168 143.518C263.168 143.386 263.114 143.287 263.006 143.221C262.898 143.149 262.757 143.095 262.583 143.059C262.409 143.023 262.214 142.99 261.998 142.96C261.788 142.93 261.575 142.891 261.359 142.843C261.149 142.789 260.957 142.714 260.783 142.618C260.609 142.516 260.468 142.381 260.36 142.213C260.252 142.045 260.198 141.823 260.198 141.547C260.198 141.241 260.285 140.977 260.459 140.755C260.633 140.527 260.876 140.353 261.188 140.233C261.506 140.107 261.881 140.044 262.313 140.044C262.637 140.044 262.964 140.08 263.294 140.152C263.624 140.224 263.897 140.326 264.113 140.458L263.681 141.313C263.453 141.175 263.222 141.082 262.988 141.034C262.76 140.98 262.532 140.953 262.304 140.953C261.962 140.953 261.707 141.004 261.539 141.106C261.377 141.208 261.296 141.337 261.296 141.493C261.296 141.637 261.35 141.745 261.458 141.817C261.566 141.889 261.707 141.946 261.881 141.988C262.055 142.03 262.247 142.066 262.457 142.096C262.673 142.12 262.886 142.159 263.096 142.213C263.306 142.267 263.498 142.342 263.672 142.438C263.852 142.528 263.996 142.657 264.104 142.825C264.212 142.993 264.266 143.212 264.266 143.482C264.266 143.782 264.176 144.043 263.996 144.265C263.822 144.487 263.573 144.661 263.249 144.787C262.925 144.907 262.538 144.967 262.088 144.967ZM265.387 144.904V139.828C265.387 139.324 265.534 138.922 265.828 138.622C266.128 138.316 266.554 138.163 267.106 138.163C267.304 138.163 267.49 138.184 267.664 138.226C267.844 138.268 267.994 138.334 268.114 138.424L267.808 139.27C267.724 139.204 267.628 139.156 267.52 139.126C267.412 139.09 267.301 139.072 267.187 139.072C266.953 139.072 266.776 139.138 266.656 139.27C266.536 139.396 266.476 139.588 266.476 139.846V140.386L266.512 140.89V144.904H265.387ZM264.595 141.034V140.134H267.799V141.034H264.595ZM270.591 144.967C270.183 144.967 269.823 144.892 269.511 144.742C269.199 144.586 268.956 144.352 268.782 144.04C268.608 143.722 268.521 143.323 268.521 142.843V140.098H269.646V142.69C269.646 143.122 269.742 143.446 269.934 143.662C270.132 143.872 270.411 143.977 270.771 143.977C271.035 143.977 271.263 143.923 271.455 143.815C271.653 143.707 271.806 143.545 271.914 143.329C272.028 143.113 272.085 142.846 272.085 142.528V140.098H273.21V144.904H272.139V143.608L272.328 144.004C272.166 144.316 271.929 144.556 271.617 144.724C271.305 144.886 270.963 144.967 270.591 144.967ZM274.683 144.904V138.226H275.808V144.904H274.683ZM277.284 144.904V138.226H278.409V144.904H277.284ZM280.282 146.713C280.048 146.713 279.814 146.674 279.58 146.596C279.346 146.518 279.151 146.41 278.995 146.272L279.445 145.444C279.559 145.546 279.688 145.627 279.832 145.687C279.976 145.747 280.123 145.777 280.273 145.777C280.477 145.777 280.642 145.726 280.768 145.624C280.894 145.522 281.011 145.351 281.119 145.111L281.398 144.481L281.488 144.346L283.306 140.098H284.386L282.136 145.291C281.986 145.651 281.818 145.936 281.632 146.146C281.452 146.356 281.248 146.503 281.02 146.587C280.798 146.671 280.552 146.713 280.282 146.713ZM281.272 145.075L279.103 140.098H280.273L282.037 144.247L281.272 145.075ZM288.854 144.904L286.793 140.098H287.963L289.736 144.337H289.16L290.996 140.098H292.076L290.015 144.904H288.854ZM294.907 144.967C294.373 144.967 293.905 144.862 293.503 144.652C293.107 144.436 292.798 144.142 292.576 143.77C292.36 143.398 292.252 142.975 292.252 142.501C292.252 142.021 292.357 141.598 292.567 141.232C292.783 140.86 293.077 140.569 293.449 140.359C293.827 140.149 294.256 140.044 294.736 140.044C295.204 140.044 295.621 140.146 295.987 140.35C296.353 140.554 296.641 140.842 296.851 141.214C297.061 141.586 297.166 142.024 297.166 142.528C297.166 142.576 297.163 142.63 297.157 142.69C297.157 142.75 297.154 142.807 297.148 142.861H293.143V142.114H296.554L296.113 142.348C296.119 142.072 296.062 141.829 295.942 141.619C295.822 141.409 295.657 141.244 295.447 141.124C295.243 141.004 295.006 140.944 294.736 140.944C294.46 140.944 294.217 141.004 294.007 141.124C293.803 141.244 293.641 141.412 293.521 141.628C293.407 141.838 293.35 142.087 293.35 142.375V142.555C293.35 142.843 293.416 143.098 293.548 143.32C293.68 143.542 293.866 143.713 294.106 143.833C294.346 143.953 294.622 144.013 294.934 144.013C295.204 144.013 295.447 143.971 295.663 143.887C295.879 143.803 296.071 143.671 296.239 143.491L296.842 144.184C296.626 144.436 296.353 144.631 296.023 144.769C295.699 144.901 295.327 144.967 294.907 144.967ZM298.246 144.904V140.098H299.317V141.421L299.191 141.034C299.335 140.71 299.56 140.464 299.866 140.296C300.178 140.128 300.565 140.044 301.027 140.044V141.115C300.979 141.103 300.934 141.097 300.892 141.097C300.85 141.091 300.808 141.088 300.766 141.088C300.34 141.088 300.001 141.214 299.749 141.466C299.497 141.712 299.371 142.081 299.371 142.573V144.904H298.246ZM301.981 144.904V140.098H303.106V144.904H301.981ZM302.548 139.306C302.338 139.306 302.164 139.24 302.026 139.108C301.894 138.976 301.828 138.817 301.828 138.631C301.828 138.439 301.894 138.28 302.026 138.154C302.164 138.022 302.338 137.956 302.548 137.956C302.758 137.956 302.929 138.019 303.061 138.145C303.199 138.265 303.268 138.418 303.268 138.604C303.268 138.802 303.202 138.97 303.07 139.108C302.938 139.24 302.764 139.306 302.548 139.306ZM304.736 144.904V139.828C304.736 139.324 304.883 138.922 305.177 138.622C305.477 138.316 305.903 138.163 306.455 138.163C306.653 138.163 306.839 138.184 307.013 138.226C307.193 138.268 307.343 138.334 307.463 138.424L307.157 139.27C307.073 139.204 306.977 139.156 306.869 139.126C306.761 139.09 306.65 139.072 306.536 139.072C306.302 139.072 306.125 139.138 306.005 139.27C305.885 139.396 305.825 139.588 305.825 139.846V140.386L305.861 140.89V144.904H304.736ZM303.944 141.034V140.134H307.148V141.034H303.944ZM307.94 144.904V140.098H309.065V144.904H307.94ZM308.507 139.306C308.297 139.306 308.123 139.24 307.985 139.108C307.853 138.976 307.787 138.817 307.787 138.631C307.787 138.439 307.853 138.28 307.985 138.154C308.123 138.022 308.297 137.956 308.507 137.956C308.717 137.956 308.888 138.019 309.02 138.145C309.158 138.265 309.227 138.418 309.227 138.604C309.227 138.802 309.161 138.97 309.029 139.108C308.897 139.24 308.723 139.306 308.507 139.306ZM312.801 144.967C312.267 144.967 311.799 144.862 311.397 144.652C311.001 144.436 310.692 144.142 310.47 143.77C310.254 143.398 310.146 142.975 310.146 142.501C310.146 142.021 310.251 141.598 310.461 141.232C310.677 140.86 310.971 140.569 311.343 140.359C311.721 140.149 312.15 140.044 312.63 140.044C313.098 140.044 313.515 140.146 313.881 140.35C314.247 140.554 314.535 140.842 314.745 141.214C314.955 141.586 315.06 142.024 315.06 142.528C315.06 142.576 315.057 142.63 315.051 142.69C315.051 142.75 315.048 142.807 315.042 142.861H311.037V142.114H314.448L314.007 142.348C314.013 142.072 313.956 141.829 313.836 141.619C313.716 141.409 313.551 141.244 313.341 141.124C313.137 141.004 312.9 140.944 312.63 140.944C312.354 140.944 312.111 141.004 311.901 141.124C311.697 141.244 311.535 141.412 311.415 141.628C311.301 141.838 311.244 142.087 311.244 142.375V142.555C311.244 142.843 311.31 143.098 311.442 143.32C311.574 143.542 311.76 143.713 312 143.833C312.24 143.953 312.516 144.013 312.828 144.013C313.098 144.013 313.341 143.971 313.557 143.887C313.773 143.803 313.965 143.671 314.133 143.491L314.736 144.184C314.52 144.436 314.247 144.631 313.917 144.769C313.593 144.901 313.221 144.967 312.801 144.967ZM318.175 144.967C317.713 144.967 317.296 144.865 316.924 144.661C316.558 144.451 316.27 144.163 316.06 143.797C315.85 143.431 315.745 142.999 315.745 142.501C315.745 142.003 315.85 141.571 316.06 141.205C316.27 140.839 316.558 140.554 316.924 140.35C317.296 140.146 317.713 140.044 318.175 140.044C318.577 140.044 318.937 140.134 319.255 140.314C319.573 140.488 319.825 140.755 320.011 141.115C320.197 141.475 320.29 141.937 320.29 142.501C320.29 143.059 320.2 143.521 320.02 143.887C319.84 144.247 319.591 144.517 319.273 144.697C318.955 144.877 318.589 144.967 318.175 144.967ZM318.31 144.004C318.58 144.004 318.82 143.944 319.03 143.824C319.246 143.704 319.417 143.53 319.543 143.302C319.675 143.074 319.741 142.807 319.741 142.501C319.741 142.189 319.675 141.922 319.543 141.7C319.417 141.472 319.246 141.298 319.03 141.178C318.82 141.058 318.58 140.998 318.31 140.998C318.04 140.998 317.797 141.058 317.581 141.178C317.371 141.298 317.2 141.472 317.068 141.7C316.942 141.922 316.879 142.189 316.879 142.501C316.879 142.807 316.942 143.074 317.068 143.302C317.2 143.53 317.371 143.704 317.581 143.824C317.797 143.944 318.04 144.004 318.31 144.004ZM319.768 144.904V143.77L319.813 142.492L319.723 141.214V138.226H320.839V144.904H319.768Z" fill="#444444"/>
<path d="M194.557 161.453V159.309L194.741 159.805L192.333 155.853H193.189L195.213 159.189H194.749L196.781 155.853H197.573L195.173 159.805L195.349 159.309V161.453H194.557ZM199.612 161.501C199.186 161.501 198.807 161.407 198.476 161.221C198.146 161.034 197.884 160.778 197.692 160.453C197.5 160.122 197.404 159.749 197.404 159.333C197.404 158.911 197.5 158.538 197.692 158.213C197.884 157.887 198.146 157.634 198.476 157.453C198.807 157.266 199.186 157.173 199.612 157.173C200.034 157.173 200.41 157.266 200.74 157.453C201.076 157.634 201.338 157.887 201.524 158.213C201.716 158.533 201.812 158.906 201.812 159.333C201.812 159.754 201.716 160.127 201.524 160.453C201.338 160.778 201.076 161.034 200.74 161.221C200.41 161.407 200.034 161.501 199.612 161.501ZM199.612 160.829C199.884 160.829 200.127 160.767 200.34 160.645C200.559 160.522 200.73 160.349 200.852 160.125C200.975 159.895 201.036 159.631 201.036 159.333C201.036 159.029 200.975 158.767 200.852 158.549C200.73 158.325 200.559 158.151 200.34 158.029C200.127 157.906 199.884 157.845 199.612 157.845C199.34 157.845 199.098 157.906 198.884 158.029C198.671 158.151 198.5 158.325 198.372 158.549C198.244 158.767 198.18 159.029 198.18 159.333C198.18 159.631 198.244 159.895 198.372 160.125C198.5 160.349 198.671 160.522 198.884 160.645C199.098 160.767 199.34 160.829 199.612 160.829ZM204.658 161.501C204.296 161.501 203.976 161.434 203.698 161.301C203.426 161.167 203.213 160.965 203.058 160.693C202.909 160.415 202.834 160.069 202.834 159.653V157.213H203.602V159.565C203.602 159.981 203.701 160.293 203.898 160.501C204.101 160.709 204.384 160.813 204.746 160.813C205.013 160.813 205.245 160.759 205.442 160.653C205.64 160.541 205.792 160.381 205.898 160.173C206.005 159.959 206.058 159.703 206.058 159.405V157.213H206.826V161.453H206.098V160.309L206.218 160.613C206.08 160.895 205.872 161.114 205.594 161.269C205.317 161.423 205.005 161.501 204.658 161.501ZM213.069 161.453V160.557L213.029 160.389V158.861C213.029 158.535 212.933 158.285 212.741 158.109C212.554 157.927 212.272 157.837 211.893 157.837C211.642 157.837 211.397 157.879 211.157 157.965C210.917 158.045 210.714 158.154 210.549 158.293L210.229 157.717C210.448 157.541 210.709 157.407 211.013 157.317C211.322 157.221 211.645 157.173 211.981 157.173C212.562 157.173 213.01 157.314 213.325 157.597C213.64 157.879 213.797 158.311 213.797 158.893V161.453H213.069ZM211.677 161.501C211.362 161.501 211.085 161.447 210.845 161.341C210.61 161.234 210.429 161.087 210.301 160.901C210.173 160.709 210.109 160.493 210.109 160.253C210.109 160.023 210.162 159.815 210.269 159.629C210.381 159.442 210.56 159.293 210.805 159.181C211.056 159.069 211.392 159.013 211.813 159.013H213.157V159.565H211.845C211.461 159.565 211.202 159.629 211.069 159.757C210.936 159.885 210.869 160.039 210.869 160.221C210.869 160.429 210.952 160.597 211.117 160.725C211.282 160.847 211.512 160.909 211.805 160.909C212.093 160.909 212.344 160.845 212.557 160.717C212.776 160.589 212.933 160.402 213.029 160.157L213.181 160.685C213.08 160.935 212.901 161.135 212.645 161.285C212.389 161.429 212.066 161.501 211.677 161.501ZM215.218 161.453V157.213H215.954V158.365L215.882 158.077C216 157.783 216.197 157.559 216.474 157.405C216.752 157.25 217.093 157.173 217.498 157.173V157.917C217.466 157.911 217.434 157.909 217.402 157.909C217.376 157.909 217.349 157.909 217.322 157.909C216.912 157.909 216.586 158.031 216.346 158.277C216.106 158.522 215.986 158.877 215.986 159.341V161.453H215.218ZM220.294 161.501C219.84 161.501 219.44 161.407 219.094 161.221C218.752 161.034 218.486 160.778 218.294 160.453C218.107 160.127 218.014 159.754 218.014 159.333C218.014 158.911 218.104 158.538 218.286 158.213C218.472 157.887 218.726 157.634 219.046 157.453C219.371 157.266 219.736 157.173 220.142 157.173C220.552 157.173 220.915 157.263 221.23 157.445C221.544 157.626 221.79 157.882 221.966 158.213C222.147 158.538 222.238 158.919 222.238 159.357C222.238 159.389 222.235 159.426 222.23 159.469C222.23 159.511 222.227 159.551 222.222 159.589H218.614V159.037H221.822L221.51 159.229C221.515 158.957 221.459 158.714 221.342 158.501C221.224 158.287 221.062 158.122 220.854 158.005C220.651 157.882 220.414 157.821 220.142 157.821C219.875 157.821 219.638 157.882 219.43 158.005C219.222 158.122 219.059 158.29 218.942 158.509C218.824 158.722 218.766 158.967 218.766 159.245V159.373C218.766 159.655 218.83 159.909 218.958 160.133C219.091 160.351 219.275 160.522 219.51 160.645C219.744 160.767 220.014 160.829 220.318 160.829C220.568 160.829 220.795 160.786 220.998 160.701C221.206 160.615 221.387 160.487 221.542 160.317L221.966 160.813C221.774 161.037 221.534 161.207 221.246 161.325C220.963 161.442 220.646 161.501 220.294 161.501ZM227.717 157.173C228.063 157.173 228.367 157.239 228.629 157.373C228.895 157.506 229.103 157.709 229.253 157.981C229.402 158.253 229.477 158.597 229.477 159.013V161.453H228.709V159.101C228.709 158.69 228.607 158.381 228.405 158.173C228.207 157.965 227.927 157.861 227.565 157.861C227.293 157.861 227.055 157.914 226.853 158.021C226.65 158.127 226.493 158.285 226.381 158.493C226.274 158.701 226.221 158.959 226.221 159.269V161.453H225.453V157.213H226.189V158.357L226.069 158.053C226.207 157.775 226.421 157.559 226.709 157.405C226.997 157.25 227.333 157.173 227.717 157.173ZM232.714 161.501C232.287 161.501 231.909 161.407 231.578 161.221C231.247 161.034 230.986 160.778 230.794 160.453C230.602 160.122 230.506 159.749 230.506 159.333C230.506 158.911 230.602 158.538 230.794 158.213C230.986 157.887 231.247 157.634 231.578 157.453C231.909 157.266 232.287 157.173 232.714 157.173C233.135 157.173 233.511 157.266 233.842 157.453C234.178 157.634 234.439 157.887 234.626 158.213C234.818 158.533 234.914 158.906 234.914 159.333C234.914 159.754 234.818 160.127 234.626 160.453C234.439 160.778 234.178 161.034 233.842 161.221C233.511 161.407 233.135 161.501 232.714 161.501ZM232.714 160.829C232.986 160.829 233.229 160.767 233.442 160.645C233.661 160.522 233.831 160.349 233.954 160.125C234.077 159.895 234.138 159.631 234.138 159.333C234.138 159.029 234.077 158.767 233.954 158.549C233.831 158.325 233.661 158.151 233.442 158.029C233.229 157.906 232.986 157.845 232.714 157.845C232.442 157.845 232.199 157.906 231.986 158.029C231.773 158.151 231.602 158.325 231.474 158.549C231.346 158.767 231.282 159.029 231.282 159.333C231.282 159.631 231.346 159.895 231.474 160.125C231.602 160.349 231.773 160.522 231.986 160.645C232.199 160.767 232.442 160.829 232.714 160.829ZM236.755 161.453L235.179 157.213H235.907L237.307 161.053H236.963L238.419 157.213H239.067L240.491 161.053H240.155L241.587 157.213H242.275L240.691 161.453H239.955L238.619 157.949H238.843L237.491 161.453H236.755ZM247.451 161.501C247.099 161.501 246.776 161.421 246.483 161.261C246.195 161.095 245.963 160.853 245.787 160.533C245.616 160.213 245.531 159.813 245.531 159.333C245.531 158.853 245.613 158.453 245.779 158.133C245.949 157.813 246.179 157.573 246.467 157.413C246.76 157.253 247.088 157.173 247.451 157.173C247.867 157.173 248.235 157.263 248.555 157.445C248.875 157.626 249.128 157.879 249.315 158.205C249.501 158.525 249.595 158.901 249.595 159.333C249.595 159.765 249.501 160.143 249.315 160.469C249.128 160.794 248.875 161.047 248.555 161.229C248.235 161.41 247.867 161.501 247.451 161.501ZM245.203 163.005V157.213H245.939V158.357L245.891 159.341L245.971 160.325V163.005H245.203ZM247.387 160.829C247.659 160.829 247.901 160.767 248.115 160.645C248.333 160.522 248.504 160.349 248.627 160.125C248.755 159.895 248.819 159.631 248.819 159.333C248.819 159.029 248.755 158.767 248.627 158.549C248.504 158.325 248.333 158.151 248.115 158.029C247.901 157.906 247.659 157.845 247.387 157.845C247.12 157.845 246.877 157.906 246.659 158.029C246.445 158.151 246.275 158.325 246.147 158.549C246.024 158.767 245.963 159.029 245.963 159.333C245.963 159.631 246.024 159.895 246.147 160.125C246.275 160.349 246.445 160.522 246.659 160.645C246.877 160.767 247.12 160.829 247.387 160.829ZM253.249 161.453V160.557L253.209 160.389V158.861C253.209 158.535 253.113 158.285 252.921 158.109C252.734 157.927 252.451 157.837 252.073 157.837C251.822 157.837 251.577 157.879 251.337 157.965C251.097 158.045 250.894 158.154 250.729 158.293L250.409 157.717C250.627 157.541 250.889 157.407 251.193 157.317C251.502 157.221 251.825 157.173 252.161 157.173C252.742 157.173 253.19 157.314 253.505 157.597C253.819 157.879 253.977 158.311 253.977 158.893V161.453H253.249ZM251.857 161.501C251.542 161.501 251.265 161.447 251.025 161.341C250.79 161.234 250.609 161.087 250.481 160.901C250.353 160.709 250.289 160.493 250.289 160.253C250.289 160.023 250.342 159.815 250.449 159.629C250.561 159.442 250.739 159.293 250.985 159.181C251.235 159.069 251.571 159.013 251.993 159.013H253.337V159.565H252.025C251.641 159.565 251.382 159.629 251.249 159.757C251.115 159.885 251.049 160.039 251.049 160.221C251.049 160.429 251.131 160.597 251.297 160.725C251.462 160.847 251.691 160.909 251.985 160.909C252.273 160.909 252.523 160.845 252.737 160.717C252.955 160.589 253.113 160.402 253.209 160.157L253.361 160.685C253.259 160.935 253.081 161.135 252.825 161.285C252.569 161.429 252.246 161.501 251.857 161.501ZM255.398 161.453V157.213H256.134V158.365L256.062 158.077C256.179 157.783 256.377 157.559 256.654 157.405C256.931 157.25 257.273 157.173 257.678 157.173V157.917C257.646 157.911 257.614 157.909 257.582 157.909C257.555 157.909 257.529 157.909 257.502 157.909C257.091 157.909 256.766 158.031 256.526 158.277C256.286 158.522 256.166 158.877 256.166 159.341V161.453H255.398ZM260.252 161.501C259.826 161.501 259.495 161.386 259.26 161.157C259.026 160.927 258.908 160.599 258.908 160.173V156.285H259.676V160.141C259.676 160.37 259.732 160.546 259.844 160.669C259.962 160.791 260.127 160.853 260.34 160.853C260.58 160.853 260.78 160.786 260.94 160.653L261.18 161.205C261.063 161.306 260.922 161.381 260.756 161.429C260.596 161.477 260.428 161.501 260.252 161.501ZM258.188 157.845V157.213H260.892V157.845H258.188ZM266.073 161.501C265.647 161.501 265.268 161.407 264.937 161.221C264.607 161.034 264.345 160.778 264.153 160.453C263.961 160.122 263.865 159.749 263.865 159.333C263.865 158.911 263.961 158.538 264.153 158.213C264.345 157.887 264.607 157.634 264.937 157.453C265.268 157.266 265.647 157.173 266.073 157.173C266.495 157.173 266.871 157.266 267.201 157.453C267.537 157.634 267.799 157.887 267.985 158.213C268.177 158.533 268.273 158.906 268.273 159.333C268.273 159.754 268.177 160.127 267.985 160.453C267.799 160.778 267.537 161.034 267.201 161.221C266.871 161.407 266.495 161.501 266.073 161.501ZM266.073 160.829C266.345 160.829 266.588 160.767 266.801 160.645C267.02 160.522 267.191 160.349 267.313 160.125C267.436 159.895 267.497 159.631 267.497 159.333C267.497 159.029 267.436 158.767 267.313 158.549C267.191 158.325 267.02 158.151 266.801 158.029C266.588 157.906 266.345 157.845 266.073 157.845C265.801 157.845 265.559 157.906 265.345 158.029C265.132 158.151 264.961 158.325 264.833 158.549C264.705 158.767 264.641 159.029 264.641 159.333C264.641 159.631 264.705 159.895 264.833 160.125C264.961 160.349 265.132 160.522 265.345 160.645C265.559 160.767 265.801 160.829 266.073 160.829ZM269.447 161.453V156.837C269.447 156.421 269.567 156.09 269.807 155.845C270.053 155.594 270.399 155.469 270.847 155.469C271.013 155.469 271.17 155.49 271.319 155.533C271.474 155.57 271.605 155.631 271.711 155.717L271.479 156.301C271.399 156.237 271.309 156.189 271.207 156.157C271.106 156.119 270.999 156.101 270.887 156.101C270.663 156.101 270.493 156.165 270.375 156.293C270.258 156.415 270.199 156.599 270.199 156.845V157.413L270.215 157.765V161.453H269.447ZM268.727 157.845V157.213H271.431V157.845H268.727ZM275.76 161.501C275.334 161.501 275.003 161.386 274.768 161.157C274.534 160.927 274.416 160.599 274.416 160.173V156.285H275.184V160.141C275.184 160.37 275.24 160.546 275.352 160.669C275.47 160.791 275.635 160.853 275.848 160.853C276.088 160.853 276.288 160.786 276.448 160.653L276.688 161.205C276.571 161.306 276.43 161.381 276.264 161.429C276.104 161.477 275.936 161.501 275.76 161.501ZM273.696 157.845V157.213H276.4V157.845H273.696ZM279.881 157.173C280.227 157.173 280.531 157.239 280.793 157.373C281.059 157.506 281.267 157.709 281.417 157.981C281.566 158.253 281.641 158.597 281.641 159.013V161.453H280.873V159.101C280.873 158.69 280.771 158.381 280.569 158.173C280.371 157.965 280.091 157.861 279.729 157.861C279.457 157.861 279.219 157.914 279.017 158.021C278.814 158.127 278.657 158.285 278.545 158.493C278.438 158.701 278.385 158.959 278.385 159.269V161.453H277.617V155.517H278.385V158.357L278.233 158.053C278.371 157.775 278.585 157.559 278.873 157.405C279.161 157.25 279.497 157.173 279.881 157.173ZM284.95 161.501C284.497 161.501 284.097 161.407 283.75 161.221C283.409 161.034 283.142 160.778 282.95 160.453C282.763 160.127 282.67 159.754 282.67 159.333C282.67 158.911 282.761 158.538 282.942 158.213C283.129 157.887 283.382 157.634 283.702 157.453C284.027 157.266 284.393 157.173 284.798 157.173C285.209 157.173 285.571 157.263 285.886 157.445C286.201 157.626 286.446 157.882 286.622 158.213C286.803 158.538 286.894 158.919 286.894 159.357C286.894 159.389 286.891 159.426 286.886 159.469C286.886 159.511 286.883 159.551 286.878 159.589H283.27V159.037H286.478L286.166 159.229C286.171 158.957 286.115 158.714 285.998 158.501C285.881 158.287 285.718 158.122 285.51 158.005C285.307 157.882 285.07 157.821 284.798 157.821C284.531 157.821 284.294 157.882 284.086 158.005C283.878 158.122 283.715 158.29 283.598 158.509C283.481 158.722 283.422 158.967 283.422 159.245V159.373C283.422 159.655 283.486 159.909 283.614 160.133C283.747 160.351 283.931 160.522 284.166 160.645C284.401 160.767 284.67 160.829 284.974 160.829C285.225 160.829 285.451 160.786 285.654 160.701C285.862 160.615 286.043 160.487 286.198 160.317L286.622 160.813C286.43 161.037 286.19 161.207 285.902 161.325C285.619 161.442 285.302 161.501 284.95 161.501ZM208.44 167.853H209.24V173.453H208.44V167.853ZM205.224 173.453H204.424V167.853H205.224V173.453ZM208.512 170.957H205.144V170.261H208.512V170.957ZM212.692 173.501C212.239 173.501 211.839 173.407 211.492 173.221C211.151 173.034 210.884 172.778 210.692 172.453C210.506 172.127 210.412 171.754 210.412 171.333C210.412 170.911 210.503 170.538 210.684 170.213C210.871 169.887 211.124 169.634 211.444 169.453C211.77 169.266 212.135 169.173 212.54 169.173C212.951 169.173 213.314 169.263 213.628 169.445C213.943 169.626 214.188 169.882 214.364 170.213C214.546 170.538 214.636 170.919 214.636 171.357C214.636 171.389 214.634 171.426 214.628 171.469C214.628 171.511 214.626 171.551 214.62 171.589H211.012V171.037H214.22L213.908 171.229C213.914 170.957 213.858 170.714 213.74 170.501C213.623 170.287 213.46 170.122 213.252 170.005C213.05 169.882 212.812 169.821 212.54 169.821C212.274 169.821 212.036 169.882 211.828 170.005C211.62 170.122 211.458 170.29 211.34 170.509C211.223 170.722 211.164 170.967 211.164 171.245V171.373C211.164 171.655 211.228 171.909 211.356 172.133C211.49 172.351 211.674 172.522 211.908 172.645C212.143 172.767 212.412 172.829 212.716 172.829C212.967 172.829 213.194 172.786 213.396 172.701C213.604 172.615 213.786 172.487 213.94 172.317L214.364 172.813C214.172 173.037 213.932 173.207 213.644 173.325C213.362 173.442 213.044 173.501 212.692 173.501ZM218.217 173.453V172.557L218.177 172.389V170.861C218.177 170.535 218.081 170.285 217.889 170.109C217.703 169.927 217.42 169.837 217.041 169.837C216.791 169.837 216.545 169.879 216.305 169.965C216.065 170.045 215.863 170.154 215.697 170.293L215.377 169.717C215.596 169.541 215.857 169.407 216.161 169.317C216.471 169.221 216.793 169.173 217.129 169.173C217.711 169.173 218.159 169.314 218.473 169.597C218.788 169.879 218.945 170.311 218.945 170.893V173.453H218.217ZM216.825 173.501C216.511 173.501 216.233 173.447 215.993 173.341C215.759 173.234 215.577 173.087 215.449 172.901C215.321 172.709 215.257 172.493 215.257 172.253C215.257 172.023 215.311 171.815 215.417 171.629C215.529 171.442 215.708 171.293 215.953 171.181C216.204 171.069 216.54 171.013 216.961 171.013H218.305V171.565H216.993C216.609 171.565 216.351 171.629 216.217 171.757C216.084 171.885 216.017 172.039 216.017 172.221C216.017 172.429 216.1 172.597 216.265 172.725C216.431 172.847 216.66 172.909 216.953 172.909C217.241 172.909 217.492 172.845 217.705 172.717C217.924 172.589 218.081 172.402 218.177 172.157L218.329 172.685C218.228 172.935 218.049 173.135 217.793 173.285C217.537 173.429 217.215 173.501 216.825 173.501ZM220.367 173.453V169.213H221.103V170.365L221.031 170.077C221.148 169.783 221.345 169.559 221.623 169.405C221.9 169.25 222.241 169.173 222.647 169.173V169.917C222.615 169.911 222.583 169.909 222.551 169.909C222.524 169.909 222.497 169.909 222.471 169.909C222.06 169.909 221.735 170.031 221.495 170.277C221.255 170.522 221.135 170.877 221.135 171.341V173.453H220.367ZM226.069 173.517C225.642 173.517 225.247 173.447 224.885 173.309C224.527 173.165 224.215 172.965 223.949 172.709C223.687 172.447 223.482 172.143 223.333 171.797C223.183 171.45 223.109 171.069 223.109 170.653C223.109 170.237 223.183 169.855 223.333 169.509C223.482 169.162 223.69 168.861 223.957 168.605C224.223 168.343 224.535 168.143 224.893 168.005C225.255 167.861 225.65 167.789 226.077 167.789C226.509 167.789 226.906 167.863 227.269 168.013C227.637 168.157 227.949 168.373 228.205 168.661L227.685 169.165C227.471 168.941 227.231 168.775 226.965 168.669C226.698 168.557 226.413 168.501 226.109 168.501C225.794 168.501 225.501 168.554 225.229 168.661C224.962 168.767 224.73 168.917 224.533 169.109C224.335 169.301 224.181 169.53 224.069 169.797C223.962 170.058 223.909 170.343 223.909 170.653C223.909 170.962 223.962 171.25 224.069 171.517C224.181 171.778 224.335 172.005 224.533 172.197C224.73 172.389 224.962 172.538 225.229 172.645C225.501 172.751 225.794 172.805 226.109 172.805C226.413 172.805 226.698 172.751 226.965 172.645C227.231 172.533 227.471 172.362 227.685 172.133L228.205 172.637C227.949 172.925 227.637 173.143 227.269 173.293C226.906 173.442 226.506 173.517 226.069 173.517ZM230.87 173.501C230.444 173.501 230.065 173.407 229.734 173.221C229.404 173.034 229.142 172.778 228.95 172.453C228.758 172.122 228.662 171.749 228.662 171.333C228.662 170.911 228.758 170.538 228.95 170.213C229.142 169.887 229.404 169.634 229.734 169.453C230.065 169.266 230.444 169.173 230.87 169.173C231.292 169.173 231.668 169.266 231.998 169.453C232.334 169.634 232.596 169.887 232.782 170.213C232.974 170.533 233.07 170.906 233.07 171.333C233.07 171.754 232.974 172.127 232.782 172.453C232.596 172.778 232.334 173.034 231.998 173.221C231.668 173.407 231.292 173.501 230.87 173.501ZM230.87 172.829C231.142 172.829 231.385 172.767 231.598 172.645C231.817 172.522 231.988 172.349 232.11 172.125C232.233 171.895 232.294 171.631 232.294 171.333C232.294 171.029 232.233 170.767 232.11 170.549C231.988 170.325 231.817 170.151 231.598 170.029C231.385 169.906 231.142 169.845 230.87 169.845C230.598 169.845 230.356 169.906 230.142 170.029C229.929 170.151 229.758 170.325 229.63 170.549C229.502 170.767 229.438 171.029 229.438 171.333C229.438 171.631 229.502 171.895 229.63 172.125C229.758 172.349 229.929 172.522 230.142 172.645C230.356 172.767 230.598 172.829 230.87 172.829ZM235.988 175.053C235.599 175.053 235.22 174.997 234.852 174.885C234.49 174.778 234.194 174.623 233.964 174.421L234.332 173.829C234.53 173.999 234.772 174.133 235.06 174.229C235.348 174.33 235.65 174.381 235.964 174.381C236.466 174.381 236.834 174.263 237.068 174.029C237.303 173.794 237.42 173.437 237.42 172.957V172.061L237.5 171.221L237.46 170.373V169.213H238.188V172.877C238.188 173.623 238.002 174.173 237.628 174.525C237.255 174.877 236.708 175.053 235.988 175.053ZM235.892 173.277C235.482 173.277 235.114 173.191 234.788 173.021C234.468 172.845 234.212 172.602 234.02 172.293C233.834 171.983 233.74 171.626 233.74 171.221C233.74 170.81 233.834 170.453 234.02 170.149C234.212 169.839 234.468 169.599 234.788 169.429C235.114 169.258 235.482 169.173 235.892 169.173C236.255 169.173 236.586 169.247 236.884 169.397C237.183 169.541 237.42 169.765 237.596 170.069C237.778 170.373 237.868 170.757 237.868 171.221C237.868 171.679 237.778 172.061 237.596 172.365C237.42 172.669 237.183 172.898 236.884 173.053C236.586 173.202 236.255 173.277 235.892 173.277ZM235.98 172.605C236.263 172.605 236.514 172.546 236.732 172.429C236.951 172.311 237.122 172.149 237.244 171.941C237.372 171.733 237.436 171.493 237.436 171.221C237.436 170.949 237.372 170.709 237.244 170.501C237.122 170.293 236.951 170.133 236.732 170.021C236.514 169.903 236.263 169.845 235.98 169.845C235.698 169.845 235.444 169.903 235.22 170.021C235.002 170.133 234.828 170.293 234.7 170.501C234.578 170.709 234.516 170.949 234.516 171.221C234.516 171.493 234.578 171.733 234.7 171.941C234.828 172.149 235.002 172.311 235.22 172.429C235.444 172.546 235.698 172.605 235.98 172.605ZM241.916 173.453V167.853H242.572L246.276 172.453H245.932V167.853H246.732V173.453H246.076L242.372 168.853H242.716V173.453H241.916ZM250.184 173.501C249.731 173.501 249.331 173.407 248.984 173.221C248.643 173.034 248.376 172.778 248.184 172.453C247.998 172.127 247.904 171.754 247.904 171.333C247.904 170.911 247.995 170.538 248.176 170.213C248.363 169.887 248.616 169.634 248.936 169.453C249.262 169.266 249.627 169.173 250.032 169.173C250.443 169.173 250.806 169.263 251.12 169.445C251.435 169.626 251.68 169.882 251.856 170.213C252.038 170.538 252.128 170.919 252.128 171.357C252.128 171.389 252.126 171.426 252.12 171.469C252.12 171.511 252.118 171.551 252.112 171.589H248.504V171.037H251.712L251.4 171.229C251.406 170.957 251.35 170.714 251.232 170.501C251.115 170.287 250.952 170.122 250.744 170.005C250.542 169.882 250.304 169.821 250.032 169.821C249.766 169.821 249.528 169.882 249.32 170.005C249.112 170.122 248.95 170.29 248.832 170.509C248.715 170.722 248.656 170.967 248.656 171.245V171.373C248.656 171.655 248.72 171.909 248.848 172.133C248.982 172.351 249.166 172.522 249.4 172.645C249.635 172.767 249.904 172.829 250.208 172.829C250.459 172.829 250.686 172.786 250.888 172.701C251.096 172.615 251.278 172.487 251.432 172.317L251.856 172.813C251.664 173.037 251.424 173.207 251.136 173.325C250.854 173.442 250.536 173.501 250.184 173.501ZM254.651 173.501C254.224 173.501 253.893 173.386 253.659 173.157C253.424 172.927 253.307 172.599 253.307 172.173V168.285H254.075V172.141C254.075 172.37 254.131 172.546 254.243 172.669C254.36 172.791 254.525 172.853 254.739 172.853C254.979 172.853 255.179 172.786 255.339 172.653L255.579 173.205C255.461 173.306 255.32 173.381 255.155 173.429C254.995 173.477 254.827 173.501 254.651 173.501ZM252.587 169.845V169.213H255.291V169.845H252.587ZM257.325 173.453L255.749 169.213H256.477L257.877 173.053H257.533L258.989 169.213H259.637L261.061 173.053H260.725L262.157 169.213H262.845L261.261 173.453H260.525L259.189 169.949H259.413L258.061 173.453H257.325ZM265.323 173.501C264.897 173.501 264.518 173.407 264.187 173.221C263.857 173.034 263.595 172.778 263.403 172.453C263.211 172.122 263.115 171.749 263.115 171.333C263.115 170.911 263.211 170.538 263.403 170.213C263.595 169.887 263.857 169.634 264.187 169.453C264.518 169.266 264.897 169.173 265.323 169.173C265.745 169.173 266.121 169.266 266.451 169.453C266.787 169.634 267.049 169.887 267.235 170.213C267.427 170.533 267.523 170.906 267.523 171.333C267.523 171.754 267.427 172.127 267.235 172.453C267.049 172.778 266.787 173.034 266.451 173.221C266.121 173.407 265.745 173.501 265.323 173.501ZM265.323 172.829C265.595 172.829 265.838 172.767 266.051 172.645C266.27 172.522 266.441 172.349 266.563 172.125C266.686 171.895 266.747 171.631 266.747 171.333C266.747 171.029 266.686 170.767 266.563 170.549C266.441 170.325 266.27 170.151 266.051 170.029C265.838 169.906 265.595 169.845 265.323 169.845C265.051 169.845 264.809 169.906 264.595 170.029C264.382 170.151 264.211 170.325 264.083 170.549C263.955 170.767 263.891 171.029 263.891 171.333C263.891 171.631 263.955 171.895 264.083 172.125C264.211 172.349 264.382 172.522 264.595 172.645C264.809 172.767 265.051 172.829 265.323 172.829ZM268.585 173.453V169.213H269.321V170.365L269.249 170.077C269.367 169.783 269.564 169.559 269.841 169.405C270.119 169.25 270.46 169.173 270.865 169.173V169.917C270.833 169.911 270.801 169.909 270.769 169.909C270.743 169.909 270.716 169.909 270.689 169.909C270.279 169.909 269.953 170.031 269.713 170.277C269.473 170.522 269.353 170.877 269.353 171.341V173.453H268.585ZM272.436 172.429L272.452 171.445L274.892 169.213H275.82L273.948 171.053L273.532 171.405L272.436 172.429ZM271.812 173.453V167.517H272.58V173.453H271.812ZM275.052 173.453L273.388 171.389L273.884 170.773L275.996 173.453H275.052Z" fill="#444444"/>
</svg>
