<svg width="48" height="48" viewBox="0 0 48 48" fill="none" xmlns="http://www.w3.org/2000/svg">
<path d="M0 24C0 10.7452 10.7452 0 24 0C37.2548 0 48 10.7452 48 24C48 37.2548 37.2548 48 24 48C10.7452 48 0 37.2548 0 24Z" fill="#6A5AE0" fill-opacity="0.06"/>
<path d="M31.999 33.9993V30.9993C31.999 28.1713 31.999 26.7573 31.12 25.8783C30.242 24.9993 28.827 24.9993 25.999 24.9993L23.999 26.9993L21.999 24.9993C19.171 24.9993 17.756 24.9993 16.878 25.8783C16 26.7573 15.999 28.1713 15.999 30.9993V33.9993M27.499 18.4993V17.4993C27.499 16.571 27.1303 15.6808 26.4739 15.0244C25.8175 14.368 24.9273 13.9993 23.999 13.9993C23.0708 13.9993 22.1805 14.368 21.5241 15.0244C20.8678 15.6808 20.499 16.571 20.499 17.4993V18.4993C20.499 18.9589 20.5896 19.414 20.7654 19.8387C20.9413 20.2633 21.1991 20.6491 21.5241 20.9741C21.8492 21.2991 22.235 21.557 22.6596 21.7328C23.0843 21.9087 23.5394 21.9993 23.999 21.9993C24.4586 21.9993 24.9138 21.9087 25.3384 21.7328C25.7631 21.557 26.1489 21.2991 26.4739 20.9741C26.7989 20.6491 27.0567 20.2633 27.2326 19.8387C27.4085 19.414 27.499 18.9589 27.499 18.4993Z" stroke="#6D2ECC" stroke-width="1.5" stroke-linecap="round" stroke-linejoin="round"/>
<path d="M27 29.1709V31.1709M27 33.1709V31.1709M29 31.1709H27M25 31.1709H27" stroke="#6D2ECC" stroke-width="1.5" stroke-linecap="round" stroke-linejoin="round"/>
</svg>
