<svg width="48" height="48" viewBox="0 0 48 48" fill="none" xmlns="http://www.w3.org/2000/svg">
<path d="M0 24C0 10.7452 10.7452 0 24 0C37.2548 0 48 10.7452 48 24C48 37.2548 37.2548 48 24 48C10.7452 48 0 37.2548 0 24Z" fill="#6A5AE0" fill-opacity="0.06"/>
<path d="M28.9979 19.1274C29.3193 19.0428 29.6533 19.0004 29.9999 19.0004C30.5686 19.001 31.1306 19.1228 31.6485 19.3578C32.1663 19.5927 32.6281 19.9354 33.0031 20.363C33.3781 20.7905 33.6576 21.2931 33.8229 21.8371C33.9883 22.3812 34.0358 22.9543 33.9622 23.5182C33.8886 24.0821 33.6956 24.6238 33.396 25.1072C33.0965 25.5906 32.6974 26.0046 32.2252 26.3215C31.7531 26.6385 31.2188 26.8511 30.658 26.9452C30.0971 27.0394 29.5227 27.0129 28.9729 26.8674M28.9979 19.1274L28.9999 19.0004C29.0015 18.0125 28.6374 17.0589 27.9777 16.3234C27.3181 15.5879 26.4096 15.1226 25.4273 15.017C24.445 14.9115 23.4584 15.1732 22.6576 15.7517C21.8567 16.3303 21.2983 17.1847 21.0899 18.1504M28.9979 19.1274C28.9773 19.7861 28.7942 20.4295 28.4649 21.0004M28.9729 26.8674C28.9909 26.7474 28.9999 26.6251 28.9999 26.5004C29.0001 25.9241 28.801 25.3654 28.4366 24.919C28.0721 24.4725 27.5646 24.1657 26.9999 24.0504M28.9729 26.8674C28.8849 27.4604 28.5868 28.002 28.1329 28.3935C27.6789 28.7851 27.0994 29.0005 26.4999 29.0004H25.9999C24.9391 29.0004 23.9217 29.4219 23.1715 30.172C22.4214 30.9222 21.9999 31.9396 21.9999 33.0004M21.0899 18.1504C20.4023 17.9552 19.6749 17.9478 18.9834 18.129C18.2919 18.3102 17.6616 18.6734 17.1581 19.1808C16.6545 19.6882 16.2962 20.3212 16.1203 21.0141C15.9444 21.707 15.9574 22.4343 16.1579 23.1204M21.0899 18.1504C22.0923 18.4343 22.9444 19.098 23.4649 20.0004M16.1579 23.1204C15.466 23.324 14.8715 23.77 14.4815 24.3767C14.0915 24.9834 13.933 25.7103 14.0351 26.4243C14.1372 27.1383 14.4931 27.7917 15.0376 28.2648C15.582 28.7378 16.2787 28.999 16.9999 29.0004C17.6206 29.0008 18.2261 28.8086 18.7329 28.4504C19.2398 28.0922 19.6231 27.5856 19.8299 27.0004M16.1579 23.1204C16.2486 23.4318 16.3749 23.7251 16.5349 24.0004" stroke="#6D2ECC" stroke-width="1.5" stroke-linecap="round" stroke-linejoin="round"/>
<path d="M23.8358 23.744C23.3258 24.235 22.4528 24.32 21.7068 23.901C20.9608 23.481 20.5798 22.691 20.7348 22" stroke="#6D2ECC" stroke-width="1.5" stroke-linecap="round"/>
</svg>
