<svg width="48" height="48" viewBox="0 0 48 48" fill="none" xmlns="http://www.w3.org/2000/svg">
<path d="M0 24C0 10.7452 10.7452 0 24 0C37.2548 0 48 10.7452 48 24C48 37.2548 37.2548 48 24 48C10.7452 48 0 37.2548 0 24Z" fill="#6A5AE0" fill-opacity="0.06"/>
<path d="M24 33.1709C22.441 32.7447 20.9791 31.9925 19.7014 30.959C18.4236 29.9255 17.356 28.6318 16.562 27.1548C15.7679 25.6778 15.2636 24.0476 15.0791 22.3611C14.8946 20.6747 15.0336 18.9663 15.4878 17.3376C18.6078 17.4881 21.6608 16.3523 24 14.1709C26.3391 16.3523 29.3921 17.4881 32.5121 17.3376C32.9895 19.0491 33.1185 20.8476 32.8906 22.6153" stroke="#6D2ECC" stroke-width="1.5" stroke-linecap="round" stroke-linejoin="round"/>
<path d="M29.9996 34.0004L33.3496 30.7164C33.5551 30.5171 33.7185 30.2786 33.8302 30.015C33.942 29.7515 33.9998 29.4682 34.0002 29.182C34.0007 28.8957 33.9438 28.6123 33.8329 28.3484C33.722 28.0844 33.5594 27.8454 33.3546 27.6454C32.937 27.2363 32.376 27.0066 31.7914 27.0055C31.2067 27.0044 30.6448 27.2319 30.2256 27.6394L30.0016 27.8594L29.7786 27.6394C29.3611 27.2306 28.8002 27.0011 28.2159 27C27.6315 26.9989 27.0698 27.2262 26.6506 27.6334C26.4451 27.8327 26.2816 28.0711 26.1698 28.3346C26.058 28.5981 26.0001 28.8814 25.9995 29.1676C25.999 29.4539 26.0558 29.7374 26.1666 30.0013C26.2774 30.2653 26.4399 30.5043 26.6446 30.7044L29.9996 34.0004Z" stroke="#6D2ECC" stroke-width="1.5" stroke-linecap="round" stroke-linejoin="round"/>
</svg>
