<svg width="46" height="46" viewBox="0 0 46 46" fill="none" xmlns="http://www.w3.org/2000/svg">
<rect width="46" height="46" rx="23" fill="#C09CF3"/>
<path d="M19.4286 33H26.5714V21.5714H19.4286V33ZM21.5714 25.8571H22.2857V25.1429C22.2857 24.7143 22.5714 24.4286 23 24.4286C23.4286 24.4286 23.7143 24.7143 23.7143 25.1429V25.8571H24.4286C24.8571 25.8571 25.1429 26.1429 25.1429 26.5714C25.1429 27 24.8571 27.2857 24.4286 27.2857H23.7143V28C23.7143 28.4286 23.4286 28.7143 23 28.7143C22.5714 28.7143 22.2857 28.4286 22.2857 28V27.2857H21.5714C21.1429 27.2857 20.8571 27 20.8571 26.5714C20.8571 26.1429 21.1429 25.8571 21.5714 25.8571ZM30.1429 15.8571H27.2857V15.1429C27.2857 13.9286 26.3571 13 25.1429 13H20.8571C19.6429 13 18.7143 13.9286 18.7143 15.1429V15.8571H15.8571C14.2857 15.8571 13 17.1429 13 18.7143V20.1429H33V18.7143C33 17.1429 31.7143 15.8571 30.1429 15.8571ZM20.1429 15.1429C20.1429 14.7143 20.4286 14.4286 20.8571 14.4286H25.1429C25.5714 14.4286 25.8571 14.7143 25.8571 15.1429V15.8571H20.1429V15.1429ZM28 21.5714H33V30.1429C33 31.7143 31.7143 33 30.1429 33H28V21.5714ZM13 21.5714H18V33H15.8571C14.2857 33 13 31.7143 13 30.1429V21.5714Z" fill="white"/>
</svg>
