<svg width="46" height="46" viewBox="0 0 46 46" fill="none" xmlns="http://www.w3.org/2000/svg">
<rect width="46" height="46" rx="23" fill="#C09CF3"/>
<path d="M28.982 14.5386C28.7561 14.5386 28.5303 14.6515 28.4174 14.8773L26.4414 20.0148C26.8931 19.8454 27.2883 19.789 27.7964 19.6761L28.869 16.7968L29.6594 19.6196C30.1111 19.6761 30.5063 19.789 30.9015 19.9019L29.4901 14.8773C29.4336 14.7079 29.2642 14.5386 28.982 14.5386Z" fill="white"/>
<path d="M28.8122 20.8057C25.4248 20.8057 22.7148 23.572 22.7148 26.9029C22.7148 30.2903 25.4812 33.0002 28.8122 33.0002C32.1996 33.0002 34.9095 30.2338 34.9095 26.9029C34.9095 23.572 32.1996 20.8057 28.8122 20.8057ZM31.8044 25.6609L28.417 29.0482C28.3041 29.1612 28.1912 29.2176 28.0218 29.2176C27.8524 29.2176 27.7395 29.1612 27.6266 29.0482L25.82 27.2417C25.5941 27.0158 25.5941 26.6771 25.82 26.4513C26.0458 26.2254 26.3845 26.2254 26.6104 26.4513L27.9653 27.8062L30.9575 24.814C31.1834 24.5882 31.5221 24.5882 31.7479 24.814C31.9738 25.0399 32.0302 25.4351 31.8044 25.6609Z" fill="white"/>
<path d="M35.9825 23.9106H35.418C35.5873 24.2494 35.7003 24.6446 35.8132 25.0398H35.9825C36.3213 25.0398 36.5471 24.7575 36.5471 24.4752C36.5471 24.1365 36.3213 23.9106 35.9825 23.9106Z" fill="white"/>
<path d="M23.7892 21.7086C24.0715 21.4263 24.3538 21.2005 24.6926 20.9747L22.8859 19.8456C22.6601 19.6762 22.3214 19.7327 22.152 20.0149L18.7646 24.475L18.2565 13.5225C18.2565 13.2967 18.0871 13.0708 17.8048 13.0144C17.579 12.9579 17.2967 13.0708 17.1838 13.2967L13.627 20.1843H10.0138C9.67505 20.1843 9.44922 20.4101 9.44922 20.7489C9.44922 21.0876 9.67505 21.3134 10.0138 21.3134H13.9658C14.1916 21.3134 14.361 21.2005 14.4739 21.0311L17.2403 15.6678L17.6919 26.0557C17.6919 26.2816 17.8613 26.5074 18.0871 26.5638C18.3694 26.6203 18.5952 26.5638 18.7081 26.338L22.7166 21.0311L23.7892 21.7086Z" fill="white"/>
</svg>
