<svg width="46" height="46" viewBox="0 0 46 46" fill="none" xmlns="http://www.w3.org/2000/svg">
<rect width="46" height="46" rx="23" fill="#C09CF3"/>
<path d="M26.8901 27.4029C28.5104 25.1209 29.9901 22.0203 29.9901 18.8322C29.9901 17.0202 29.2537 15.2824 27.9431 14.0011C26.6324 12.7198 24.8547 12 23.0012 12C21.1476 12 19.3699 12.7198 18.0593 14.0011C16.7486 15.2824 16.0123 17.0202 16.0123 18.8322C16.0123 22.0199 17.4919 25.1204 19.1122 27.4029C15.1871 27.8259 12 28.9062 12 30.6002C11.9977 32.8322 17.5322 34 22.9988 34C28.4654 34 34 32.8322 34 30.6002C34 28.9062 30.8129 27.8259 26.8901 27.4029ZM22.9988 15.4008C23.5941 15.4008 24.1759 15.5733 24.6708 15.8966C25.1657 16.2199 25.5515 16.6794 25.7792 17.217C26.007 17.7546 26.0666 18.3462 25.9504 18.9169C25.8342 19.4876 25.5476 20.0118 25.1267 20.4232C24.7057 20.8346 24.1695 21.1148 23.5857 21.2282C23.0018 21.3417 22.3967 21.2834 21.8468 21.0606C21.2969 20.8379 20.827 20.4608 20.4963 19.9769C20.1657 19.493 19.9893 18.9242 19.9894 18.3423C19.9894 17.956 20.0672 17.5734 20.2185 17.2165C20.3697 16.8596 20.5914 16.5353 20.8709 16.2622C21.1503 15.989 21.4821 15.7723 21.8472 15.6245C22.2123 15.4767 22.6036 15.4007 22.9988 15.4008ZM22.9988 33.0834C16.7633 33.0834 12.9353 31.6369 12.9353 30.6002C12.9353 29.7578 15.4619 28.6449 19.7522 28.2567C21.1235 29.9787 22.4672 31.0585 22.9988 31.0585C23.5305 31.0585 24.8742 29.9787 26.2455 28.2567C30.5358 28.6449 33.0623 29.7578 33.0623 30.6002C33.0623 31.6369 29.2343 33.0834 22.9988 33.0834Z" fill="white"/>
</svg>
