<svg width="160" height="160" viewBox="0 0 160 160" fill="none" xmlns="http://www.w3.org/2000/svg">
<path d="M147.639 25.3501L109.834 138.765C109.175 140.759 107.904 142.494 106.2 143.723C104.497 144.951 102.449 145.61 100.349 145.605H100.199C98.0718 145.58 96.0087 144.874 94.3118 143.591C92.6149 142.308 91.3733 140.515 90.769 138.475L76.504 90.9101L113.704 53.7101C114.642 52.7726 115.17 51.5008 115.17 50.1744C115.171 48.8481 114.644 47.5758 113.707 46.6376C112.769 45.6994 111.497 45.1721 110.171 45.1716C108.844 45.1712 107.572 45.6976 106.634 46.6351L69.434 83.8401L21.869 69.5701C19.8339 68.9597 18.0461 67.717 16.7649 66.0221C15.4836 64.3272 14.7755 62.2683 14.7432 60.1438C14.7109 58.0194 15.356 55.9399 16.5852 54.2068C17.8143 52.4737 19.5634 51.1772 21.579 50.5051L134.994 12.7001C136.756 12.1125 138.647 12.0273 140.454 12.4539C142.262 12.8805 143.915 13.8021 145.229 15.1155C146.542 16.4288 147.464 18.082 147.89 19.8897C148.317 21.6974 148.227 23.5882 147.639 25.3501ZM43.704 86.6351C42.7664 85.6978 41.4949 85.1712 40.169 85.1712C38.8432 85.1712 37.5717 85.6978 36.634 86.6351L11.634 111.635C10.7232 112.578 10.2193 113.841 10.2307 115.152C10.242 116.463 10.7679 117.717 11.6949 118.644C12.622 119.571 13.876 120.097 15.187 120.109C16.498 120.12 17.761 119.616 18.704 118.705L43.704 93.7051C44.6414 92.7675 45.168 91.496 45.168 90.1701C45.168 88.8443 44.6414 87.5728 43.704 86.6351ZM73.704 116.635C72.7664 115.698 71.4949 115.171 70.169 115.171C68.8432 115.171 67.5717 115.698 66.634 116.635L41.634 141.635C41.1565 142.096 40.7756 142.648 40.5135 143.258C40.2515 143.868 40.1135 144.524 40.1078 145.188C40.102 145.852 40.2285 146.51 40.4799 147.125C40.7313 147.739 41.1026 148.298 41.5721 148.767C42.0415 149.237 42.5998 149.608 43.2143 149.859C43.8287 150.111 44.4871 150.237 45.151 150.231C45.8149 150.226 46.471 150.088 47.0811 149.826C47.6911 149.564 48.2428 149.183 48.704 148.705L73.704 123.705C74.6414 122.767 75.168 121.496 75.168 120.17C75.168 118.844 74.6414 117.573 73.704 116.635ZM48.509 111.44C47.5648 110.509 46.2895 109.992 44.9637 110.001C43.6378 110.011 42.37 110.546 41.439 111.49L16.609 136.66C16.1359 137.125 15.76 137.679 15.5032 138.291C15.2464 138.903 15.1139 139.559 15.1133 140.222C15.1127 140.886 15.2441 141.542 15.4999 142.154C15.7556 142.766 16.1305 143.321 16.6029 143.787C17.0752 144.253 17.6354 144.62 18.251 144.867C18.8666 145.114 19.5251 145.236 20.1883 145.226C20.8516 145.216 21.5062 145.074 22.114 144.809C22.7219 144.544 23.2709 144.16 23.729 143.68L48.559 118.51C49.4898 117.566 50.0074 116.291 49.998 114.965C49.9886 113.639 49.453 112.371 48.509 111.44Z" fill="#6D2ECC"/>
</svg>
