<svg width="63" height="56" viewBox="0 0 63 56" fill="none" xmlns="http://www.w3.org/2000/svg">
<path d="M0.5 20.5C0.5 11.0719 0.5 6.35786 3.42893 3.42893C6.35786 0.5 11.0719 0.5 20.5 0.5H41.6111C51.0392 0.5 55.7532 0.5 58.6822 3.42893C61.6111 6.35786 61.6111 11.0719 61.6111 20.5V35.5C61.6111 44.9281 61.6111 49.6421 58.6822 52.5711C55.7532 55.5 51.0392 55.5 41.6111 55.5H20.5C11.0719 55.5 6.35786 55.5 3.42893 52.5711C0.5 49.6421 0.5 44.9281 0.5 35.5V20.5Z" fill="white" stroke="#C09CF3"/>
<path d="M6.05566 25.5C6.05566 16.0719 6.05566 11.3579 8.9846 8.42893C11.9135 5.5 16.6276 5.5 26.0557 5.5H36.0557C45.4838 5.5 50.1978 5.5 53.1267 8.42893C56.0557 11.3579 56.0557 16.0719 56.0557 25.5V30.5C56.0557 39.9281 56.0557 44.6421 53.1267 47.5711C50.1978 50.5 45.4838 50.5 36.0557 50.5H26.0557C16.6276 50.5 11.9135 50.5 8.9846 47.5711C6.05566 44.6421 6.05566 39.9281 6.05566 30.5V25.5Z" fill="url(#paint0_linear_1149_1947)"/>
<path d="M21.474 25.0379C20.7231 24.5758 19.9722 24.1426 19.1924 23.7094L21.474 22.1787V25.0379Z" fill="#C09CF3"/>
<path d="M29.4451 33.6733L18.6725 40.9512C18.6436 40.8357 18.6147 40.7202 18.6147 40.6047V24.7491C22.8891 27.0018 26.5281 30.0054 29.4451 33.6733Z" fill="#C09CF3"/>
<path d="M35.3368 17.8466H27.8855L31.1202 15.6516C31.409 15.4495 31.7844 15.4495 32.1021 15.6516L35.3368 17.8466Z" fill="#C09CF3"/>
<path d="M32.2465 25.4134C32.3909 25.5289 32.4487 25.7311 32.4775 25.9043V26.0487C32.4487 26.2798 32.362 26.5397 32.1598 26.713C31.9577 26.9152 31.6978 27.0307 31.4378 27.0307C31.2068 27.0307 30.9757 26.9729 30.8313 26.7997C30.4848 26.4531 30.5425 25.8755 30.9468 25.4711C31.1779 25.2401 31.4378 25.1534 31.6977 25.1534C31.8999 25.1823 32.1021 25.269 32.2465 25.4134Z" fill="#C09CF3"/>
<path d="M40.2753 19.0307H22.9468C22.8024 19.0307 22.658 19.1462 22.658 19.3195V25.8177C25.6327 27.8394 28.232 30.2654 30.4269 33.0379C30.4558 33.009 30.4847 33.009 30.5136 32.9802C31.1778 32.5469 32.0442 32.5469 32.7374 32.9802C32.7663 32.9802 32.7951 33.009 32.824 33.0379C35.019 30.2654 37.6471 27.8394 40.593 25.8177V19.3195C40.593 19.1462 40.4486 19.0307 40.2753 19.0307ZM36.0009 26.8285C35.9432 27.2617 35.7121 27.6372 35.3944 27.8971C35.0767 28.1571 34.6724 28.3015 34.2392 28.3015C33.6904 28.3015 33.1995 28.0415 32.8818 27.6661C32.5063 28.0126 32.0154 28.2148 31.4955 28.2437C31.4666 28.2437 31.4377 28.2437 31.38 28.2437C30.8312 28.2437 30.3691 28.0415 29.9937 27.6661C29.6182 27.2906 29.4161 26.7708 29.4161 26.2798C29.4161 25.7022 29.6471 25.1246 30.0803 24.6913C30.7735 23.9982 31.7554 23.8249 32.5641 24.2293C32.6796 24.056 32.8529 23.9693 33.0551 23.9693C33.3728 23.9693 33.6327 24.2293 33.6327 24.5469V26.5686C33.6327 26.8863 33.8926 27.1751 34.2392 27.1751C34.528 27.1751 34.7879 26.9729 34.8168 26.6841C34.8457 26.5397 34.8457 26.3664 34.8457 26.222C34.8746 24.4314 33.4305 22.9585 31.6399 22.9296C30.7446 22.9007 29.9071 23.2473 29.2717 23.8827C28.6363 24.5181 28.2897 25.3556 28.3186 26.2509C28.3475 28.0126 29.8204 29.4278 31.5533 29.4567C31.9865 29.4567 32.4197 29.37 32.8529 29.1968C33.1417 29.0812 33.4883 29.1968 33.6327 29.5145C33.7482 29.8033 33.6327 30.1498 33.315 30.2942C32.7663 30.5253 32.1886 30.6408 31.5821 30.6408H31.5533C29.1562 30.6408 27.1923 28.6769 27.1345 26.2798C27.1056 25.0668 27.5677 23.9116 28.4341 23.0451C29.3006 22.1787 30.4269 21.7166 31.6688 21.7455C34.0948 21.8033 36.0587 23.796 36.0298 26.2509C36.0587 26.3953 36.0298 26.6264 36.0009 26.8285Z" fill="#C09CF3"/>
<path d="M32.6221 34.3087L43.2791 41.5H19.9434L30.6004 34.3087L31.1203 33.9621C31.4091 33.7599 31.7845 33.7599 32.0733 33.9621C32.1022 33.9621 32.6221 34.3087 32.6221 34.3087Z" fill="#C09CF3"/>
<path d="M44.0299 23.7094C43.2501 24.1137 42.4703 24.5758 41.7483 25.0379V22.1498L44.0299 23.7094Z" fill="#C09CF3"/>
<path d="M44.6074 24.7491V40.6047C44.6074 40.7202 44.5785 40.8357 44.5497 40.9512L33.7771 33.6733C36.6941 30.0054 40.3331 27.0018 44.6074 24.7491Z" fill="#C09CF3"/>
<defs>
<linearGradient id="paint0_linear_1149_1947" x1="31.0557" y1="5.5" x2="31.0557" y2="50.5" gradientUnits="userSpaceOnUse">
<stop stop-color="#D3CDFF"/>
<stop offset="1" stop-color="#D3CDFF" stop-opacity="0"/>
</linearGradient>
</defs>
</svg>
