<svg width="63" height="56" viewBox="0 0 63 56" fill="none" xmlns="http://www.w3.org/2000/svg">
<path d="M0.5 20.5C0.5 11.0719 0.5 6.35786 3.42893 3.42893C6.35786 0.5 11.0719 0.5 20.5 0.5H41.6111C51.0392 0.5 55.7532 0.5 58.6822 3.42893C61.6111 6.35786 61.6111 11.0719 61.6111 20.5V35.5C61.6111 44.9281 61.6111 49.6421 58.6822 52.5711C55.7532 55.5 51.0392 55.5 41.6111 55.5H20.5C11.0719 55.5 6.35786 55.5 3.42893 52.5711C0.5 49.6421 0.5 44.9281 0.5 35.5V20.5Z" fill="white" stroke="#C09CF3"/>
<path d="M6.05566 25.5C6.05566 16.0719 6.05566 11.3579 8.9846 8.42893C11.9135 5.5 16.6276 5.5 26.0557 5.5H36.0557C45.4838 5.5 50.1978 5.5 53.1267 8.42893C56.0557 11.3579 56.0557 16.0719 56.0557 25.5V30.5C56.0557 39.9281 56.0557 44.6421 53.1267 47.5711C50.1978 50.5 45.4838 50.5 36.0557 50.5H26.0557C16.6276 50.5 11.9135 50.5 8.9846 47.5711C6.05566 44.6421 6.05566 39.9281 6.05566 30.5V25.5Z" fill="url(#paint0_linear_1149_1947)"/>
<path d="M24.8135 19.2744C25.2416 19.3074 25.6572 19.5056 26.0654 19.8652C26.6828 20.4098 28.4289 22.4004 28.5645 22.9854C28.7138 23.6348 28.3867 24.1518 28.0957 24.6055C27.798 25.0731 27.004 25.9599 27.2109 26.4766C28.385 29.0707 31.0978 31.3342 33.9814 32.3975C34.5436 32.5808 35.5273 31.8664 36.0439 31.5967C36.5485 31.3349 37.1186 31.035 37.8389 31.1729C38.4866 31.2962 40.6928 32.9083 41.2969 33.4668C41.6928 33.8324 41.913 34.2103 41.9473 34.5879C42.0068 36.0698 39.7695 37.7618 39.3623 37.9727C38.8212 38.3234 38.1914 38.5 37.4844 38.5C36.7619 38.5 35.9566 38.3149 35.0781 37.9463C30.3111 36.1555 23.0279 29.7307 21.1025 25.4736C20.3038 23.8889 20.2987 22.5818 21.0898 21.5996C21.4054 21.1388 23.2035 19.2135 24.8135 19.2744ZM33.1826 22.6709C33.2833 22.2062 33.7689 21.9023 34.2979 21.9902C36.6139 22.397 38.4009 24.011 38.8535 26.1006C38.9539 26.566 38.6157 27.0182 38.1016 27.1113C38.0396 27.1213 37.9779 27.126 37.917 27.126C37.4635 27.1258 37.0697 26.8333 36.9834 26.4307V26.4297C36.6801 25.0308 35.4837 23.9515 33.9346 23.6797C33.4204 23.5886 33.0822 23.1353 33.1826 22.6709ZM34.2285 18.5078C38.7222 18.9585 42.2112 22.1078 42.7158 26.165C42.7445 26.3937 42.6727 26.6171 42.5146 26.7969C42.3553 26.9768 42.1294 27.0903 41.876 27.1152C41.8395 27.1192 41.804 27.1211 41.7676 27.1211C41.283 27.121 40.8765 26.7921 40.8223 26.3564C40.4172 23.1049 37.6182 20.5796 34.0166 20.2178C33.4944 20.1648 33.1163 19.7392 33.1748 19.2686C33.2025 19.0357 33.3306 18.8275 33.5342 18.6836C33.7321 18.5419 33.9809 18.4759 34.2285 18.5078Z" fill="#C09CF3"/>
<defs>
<linearGradient id="paint0_linear_1149_1947" x1="31.0557" y1="5.5" x2="31.0557" y2="50.5" gradientUnits="userSpaceOnUse">
<stop stop-color="#D3CDFF"/>
<stop offset="1" stop-color="#D3CDFF" stop-opacity="0"/>
</linearGradient>
</defs>
</svg>
