<svg width="70" height="70" viewBox="0 0 70 70" fill="none" xmlns="http://www.w3.org/2000/svg">
<circle cx="35" cy="35" r="35" fill="#C09CF3"/>
<path d="M30.1671 46.4447C30.139 46.2524 29.8626 46.1082 29.5622 46.1323C29.4445 46.1311 29.3308 46.1754 29.245 46.256C29.1591 46.3366 29.1078 46.4473 29.1016 46.5649C29.1659 47.5692 29.4994 48.5377 30.0669 49.3687C30.8096 50.4803 31.9066 51.3077 33.1793 51.7165C34.4521 52.1252 35.8258 52.0912 37.0767 51.6199C38.5844 51.0595 39.8124 49.9307 40.4975 48.4755C40.5863 48.2861 40.6652 48.0923 40.7339 47.8947L40.834 47.5943L40.9101 47.3459C41.0063 47.0255 41.1184 46.7131 41.2386 46.4086C41.3534 46.1093 41.4872 45.8177 41.6391 45.5354C41.8074 45.239 41.9836 44.9546 42.1799 44.6702C42.9864 43.515 43.9881 42.5092 45.14 41.6981C45.4365 41.4938 45.7369 41.2975 46.0493 41.1053L46.5901 40.7808C46.7743 40.6687 46.9506 40.5445 47.1268 40.4203C49.2896 38.8907 50.9065 36.7096 51.7413 34.1957C52.2814 32.5325 52.4657 30.7743 52.2821 29.0353C52.0985 27.2963 51.5513 25.6154 50.6758 24.1016C49.8586 22.6927 48.769 21.4605 47.4705 20.4771C46.1721 19.4937 44.6909 18.7786 43.1132 18.3737C41.6926 18.0248 40.2231 17.9191 38.7671 18.0612C37.4539 18.2019 36.1726 18.5564 34.9738 19.1107C33.9384 19.5905 32.9789 20.2194 32.1258 20.9773C31.4204 21.613 30.7985 22.3358 30.2752 23.1283C30.2206 23.2484 30.2157 23.3852 30.2614 23.509C30.3072 23.6327 30.4 23.7334 30.5196 23.7892C30.6099 23.8617 30.7222 23.9012 30.838 23.9012C30.9538 23.9012 31.0661 23.8617 31.1564 23.7892C31.7016 23.1375 32.3168 22.5478 32.991 22.0307C34.7063 20.7261 36.7686 19.9569 38.9193 19.8197C40.1613 19.7536 41.4057 19.8889 42.6045 20.2202C45.2467 20.987 47.4813 22.7625 48.8252 25.1631C49.5266 26.4101 49.9616 27.789 50.103 29.2127C50.1505 29.5711 50.1679 29.9329 50.1551 30.2942C50.1598 30.6607 50.1437 31.0271 50.107 31.3918C50.031 32.112 49.8793 32.8223 49.6544 33.5107C48.9643 35.5856 47.6403 37.3916 45.8691 38.6739C45.7249 38.782 45.5807 38.8862 45.4284 38.9783L44.9558 39.2787C44.5953 39.495 44.2508 39.7354 43.9103 39.9797C42.5727 40.9532 41.4197 42.1578 40.5055 43.5366C40.2852 43.8771 40.0769 44.2256 39.8927 44.5741C39.6975 44.935 39.5263 45.3083 39.38 45.6916C39.2398 46.0642 39.1236 46.4367 39.0235 46.8052L38.9514 47.0736L38.8873 47.2818C38.8447 47.4178 38.7952 47.5515 38.7391 47.6824C38.29 48.7168 37.4614 49.5397 36.4238 49.9816C35.4656 50.382 34.398 50.4372 33.4036 50.1378C32.58 49.8735 31.8437 49.3902 31.2736 48.7397C30.7035 48.0891 30.321 47.2959 30.1671 46.4447Z" fill="white"/>
<path d="M35.6684 35.1689L34.9714 35.6335L33.6495 36.5188C32.8124 37.0836 32.0713 37.5963 31.4384 38.0489C31.2942 38.153 31.3183 38.4495 31.4865 38.7058C31.6547 38.9622 31.867 39.0583 32.0072 38.9862C32.7002 38.6337 33.4973 38.2091 34.3826 37.7284L35.7725 36.9714L36.5176 36.5708C36.8455 36.3788 37.1437 36.14 37.4028 35.8619C37.977 35.2309 38.3202 34.4238 38.3762 33.5725C38.4322 32.7212 38.1978 31.8761 37.7112 31.1753C37.172 30.3939 36.3632 29.839 35.44 29.6172C35.0653 29.527 34.679 29.4946 34.2944 29.521C34.3444 29.3397 34.406 29.1618 34.4787 28.9883C34.7601 28.3567 35.146 27.7771 35.6203 27.2739C36.5949 26.2344 37.912 25.5815 39.3295 25.4354C40.3382 25.3333 41.3541 25.542 42.2408 26.0337C43.1275 26.5254 43.8426 27.2765 44.2903 28.1862C44.7379 29.0959 44.8967 30.1207 44.7453 31.1233C44.5939 32.1258 44.1396 33.058 43.4433 33.795C43.2294 34.0244 42.9947 34.2336 42.7423 34.4198C42.6141 34.516 42.5019 34.5881 42.3417 34.6882L41.8771 34.9967C41.2731 35.3991 40.6952 35.8393 40.1466 36.3145C39.1553 37.1617 38.2918 38.148 37.583 39.2426C37.0192 40.1207 36.5823 41.0741 36.2852 42.0745C36.2332 42.2507 36.4334 42.475 36.7218 42.5471C37.0102 42.6193 37.2265 42.5832 37.2866 42.451C38.1825 40.5473 39.5368 38.8957 41.2282 37.6443C41.7489 37.2478 42.2919 36.8813 42.8544 36.5468L43.2991 36.2905C43.4513 36.1983 43.6516 36.0862 43.8198 35.97C44.7613 35.3409 45.5341 34.4905 46.0705 33.4932C46.6068 32.496 46.8903 31.3824 46.8961 30.2501C46.9019 29.2717 46.7028 28.3029 46.3117 27.406C45.9205 26.5092 45.3459 25.7042 44.6249 25.0428C43.8851 24.3693 43.0112 23.8599 42.0606 23.5479C41.11 23.2359 40.1042 23.1283 39.1092 23.2323C37.1587 23.4337 35.3506 24.3463 34.0301 25.7959C33.3919 26.4986 32.8821 27.308 32.524 28.1872C32.1703 29.0665 32.0131 30.0126 32.0633 30.959V30.9911C32.072 31.1424 32.1146 31.2898 32.1878 31.4225C32.2611 31.5551 32.3631 31.6697 32.4865 31.7577C32.6099 31.8457 32.7514 31.9049 32.9007 31.931C33.05 31.9571 33.2032 31.9493 33.3491 31.9084H33.3892C33.4699 31.8848 33.5468 31.8497 33.6175 31.8042C34.0284 31.5451 34.5229 31.4534 34.9994 31.5479C35.4644 31.6347 35.8817 31.8882 36.1731 32.2608C36.4475 32.626 36.5888 33.0741 36.5736 33.5306C36.5562 33.9681 36.4005 34.3888 36.129 34.7323C35.9961 34.8982 35.8411 35.0451 35.6684 35.1689Z" fill="white"/>
<path d="M16 37.2999C16.1206 37.4458 16.2547 37.5799 16.4006 37.7004C16.5184 37.8222 16.6533 37.9261 16.8011 38.0089C17.2819 37.8151 17.6857 37.4689 17.9507 37.0235C18.3298 36.424 18.5325 35.73 18.5356 35.0207C18.5345 34.3123 18.3346 33.6184 17.9587 33.0179C17.6954 32.5707 17.2931 32.2219 16.8131 32.0245C16.6447 32.1273 16.491 32.2527 16.3565 32.3971C16.2268 32.5091 16.1088 32.6339 16.004 32.7696C16.032 33.082 16.1322 33.4345 16.2043 33.819C16.2838 34.2149 16.328 34.617 16.3365 35.0207C16.3306 35.4241 16.2891 35.8263 16.2123 36.2224C16.1282 36.6309 16.032 36.9995 16 37.2999Z" fill="white"/>
<path d="M20.41 40.1118C20.41 40.1518 20.5902 40.3321 20.8346 40.5123C21.0789 40.6926 21.2351 40.7767 21.2712 40.7526C21.9712 40.1794 22.5304 39.4531 22.9055 38.6297C23.4381 37.5068 23.7145 36.2795 23.7145 35.0367C23.7145 33.7939 23.4381 32.5666 22.9055 31.4437C22.5313 30.6197 21.9737 29.8922 21.2752 29.3167C21.2392 29.2887 21.0068 29.4209 20.7625 29.6091C20.5181 29.7974 20.3619 29.9336 20.39 29.9696C20.5582 30.5184 20.8666 31.2554 21.103 32.1327C21.36 33.0796 21.4947 34.0555 21.5035 35.0367C21.4948 36.0192 21.3602 36.9965 21.103 37.9447C20.8867 38.818 20.5782 39.559 20.41 40.1118Z" fill="white"/>
<path d="M24.8182 42.872C24.7981 42.9281 24.9864 43.1163 25.2187 43.2726C25.4511 43.4288 25.6393 43.5089 25.6794 43.4688C26.6008 42.5429 27.3352 41.4481 27.8424 40.2443C28.5443 38.598 28.906 36.8268 28.906 35.0371C28.906 33.2474 28.5443 31.4762 27.8424 29.8299C27.3463 28.6219 26.6228 27.5205 25.7114 26.5854C25.6674 26.5373 25.423 26.6534 25.1707 26.8337C24.9183 27.0139 24.7701 27.1622 24.8061 27.2142C25.2743 28.2832 25.6835 29.377 26.0319 30.4908C26.4651 31.9706 26.6916 33.5032 26.7048 35.0451C26.6932 36.5839 26.4695 38.1138 26.0399 39.5914C25.6924 40.7063 25.2845 41.8014 24.8182 42.872Z" fill="white"/>
</svg>
