<svg width="70" height="70" viewBox="0 0 70 70" fill="none" xmlns="http://www.w3.org/2000/svg">
<circle cx="35" cy="35" r="35" fill="#C09CF3"/>
<path d="M19.9145 41.2135C19.9198 42.8005 20.4223 44.3459 21.3513 45.6326C22.2803 46.9193 23.589 47.8826 25.0937 48.3871C25.3935 49.3981 26.002 50.29 26.8341 50.9378C27.6661 51.5857 28.6799 51.9571 29.7335 52C29.7803 52 29.8267 52 29.873 52C30.7632 52.0013 31.6375 51.7639 32.4048 51.3125C33.172 50.861 33.8042 50.2122 34.2355 49.4334C34.6708 50.1758 35.2935 50.7908 36.0411 51.2169C36.7888 51.6431 37.6353 51.8654 38.4959 51.8617C39.6097 51.8595 40.6877 51.4684 41.5438 50.7559C42.3998 50.0434 42.9801 49.0543 43.1844 47.9594C44.0871 47.752 44.9389 47.3653 45.6893 46.8224C46.4396 46.2795 47.0733 45.5915 47.5528 44.799C48.0322 44.0066 48.3475 43.1259 48.4801 42.2093C48.6127 41.2926 48.5598 40.3587 48.3246 39.4629C49.0862 38.7043 49.6708 37.7869 50.0366 36.7762C50.4024 35.7654 50.5404 34.6864 50.4407 33.6161C50.341 32.5459 50.0062 31.5108 49.46 30.585C48.9139 29.6592 48.17 28.8655 47.2814 28.2606C47.7157 27.5496 47.9452 26.7324 47.9444 25.8992C47.9431 24.6862 47.4605 23.5232 46.6027 22.6657C45.7448 21.8081 44.5817 21.3259 43.3687 21.325C43.2849 21.325 43.2022 21.3316 43.1195 21.3362C42.8034 20.4846 42.2569 19.7375 41.5411 19.1782C40.8253 18.6189 39.9682 18.2694 39.0653 18.1687C38.1625 18.068 37.2495 18.22 36.428 18.6078C35.6065 18.9955 34.9088 19.6039 34.4128 20.3649C34.2933 20.1338 34.1451 19.9188 33.9716 19.7251C33.4593 19.164 32.8324 18.7197 32.1333 18.4224C31.4341 18.1251 30.6792 17.9816 29.9198 18.0019C27.6789 18.0641 25.6273 19.7792 24.9956 21.9119C24.2175 22.0036 23.47 22.2692 22.8085 22.6889C22.147 23.1086 21.5883 23.6717 21.1739 24.3366C20.7595 25.0015 20.4999 25.751 20.4144 26.5298C20.3289 27.3086 20.4196 28.0966 20.6799 28.8355C19.8922 29.4493 19.246 30.2255 18.7851 31.1113C18.3242 31.9972 18.0595 32.9719 18.0089 33.9692C17.9584 34.9664 18.1232 35.9629 18.4921 36.8908C18.8611 37.8187 19.4255 38.6563 20.1471 39.3466C19.9915 39.9566 19.9134 40.5839 19.9145 41.2135ZM38.5183 19.2974C39.2487 19.2976 39.9632 19.511 40.574 19.9115C41.1849 20.3119 41.6655 20.882 41.9569 21.5518C41.2685 21.7754 40.6431 22.1597 40.1325 22.6729C39.622 23.186 39.2408 23.8133 39.0206 24.5028C38.9139 24.4932 38.8062 24.4878 38.6972 24.4878C38.1028 24.4877 37.5174 24.6336 36.9926 24.9128C36.857 24.9852 36.7558 25.1086 36.7111 25.2556C36.6665 25.4027 36.6821 25.5615 36.7546 25.6971C36.827 25.8327 36.9503 25.9339 37.0974 25.9785C37.2445 26.0232 37.4033 26.0075 37.5389 25.9351C37.8899 25.7472 38.2815 25.6475 38.6796 25.6447C39.0778 25.6419 39.4707 25.7361 39.8244 25.919C40.1781 26.1019 40.4819 26.3681 40.7098 26.6947C40.9376 27.0213 41.0825 27.3984 41.1321 27.7935C41.1497 27.9334 41.2178 28.062 41.3235 28.1553C41.4291 28.2486 41.5652 28.3002 41.7062 28.3004C41.7307 28.3003 41.7552 28.2989 41.7796 28.2962C41.9321 28.2769 42.0706 28.1978 42.1648 28.0764C42.259 27.955 42.3011 27.8011 42.2819 27.6486C42.2027 27.0287 41.9643 26.4399 41.5899 25.9396C41.2154 25.4393 40.7177 25.0445 40.1453 24.7938C40.2997 24.3387 40.5486 23.9214 40.8756 23.5693C41.2026 23.2171 41.6004 22.9381 42.0428 22.7504C42.4852 22.5627 42.9622 22.4706 43.4427 22.4802C43.9231 22.4898 44.3962 22.6008 44.8307 22.8059C45.2653 23.0111 45.6516 23.3058 45.9643 23.6707C46.277 24.0356 46.5091 24.4624 46.6453 24.9233C46.7815 25.3841 46.8188 25.8685 46.7547 26.3448C46.6906 26.8211 46.5266 27.2784 46.2734 27.6869C45.97 27.5399 45.6567 27.4144 45.3357 27.3113C45.1891 27.266 45.0305 27.2807 44.8947 27.3521C44.7589 27.4236 44.657 27.546 44.6113 27.6925C44.5656 27.839 44.5799 27.9976 44.651 28.1336C44.7221 28.2696 44.8443 28.3718 44.9907 28.4179C45.4024 28.5473 45.7991 28.7204 46.1741 28.9341C47.0243 29.4129 47.7485 30.087 48.287 30.9006C48.8256 31.7142 49.1632 32.6442 49.2719 33.6139C49.3807 34.5835 49.2575 35.5652 48.9125 36.4779C48.5675 37.3906 48.0106 38.2083 47.2876 38.8636C47.2853 38.8655 47.2845 38.8686 47.2822 38.871C47.2296 38.9199 47.1866 38.9782 47.1555 39.0429C47.1528 39.0491 47.1508 39.0552 47.1481 39.0618C47.1207 39.1239 47.1043 39.1903 47.0998 39.2581C47.0998 39.2643 47.0998 39.2701 47.0998 39.2762C47.0973 39.3416 47.1058 39.4069 47.125 39.4694C47.3563 40.2017 47.4392 40.9728 47.3688 41.7376C47.2984 42.5023 47.0762 43.2453 46.7151 43.9231C46.354 44.6009 45.8613 45.1999 45.2659 45.6849C44.6705 46.1699 43.9842 46.5312 43.2474 46.7478C43.1723 45.6215 42.6971 44.5592 41.9075 43.7527C42.487 43.0093 42.8017 42.0938 42.8019 41.1513C42.8019 40.9976 42.7409 40.8502 42.6322 40.7415C42.5235 40.6328 42.3761 40.5717 42.2224 40.5717C42.0687 40.5717 41.9213 40.6328 41.8126 40.7415C41.7039 40.8502 41.6428 40.9976 41.6428 41.1513C41.6424 41.649 41.5222 42.1394 41.2925 42.5809C41.0627 43.0225 40.7302 43.4023 40.3228 43.6883C39.9154 43.9743 39.4453 44.1582 38.9519 44.2243C38.4586 44.2904 37.9566 44.2369 37.4883 44.0683C37.4166 44.0425 37.3406 44.031 37.2646 44.0345C37.1885 44.038 37.1139 44.0565 37.045 44.0889C36.9761 44.1212 36.9142 44.1668 36.8629 44.2231C36.8116 44.2794 36.7719 44.3452 36.7461 44.4168C36.7202 44.4884 36.7087 44.5645 36.7122 44.6405C36.7158 44.7166 36.7342 44.7912 36.7666 44.8601C36.799 44.929 36.8446 44.9909 36.9008 45.0422C36.9571 45.0935 37.0229 45.1332 37.0946 45.159C37.7562 45.3977 38.4667 45.4682 39.1623 45.3644C39.8579 45.2605 40.5169 44.9855 41.0799 44.564C41.5762 45.073 41.9115 45.7171 42.0437 46.4156C42.1759 47.1141 42.0992 47.8361 41.8231 48.4913C41.5471 49.1464 41.084 49.7057 40.4918 50.099C39.8996 50.4923 39.2045 50.7023 38.4936 50.7026C37.5267 50.7082 36.5959 50.3361 35.8994 49.6655C35.2029 48.9949 34.7958 48.0788 34.7648 47.1125V40.9693C34.8956 40.7144 35.0996 40.5043 35.3506 40.3661C35.6015 40.2278 35.888 40.1676 36.1734 40.1932C36.4588 40.2188 36.7301 40.3291 36.9524 40.5098C37.1747 40.6905 37.3381 40.9335 37.4214 41.2077C37.4575 41.3266 37.5309 41.4307 37.6308 41.5048C37.7306 41.5788 37.8516 41.6188 37.9759 41.6188C38.0331 41.6188 38.09 41.6102 38.1447 41.5933C38.2175 41.5712 38.2853 41.535 38.3441 41.4867C38.403 41.4384 38.4517 41.379 38.4876 41.3119C38.5235 41.2447 38.5458 41.1712 38.5532 41.0954C38.5607 41.0197 38.5532 40.9432 38.5311 40.8704C38.4187 40.4972 38.2236 40.1543 37.9603 39.867C37.6969 39.5798 37.3721 39.3558 37.0101 39.2116C36.6481 39.0674 36.2582 39.0068 35.8695 39.0343C35.4807 39.0618 35.1033 39.1768 34.7652 39.3705V36.9055C35.0055 36.9248 35.2613 36.9364 35.529 36.9364C36.9772 36.9722 38.4003 36.5534 39.5982 35.7387C39.9766 36.1124 40.4288 36.4031 40.9258 36.5923C41.4229 36.7814 41.954 36.8648 42.4851 36.8371C43.0162 36.8095 43.5357 36.6714 44.0105 36.4316C44.4852 36.1918 44.9047 35.8557 45.2422 35.4447C45.3401 35.3261 45.3868 35.1735 45.3722 35.0205C45.3575 34.8675 45.2827 34.7265 45.1642 34.6287C45.0456 34.5308 44.893 34.4841 44.74 34.4987C44.587 34.5133 44.446 34.5882 44.3482 34.7067C44.1173 34.988 43.8314 35.2191 43.5081 35.3858C43.1847 35.5526 42.8306 35.6514 42.4676 35.6764C42.1046 35.7013 41.7404 35.6518 41.3972 35.5308C41.0541 35.4098 40.7393 35.22 40.4722 34.9729C40.7222 34.7073 40.9494 34.421 41.1514 34.1171C41.2365 33.989 41.2673 33.8324 41.237 33.6816C41.2066 33.5308 41.1176 33.3983 40.9895 33.3131C40.8614 33.228 40.7047 33.1972 40.554 33.2275C40.4032 33.2579 40.2706 33.3469 40.1855 33.475C38.7239 35.6719 36.3311 35.8832 34.7628 35.7414V29.6998C35.6757 30.4905 36.8188 30.9663 38.023 31.0567C38.0361 31.0567 38.0493 31.0567 38.0616 31.0567C38.2153 31.0619 38.3648 31.0057 38.4771 30.9007C38.5894 30.7956 38.6554 30.6502 38.6605 30.4965C38.6656 30.3428 38.6095 30.1934 38.5044 30.0811C38.3993 29.9687 38.254 29.9028 38.1003 29.8976C37.4475 29.8391 36.8139 29.646 36.2394 29.3305C35.6649 29.0149 35.1621 28.5838 34.7625 28.0643V23.0945C34.7625 23.0783 34.7675 23.0625 34.7675 23.0459C34.7686 22.0516 35.1642 21.0985 35.8675 20.3957C36.5707 19.6929 37.5241 19.2979 38.5183 19.2974ZM19.1588 34.3223C19.1582 33.3734 19.3909 32.4389 19.8363 31.601C20.2817 30.7631 20.9262 30.0475 21.713 29.5171C21.8273 29.4398 21.9104 29.3243 21.9471 29.1913C21.9839 29.0583 21.972 28.9165 21.9135 28.7915C21.6661 28.2591 21.5393 27.6786 21.5422 27.0915C21.5387 26.1543 21.8613 25.2452 22.4546 24.5197C23.0479 23.7943 23.8751 23.2979 24.7943 23.1154V23.1266C24.7619 23.7281 24.8489 24.3301 25.0502 24.8978C25.2515 25.4656 25.5632 25.9879 25.9673 26.4347C25.485 26.8396 25.1225 27.3686 24.9191 27.9645C24.7156 28.5605 24.6789 29.2007 24.8128 29.816C24.9468 30.4313 25.2464 30.9983 25.6792 31.4557C26.112 31.9131 26.6616 32.2436 27.2685 32.4113C27.4149 32.4472 27.5696 32.4247 27.6996 32.3484C27.8296 32.2722 27.9249 32.1483 27.9651 32.0031C28.0053 31.8578 27.9873 31.7026 27.915 31.5703C27.8427 31.4381 27.7216 31.3392 27.5776 31.2947C27.1573 31.1775 26.779 30.9433 26.4866 30.6194C26.1943 30.2955 26 29.8951 25.9264 29.4651C25.8528 29.035 25.9029 28.5928 26.0709 28.1901C26.2389 27.7874 26.5178 27.4407 26.8752 27.1904C27.7939 27.7465 28.8511 28.0315 29.9248 28.0126C30.0785 28.0126 30.2259 27.9515 30.3346 27.8428C30.4433 27.7341 30.5043 27.5867 30.5043 27.433C30.5043 27.2793 30.4433 27.1319 30.3346 27.0232C30.2259 26.9145 30.0785 26.8535 29.9248 26.8535C29.3656 26.8768 28.8074 26.7878 28.2832 26.5918C27.759 26.3959 27.2793 26.0969 26.8725 25.7125C26.5535 25.3726 26.3073 24.971 26.149 24.5326C25.9907 24.0941 25.9236 23.6279 25.9518 23.1625C26.0279 22.1266 26.4737 21.1525 27.2078 20.4177C27.9419 19.6828 28.9156 19.2362 29.9515 19.159C30.5449 19.1406 31.1352 19.2515 31.6815 19.484C32.2277 19.7165 32.7169 20.0651 33.115 20.5055C33.4111 20.8236 33.5851 21.2363 33.6061 21.6704V21.7002C33.6185 22.0367 33.5461 22.371 33.3955 22.6722C33.2503 22.98 33.0113 23.2339 32.7128 23.3974C32.4143 23.5608 32.0717 23.6255 31.7341 23.5821C31.5812 23.573 31.4319 23.5314 31.2963 23.4602C31.1606 23.389 31.0416 23.2898 30.9471 23.1691C30.8536 23.0484 30.7162 22.9695 30.5649 22.9495C30.4135 22.9295 30.2604 22.97 30.1387 23.0623C30.0171 23.1546 29.9368 23.2911 29.9152 23.4423C29.8937 23.5935 29.9327 23.747 30.0237 23.8696C30.2128 24.1149 30.4506 24.3184 30.7223 24.4671C30.9939 24.6159 31.2935 24.7067 31.602 24.7339C32.3156 24.8222 33.0355 24.6281 33.608 24.193V32.0207L32.4659 31.8105C32.1501 31.7513 31.824 31.7809 31.5239 31.8958C31.2238 32.0107 30.9614 32.2065 30.7659 32.4616C29.7552 33.7906 28.6325 35.0307 27.4103 36.1683L23.9331 33.3174C23.8745 33.2665 23.8064 33.2279 23.7327 33.2039C23.659 33.1798 23.5812 33.1708 23.504 33.1774C23.4267 33.184 23.3516 33.2059 23.283 33.2421C23.2144 33.2782 23.1537 33.3277 23.1046 33.3877C23.0555 33.4476 23.0189 33.5169 22.997 33.5912C22.9751 33.6656 22.9684 33.7436 22.9772 33.8206C22.986 33.8977 23.0101 33.9721 23.0482 34.0397C23.0863 34.1072 23.1376 34.1664 23.199 34.2137L26.5024 36.9233C25.703 37.5299 24.9546 37.9255 24.3434 37.9665C24.1897 37.9716 24.0443 38.0376 23.9392 38.1499C23.8342 38.2622 23.778 38.4116 23.7832 38.5653C23.7883 38.719 23.8542 38.8644 23.9666 38.9695C24.0789 39.0745 24.2283 39.1307 24.382 39.1256C24.3952 39.1256 24.4083 39.1256 24.4207 39.1256C26.8702 38.9602 30.0229 35.3245 31.682 33.1717C31.748 33.0863 31.8362 33.0208 31.937 32.9822C32.0378 32.9436 32.1473 32.9335 32.2534 32.953L33.6057 33.2014V45.319C33.5717 45.3012 33.5396 45.2803 33.5037 45.2649C32.7348 44.9172 31.5089 44.9647 30.3741 46.1493C30.2679 46.2604 30.2101 46.4091 30.2135 46.5628C30.2169 46.7165 30.2812 46.8625 30.3923 46.9688C30.5034 47.075 30.6521 47.1328 30.8058 47.1294C30.9595 47.126 31.1055 47.0617 31.2118 46.9506C31.8188 46.3158 32.4964 46.0805 33.0238 46.3201C33.2078 46.4275 33.3591 46.5831 33.4612 46.7701C33.5633 46.9572 33.6125 47.1685 33.6034 47.3814V47.6101C33.5942 47.8525 33.5486 48.0922 33.4681 48.321C33.1958 49.078 32.6909 49.7295 32.0258 50.1821C31.3606 50.6347 30.5694 50.8653 29.7652 50.8409C28.9188 50.8068 28.1068 50.4967 27.453 49.9579C26.7993 49.4192 26.3398 48.6813 26.1446 47.857C26.0893 47.6178 26.058 47.3737 26.0511 47.1283C26.0125 45.7274 26.7547 44.8229 27.7662 43.8079L27.7697 43.8044C27.9091 43.6646 28.0532 43.5232 28.2012 43.3775C28.6409 42.9456 29.0953 42.4989 29.5257 41.9939C29.6253 41.8768 29.6744 41.7249 29.662 41.5716C29.6497 41.4183 29.5769 41.2762 29.4598 41.1766C29.3427 41.0769 29.1908 41.0279 29.0375 41.0402C28.8842 41.0526 28.7421 41.1253 28.6425 41.2425C28.2464 41.7061 27.8102 42.1365 27.3887 42.5507L27.2276 42.7095L25.3765 41.7977C25.2388 41.7307 25.0801 41.7209 24.9352 41.7706C24.7903 41.8203 24.6709 41.9253 24.6032 42.0627C24.5355 42.2001 24.5249 42.3587 24.5738 42.5039C24.6228 42.649 24.7271 42.7689 24.8642 42.8374L26.3818 43.5854C25.5434 44.5231 24.8793 45.5918 24.8939 47.0735C23.7604 46.5694 22.7967 45.7483 22.1189 44.7092C21.4412 43.6701 21.0783 42.4572 21.074 41.2166C21.0722 40.5785 21.1675 39.9439 21.3568 39.3346C21.3907 39.2262 21.3921 39.1102 21.3607 39.0011C21.3293 38.892 21.2666 38.7944 21.1802 38.7207C20.5449 38.1776 20.0352 37.503 19.6862 36.7436C19.3371 35.9842 19.1572 35.1581 19.1588 34.3223Z" fill="white" stroke="white"/>
</svg>
