<svg width="70" height="70" viewBox="0 0 70 70" fill="none" xmlns="http://www.w3.org/2000/svg">
<circle cx="35" cy="35" r="35" fill="#C09CF3"/>
<path d="M47.8475 38.8064C49.7811 35.6301 50.3391 31.7463 49.3778 28.1517C47.7782 22.1742 42.3403 18 36.1525 18H35.2706C27.8448 18 21.8034 24.0414 21.8034 31.4672V33.2538L19.2992 37.1023C19.007 37.5517 18.924 38.1049 19.0715 38.62C19.2197 39.1345 19.5824 39.5593 20.0682 39.7845L21.8667 40.6211L22.5783 44.6763C22.9404 46.7377 24.7222 48.2339 26.8153 48.2339H30.1123C30.5443 48.2339 30.9213 48.541 31.0086 48.9635L31.5409 51.5238C31.5989 51.801 31.8433 52 32.1259 52H44.8235C45.0034 52 45.1737 51.9187 45.2866 51.7795C45.4001 51.6403 45.445 51.4569 45.4085 51.2812L44.5959 47.3693C44.2744 45.8224 44.5493 44.227 45.3709 42.8766L47.8475 38.8064ZM44.3491 42.257C43.3698 43.8667 43.0418 45.7692 43.4248 47.6131L44.088 50.8062H32.6117L32.1785 48.7221C31.9759 47.7475 31.1066 47.0407 30.1117 47.0407H26.8147C25.3036 47.0407 24.0159 45.9598 23.7554 44.4714L22.9894 40.109C22.9554 39.9166 22.8293 39.7529 22.653 39.671L20.5719 38.7025C20.398 38.6218 20.2731 38.476 20.2206 38.2914C20.1674 38.1061 20.1961 37.9161 20.3006 37.7554L22.9022 33.7587C22.9649 33.6613 22.999 33.5478 22.999 33.4324V31.4684C22.999 24.7017 28.5044 19.1962 35.2712 19.1962H36.1531C41.8002 19.1962 46.7643 23.0065 48.224 28.4624C49.1011 31.7427 48.592 35.2871 46.827 38.1868L44.3491 42.257ZM28.9101 33.053C29.1127 33.3135 29.0661 33.6888 28.8056 33.8913C28.2361 34.3347 27.5006 34.5785 26.7352 34.5785C25.9698 34.5785 25.2342 34.3347 24.6648 33.8913C24.4043 33.6888 24.3577 33.3129 24.5603 33.053C24.7628 32.7931 25.138 32.7447 25.3986 32.9485C26.1198 33.5095 27.35 33.5095 28.0712 32.9485C28.3323 32.7453 28.707 32.7931 28.9101 33.053ZM47.0684 28.7695C45.7485 23.8359 41.2594 20.39 36.1519 20.39H35.27C31.5493 20.39 28.0981 22.2513 26.0379 25.3697C25.3287 26.4422 25.208 27.7854 25.714 28.9625C26.2154 30.1276 27.2616 30.9552 28.5122 31.1756L32.6469 31.9052L32.9385 32.7644C33.389 34.0921 34.3062 35.1616 35.4684 35.8237L37.6977 45.6377C37.7598 45.9096 38.0018 46.1026 38.2808 46.1026H40.9397C41.1142 46.1026 41.2797 46.0261 41.3939 45.8935C41.5074 45.7602 41.557 45.5846 41.5307 45.4125L40.6057 39.4995C42.1844 39.2151 44.3139 38.626 44.2655 36.1385C44.9168 35.8631 45.5137 35.4598 46.0108 34.9459C46.977 33.9469 47.4848 32.6449 47.4394 31.279C47.4108 30.4282 47.2865 29.5839 47.0684 28.7695ZM39.9443 38.4001L39.8254 38.4198C39.5021 38.4742 39.2835 38.7783 39.3336 39.1016L40.2419 44.907H38.7582L36.8205 36.374C37.2758 36.4929 37.7502 36.5586 38.2366 36.5586H42.2035C42.4909 36.5586 42.7753 36.5287 43.0567 36.4821C42.9103 37.7948 41.6962 38.1079 39.9443 38.4001ZM45.1516 34.1148C44.3838 34.9089 43.3089 35.3642 42.2023 35.3642H38.2354C36.3503 35.3642 34.6761 34.165 34.0696 32.3796L33.6794 31.2324C33.6149 30.9229 33.692 30.6068 33.8945 30.3636C34.1013 30.1163 34.3952 29.9866 34.7257 29.995L39.6593 30.1939C39.9903 30.2071 40.2675 29.9508 40.2801 29.6209C40.2932 29.2911 40.0369 29.0133 39.7071 29.0001L34.7735 28.8012C34.0839 28.7755 33.4231 29.0629 32.9774 29.5982C32.7168 29.9101 32.5633 30.28 32.5011 30.6666L28.7195 29.9998C27.8537 29.8468 27.1588 29.2971 26.8123 28.491C26.4657 27.685 26.5488 26.7648 27.0345 26.0293C28.8731 23.2473 31.952 21.5856 35.27 21.5856H36.1519C40.7193 21.5856 44.7333 24.667 45.914 29.0796C46.1082 29.8056 46.2199 30.5596 46.245 31.3196C46.2791 32.3581 45.8907 33.3506 45.1516 34.1148Z" fill="white" stroke="white" stroke-width="0.8"/>
</svg>
