<svg width="70" height="70" viewBox="0 0 70 70" fill="none" xmlns="http://www.w3.org/2000/svg">
<circle cx="35" cy="35" r="35" fill="#C09CF3"/>
<path d="M31.1712 37.1317C32.3133 37.1317 33.2432 36.2071 33.2432 35.0681C33.2432 33.9307 32.3148 33.006 31.1712 33.006C30.0291 33.006 29.1006 33.9307 29.1006 35.0681C29.1006 36.2056 30.0291 37.1317 31.1712 37.1317ZM31.1712 34.1802C31.6634 34.1802 32.0643 34.5794 32.0643 35.0681C32.0643 35.5583 31.6634 35.9576 31.1712 35.9576C30.679 35.9576 30.2796 35.5583 30.2796 35.0681C30.2796 34.5779 30.6805 34.1802 31.1712 34.1802ZM47.4779 32.4043C47.4779 32.2751 47.3527 19.468 35.0427 19.0176C34.9602 19.0102 32.9928 18.862 30.5657 19.5767C29.9379 19.7617 29.4295 20.1917 29.1185 20.7421C28.2152 20.6482 26.2139 20.6291 24.7282 22.0175C24.4394 22.2582 22.5796 24.0223 24.0754 28.3225C24.183 28.6322 24.351 29.0256 24.5602 29.4571C24.3068 30.3787 24.1285 31.3724 24.0503 32.4526C24.0503 32.4658 24.0489 32.4805 24.0489 32.4937V47.2116C24.0489 49.0682 25.0981 52.6626 29.0537 52.9824C29.064 52.9839 29.2365 53 29.5238 53C31.0491 53 35.8167 52.5171 36.7629 46.592C36.7673 46.5612 36.7702 46.5304 36.7702 46.4995C36.7702 46.4878 36.7864 45.2682 38.2675 44.4521C38.3073 44.4257 38.4783 44.3068 38.7377 44.1058L39.1473 44.5989C39.5791 45.1185 40.2143 45.4252 40.8893 45.4414H40.9467C41.5967 45.4414 42.2171 45.1713 42.6547 44.6928C45.0127 42.1244 47.7641 37.9035 47.4796 32.4025L47.4779 32.4043ZM25.4741 22.9258C25.4918 22.9126 25.508 22.8994 25.5227 22.8848C26.5617 21.9058 28.0148 21.8442 28.7973 21.8955C28.7973 21.919 28.7914 21.941 28.7914 21.9631V23.5907C28.3847 23.8358 27.9838 24.1206 27.5933 24.4537C26.5499 25.3446 25.732 26.4585 25.141 27.7853C23.9562 24.2189 25.4181 22.9717 25.4741 22.9258ZM37.6512 43.4529C35.7884 44.4744 35.6086 46.1094 35.591 46.4425C34.6301 52.3234 29.4056 51.8376 29.1657 51.8128C25.2911 51.4987 25.2277 47.3833 25.2266 47.2101V32.5144C25.2649 31.9933 25.3327 31.5017 25.4153 31.0217C25.9782 31.9419 26.6399 32.8328 27.2898 33.3891C27.0643 33.9043 26.9376 34.4708 26.9376 35.0681C26.9376 36.662 27.8307 38.0519 29.1452 38.7696C28.3391 39.0279 27.7983 39.7383 27.7983 40.5441V46.0477C27.7983 46.7566 28.1549 47.4126 28.7517 47.8031C29.0966 48.0291 29.4915 48.1436 29.8894 48.1436C30.1665 48.1436 30.4421 48.0878 30.7044 47.9748C31.4015 47.6739 32.0603 47.1617 32.663 46.4513C33.4514 45.5208 33.9392 44.3731 34.0718 43.1314C34.3283 40.7215 35.6266 40.2108 35.6723 40.1946C35.6959 40.1873 35.7195 40.177 35.7401 40.1667C41.5036 37.3914 40.6816 32.0064 40.677 31.9816C40.6711 31.9258 39.9814 26.4896 34.7483 26.2972C32.4891 26.1519 28.1253 27.1309 27.779 31.9654L27.7804 32.0256C27.7819 32.1107 27.8011 32.1929 27.8158 32.2751C27.1335 31.5882 26.3701 30.4067 25.816 29.3368C26.3406 27.6871 27.1865 26.353 28.3522 25.3533C31.0285 23.0594 34.524 23.303 34.5859 23.3089C43.154 23.623 43.2631 32.303 43.2631 32.702C43.605 39.3343 37.6659 43.441 37.6527 43.4527L37.6512 43.4529ZM31.1712 32.0271C32.8556 32.0271 34.2262 33.392 34.2262 35.0696C34.2262 36.7471 32.8557 38.1121 31.1712 38.1121C29.4867 38.1121 28.1162 36.7471 28.1162 35.0696C28.1162 33.392 29.4867 32.0271 31.1712 32.0271ZM30.2708 39.5491C30.3666 39.8896 30.3253 40.4576 30.032 40.9595C29.7344 41.4717 29.2923 41.799 28.9769 41.8621V40.5427C28.9769 40.2433 29.1876 39.9835 29.5133 39.8822C29.7786 39.8 30.0306 39.6885 30.2708 39.5476L30.2708 39.5491ZM28.9769 43.0422C29.7727 42.9879 30.5803 42.3553 31.0518 41.5495C31.4483 40.87 31.6015 39.985 31.4173 39.2717C33.6367 39.144 35.4051 37.3108 35.4051 35.0681C35.4051 32.7433 33.5054 30.8513 31.171 30.8513C30.3914 30.8513 29.6619 31.0656 29.0341 31.434C29.7326 27.2247 34.4618 27.4565 34.6856 27.4682C38.9166 27.6238 39.481 31.9329 39.5074 32.1415C39.5369 32.3264 40.175 36.7133 35.2469 39.0984C34.9316 39.2246 33.2132 40.0406 32.8964 43.0067C32.7888 44.0135 32.3953 44.9425 31.7601 45.6925C31.2768 46.2634 30.7625 46.6686 30.2348 46.896C29.9593 47.0149 29.6542 46.987 29.3978 46.8197C29.134 46.6465 28.9763 46.3574 28.9763 46.0462L28.9769 43.0422ZM41.7833 43.9022C41.5593 44.1473 41.2512 44.2838 40.9167 44.2692C40.5822 44.2603 40.2683 44.1092 40.0531 43.8509L39.6346 43.3475C41.5386 41.6112 44.71 37.9055 44.4387 32.6746C44.4387 32.5733 44.34 22.4917 34.6531 22.1381C34.5308 22.1279 32.3453 21.9679 29.9697 22.9864V21.9635C29.9697 21.3822 30.3514 20.8642 30.8981 20.7042C33.1057 20.0554 34.9289 20.1875 34.973 20.1905C39.6594 20.3622 42.9839 22.4448 44.8571 26.3824C46.2807 29.375 46.2984 32.3734 46.2984 32.435C46.5636 37.5603 43.989 41.5009 41.7828 43.9033L41.7833 43.9022Z" fill="white" stroke="white" stroke-width="0.6"/>
</svg>
