<svg width="48" height="48" viewBox="0 0 48 48" fill="none" xmlns="http://www.w3.org/2000/svg">
<rect width="48" height="48" rx="24" fill="#EEECFB"/>
<path d="M27.1496 17.35C26.9358 17.5681 26.8161 17.8613 26.8161 18.1667C26.8161 18.4721 26.9358 18.7653 27.1496 18.9834L29.0163 20.85C29.2343 21.0638 29.5275 21.1835 29.8329 21.1835C30.1383 21.1835 30.4315 21.0638 30.6496 20.85L35.0479 16.4517C35.6346 17.7481 35.8122 19.1925 35.5571 20.5924C35.3021 21.9922 34.6264 23.2812 33.6202 24.2873C32.6141 25.2935 31.3252 25.9692 29.9253 26.2242C28.5254 26.4793 27.081 26.3017 25.7846 25.715L17.7229 33.7767C17.2588 34.2408 16.6293 34.5016 15.9729 34.5016C15.3165 34.5016 14.687 34.2408 14.2229 33.7767C13.7588 33.3126 13.498 32.6831 13.498 32.0267C13.498 31.3703 13.7588 30.7408 14.2229 30.2767L22.2846 22.215C21.6979 20.9186 21.5203 19.4742 21.7754 18.0743C22.0305 16.6745 22.7061 15.3855 23.7123 14.3794C24.7184 13.3732 26.0074 12.6975 27.4072 12.4425C28.8071 12.1874 30.2515 12.365 31.5479 12.9517L27.1613 17.3384L27.1496 17.35Z" stroke="#6C3FC5" stroke-width="2.04167" stroke-linecap="round" stroke-linejoin="round"/>
</svg>
