<svg width="48" height="48" viewBox="0 0 48 48" fill="none" xmlns="http://www.w3.org/2000/svg">
<rect width="48" height="48" rx="24" fill="#EEECFB"/>
<path d="M24 18.1666V34.5" stroke="#6C3FC5" stroke-width="2.04167" stroke-linecap="round" stroke-linejoin="round"/>
<path d="M13.4997 31C13.1903 31 12.8935 30.8771 12.6747 30.6583C12.4559 30.4395 12.333 30.1428 12.333 29.8333V14.6667C12.333 14.3572 12.4559 14.0605 12.6747 13.8417C12.8935 13.6229 13.1903 13.5 13.4997 13.5H19.333C20.5707 13.5 21.7577 13.9917 22.6328 14.8668C23.508 15.742 23.9997 16.929 23.9997 18.1667C23.9997 16.929 24.4913 15.742 25.3665 14.8668C26.2417 13.9917 27.4287 13.5 28.6663 13.5H34.4997C34.8091 13.5 35.1058 13.6229 35.3246 13.8417C35.5434 14.0605 35.6663 14.3572 35.6663 14.6667V29.8333C35.6663 30.1428 35.5434 30.4395 35.3246 30.6583C35.1058 30.8771 34.8091 31 34.4997 31H27.4997C26.5714 31 25.6812 31.3687 25.0248 32.0251C24.3684 32.6815 23.9997 33.5717 23.9997 34.5C23.9997 33.5717 23.6309 32.6815 22.9745 32.0251C22.3182 31.3687 21.4279 31 20.4997 31H13.4997Z" stroke="#6C3FC5" stroke-width="2.04167" stroke-linecap="round" stroke-linejoin="round"/>
</svg>
