<svg width="48" height="48" viewBox="0 0 48 48" fill="none" xmlns="http://www.w3.org/2000/svg">
<rect width="48" height="48" rx="24" fill="#EEECFB"/>
<path d="M23.4457 12.6775C23.4968 12.5742 23.5758 12.4873 23.6737 12.4265C23.7716 12.3657 23.8846 12.3335 23.9998 12.3335C24.1151 12.3335 24.228 12.3657 24.326 12.4265C24.4239 12.4873 24.5029 12.5742 24.554 12.6775L27.249 18.1364C27.4265 18.4957 27.6886 18.8065 28.0127 19.0422C28.3368 19.278 28.7133 19.4315 29.1098 19.4897L35.1368 20.3717C35.251 20.3883 35.3583 20.4364 35.4466 20.5108C35.5348 20.5851 35.6005 20.6827 35.6362 20.7924C35.6719 20.9021 35.6761 21.0197 35.6485 21.1317C35.6209 21.2437 35.5624 21.3458 35.4798 21.4264L31.1212 25.6707C30.8337 25.9508 30.6186 26.2966 30.4945 26.6783C30.3703 27.0599 30.3407 27.4661 30.4083 27.8617L31.4373 33.8584C31.4575 33.9725 31.4451 34.09 31.4017 34.1975C31.3583 34.305 31.2856 34.3981 31.1918 34.4662C31.098 34.5343 30.987 34.5747 30.8713 34.5827C30.7557 34.5908 30.6401 34.5662 30.5378 34.5117L25.1502 31.679C24.7952 31.4926 24.4002 31.3952 23.9992 31.3952C23.5983 31.3952 23.2033 31.4926 22.8483 31.679L17.4618 34.5117C17.3595 34.5659 17.2441 34.5902 17.1287 34.582C17.0132 34.5738 16.9024 34.5334 16.8088 34.4653C16.7152 34.3972 16.6426 34.3043 16.5993 34.197C16.5559 34.0897 16.5435 33.9724 16.5635 33.8584L17.5913 27.8629C17.6592 27.4671 17.6298 27.0607 17.5056 26.6788C17.3814 26.2968 17.1662 25.9509 16.8785 25.6707L12.5198 21.4275C12.4365 21.3471 12.3775 21.2448 12.3494 21.1325C12.3214 21.0201 12.3255 20.9021 12.3612 20.7919C12.397 20.6818 12.463 20.5839 12.5516 20.5094C12.6403 20.4349 12.7481 20.3868 12.8628 20.3705L18.8887 19.4897C19.2856 19.432 19.6626 19.2786 19.9872 19.0429C20.3117 18.8071 20.5741 18.496 20.7518 18.1364L23.4457 12.6775Z" stroke="#6C3FC5" stroke-width="2.04167" stroke-linecap="round" stroke-linejoin="round"/>
</svg>
