<svg width="48" height="48" viewBox="0 0 48 48" fill="none" xmlns="http://www.w3.org/2000/svg">
<rect width="48" height="48" rx="24" fill="#EEECFB"/>
<path d="M35.4344 21.6667C35.9672 24.2815 35.5875 27 34.3585 29.3687C33.1296 31.7375 31.1257 33.6134 28.6811 34.6835C26.2365 35.7537 23.4989 35.9534 20.9249 35.2494C18.3508 34.5454 16.0959 32.9803 14.5362 30.815C12.9765 28.6497 12.2062 26.0151 12.3538 23.3506C12.5014 20.6861 13.5581 18.1528 15.3475 16.173C17.1369 14.1933 19.5509 12.8868 22.1869 12.4715C24.823 12.0562 27.5218 12.5572 29.8332 13.8908" stroke="#6C3FC5" stroke-width="2.04167" stroke-linecap="round" stroke-linejoin="round"/>
<path d="M20.5 22.8333L24 26.3333L35.6667 14.6666" stroke="#6C3FC5" stroke-width="2.04167" stroke-linecap="round" stroke-linejoin="round"/>
</svg>
