<svg width="48" height="48" viewBox="0 0 48 48" fill="none" xmlns="http://www.w3.org/2000/svg">
<rect width="48" height="48" rx="24" fill="#EEECFB"/>
<path d="M28.0562 25.0383L29.8237 34.9853C29.8435 35.1025 29.8271 35.2228 29.7766 35.3304C29.7261 35.4379 29.644 35.5275 29.5413 35.5871C29.4386 35.6467 29.3201 35.6735 29.2016 35.664C29.0832 35.6544 28.9706 35.609 28.8787 35.5337L24.702 32.3988C24.5004 32.2482 24.2555 32.1668 24.0038 32.1668C23.7521 32.1668 23.5072 32.2482 23.3055 32.3988L19.1219 35.5325C19.0301 35.6077 18.9175 35.6531 18.7993 35.6626C18.681 35.6722 18.5627 35.6455 18.46 35.586C18.3573 35.5266 18.2752 35.4372 18.2246 35.3299C18.174 35.2226 18.1574 35.1024 18.1769 34.9853L19.9432 25.0383" stroke="#6C3FC5" stroke-width="2.04167" stroke-linecap="round" stroke-linejoin="round"/>
<path d="M24 26.3334C27.866 26.3334 31 23.1994 31 19.3334C31 15.4674 27.866 12.3334 24 12.3334C20.134 12.3334 17 15.4674 17 19.3334C17 23.1994 20.134 26.3334 24 26.3334Z" stroke="#6C3FC5" stroke-width="2.04167" stroke-linecap="round" stroke-linejoin="round"/>
</svg>
