<svg width="48" height="48" viewBox="0 0 48 48" fill="none" xmlns="http://www.w3.org/2000/svg">
<path d="M0 24C0 10.7452 10.7452 0 24 0C37.2548 0 48 10.7452 48 24C48 37.2548 37.2548 48 24 48C10.7452 48 0 37.2548 0 24Z" fill="#6A5AE0" fill-opacity="0.06"/>
<path d="M27.5002 12.3334H20.5002C19.8558 12.3334 19.3335 12.8557 19.3335 13.5V15.8334C19.3335 16.4777 19.8558 17 20.5002 17H27.5002C28.1445 17 28.6668 16.4777 28.6668 15.8334V13.5C28.6668 12.8557 28.1445 12.3334 27.5002 12.3334Z" stroke="#6C3FC5" stroke-width="2.04167" stroke-linecap="round" stroke-linejoin="round"/>
<path d="M28.6665 14.6666H30.9998C31.6187 14.6666 32.2122 14.9125 32.6498 15.35C33.0873 15.7876 33.3332 16.3811 33.3332 17V33.3333C33.3332 33.9521 33.0873 34.5456 32.6498 34.9832C32.2122 35.4208 31.6187 35.6666 30.9998 35.6666H16.9998C16.381 35.6666 15.7875 35.4208 15.3499 34.9832C14.9123 34.5456 14.6665 33.9521 14.6665 33.3333V17C14.6665 16.3811 14.9123 15.7876 15.3499 15.35C15.7875 14.9125 16.381 14.6666 16.9998 14.6666H19.3332" stroke="#6C3FC5" stroke-width="2.04167" stroke-linecap="round" stroke-linejoin="round"/>
<path d="M20.5 26.3333L22.8333 28.6667L27.5 24" stroke="#6C3FC5" stroke-width="2.04167" stroke-linecap="round" stroke-linejoin="round"/>
</svg>
