<svg width="48" height="48" viewBox="0 0 48 48" fill="none" xmlns="http://www.w3.org/2000/svg">
<rect width="48" height="48" rx="24" fill="#EEECFB"/>
<path d="M27.5 34.5V25.1667C27.5 24.8572 27.3771 24.5605 27.1583 24.3417C26.9395 24.1229 26.6428 24 26.3333 24H21.6667C21.3572 24 21.0605 24.1229 20.8417 24.3417C20.6229 24.5605 20.5 24.8572 20.5 25.1667V34.5" stroke="#6C3FC5" stroke-width="2.04167" stroke-linecap="round" stroke-linejoin="round"/>
<path d="M13.5 21.6667C13.4999 21.3273 13.5739 20.9919 13.7168 20.684C13.8596 20.3762 14.0679 20.1031 14.3272 19.884L22.4938 12.8852C22.915 12.5293 23.4486 12.334 24 12.334C24.5514 12.334 25.085 12.5293 25.5062 12.8852L33.6728 19.884C33.9321 20.1031 34.1404 20.3762 34.2832 20.684C34.4261 20.9919 34.5001 21.3273 34.5 21.6667V32.1667C34.5 32.7855 34.2542 33.379 33.8166 33.8166C33.379 34.2542 32.7855 34.5 32.1667 34.5H15.8333C15.2145 34.5 14.621 34.2542 14.1834 33.8166C13.7458 33.379 13.5 32.7855 13.5 32.1667V21.6667Z" stroke="#6C3FC5" stroke-width="2.04167" stroke-linecap="round" stroke-linejoin="round"/>
</svg>
