<svg width="48" height="48" viewBox="0 0 48 48" fill="none" xmlns="http://www.w3.org/2000/svg">
<rect width="48" height="48" rx="24" fill="#EEECFB"/>
<path d="M22.833 29.8333L25.1663 32.1666C25.3962 32.3964 25.669 32.5787 25.9692 32.7031C26.2695 32.8275 26.5913 32.8915 26.9163 32.8915C27.2413 32.8915 27.5632 32.8275 27.8634 32.7031C28.1637 32.5787 28.4365 32.3964 28.6663 32.1666C28.8962 31.9368 29.0785 31.664 29.2028 31.3637C29.3272 31.0635 29.3912 30.7416 29.3912 30.4166C29.3912 30.0916 29.3272 29.7698 29.2028 29.4695C29.0785 29.1693 28.8962 28.8964 28.6663 28.6666" stroke="#6C3FC5" stroke-width="2.04167" stroke-linecap="round" stroke-linejoin="round"/>
<path d="M26.3336 26.3333L29.2503 29.25C29.7144 29.7141 30.3439 29.9749 31.0003 29.9749C31.6566 29.9749 32.2861 29.7141 32.7503 29.25C33.2144 28.7858 33.4751 28.1564 33.4751 27.5C33.4751 26.8436 33.2144 26.2141 32.7503 25.75L28.2236 21.2233C27.5673 20.5679 26.6778 20.1997 25.7503 20.1997C24.8228 20.1997 23.9332 20.5679 23.2769 21.2233L22.2503 22.25C21.7861 22.7141 21.1566 22.9749 20.5003 22.9749C19.8439 22.9749 19.2144 22.7141 18.7503 22.25C18.2861 21.7858 18.0254 21.1564 18.0254 20.5C18.0254 19.8436 18.2861 19.2141 18.7503 18.75L22.0286 15.4716C23.0929 14.4101 24.4808 13.734 25.9727 13.5501C27.4646 13.3663 28.9751 13.6853 30.2653 14.4566L30.8136 14.7833C31.3104 15.0831 31.901 15.1871 32.4703 15.075L34.5003 14.6666" stroke="#6C3FC5" stroke-width="2.04167" stroke-linecap="round" stroke-linejoin="round"/>
<path d="M34.4997 13.5L35.6663 26.3333H33.333" stroke="#6C3FC5" stroke-width="2.04167" stroke-linecap="round" stroke-linejoin="round"/>
<path d="M13.4997 13.5L12.333 26.3333L19.9163 33.9167C20.3805 34.3808 21.01 34.6415 21.6663 34.6415C22.3227 34.6415 22.9522 34.3808 23.4163 33.9167C23.8805 33.4525 24.1412 32.823 24.1412 32.1667C24.1412 31.5103 23.8805 30.8808 23.4163 30.4167" stroke="#6C3FC5" stroke-width="2.04167" stroke-linecap="round" stroke-linejoin="round"/>
<path d="M13.5 14.6666H22.8333" stroke="#6C3FC5" stroke-width="2.04167" stroke-linecap="round" stroke-linejoin="round"/>
</svg>
