<svg width="40" height="40" viewBox="0 0 40 40" fill="none" xmlns="http://www.w3.org/2000/svg">
<rect width="40" height="40" rx="20" fill="#EDE8FA"/>
<g clip-path="url(#clip0_1437_4425)">
<path d="M18.3335 20.8332C18.6914 21.3117 19.148 21.7075 19.6723 21.994C20.1966 22.2805 20.7764 22.4508 21.3724 22.4935C21.9683 22.5362 22.5665 22.4502 23.1263 22.2414C23.6861 22.0326 24.1944 21.7058 24.6168 21.2832L27.1168 18.7832C27.8758 17.9974 28.2958 16.9449 28.2863 15.8524C28.2768 14.7599 27.8386 13.7148 27.0661 12.9423C26.2935 12.1698 25.2485 11.7316 24.156 11.7221C23.0635 11.7126 22.011 12.1326 21.2252 12.8916L19.7918 14.3166" stroke="#6C3FC5" stroke-width="1.45833" stroke-linecap="round" stroke-linejoin="round"/>
<path d="M21.6668 19.1668C21.309 18.6883 20.8524 18.2925 20.328 18.006C19.8037 17.7195 19.2239 17.5492 18.628 17.5065C18.032 17.4638 17.4338 17.5498 16.874 17.7586C16.3142 17.9674 15.8059 18.2942 15.3835 18.7168L12.8835 21.2168C12.1245 22.0026 11.7045 23.0551 11.714 24.1476C11.7235 25.2401 12.1617 26.2851 12.9343 27.0577C13.7068 27.8302 14.7518 28.2684 15.8443 28.2779C16.9368 28.2874 17.9893 27.8674 18.7752 27.1084L20.2002 25.6834" stroke="#6C3FC5" stroke-width="1.45833" stroke-linecap="round" stroke-linejoin="round"/>
</g>
<defs>
<clipPath id="clip0_1437_4425">
<rect width="20" height="20" fill="white" transform="translate(10 10)"/>
</clipPath>
</defs>
</svg>
