<svg width="48" height="48" viewBox="0 0 48 48" fill="none" xmlns="http://www.w3.org/2000/svg">
<rect width="48" height="48" rx="24" fill="#EEECFB"/>
<path d="M28.6663 33.3334V14.6667C28.6663 14.0479 28.4205 13.4544 27.9829 13.0168C27.5453 12.5792 26.9518 12.3334 26.333 12.3334H21.6663C21.0475 12.3334 20.454 12.5792 20.0164 13.0168C19.5788 13.4544 19.333 14.0479 19.333 14.6667V33.3334" stroke="#6C3FC5" stroke-width="2.04167" stroke-linecap="round" stroke-linejoin="round"/>
<path d="M33.333 17H14.6663C13.3777 17 12.333 18.0447 12.333 19.3333V31C12.333 32.2887 13.3777 33.3333 14.6663 33.3333H33.333C34.6217 33.3333 35.6663 32.2887 35.6663 31V19.3333C35.6663 18.0447 34.6217 17 33.333 17Z" stroke="#6C3FC5" stroke-width="2.04167" stroke-linecap="round" stroke-linejoin="round"/>
</svg>
