<svg width="48" height="48" viewBox="0 0 48 48" fill="none" xmlns="http://www.w3.org/2000/svg">
<path d="M0 24C0 10.7452 10.7452 0 24 0C37.2548 0 48 10.7452 48 24C48 37.2548 37.2548 48 24 48C10.7452 48 0 37.2548 0 24Z" fill="#6A5AE0" fill-opacity="0.06"/>
<path d="M12.3335 17C13.0335 17.5834 13.7335 18.1667 15.2502 18.1667C18.1668 18.1667 18.1668 15.8334 21.0835 15.8334C24.1168 15.8334 23.8835 18.1667 26.9168 18.1667C29.8335 18.1667 29.8335 15.8334 32.7502 15.8334C34.2668 15.8334 34.9668 16.4167 35.6668 17" stroke="#6C3FC5" stroke-width="2.04167" stroke-linecap="round" stroke-linejoin="round"/>
<path d="M12.3335 24C13.0335 24.5834 13.7335 25.1667 15.2502 25.1667C18.1668 25.1667 18.1668 22.8334 21.0835 22.8334C24.1168 22.8334 23.8835 25.1667 26.9168 25.1667C29.8335 25.1667 29.8335 22.8334 32.7502 22.8334C34.2668 22.8334 34.9668 23.4167 35.6668 24" stroke="#6C3FC5" stroke-width="2.04167" stroke-linecap="round" stroke-linejoin="round"/>
<path d="M12.3335 31C13.0335 31.5834 13.7335 32.1667 15.2502 32.1667C18.1668 32.1667 18.1668 29.8334 21.0835 29.8334C24.1168 29.8334 23.8835 32.1667 26.9168 32.1667C29.8335 32.1667 29.8335 29.8334 32.7502 29.8334C34.2668 29.8334 34.9668 30.4167 35.6668 31" stroke="#6C3FC5" stroke-width="2.04167" stroke-linecap="round" stroke-linejoin="round"/>
</svg>
