<svg width="40" height="40" viewBox="0 0 40 40" fill="none" xmlns="http://www.w3.org/2000/svg">
<rect width="40" height="40" rx="20" fill="#EDE8FA"/>
<path d="M23.3337 27.5V25.8333C23.3337 24.9493 22.9825 24.1014 22.3573 23.4763C21.7322 22.8512 20.8844 22.5 20.0003 22.5H15.0003C14.1163 22.5 13.2684 22.8512 12.6433 23.4763C12.0182 24.1014 11.667 24.9493 11.667 25.8333V27.5" stroke="#6C3FC5" stroke-width="1.45833" stroke-linecap="round" stroke-linejoin="round"/>
<path d="M17.5003 19.1667C19.3413 19.1667 20.8337 17.6743 20.8337 15.8333C20.8337 13.9924 19.3413 12.5 17.5003 12.5C15.6594 12.5 14.167 13.9924 14.167 15.8333C14.167 17.6743 15.6594 19.1667 17.5003 19.1667Z" stroke="#6C3FC5" stroke-width="1.45833" stroke-linecap="round" stroke-linejoin="round"/>
<path d="M23.333 19.1667L24.9997 20.8333L28.333 17.5" stroke="#6C3FC5" stroke-width="1.45833" stroke-linecap="round" stroke-linejoin="round"/>
</svg>
