<svg width="48" height="48" viewBox="0 0 48 48" fill="none" xmlns="http://www.w3.org/2000/svg">
<path d="M0 24C0 10.7452 10.7452 0 24 0C37.2548 0 48 10.7452 48 24C48 37.2548 37.2548 48 24 48C10.7452 48 0 37.2548 0 24Z" fill="#6A5AE0" fill-opacity="0.06"/>
<path d="M24 12.3334C23.0717 12.3334 22.1815 12.7021 21.5251 13.3585C20.8687 14.0149 20.5 14.9051 20.5 15.8334V24C20.5 24.9283 20.8687 25.8185 21.5251 26.4749C22.1815 27.1313 23.0717 27.5 24 27.5C24.9283 27.5 25.8185 27.1313 26.4749 26.4749C27.1313 25.8185 27.5 24.9283 27.5 24V15.8334C27.5 14.9051 27.1313 14.0149 26.4749 13.3585C25.8185 12.7021 24.9283 12.3334 24 12.3334Z" stroke="#6C3FC5" stroke-width="2.04167" stroke-linecap="round" stroke-linejoin="round"/>
<path d="M32.1668 21.6666V24C32.1668 26.1659 31.3064 28.2431 29.7749 29.7747C28.2433 31.3062 26.1661 32.1666 24.0002 32.1666C21.8342 32.1666 19.757 31.3062 18.2255 29.7747C16.6939 28.2431 15.8335 26.1659 15.8335 24V21.6666" stroke="#6C3FC5" stroke-width="2.04167" stroke-linecap="round" stroke-linejoin="round"/>
<path d="M24 32.1666V35.6666" stroke="#6C3FC5" stroke-width="2.04167" stroke-linecap="round" stroke-linejoin="round"/>
</svg>
