<svg width="48" height="48" viewBox="0 0 48 48" fill="none" xmlns="http://www.w3.org/2000/svg">
<path d="M0 24C0 10.7452 10.7452 0 24 0C37.2548 0 48 10.7452 48 24C48 37.2548 37.2548 48 24 48C10.7452 48 0 37.2548 0 24Z" fill="#6A5AE0" fill-opacity="0.06"/>
<path d="M17 19.9167C17 17.9055 17.799 15.9766 19.2211 14.5545C20.6433 13.1323 22.5721 12.3334 24.5833 12.3334C26.5946 12.3334 28.5234 13.1323 29.9456 14.5545C31.3677 15.9766 32.1667 17.9055 32.1667 19.9167C32.1667 26.9167 25.1667 26.9167 25.1667 31.5834C25.1667 32.1196 25.061 32.6506 24.8558 33.146C24.6506 33.6414 24.3499 34.0916 23.9707 34.4707C23.5915 34.8499 23.1414 35.1507 22.646 35.3559C22.1505 35.5611 21.6196 35.6667 21.0833 35.6667C20.5471 35.6667 20.0161 35.5611 19.5207 35.3559C19.0253 35.1507 18.5752 34.8499 18.196 34.4707C17.8168 34.0916 17.516 33.6414 17.3108 33.146C17.1056 32.6506 17 32.1196 17 31.5834" stroke="#6C3FC5" stroke-width="2.04167" stroke-linecap="round" stroke-linejoin="round"/>
<path d="M27.4998 19.9167C27.4998 19.1431 27.1925 18.4013 26.6456 17.8543C26.0986 17.3073 25.3567 17 24.5832 17C23.8096 17 23.0678 17.3073 22.5208 17.8543C21.9738 18.4013 21.6665 19.1431 21.6665 19.9167V21.0833C22.2853 21.0833 22.8788 21.3292 23.3164 21.7668C23.754 22.2043 23.9998 22.7978 23.9998 23.4167C23.9998 24.0355 23.754 24.629 23.3164 25.0666C22.8788 25.5042 22.2853 25.75 21.6665 25.75" stroke="#6C3FC5" stroke-width="2.04167" stroke-linecap="round" stroke-linejoin="round"/>
</svg>
