<svg width="48" height="48" viewBox="0 0 48 48" fill="none" xmlns="http://www.w3.org/2000/svg">
<path d="M0 24C0 10.7452 10.7452 0 24 0C37.2548 0 48 10.7452 48 24C48 37.2548 37.2548 48 24 48C10.7452 48 0 37.2548 0 24Z" fill="#6A5AE0" fill-opacity="0.06"/>
<path d="M24.0001 15.8333C24.0015 15.3667 23.9096 14.9045 23.7297 14.4739C23.5498 14.0433 23.2857 13.6531 22.9528 13.3261C22.6199 12.9991 22.225 12.742 21.7912 12.5698C21.3575 12.3977 20.8937 12.314 20.4272 12.3238C19.9607 12.3335 19.5008 12.4364 19.0746 12.6265C18.6484 12.8165 18.2646 13.0899 17.9456 13.4304C17.6266 13.771 17.379 14.172 17.2172 14.6097C17.0554 15.0474 16.9828 15.513 17.0036 15.9791C16.3179 16.1555 15.6812 16.4855 15.1419 16.9443C14.6026 17.4031 14.1747 17.9787 13.8908 18.6273C13.6068 19.2759 13.4742 19.9807 13.5029 20.6882C13.5316 21.3957 13.721 22.0873 14.0566 22.7108C13.4665 23.1902 13.0025 23.8066 12.7049 24.5062C12.4073 25.2059 12.2851 25.9677 12.3491 26.7253C12.413 27.4829 12.6611 28.2135 13.0717 28.8533C13.4824 29.4932 14.0432 30.0231 14.7053 30.3968C14.6235 31.0294 14.6723 31.6721 14.8487 32.2851C15.025 32.8981 15.3251 33.4685 15.7305 33.9609C16.1359 34.4534 16.638 34.8575 17.2057 35.1484C17.7734 35.4392 18.3947 35.6106 19.0313 35.6519C19.6678 35.6932 20.306 35.6035 20.9066 35.3885C21.5071 35.1735 22.0572 34.8376 22.5228 34.4017C22.9885 33.9657 23.3598 33.439 23.6139 32.8539C23.868 32.2688 23.9994 31.6378 24.0001 31V15.8333Z" stroke="#6C3FC5" stroke-width="2.04167" stroke-linecap="round" stroke-linejoin="round"/>
<path d="M24 15.8333C23.9986 15.3667 24.0906 14.9045 24.2705 14.4739C24.4503 14.0433 24.7145 13.6531 25.0474 13.3261C25.3803 12.9991 25.7752 12.742 26.2089 12.5698C26.6426 12.3977 27.1064 12.314 27.5729 12.3238C28.0395 12.3335 28.4993 12.4364 28.9255 12.6265C29.3517 12.8165 29.7356 13.0899 30.0545 13.4304C30.3735 13.771 30.6212 14.172 30.783 14.6097C30.9447 15.0474 31.0173 15.513 30.9965 15.9791C31.6823 16.1555 32.3189 16.4855 32.8582 16.9443C33.3976 17.4031 33.8254 17.9787 34.1094 18.6273C34.3933 19.2759 34.526 19.9807 34.4972 20.6882C34.4685 21.3957 34.2791 22.0873 33.9435 22.7108C34.5336 23.1902 34.9977 23.8066 35.2953 24.5062C35.5929 25.2059 35.715 25.9677 35.6511 26.7253C35.5872 27.4829 35.3391 28.2135 34.9284 28.8533C34.5178 29.4932 33.957 30.0231 33.2948 30.3968C33.3766 31.0294 33.3278 31.6721 33.1515 32.2851C32.9751 32.8981 32.675 33.4685 32.2696 33.9609C31.8642 34.4534 31.3621 34.8575 30.7944 35.1484C30.2267 35.4392 29.6054 35.6106 28.9689 35.6519C28.3323 35.6932 27.6941 35.6035 27.0936 35.3885C26.493 35.1735 25.9429 34.8376 25.4773 34.4017C25.0116 33.9657 24.6403 33.439 24.3862 32.8539C24.1321 32.2688 24.0007 31.6378 24 31V15.8333Z" stroke="#6C3FC5" stroke-width="2.04167" stroke-linecap="round" stroke-linejoin="round"/>
<path d="M27.5 25.1667C26.5205 24.8221 25.6652 24.1948 25.0422 23.3642C24.4192 22.5335 24.0565 21.5368 24 20.5C23.9435 21.5368 23.5808 22.5335 22.9578 23.3642C22.3348 24.1948 21.4795 24.8221 20.5 25.1667" stroke="#6C3FC5" stroke-width="2.04167" stroke-linecap="round" stroke-linejoin="round"/>
<path d="M30.5322 17.5833C30.8146 17.094 30.9743 16.5436 30.9977 15.9791" stroke="#6C3FC5" stroke-width="2.04167" stroke-linecap="round" stroke-linejoin="round"/>
<path d="M17.0034 15.9791C17.0265 16.5435 17.1858 17.0939 17.4678 17.5833" stroke="#6C3FC5" stroke-width="2.04167" stroke-linecap="round" stroke-linejoin="round"/>
<path d="M14.0566 22.712C14.2701 22.5382 14.4985 22.3836 14.7391 22.25" stroke="#6C3FC5" stroke-width="2.04167" stroke-linecap="round" stroke-linejoin="round"/>
<path d="M33.2612 22.25C33.5019 22.3836 33.7303 22.5382 33.9437 22.712" stroke="#6C3FC5" stroke-width="2.04167" stroke-linecap="round" stroke-linejoin="round"/>
<path d="M16.9999 31C16.1959 31.0003 15.4054 30.793 14.7051 30.3979" stroke="#6C3FC5" stroke-width="2.04167" stroke-linecap="round" stroke-linejoin="round"/>
<path d="M33.2948 30.3979C32.5945 30.793 31.804 31.0003 31 31" stroke="#6C3FC5" stroke-width="2.04167" stroke-linecap="round" stroke-linejoin="round"/>
</svg>
