<svg width="48" height="48" viewBox="0 0 48 48" fill="none" xmlns="http://www.w3.org/2000/svg">
<path d="M0 24C0 10.7452 10.7452 0 24 0C37.2548 0 48 10.7452 48 24C48 37.2548 37.2548 48 24 48C10.7452 48 0 37.2548 0 24Z" fill="#6A5AE0" fill-opacity="0.06"/>
<path d="M27.4998 12.3334H16.9998C16.381 12.3334 15.7875 12.5792 15.3499 13.0168C14.9123 13.4544 14.6665 14.0479 14.6665 14.6667V33.3334C14.6665 33.9522 14.9123 34.5457 15.3499 34.9833C15.7875 35.4209 16.381 35.6667 16.9998 35.6667H30.9998C31.6187 35.6667 32.2122 35.4209 32.6498 34.9833C33.0873 34.5457 33.3332 33.9522 33.3332 33.3334V18.1667L27.4998 12.3334Z" stroke="#6C3FC5" stroke-width="2.04167" stroke-linecap="round" stroke-linejoin="round"/>
<path d="M26.3335 12.3334V17C26.3335 17.6189 26.5793 18.2124 27.0169 18.65C27.4545 19.0875 28.048 19.3334 28.6668 19.3334H33.3335" stroke="#6C3FC5" stroke-width="2.04167" stroke-linecap="round" stroke-linejoin="round"/>
<path d="M21.6668 20.5H19.3335" stroke="#6C3FC5" stroke-width="2.04167" stroke-linecap="round" stroke-linejoin="round"/>
<path d="M28.6668 25.1666H19.3335" stroke="#6C3FC5" stroke-width="2.04167" stroke-linecap="round" stroke-linejoin="round"/>
<path d="M28.6668 29.8334H19.3335" stroke="#6C3FC5" stroke-width="2.04167" stroke-linecap="round" stroke-linejoin="round"/>
</svg>
