<svg width="48" height="48" viewBox="0 0 48 48" fill="none" xmlns="http://www.w3.org/2000/svg">
<rect width="48" height="48" rx="24" fill="#EEECFB"/>
<path d="M24.0002 35.6667C30.4435 35.6667 35.6668 30.4434 35.6668 24C35.6668 17.5567 30.4435 12.3334 24.0002 12.3334C17.5568 12.3334 12.3335 17.5567 12.3335 24C12.3335 30.4434 17.5568 35.6667 24.0002 35.6667Z" stroke="#6C3FC5" stroke-width="2.04167" stroke-linecap="round" stroke-linejoin="round"/>
<path d="M24 31C27.866 31 31 27.866 31 24C31 20.134 27.866 17 24 17C20.134 17 17 20.134 17 24C17 27.866 20.134 31 24 31Z" stroke="#6C3FC5" stroke-width="2.04167" stroke-linecap="round" stroke-linejoin="round"/>
<path d="M23.9998 26.3333C25.2885 26.3333 26.3332 25.2886 26.3332 24C26.3332 22.7113 25.2885 21.6666 23.9998 21.6666C22.7112 21.6666 21.6665 22.7113 21.6665 24C21.6665 25.2886 22.7112 26.3333 23.9998 26.3333Z" stroke="#6C3FC5" stroke-width="2.04167" stroke-linecap="round" stroke-linejoin="round"/>
</svg>
