<svg width="48" height="48" viewBox="0 0 48 48" fill="none" xmlns="http://www.w3.org/2000/svg">
<rect width="48" height="48" rx="24" fill="#EEECFB"/>
<path d="M24.2567 12.3334H23.7433C23.1245 12.3334 22.531 12.5792 22.0934 13.0168C21.6558 13.4544 21.41 14.0479 21.41 14.6667V14.8767C21.4096 15.2859 21.3016 15.6878 21.0968 16.042C20.892 16.3963 20.5977 16.6905 20.2433 16.895L19.7417 17.1867C19.387 17.3915 18.9846 17.4993 18.575 17.4993C18.1654 17.4993 17.763 17.3915 17.4083 17.1867L17.2333 17.0934C16.6979 16.7845 16.0618 16.7007 15.4647 16.8604C14.8675 17.0201 14.3581 17.4102 14.0483 17.945L13.7917 18.3884C13.4828 18.9238 13.399 19.5599 13.5587 20.157C13.7184 20.7542 14.1085 21.2636 14.6433 21.5734L14.8183 21.69C15.171 21.8936 15.4642 22.186 15.6689 22.538C15.8736 22.89 15.9825 23.2895 15.985 23.6967V24.2917C15.9866 24.7029 15.8796 25.1072 15.6747 25.4636C15.4698 25.8201 15.1744 26.1161 14.8183 26.3217L14.6433 26.4267C14.1085 26.7365 13.7184 27.2459 13.5587 27.843C13.399 28.4402 13.4828 29.0763 13.7917 29.6117L14.0483 30.055C14.3581 30.5899 14.8675 30.98 15.4647 31.1397C16.0618 31.2994 16.6979 31.2156 17.2333 30.9067L17.4083 30.8134C17.763 30.6086 18.1654 30.5008 18.575 30.5008C18.9846 30.5008 19.387 30.6086 19.7417 30.8134L20.2433 31.105C20.5977 31.3096 20.892 31.6038 21.0968 31.9581C21.3016 32.3123 21.4096 32.7142 21.41 33.1234V33.3334C21.41 33.9522 21.6558 34.5457 22.0934 34.9833C22.531 35.4209 23.1245 35.6667 23.7433 35.6667H24.2567C24.8755 35.6667 25.469 35.4209 25.9066 34.9833C26.3442 34.5457 26.59 33.9522 26.59 33.3334V33.1234C26.5904 32.7142 26.6984 32.3123 26.9032 31.9581C27.108 31.6038 27.4023 31.3096 27.7567 31.105L28.2583 30.8134C28.613 30.6086 29.0154 30.5008 29.425 30.5008C29.8346 30.5008 30.237 30.6086 30.5917 30.8134L30.7667 30.9067C31.3021 31.2156 31.9382 31.2994 32.5353 31.1397C33.1325 30.98 33.6419 30.5899 33.9517 30.055L34.2083 29.6C34.5172 29.0646 34.601 28.4285 34.4413 27.8314C34.2816 27.2342 33.8915 26.7248 33.3567 26.415L33.1817 26.3217C32.8256 26.1161 32.5302 25.8201 32.3253 25.4636C32.1204 25.1072 32.0134 24.7029 32.015 24.2917V23.7084C32.0134 23.2972 32.1204 22.8929 32.3253 22.5364C32.5302 22.18 32.8256 21.884 33.1817 21.6784L33.3567 21.5734C33.8915 21.2636 34.2816 20.7542 34.4413 20.157C34.601 19.5599 34.5172 18.9238 34.2083 18.3884L33.9517 17.945C33.6419 17.4102 33.1325 17.0201 32.5353 16.8604C31.9382 16.7007 31.3021 16.7845 30.7667 17.0934L30.5917 17.1867C30.237 17.3915 29.8346 17.4993 29.425 17.4993C29.0154 17.4993 28.613 17.3915 28.2583 17.1867L27.7567 16.895C27.4023 16.6905 27.108 16.3963 26.9032 16.042C26.6984 15.6878 26.5904 15.2859 26.59 14.8767V14.6667C26.59 14.0479 26.3442 13.4544 25.9066 13.0168C25.469 12.5792 24.8755 12.3334 24.2567 12.3334Z" stroke="#6C3FC5" stroke-width="2.04167" stroke-linecap="round" stroke-linejoin="round"/>
<path d="M24 27.5C25.933 27.5 27.5 25.933 27.5 24C27.5 22.067 25.933 20.5 24 20.5C22.067 20.5 20.5 22.067 20.5 24C20.5 25.933 22.067 27.5 24 27.5Z" stroke="#6C3FC5" stroke-width="2.04167" stroke-linecap="round" stroke-linejoin="round"/>
</svg>
