<svg width="160" height="160" viewBox="0 0 160 160" fill="none" xmlns="http://www.w3.org/2000/svg">
<g clip-path="url(#clip0_1361_768)">
<path d="M80.0003 34.3757L83.6006 39.2204L80.0003 43.7504C69.3331 43.7504 60.6569 52.441 60.6569 63.1251V70.547C60.6569 73.1376 58.5603 75.2345 55.9769 75.2345C53.3934 75.2345 51.2969 73.1376 51.2969 70.547V63.1251C51.2969 47.2723 64.1728 34.3757 80.0003 34.3757Z" fill="#3BCC2E"/>
<path d="M108.703 63.1254V70.5473C108.703 73.1379 106.607 75.2348 104.023 75.2348C101.44 75.2348 99.3434 73.1379 99.3434 70.5473V63.1254C99.3434 52.441 90.6669 43.7507 80 43.7507V34.3757C95.8275 34.3757 108.703 47.2723 108.703 63.1254Z" fill="#3BCC2E"/>
<path d="M79.9998 65.8597L96.7704 98.6969L79.9998 121.25H56.881C49.7895 121.25 44.0176 115.468 44.0176 108.362V78.7469C44.0176 71.6406 49.7895 65.8594 56.881 65.8594H79.9998V65.8597Z" fill="#3BCC2E"/>
<path d="M115.982 78.7468V108.362C115.982 115.468 110.21 121.25 103.119 121.25H80V65.8596H103.119C110.21 65.8596 115.982 71.6406 115.982 78.7468Z" fill="#3BCC2E"/>
<path d="M73.0003 12.0372C72.9887 10.4494 72.0994 8.92125 70.7428 8.10656L58.4438 0.674688C56.2303 -0.662812 53.3541 0.0500007 52.0191 2.26688C50.6841 4.48375 51.3956 7.36469 53.6087 8.70188L56.3434 10.3544C43.9003 14.6022 32.7009 22.1781 24.0656 32.335C12.7788 45.6113 6.5625 62.5391 6.5625 80C6.5625 97.4609 12.7788 114.389 24.0659 127.665C35.2244 140.79 50.6625 149.61 67.5366 152.5C67.8038 152.546 68.0691 152.568 68.3313 152.568C70.5694 152.568 72.5484 150.954 72.9384 148.67C73.3741 146.118 71.6622 143.696 69.1147 143.259C54.3991 140.738 40.9313 133.042 31.1922 121.587C21.345 110.005 15.9222 95.2359 15.9222 80C15.9222 64.7641 21.345 49.995 31.1919 38.4131C38.6138 29.6834 48.2022 23.14 58.8572 19.4031L57.1975 22.3541C55.9287 24.6097 56.7256 27.4681 58.9775 28.7387C59.6768 29.1348 60.4667 29.343 61.2703 29.3431C62.905 29.3431 64.4922 28.4838 65.3519 26.9556L72.3859 14.4503C72.7953 13.7172 73.0256 12.8791 73.0003 12.0372Z" fill="#3BCC2E"/>
<path d="M135.934 32.3351C124.776 19.2104 109.338 10.3904 92.4637 7.50009C89.9153 7.06415 87.4975 8.77853 87.0619 11.3301C86.6262 13.882 88.3381 16.3042 90.8856 16.7407C105.601 19.2617 119.069 26.9582 128.808 38.4132C138.655 49.9951 144.078 64.7645 144.078 80.0001C144.078 95.2357 138.655 110.005 128.808 121.587C121.386 130.317 111.798 136.86 101.143 140.597L102.802 137.646C104.071 135.39 103.274 132.532 101.022 131.261C98.7706 129.991 95.9169 130.789 94.6481 133.044L87.614 145.55C86.3484 147.679 87.1165 150.65 89.2575 151.894L101.557 159.325C102.284 159.767 103.119 160 103.97 160C104.777 160.001 105.571 159.792 106.274 159.395C106.977 158.998 107.565 158.425 107.981 157.733C109.316 155.516 108.605 152.635 106.392 151.298L103.657 149.646C116.1 145.398 127.299 137.822 135.935 127.665C147.222 114.389 153.438 97.4613 153.438 80.0001C153.438 62.5388 147.222 45.6113 135.934 32.3351Z" fill="#3BCC2E"/>
<path d="M80.0003 85.625L83.0591 93.0347L80.0003 101.484C77.4169 101.484 75.3203 99.3872 75.3203 96.7966V90.3125C75.3203 87.725 77.4169 85.625 80.0003 85.625Z" fill="white"/>
<path d="M84.68 90.3125V96.7969C84.68 99.3875 82.5834 101.484 80 101.484V85.625C82.5834 85.625 84.68 87.725 84.68 90.3125Z" fill="white"/>
</g>
<defs>
<clipPath id="clip0_1361_768">
<rect width="160" height="160" fill="white"/>
</clipPath>
</defs>
</svg>
