<svg width="48" height="64" viewBox="0 0 48 64" fill="none" xmlns="http://www.w3.org/2000/svg">
<path fill-rule="evenodd" clip-rule="evenodd" d="M3.26038 55.0508C5.1873 50.5346 8.21017 40.2737 4.88622 35.3601C0.731284 29.218 -2.43008 19.8242 2.53778 10.2498C7.50564 0.675366 19.3382 -1.0408 27.4674 0.494717C35.5966 2.03024 42.1 9.07557 42.371 18.4693C42.371 19.4328 42.1275 20.9011 41.5494 21.7683C41.2784 22.1747 41.5494 22.8522 41.7387 23.2565C41.8356 23.4635 45.1409 28.4653 46.7969 30.9341C47.098 31.5965 47.4653 33.0839 46.5259 33.7342C45.3517 34.5471 44.8098 34.6375 43.8162 34.7278C42.8226 34.8181 42.7323 36.6246 43.2742 38.2505C43.2742 38.6117 43.0213 39.4066 42.0097 39.6956C42.2204 40.1473 42.642 41.0866 42.642 41.2312C42.642 41.4118 41.7387 42.7667 41.4677 43.128C41.1968 43.4893 41.2871 44.8442 41.5581 45.6571C41.829 46.47 41.7387 48.7281 39.9322 49.9023C39.3602 50.2636 37.4393 50.932 34.3321 50.7153L31.0804 50.1733C30.5083 50.1432 29.2558 50.3178 28.8223 51.2572C28.3887 52.1966 27.7384 54.3584 27.4674 55.3218L25.8416 63.2704C16.5343 58.4158 11.4944 56.2939 3.26038 55.0508Z" fill="#C09CF3"/>
</svg>
